<svg height="512pt" viewBox="0 -60 512.00003 512" width="512pt" xmlns="http://www.w3.org/2000/svg" xmlns:xlink="http://www.w3.org/1999/xlink"><linearGradient id="a"><stop offset="0" stop-color="#f2e9dc"/><stop offset=".2282" stop-color="#f0e4d7"/><stop offset=".5158" stop-color="#ead7c7"/><stop offset=".8338" stop-color="#e0c2ad"/><stop offset="1" stop-color="#dab49d"/></linearGradient><linearGradient id="b" gradientUnits="userSpaceOnUse" x1="208.3375075592" x2="293.0406153276" xlink:href="#a" y1="268.047759013" y2="434.2453394456"/><linearGradient id="c" gradientUnits="userSpaceOnUse" x1="252.2844942858" x2="258.3734820002" xlink:href="#a" y1="268.3586736564" y2="363.9551382624"/><linearGradient id="d" gradientUnits="userSpaceOnUse" x1="237.9332285114" x2="287.6821816526" xlink:href="#a" y1="260.31103412" y2="432.4425967102"/><linearGradient id="e" gradientUnits="userSpaceOnUse" x1="382.6841236502" x2="28.622318181" xlink:href="#a" y1="320.5696451104" y2="320.5696451104"/><linearGradient id="f"><stop offset="0" stop-color="#dab49d" stop-opacity="0"/><stop offset=".2386" stop-color="#d6ac90" stop-opacity=".239216"/><stop offset=".6758" stop-color="#ca976f" stop-opacity=".67451"/><stop offset="1" stop-color="#c08552"/></linearGradient><linearGradient id="g" gradientUnits="userSpaceOnUse" x1="283.2417342544" x2="178.323653094" xlink:href="#f" y1="343.5372722342" y2="145.2420968332"/><linearGradient id="h" gradientUnits="userSpaceOnUse" x1="131.3726305668" x2="102.1703466464" xlink:href="#f" y1="353.63060363" y2="307.4666559508"/><linearGradient id="i" gradientUnits="userSpaceOnUse" x1="172.736827164" x2="143.5346436358" xlink:href="#f" y1="354.408141219" y2="308.2441935398"/><linearGradient id="j" gradientUnits="userSpaceOnUse" x1="218.8292955968" x2="189.6271120686" xlink:href="#f" y1="352.1622673128" y2="305.9983196336"/><linearGradient id="k" gradientUnits="userSpaceOnUse" x1="268.2077011278" x2="239.0055175996" xlink:href="#f" y1="353.0691100554" y2="306.9051623762"/><linearGradient id="l"><stop offset="0" stop-color="#acc130"/><stop offset="1" stop-color="#97a03b"/></linearGradient><linearGradient id="m" gradientTransform="matrix(-.684775 .734067 .62986 .587495 724.972022 -956.90676)" gradientUnits="userSpaceOnUse" x1="1286.4495" x2="1370.4962" xlink:href="#l" y1="409.5502" y2="409.5502"/><linearGradient id="n"><stop offset="0" stop-color="#97a03b" stop-opacity="0"/><stop offset="1" stop-color="#575c55"/></linearGradient><linearGradient id="o" gradientTransform="matrix(-.684775 .734067 .62986 .587495 724.972022 -956.90676)" gradientUnits="userSpaceOnUse" x1="1357.417" x2="1319.0164" xlink:href="#n" y1="410.0815" y2="410.0815"/><linearGradient id="p"><stop offset="0" stop-color="#97a03b"/><stop offset="1" stop-color="#6c7d47"/></linearGradient><linearGradient id="q" gradientTransform="matrix(-.684775 .734067 .62986 .587495 724.972022 -956.90676)" gradientUnits="userSpaceOnUse" x1="1310.2013" x2="1342.3041" xlink:href="#p" y1="426.0318" y2="433.6116"/><linearGradient id="r" gradientTransform="matrix(.338623 .945092 .810867 -.290535 -653.503147 -901.671397)" gradientUnits="userSpaceOnUse" x1="1329.5526" x2="1394.386" xlink:href="#l" y1="337.9702" y2="337.9702"/><linearGradient id="s" gradientTransform="matrix(.338623 .945092 .810867 -.290535 -653.503147 -901.671397)" gradientUnits="userSpaceOnUse" x1="1384.2968" x2="1354.6746" xlink:href="#n" y1="338.3801" y2="338.3801"/><linearGradient id="t" gradientTransform="matrix(.338623 .945092 .810867 -.290535 -653.503147 -901.671397)" gradientUnits="userSpaceOnUse" x1="1347.8746" x2="1372.6387" xlink:href="#p" y1="350.6841" y2="356.5312"/><linearGradient id="u" gradientTransform="matrix(.684775 .734067 -.62986 .587495 -563.848935 -956.90676)" gradientUnits="userSpaceOnUse" x1="1523.6602" x2="1607.7069" xlink:href="#l" y1="96.2136" y2="96.2136"/><linearGradient id="v" gradientTransform="matrix(.684775 .734067 -.62986 .587495 -563.848935 -956.90676)" gradientUnits="userSpaceOnUse" x1="1594.6277" x2="1556.2271" xlink:href="#n" y1="96.7449" y2="96.7449"/><linearGradient id="w" gradientTransform="matrix(.684775 .734067 -.62986 .587495 -563.848935 -956.90676)" gradientUnits="userSpaceOnUse" x1="1547.412" x2="1579.5148" xlink:href="#p" y1="112.6952" y2="120.2751"/><linearGradient id="x" gradientTransform="matrix(.938064 .357597 -.357597 .938064 5.185857 -290.585643)" gradientUnits="userSpaceOnUse" x1="540.0256" x2="561.3857" xlink:href="#a" y1="222.7948" y2="245.8302"/><linearGradient id="y"><stop offset="0" stop-color="#dab49d" stop-opacity="0"/><stop offset=".2054" stop-color="#d8b198" stop-opacity=".203922"/><stop offset=".4642" stop-color="#d3a788" stop-opacity=".462745"/><stop offset=".7504" stop-color="#ca976e" stop-opacity=".74902"/><stop offset="1" stop-color="#c08552"/></linearGradient><linearGradient id="z" gradientUnits="userSpaceOnUse" x1="437.471560525" x2="413.0063829538" xlink:href="#y" y1="159.0853780756" y2="136.4666138468"/><linearGradient id="A"><stop offset="0" stop-color="#ffb211"/><stop offset=".4471" stop-color="#ffb012"/><stop offset=".6081" stop-color="#ffa915"/><stop offset=".7229" stop-color="#ff9e1a"/><stop offset=".8157" stop-color="#ff8d21"/><stop offset=".8952" stop-color="#ff772b"/><stop offset=".9643" stop-color="#ff5c37"/><stop offset="1" stop-color="#ff4b3e"/></linearGradient><radialGradient id="B" cx="312.8882" cy="174.9943" gradientTransform="matrix(.916179 -.410403 .410403 .916179 -46.05962 72.814689)" gradientUnits="userSpaceOnUse" r="140.9147" xlink:href="#A"/><radialGradient id="C" cx="180.4283" cy="202.8417" gradientTransform="matrix(1.003922 0 0 .594824 0 22.574639)" gradientUnits="userSpaceOnUse" r="326.7155"><stop offset="0" stop-color="#ffb211"/><stop offset=".2896" stop-color="#ffaf12"/><stop offset=".4734" stop-color="#ffa716"/><stop offset=".6278" stop-color="#ff981c"/><stop offset=".7659" stop-color="#ff8325"/><stop offset=".8918" stop-color="#ff6931"/><stop offset="1" stop-color="#ff4b3e"/></radialGradient><linearGradient id="D"><stop offset="0" stop-color="#ff4b3e" stop-opacity="0"/><stop offset=".1177" stop-color="#f5493b" stop-opacity=".117647"/><stop offset=".3191" stop-color="#da4332" stop-opacity=".317647"/><stop offset=".5796" stop-color="#ad3923" stop-opacity=".580392"/><stop offset=".886" stop-color="#702c0f" stop-opacity=".886275"/><stop offset="1" stop-color="#582707"/></linearGradient><linearGradient id="E" gradientUnits="userSpaceOnUse" x1="450.2487769956" x2="378.3799084674" xlink:href="#D" y1="335.3901440276" y2="267.7180710282"/><linearGradient id="F" gradientTransform="matrix(.938064 .357597 -.357597 .938064 5.185857 -290.585643)" gradientUnits="userSpaceOnUse" x1="582.202" x2="608.986" xlink:href="#a" y1="273.9001" y2="302.7848"/><linearGradient id="G" gradientUnits="userSpaceOnUse" x1="460.1253616316" x2="429.4479147244" xlink:href="#y" y1="234.184466031" y2="205.8223644324"/><radialGradient id="H" cx="279.6563" cy="227.007" gradientTransform="matrix(.916179 -.410403 .410403 .916179 -46.05962 72.814689)" gradientUnits="userSpaceOnUse" r="176.6967" xlink:href="#A"/><linearGradient id="I" gradientUnits="userSpaceOnUse" x1="186.365068314" x2="57.021263717" xlink:href="#D" y1="235.4030265546" y2="85.6995834054"/><linearGradient id="J" gradientUnits="userSpaceOnUse" x1="235.5704980844" x2="58.550236923" xlink:href="#D" y1="353.5719745852" y2="176.551813816"/><radialGradient id="K" cx="140.9399068346" cy="214.584896825" gradientUnits="userSpaceOnUse" r="131.7538197502" xlink:href="#A"/><radialGradient id="L" cx="150.3507" cy="319.6674" gradientTransform="matrix(1.003922 0 0 1.101101 0 -91.471654)" gradientUnits="userSpaceOnUse" r="88.7227"><stop offset="0" stop-color="#582707"/><stop offset=".1704" stop-color="#6f2c0e" stop-opacity=".831373"/><stop offset=".5276" stop-color="#a93822" stop-opacity=".470588"/><stop offset="1" stop-color="#ff4b3e" stop-opacity="0"/></radialGradient><linearGradient id="M"><stop offset="0" stop-color="#ff4b3e"/><stop offset=".3692" stop-color="#fd4a3d"/><stop offset=".5424" stop-color="#f54839"/><stop offset=".6748" stop-color="#e84532"/><stop offset=".7864" stop-color="#d64028"/><stop offset=".885" stop-color="#be391c"/><stop offset=".9729" stop-color="#a2310d"/><stop offset="1" stop-color="#972e07"/></linearGradient><radialGradient id="N" cx="415.0264748022" cy="284.3284624792" gradientUnits="userSpaceOnUse" r="46.33601991" xlink:href="#M"/><linearGradient id="O"><stop offset=".0013" stop-color="#e7eeed" stop-opacity="0"/><stop offset=".7731" stop-color="#f9fbfa" stop-opacity=".772549"/><stop offset="1" stop-color="#fff"/></linearGradient><linearGradient id="P" gradientUnits="userSpaceOnUse" x1="423.2400626452" x2="386.5082633326" xlink:href="#O" y1="297.9250800862" y2="273.1665565066"/><linearGradient id="Q" gradientTransform="matrix(.239034 .975009 -.975009 .239034 779.547106 -1151.91983)" gradientUnits="userSpaceOnUse" x1="1268.1281" x2="1352.1747" xlink:href="#l" y1="765.2095" y2="765.2095"/><linearGradient id="R" gradientTransform="matrix(.239034 .975009 -.975009 .239034 779.547106 -1151.91983)" gradientUnits="userSpaceOnUse" x1="1339.0956" x2="1300.6949" xlink:href="#n" y1="765.7408" y2="765.7408"/><linearGradient id="S" gradientTransform="matrix(.239034 .975009 -.975009 .239034 779.547106 -1151.91983)" gradientUnits="userSpaceOnUse" x1="1291.8798" x2="1323.9827" xlink:href="#p" y1="781.691" y2="789.2709"/><radialGradient id="T" cx="80.862403373" cy="285.1153365428" gradientUnits="userSpaceOnUse" r="46.33601991" xlink:href="#M"/><linearGradient id="U" gradientUnits="userSpaceOnUse" x1="89.075991216" x2="52.3441919034" xlink:href="#O" y1="298.7119541498" y2="273.9534305702"/><radialGradient id="V" cx="127.2886758708" cy="294.0334768454" gradientUnits="userSpaceOnUse" r="46.33601991" xlink:href="#M"/><linearGradient id="W" gradientUnits="userSpaceOnUse" x1="135.5022637138" x2="98.770364009" xlink:href="#O" y1="307.6299940602" y2="282.8714704806"/><radialGradient id="X" cx="177.1246690494" cy="297.7055223448" gradientUnits="userSpaceOnUse" r="46.33601991" xlink:href="#M"/><linearGradient id="Y" gradientUnits="userSpaceOnUse" x1="185.3383572846" x2="148.6064575798" xlink:href="#O" y1="311.3021399518" y2="286.5436163722"/><radialGradient id="Z" cx="226.1738885566" cy="297.9678471634" gradientUnits="userSpaceOnUse" r="46.33601991" xlink:href="#M"/><linearGradient id="aa" gradientUnits="userSpaceOnUse" x1="234.3875767918" x2="197.655677087" xlink:href="#O" y1="311.5644647704" y2="286.8059411908"/><linearGradient id="ab"><stop offset="0" stop-color="#fff" stop-opacity=".501961"/><stop offset=".1617" stop-color="#f4eae1" stop-opacity=".580392"/><stop offset=".741" stop-color="#cfa27b" stop-opacity=".870588"/><stop offset="1" stop-color="#c08552"/></linearGradient><linearGradient id="ac" gradientUnits="userSpaceOnUse" x1="193.704240095" x2="172.6923534194" xlink:href="#ab" y1="122.545829826" y2="-117.9255142858"/><linearGradient id="ad" gradientUnits="userSpaceOnUse" x1="269.7738194478" x2="281.7511108688" xlink:href="#ab" y1="127.8382054334" y2="12.2309651702"/><path d="m393.632812 361.566406c0-16.363281-61.621093-29.628906-137.632812-29.628906s-137.632812 13.265625-137.632812 29.628906c0 16.363282 61.621093 29.628906 137.632812 29.628906s137.632812-13.265624 137.632812-29.628906zm0 0" fill="url(#b)"/><path d="m512 326.691406c0-27.441406-114.613281-49.6875-256-49.6875s-256 22.246094-256 49.6875c0 27.445313 114.613281 49.691406 256 49.691406s256-22.246093 256-49.691406zm0 0" fill="url(#c)"/><path d="m506.878906 322.820312c0-25.304687-112.324218-45.816406-250.878906-45.816406s-250.878906 20.511719-250.878906 45.816406c0 25.308594 112.324218 45.820313 250.878906 45.820313s250.878906-20.511719 250.878906-45.820313zm0 0" fill="url(#d)"/><path d="m434.046875 320.570312c0-16.363281-79.714844-29.628906-178.046875-29.628906s-178.046875 13.265625-178.046875 29.628906c0 16.363282 79.714844 29.628907 178.046875 29.628907s178.046875-13.265625 178.046875-29.628907zm0 0" fill="url(#e)"/><path d="m256 391.195312c63.835938 0 117.515625-9.355468 133.078125-22.046874 73.707031-8.722657 122.921875-24.472657 122.921875-42.457032 0-6.289062-6.035156-12.304687-17.023438-17.84375-32.351562-18.46875-127.105468-31.84375-238.976562-31.84375-99.90625 0-186.15625 10.664063-226.507812 26.101563-1.792969 2.289062-2.816407 4.847656-2.308594 7.605469.273437 1.480468.90625 2.53125 1.808594 3.226562.007812.007812 36.324218 36.328125 48.335937 48.339844 13.785156 2.609375 29.070313 4.917968 45.597656 6.871094 15.558594 12.691406 69.238281 22.046874 133.074219 22.046874zm0 0" fill="url(#g)"/><path d="m110.984375 287.929688c-4.503906-4.714844-10.847656-7.65625-17.882813-7.65625-13.664062 0-24.738281 11.074218-24.738281 24.738281 0 7.035156 2.941407 13.378906 7.65625 17.882812l40.117188 40.113281c4.503906 4.714844 10.847656 7.65625 17.882812 7.65625 13.660157 0 24.734375-11.074218 24.734375-24.734374 0-7.035157-2.941406-13.378907-7.65625-17.882813zm0 0" fill="url(#h)"/><path d="m157.496094 296.851562c-4.503906-4.714843-10.847656-7.65625-17.882813-7.65625-13.660156 0-24.734375 11.074219-24.734375 24.734376 0 7.035156 2.941406 13.378906 7.65625 17.882812l40.113282 40.117188c4.503906 4.710937 10.847656 7.652343 17.882812 7.652343 13.664062 0 24.738281-11.074219 24.738281-24.734375 0-7.035156-2.941406-13.378906-7.65625-17.882812zm0 0" fill="url(#i)"/><path d="m207.332031 300.519531c-4.503906-4.714843-10.847656-7.65625-17.882812-7.65625-13.660157 0-24.734375 11.074219-24.734375 24.738281 0 7.035157 2.941406 13.378907 7.65625 17.882813l40.113281 40.113281c4.503906 4.714844 10.847656 7.65625 17.882813 7.65625 13.660156 0 24.734374-11.074218 24.734374-24.734375 0-7.035156-2.941406-13.378906-7.652343-17.882812zm0 0" fill="url(#j)"/><path d="m256.46875 301.046875c-4.503906-4.714844-10.847656-7.65625-17.882812-7.65625-13.660157 0-24.734376 11.074219-24.734376 24.734375 0 7.035156 2.941407 13.378906 7.65625 17.882812l40.113282 40.117188c4.503906 4.714844 10.847656 7.65625 17.882812 7.65625 13.664063 0 24.738282-11.074219 24.738282-24.738281 0-7.03125-2.941407-13.375-7.65625-17.882813zm0 0" fill="url(#k)"/><path d="m59.386719 301.824219c13.222656 19.113281 57.453125 11.027343 68.835937 8.578125 1.722656-.375 2.691406-.617188 2.691406-.617188s.160157-.507812.425782-1.441406c.160156-.574219.359375-1.3125.582031-2.195312 2.347656-9.199219 7.167969-33.699219-3.496094-47.355469-13.320312-17.046875-15.957031 3.238281-15.957031 3.238281s-4.203125-29.605469-20.484375-43.164062c-16.074219-13.378907-12.882813 12.1875-12.796875 12.851562-.226562-.65625-10.613281-29.976562-28.566406-30.53125-18.160156-.566406-3.667969 20.222656-3.667969 20.222656s-21.84375-20.179687-33.167969-11.429687c-1.542968 1.195312-2.371094 2.550781-2.640625 4-.003906.019531-.007812.039062-.011719.054687-.019531.117188-.035156.238282-.046874.351563-.019532.140625-.03125.273437-.039063.414062-.003906.136719-.007813.277344-.003906.414063 0 .273437.023437.558594.0625.835937 0 .019531.007812.042969.007812.066407.019531.125.039063.246093.0625.371093.042969.230469.097657.460938.164063.699219.054687.195312.113281.394531.183594.597656.046874.144532.101562.289063.15625.433594.0625.148438.121093.296875.183593.441406.0625.144532.128907.289063.199219.441406.136719.292969.292969.585938.457031.882813.070313.128906.144531.253906.222657.382813.09375.167968.195312.332031.304687.496093.089844.152344.1875.300781.285156.445313.097657.152344.199219.296875.304688.441406.097656.148438.207031.292969.3125.441406.539062.730469 1.132812 1.464844 1.765625 2.179688.214844.25.441406.496094.667968.746094.167969.179687.332032.355468.503907.535156.226562.230468.453125.464844.683593.695312.027344.03125.050782.054688.082032.082032.082031.085937.171875.171874.257812.253906 5.238282 5.152344 11.601563 9.234375 11.878906 9.417968-.425781-.105468-16.257812-3.976562-19.371093 6.175782-3.128907 10.214844 36.027343 17.804687 36.644531 17.925781-.410156.101563-20.253906 5.191406-15.292969 16.902344 4.976563 11.738281 44.960938 12.167969 45.574219 12.171875-.550781.085937-24.042969 3.753906-17.957031 12.546875zm0 0" fill="url(#m)"/><path d="m59.386719 301.824219c13.222656 19.113281 57.453125 11.027343 68.835937 8.578125 1.722656-.375 2.691406-.617188 2.691406-.617188s.160157-.507812.425782-1.441406c-27.082032-32.921875-59.261719-57.570312-85.148438-74.203125-14.199218-9.117187-26.507812-15.824219-35.046875-20.160156-.003906.015625-.007812.035156-.011719.054687-.019531.117188-.035156.234375-.046874.351563-.023438.136719-.03125.273437-.039063.414062-.007813.136719-.007813.277344-.007813.414063.007813.277344.027344.554687.066407.835937 0 .019531.007812.042969.007812.0625.019531.125.039063.25.0625.371094.042969.230469.097657.464844.160157.699219.058593.195312.117187.394531.183593.601562.050781.144532.105469.289063.160157.433594.058593.144531.121093.292969.183593.4375s.128907.292969.199219.445312c.136719.289063.289062.582032.457031.878907.070313.128906.144531.257812.21875.382812.097657.167969.199219.335938.304688.5.09375.148438.191406.296875.285156.445313.101563.148437.203125.292968.304687.4375.101563.152344.210938.296875.316407.445312.535156.726563 1.132812 1.460938 1.761719 2.179688.214843.25.441406.496094.671874.746094.167969.175781.332032.351562.503907.53125.226562.234374.449219.464843.683593.695312.027344.03125.050782.058594.082032.082031.082031.085938.171875.175781.257812.257813 5.238282 5.148437 11.597656 9.234375 11.878906 9.414062-.425781-.105468-16.261718-3.976562-19.371093 6.179688-3.132813 10.210937 36.027343 17.804687 36.644531 17.921875-.410156.105469-20.253906 5.191406-15.292969 16.902343 4.976563 11.742188 44.957031 12.171876 45.574219 12.175782-.550781.085937-24.042969 3.753906-17.957031 12.546875zm0 0" fill="url(#o)"/><path d="m117.511719 302.773438c1.765625-.210938 3.503906.371093 4.726562 1.597656l.019531.023437 3.433594 3.445313c.855469.839844 1.695313 1.699218 2.53125 2.5625 1.722656-.375 2.691406-.617188 2.691406-.617188s.160157-.511718.421876-1.441406c.164062-.574219.363281-1.3125.585937-2.195312-.628906-.769532-1.253906-1.535157-1.886719-2.300782-.847656-.988281-1.679687-1.988281-2.523437-2.980468-.933594-1.105469-1.398438-2.542969-1.296875-4.03125 1.265625-19.0625-9.960938-31.304688-6.605469-23.257813 2.347656 5.605469 2.890625 15.351563 2.96875 21.648437-1.84375-2.058593-3.707031-4.09375-5.578125-6.125-2.261719-2.371093-4.566406-4.707031-6.855469-7.0625-1.132812-1.183593-2.324219-2.308593-3.507812-3.445312l-1.160157-1.109375c-1.898437-1.820313-3.066406-4.292969-3.25-6.96875-1.484374-21.660156-13.691406-36.363281-9.402343-26.585937 3.132812 7.140624 4.769531 19.230468 5.527343 26.84375l-2.507812-2.246094-3.695312-3.246094-1.847657-1.621094c-.617187-.542968-1.234375-1.085937-1.875-1.59375-1.105469-.902344-2.941406-2.375-4.71875-3.816406-3.019531-2.4375-5.222656-5.734375-6.382812-9.484375-7.039063-22.816406-24.019531-36.507813-16.953125-26.984375 5.539062 7.457031 10.808594 21.308594 13.425781 28.777344l-.867187-.640625c-1.316407-.976563-2.648438-1.929688-3.976563-2.890625-1.339844-.949219-2.636719-1.953125-4.027344-2.832032-2.738281-1.820312-5.492187-3.609374-8.25-5.386718l-2.078125-1.316406c-.691406-.441407-1.371094-.890626-2.097656-1.289063-1.425781-.820313-2.84375-1.648437-4.28125-2.449219-.191406-.109375-.378906-.21875-.566406-.324218-.664063-.378907-1.335938.117187-1.460938.710937-.074218.304687.003906.644531.308594.898437.167969.144532.332031.28125.496094.417969 1.25 1.054688 2.507812 2.082031 3.765625 3.121094.632812.511719 1.242187 1.046875 1.855469 1.585937l1.839843 1.605469c2.460938 2.128907 4.933594 4.242188 7.417969 6.324219 2.472656 2.09375 4.863281 4.304688 7.3125 6.417969.234375.195312.464844.394531.691406.59375-7.1875-1.714844-22.914062-5.859375-31.410156-10.980469-10.546875-6.363281 6.28125 10.683594 31.207031 14.808594 3.570313.59375 6.859375 2.195312 9.546875 4.550781 1.582032 1.390625 3.265625 2.867187 4.480469 3.949219 2.390625 2.179687 4.753906 4.394531 7.128906 6.589844l3.523438 3.222656c-6.824219.082031-22.0625-.089844-30.746094-2.945313-10.492187-3.453125 6.746094 8.136719 29.582031 6.738281 3.050782-.1875 6 .820313 8.167969 2.863282l.09375.085937 1.761719 1.667969c.589844.550781 1.152344 1.136719 1.738281 1.691406 2.324219 2.253906 4.628906 4.527344 6.976563 6.757813 1.671874 1.660156 3.332031 3.328125 5.007812 4.984375-6.289062.484375-15.625.789062-21.238281-.953125-8.046875-2.496094 4.007812 6.726562 21.8125 4.636719zm0 0" fill="url(#q)"/><path d="m106.273438 311.917969c17.777343-2.308594 27.871093-35.492188 30.214843-44.164063.351563-1.3125.527344-2.0625.527344-2.0625s-.289063-.292968-.835937-.800781c-.335938-.3125-.773438-.710937-1.296876-1.175781-5.480468-4.863282-20.574218-16.828125-33.707031-14.34375-16.398437 3.105468-3.421875 12.085937-3.421875 12.085937s-21.78125-7.585937-36.835937-1.214843c-14.855469 6.289062 3.804687 13.140624 4.285156 13.316406-.527344-.078125-24.300781-3.320313-31.027344 8.792968-6.8125 12.25 12.566407 9.664063 12.566407 9.664063s-21.558594 7.84375-19.5625 18.699219c.277343 1.480468.910156 2.527344 1.808593 3.226562.011719.007813.023438.015625.035157.023438.070312.058594.148437.109375.222656.160156.089844.0625.175781.117188.269531.171875.09375.050781.1875.101563.285156.152344.1875.09375.390625.179687.59375.25.015625.007812.03125.011719.046875.015625.09375.03125.183594.0625.277344.089844.171875.054687.351562.09375.539062.136718.152344.027344.308594.058594.472657.085938.117187.015625.234375.03125.355469.042968.121093.011719.246093.023438.363281.03125.121093.007813.246093.011719.375.019532.246093.007812.503906.007812.765625 0 .113281-.003906.226562-.007813.339844-.015625.152343-.007813.300781-.019531.449218-.035157.136719-.007812.273438-.023437.40625-.039062.136719-.011719.273438-.03125.410156-.050781.136719-.015625.273438-.039063.414063-.058594.691406-.113281 1.402344-.261719 2.117187-.441406.25-.058594.496094-.125.75-.195313.179688-.050781.359376-.101562.542969-.15625.238281-.074218.476563-.144531.71875-.222656.03125-.007812.054688-.015625.085938-.027344.085937-.027344.179687-.054687.265625-.085937 5.382812-1.773438 10.429687-4.691407 10.65625-4.816407-.226563.253907-8.476563 9.742188-2.613282 15.464844 5.894532 5.757813 24.941407-18.40625 25.242188-18.789062-.074219.316406-3.601562 15.722656 6.183594 16.460937 9.804687.738281 24.234375-26.523437 24.457031-26.941406-.132813.402344-5.921875 17.808594 2.257813 16.746094zm0 0" fill="url(#r)"/><path d="m106.273438 311.917969c17.777343-2.308594 27.871093-35.492188 30.214843-44.164063.351563-1.3125.527344-2.0625.527344-2.0625s-.289063-.292968-.835937-.800781c-32.144532 6.929687-60.421876 20.277344-80.976563 32.144531-11.273437 6.511719-20.21875 12.582032-26.210937 16.902344.007812.011719.019531.019531.03125.027344.074218.054687.148437.109375.226562.160156.085938.0625.175781.117188.269531.171875.089844.050781.1875.101563.28125.148437.191407.09375.390625.179688.59375.253907.015625.007812.035157.007812.046875.015625.09375.03125.1875.0625.277344.089844.175781.050781.351562.09375.539062.132812.152344.03125.308594.0625.472657.085938.117187.019531.238281.03125.355469.046874.121093.011719.246093.023438.367187.03125.121094.007813.246094.011719.371094.019532.25.007812.503906.007812.765625-.003906.113281 0 .226562-.007813.34375-.011719.148437-.007813.296875-.019531.449218-.035157.132813-.007812.269532-.023437.402344-.039062.140625-.015625.273438-.035156.410156-.054688.140626-.011718.277344-.039062.414063-.058593.691406-.109375 1.40625-.257813 2.117187-.4375.25-.058594.5-.125.75-.195313.179688-.050781.359376-.101562.542969-.15625.238281-.074218.480469-.144531.71875-.226562.03125-.003906.054688-.015625.085938-.023438.085937-.027344.179687-.058594.265625-.089844 5.382812-1.769531 10.429687-4.6875 10.65625-4.8125-.222656.253907-8.476563 9.742188-2.613282 15.460938 5.894532 5.757812 24.941407-18.40625 25.242188-18.785156-.074219.316406-3.601562 15.71875 6.183594 16.457031 9.808594.738281 24.234375-26.519531 24.457031-26.941406-.132813.40625-5.921875 17.8125 2.257813 16.75zm0 0" fill="url(#s)"/><path d="m127.472656 272.398438c.480469-1.285157 1.492188-2.269532 2.765625-2.675782l.023438-.003906 3.574219-1.136719c.878906-.289062 1.765624-.5625 2.652343-.828125.351563-1.3125.527344-2.0625.527344-2.0625s-.289063-.292968-.835937-.800781c-.335938-.316406-.773438-.714844-1.296876-1.175781-.75.15625-1.496093.316406-2.246093.476562-.976563.234375-1.957031.449219-2.933594.675782-1.089844.25-2.242187.0625-3.226563-.53125-12.621093-7.609376-24.984374-4.238282-18.277343-3.699219 4.667969.375 11.542969 3.449219 15.890625 5.621093-2.0625.535157-4.117188 1.09375-6.171875 1.660157-2.425781.710937-4.84375 1.464843-7.265625 2.203125-1.210938.355468-2.402344.773437-3.601563 1.1875l-1.171875.402344c-1.917968.65625-4.027344.585937-5.925781-.234376-15.375-6.640624-29.773437-3.46875-21.554687-2.957031 6.007812.378907 14.875 3.53125 20.363281 5.703125l-2.429688.925782-3.53125 1.386718-1.765625.695313c-.589844.226562-1.179687.460937-1.753906.722656-1.011719.4375-2.671875 1.171875-4.289062 1.882813-2.738282 1.207031-5.777344 1.554687-8.757813 1.023437-18.132813-3.242187-33.523437 3.5625-24.496094 2.085937 7.074219-1.160156 18.433594.121094 24.476563.964844l-.742188.371094c-1.132812.554688-2.257812 1.132812-3.386718 1.703125-1.125.585937-2.273438 1.117187-3.367188 1.761719-2.214844 1.234375-4.417969 2.488281-6.609375 3.75l-1.636719.957031c-.546875.320313-1.097656.628906-1.625.984375-1.066406.6875-2.136718 1.367188-3.195312 2.070312-.140625.09375-.285156.179688-.421875.273438-.492188.320312-.390625.953125-.027344 1.253906.183594.160156.441406.222656.726563.105469.15625-.066406.308593-.128906.460937-.191406 1.164063-.484375 2.3125-.984375 3.46875-1.476563.574219-.253906 1.15625-.484375 1.742187-.714844l1.753907-.691406c2.328125-.9375 4.648437-1.886718 6.957031-2.851562 2.3125-.957032 4.671875-1.816406 6.988281-2.746094.214844-.09375.433594-.179688.648438-.265625-3.71875 4.324219-12.117188 13.640625-18.632813 17.65625-8.09375 4.980469 9.546875-.53125 21.1875-16.160156 1.667969-2.242188 3.929688-3.929688 6.492188-4.9375 1.511718-.59375 3.121094-1.226563 4.292968-1.679688 2.339844-.867187 4.691407-1.703125 7.039063-2.554687l3.457031-1.277344c-2.359375 4.710938-7.863281 15.09375-12.890625 20.039062-6.074219 5.972657 7.960938-1.75 15.078125-17.902343.945313-2.15625 2.683594-3.824219 4.851563-4.585938l.089843-.03125 1.765626-.621093c.585937-.210938 1.1875-.386719 1.773437-.59375 2.367187-.796876 4.738281-1.574219 7.101563-2.394532 1.726562-.558594 3.457031-1.105468 5.183593-1.667968-1.890625 4.480468-4.980469 10.988281-8.160156 14.222656-4.550781 4.636718 6.035156-.367188 10.894531-13.316406zm0 0" fill="url(#t)"/><path d="m461.527344 291.855469c-13.222656 19.117187-57.453125 11.027343-68.839844 8.578125-1.71875-.371094-2.6875-.617188-2.6875-.617188s-.164062-.507812-.425781-1.4375c-.160157-.578125-.363281-1.316406-.585938-2.195312-2.34375-9.203125-7.167969-33.703125 3.496094-47.359375 13.324219-17.046875 15.957031 3.242187 15.957031 3.242187s4.203125-29.609375 20.488282-43.167968c16.074218-13.378907 12.878906 12.1875 12.796874 12.851562.226563-.652344 10.609376-29.976562 28.566407-30.527344 18.160156-.570312 3.667969 20.21875 3.667969 20.21875s21.84375-20.179687 33.164062-11.429687c1.542969 1.195312 2.371094 2.550781 2.640625 4 .003906.019531.007813.039062.011719.054687.019531.117188.039062.238282.050781.351563.019531.140625.027344.273437.035156.414062.007813.136719.007813.277344.007813.414063-.003906.273437-.027344.558594-.066406.835937 0 .019531-.007813.042969-.007813.0625-.015625.128907-.039063.25-.0625.375-.039063.230469-.097656.460938-.160156.699219-.058594.195312-.117188.394531-.183594.597656-.050781.144532-.105469.289063-.160156.433594-.058594.148438-.117188.296875-.183594.441406-.0625.144532-.128906.289063-.199219.441406-.136718.292969-.289062.585938-.457031.882813-.070313.128906-.140625.253906-.21875.382813-.097656.167968-.199219.332031-.304687.496093-.089844.152344-.191407.300781-.285157.445313-.101562.148437-.203125.296875-.304687.441406-.101563.148438-.210938.292969-.316406.441406-.535157.730469-1.132813 1.464844-1.761719 2.179688-.214844.25-.441407.496094-.671875.746094-.167969.179687-.332032.351562-.503906.535156-.222657.230468-.449219.460937-.683594.695312-.023438.03125-.050782.054688-.078125.082032-.085938.085937-.171875.171874-.261719.253906-5.238281 5.152344-11.597656 9.234375-11.878906 9.417968.425781-.105468 16.261718-3.976562 19.371094 6.175782 3.132812 10.214844-36.027344 17.804687-36.640626 17.925781.40625.101563 20.25 5.1875 15.289063 16.902344-4.976563 11.738281-44.957031 12.167969-45.570313 12.171875.546876.085937 24.042969 3.753906 17.957032 12.546875zm0 0" fill="url(#u)"/><path d="m461.527344 291.855469c-13.222656 19.117187-57.453125 11.027343-68.839844 8.578125-1.71875-.371094-2.6875-.617188-2.6875-.617188s-.164062-.507812-.425781-1.4375c27.082031-32.925781 59.257812-57.574218 85.144531-74.207031 14.199219-9.117187 26.507812-15.820313 35.050781-20.160156 0 .019531.003907.035156.007813.054687.019531.117188.039062.234375.050781.351563.019531.136719.027344.273437.039063.414062.003906.136719.003906.277344.003906.414063-.007813.277344-.023438.558594-.0625.835937 0 .019531-.007813.042969-.007813.0625-.019531.125-.039062.25-.0625.371094-.042969.234375-.101562.464844-.164062.703125-.054688.195312-.117188.390625-.183594.597656-.046875.144532-.105469.289063-.160156.433594-.058594.148438-.117188.296875-.179688.4375-.066406.144531-.128906.292969-.199219.445312-.136718.289063-.292968.585938-.457031.878907-.070312.132812-.144531.257812-.222656.386719-.09375.167968-.199219.332031-.304687.496093-.089844.148438-.191407.300781-.285157.445313-.097656.148437-.203125.292968-.304687.441406-.097656.148438-.207032.292969-.3125.441406-.539063.726563-1.132813 1.460938-1.765625 2.179688-.214844.25-.441407.496094-.671875.746094-.167969.179687-.328125.351562-.5.53125-.226563.234374-.453125.464843-.6875.699218-.023438.03125-.050782.054688-.078125.082032-.085938.085937-.171875.171874-.257813.253906-5.238281 5.148437-11.601562 9.234375-11.878906 9.417968.425781-.105468 16.257812-3.980468 19.367188 6.175782 3.132812 10.210937-36.023438 17.804687-36.640626 17.925781.40625.101563 20.253907 5.1875 15.292969 16.898437-4.976562 11.742188-44.960937 12.171876-45.574219 12.175782.546876.085937 24.042969 3.753906 17.957032 12.546875zm0 0" fill="url(#v)"/><path d="m403.398438 292.804688c-1.765626-.207032-3.503907.371093-4.726563 1.597656l-.019531.027344-3.433594 3.445312c-.855469.839844-1.695312 1.695312-2.53125 2.558594-1.71875-.371094-2.6875-.617188-2.6875-.617188s-.164062-.507812-.425781-1.4375c-.160157-.578125-.363281-1.316406-.585938-2.195312.628907-.773438 1.257813-1.535156 1.886719-2.304688.847656-.988281 1.679688-1.984375 2.523438-2.976562.933593-1.105469 1.402343-2.546875 1.300781-4.035156-1.269531-19.0625 9.960937-31.304688 6.601562-23.257813-2.347656 5.605469-2.886719 15.351563-2.96875 21.648437 1.847657-2.054687 3.707031-4.089843 5.578125-6.121093 2.261719-2.375 4.570313-4.710938 6.855469-7.0625 1.132813-1.1875 2.324219-2.308594 3.507813-3.445313l1.160156-1.113281c1.898437-1.816406 3.066406-4.289063 3.25-6.96875 1.484375-21.660156 13.691406-36.363281 9.402344-26.585937-3.132813 7.144531-4.769532 19.234374-5.527344 26.847656l2.507812-2.25 3.695313-3.246094 1.847656-1.617188c.617187-.546874 1.234375-1.085937 1.878906-1.59375 1.101563-.902343 2.9375-2.378906 4.714844-3.820312 3.019531-2.4375 5.226563-5.734375 6.382813-9.480469 7.039062-22.820312 24.019531-36.511719 16.953124-26.988281-5.539062 7.460938-10.808593 21.3125-13.425781 28.777344l.867188-.636719c1.316406-.976563 2.652343-1.929687 3.980469-2.890625 1.335937-.949219 2.632812-1.953125 4.023437-2.832031 2.738281-1.820313 5.492187-3.613281 8.25-5.386719l2.078125-1.320312c.691406-.4375 1.375-.890626 2.097656-1.289063 1.425782-.816406 2.84375-1.648437 4.28125-2.449219.191406-.105468.378906-.21875.566406-.324218.664063-.375 1.335938.117187 1.460938.710937.074219.308594-.003906.644531-.308594.902344-.167968.140625-.332031.277343-.496094.417969-1.25 1.050781-2.503906 2.082031-3.761718 3.121093-.632813.511719-1.246094 1.042969-1.859375 1.582031l-1.839844 1.609376c-2.460937 2.125-4.929687 4.238281-7.417969 6.320312-2.472656 2.097656-4.863281 4.304688-7.3125 6.417969-.234375.195312-.464844.394531-.691406.59375 7.1875-1.714844 22.914062-5.855469 31.410156-10.976563 10.550782-6.367187-6.28125 10.679688-31.207031 14.808594-3.570313.589844-6.859375 2.191406-9.546875 4.550781-1.582031 1.386719-3.265625 2.867188-4.480469 3.945313-2.390625 2.179687-4.75 4.398437-7.128906 6.589844l-3.523437 3.226562c6.828124.082031 22.0625-.09375 30.746093-2.949219 10.492188-3.449219-6.746093 8.136719-29.582031 6.742188-3.050781-.191407-6 .816406-8.167969 2.863281l-.089843.085938-1.765626 1.667968c-.589843.546875-1.152343 1.136719-1.738281 1.6875-2.324219 2.257813-4.628906 4.527344-6.976562 6.761719-1.671875 1.65625-3.328125 3.328125-5.003907 4.980469 6.285157.484375 15.621094.789062 21.234376-.953125 8.046874-2.492188-4.007813 6.730469-21.8125 4.636719zm0 0" fill="url(#w)"/><path d="m477.097656 125.914062c-.914062-2.042968-2.230468-3.78125-3.8125-5.164062-1.871094-1.632812-2.925781-3.988281-2.898437-6.472656.019531-2.101563-.402344-4.238282-1.316407-6.28125-3.347656-7.476563-11.972656-10.890625-19.527343-7.722656-5.714844 2.398437-9.140625 7.875-9.230469 13.648437-.0625 4.050781-2.414062 7.714844-6.113281 9.367187l-7.246094 3.25-23.722656 10.625 8.273437 18.464844 23.722656-10.628906 7.246094-3.246094c3.695313-1.65625 7.996094-.976562 11.058594 1.675782 4.371094 3.777343 10.738281 4.863281 16.328125 2.195312 7.394531-3.527344 10.589844-12.234375 7.238281-19.710938zm0 0" fill="url(#x)"/><path d="m425.296875 127.277344-22.066406 9.886718 8.273437 18.464844 23.722656-10.628906 5.382813-2.410156zm0 0" fill="url(#z)"/><path d="m429.011719 139.171875c-1.453125-.265625-2.65625-1.203125-3.246094-2.554687-.011719-.027344-.023437-.058594-.039063-.085938-.109374-.242188-.226562-.480469-.351562-.707031-.542969-.972657-.648438-2.105469-.328125-3.167969.765625-2.53125.488281-5.390625-1.101563-7.894531-2.183593-3.433594-6.441406-5.109375-10.378906-4.070313-.429687.113282-.84375.253906-1.242187.414063-4.539063 1.867187-9.589844 2.050781-14.386719.996093-26.375-5.804687-64.351562-.6875-82.414062 7.402344-26.695313 11.960938-38.644532 43.296875-26.683594 69.992188 11.960937 26.699218 43.296875 38.644531 69.992187 26.683594 18.535157-8.304688 48.6875-34.339844 61.390625-58.417969 2.476563-4.695313 6.449219-8.351563 11.230469-10.65625.363281-.175781.71875-.375 1.070313-.601563 3.496093-2.257812 5.117187-6.660156 3.925781-10.652344-1.09375-3.65625-4.066407-6.070312-7.4375-6.679687zm0 0" fill="url(#B)"/><path d="m446.855469 258.445312v23.6875c0 16.707032-12.101563 30.957032-28.589844 33.636719-42.160156 6.847657-99.320313 11.050781-162.265625 11.050781s-120.105469-4.203124-162.265625-11.050781c-16.488281-2.679687-28.589844-16.929687-28.589844-33.636719 0-6.324218.410157-12.558593 1.214844-18.671874 9.140625-69.960938 68.972656-123.972657 141.421875-123.972657h6.429688c9.0625 0 17.761718 1.519531 25.871093 4.324219 27.175781 9.386719 55.828125 13.4375 84.535157 11.894531 1.6875-.082031 3.398437-.136719 5.117187-.136719h14.25c56.8125 0 102.871094 46.058594 102.871094 102.875zm0 0" fill="url(#C)"/><path d="m334.6875 324.527344c31.507812-1.902344 59.914062-4.914063 83.589844-8.757813 16.484375-2.679687 28.578125-16.933593 28.578125-33.632812v-23.691407c0-9.625-1.324219-18.9375-3.796875-27.773437h-14.515625c-51.835938 0-93.855469 42.019531-93.855469 93.855469zm0 0" fill="url(#E)"/><path d="m509.8125 192.589844c-1.148438-2.5625-2.796875-4.738282-4.777344-6.472656-2.347656-2.050782-3.671875-5-3.636718-8.117188.023437-2.636719-.503907-5.316406-1.648438-7.875-4.203125-9.378906-15.015625-13.65625-24.492188-9.683594-7.160156 3.003906-11.460937 9.871094-11.570312 17.113282-.078125 5.078124-3.027344 9.671874-7.664062 11.746093l-9.085938 4.074219-29.746094 13.324219 10.371094 23.152343 29.746094-13.328124 9.085937-4.070313c4.636719-2.078125 10.027344-1.222656 13.867188 2.097656 5.480469 4.738281 13.464843 6.101563 20.476562 2.757813 9.273438-4.425782 13.277344-15.34375 9.074219-24.71875zm0 0" fill="url(#F)"/><path d="m444.859375 194.300781-27.667969 12.398438 10.371094 23.148437 29.746094-13.324218 6.75-3.023438zm0 0" fill="url(#G)"/><path d="m449.515625 209.214844c-1.820313-.332032-3.328125-1.507813-4.066406-3.203125-.015625-.035157-.035157-.070313-.050781-.109375-.136719-.304688-.285157-.597656-.441407-.886719-.679687-1.21875-.816406-2.636719-.410156-3.972656.957031-3.171875.613281-6.757813-1.382813-9.894531-2.738281-4.308594-8.078124-6.40625-13.015624-5.105469-.539063.140625-1.058594.316406-1.554688.519531-5.695312 2.339844-12.03125 2.570312-18.042969 1.246094-33.074219-7.28125-80.691406-.863282-103.34375 9.285156-33.472656 14.996094-48.453125 54.289062-33.457031 87.765625 14.996094 33.472656 54.292969 48.453125 87.765625 33.457031 23.242187-10.414062 61.050781-43.058594 76.976563-73.25 3.109374-5.890625 8.085937-10.472656 14.082031-13.367187.457031-.21875.902343-.46875 1.34375-.753907 4.386719-2.832031 6.417969-8.351562 4.921875-13.351562-1.367188-4.589844-5.097656-7.613281-9.324219-8.378906zm0 0" fill="url(#H)"/><path d="m321.832031 261.203125c0-48.617187-50.671875-88.027344-113.179687-88.027344-62.503906 0-113.175782 39.410157-113.175782 88.027344 0 22.589844 10.941407 43.1875 28.925782 58.769531 37.539062 4.320313 82.832031 6.847656 131.597656 6.847656 9.652344 0 19.164062-.101562 28.511719-.292968 22.917969-16.109375 37.320312-39.40625 37.320312-65.324219zm0 0" fill="url(#I)"/><path d="m225.722656 258.890625c-34.597656-29.375-65.949218-31-80.597656-29.664063-5.710938.523438-8.632812 7.042969-5.28125 11.699219.96875 1.347657 2.121094 2.617188 3.417969 3.816407l22.082031 22.082031c.121094.132812.246094.261719.371094.390625-37.222656 10.886718-47.164063 40.871094-49.585938 51.761718.003906 0 .011719 0 .015625.003907.621094.078125 1.253907.152343 1.878907.230469 0 0 0 .003906-.003907.003906 38.734375 4.785156 86.414063 7.605468 137.980469 7.605468 12.648438 0 25.058594-.171874 37.164062-.5zm0 0" fill="url(#J)"/><path d="m116.128906 318.976562c20.996094 2.648438 44.683594 4.714844 70.246094 6.058594 21.332031-10.152344 35.6875-30.414062 43.273438-43.738281 4.230468-7.433594 2.59375-16.867187-3.925782-22.40625-34.597656-29.378906-65.949218-31-80.597656-29.664063-5.710938.519532-8.632812 7.042969-5.28125 11.695313 12.730469 17.683594 56.351562 22.273437 56.351562 22.273437-62.699218 0-77.082031 42.371094-80.066406 55.78125zm0 0" fill="url(#K)"/><path d="m208.648438 173.175781c11.21875 0 22.054687 1.273438 32.285156 3.640625-8.78125-14.390625-20.8125-27.070312-35.25-37.304687-71.5 1.03125-130.273438 54.664062-139.324219 123.949219-.808594 6.113281-1.214844 12.347656-1.214844 18.671874 0 16.707032 12.101563 30.957032 28.589844 33.636719 9.492187 1.542969 19.753906 2.949219 30.660156 4.203125-17.980469-15.589844-28.917969-36.183594-28.917969-58.769531 0-48.617187 50.675782-88.027344 113.171876-88.027344zm0 0" fill="url(#L)"/><path d="m452 304.222656c0 13.664063-11.074219 24.738282-24.734375 24.738282-13.664063 0-24.738281-11.074219-24.738281-24.738282 0-13.660156 11.074218-24.734375 24.738281-24.734375 13.660156 0 24.734375 11.074219 24.734375 24.734375zm0 0" fill="url(#N)"/><path d="m446.152344 299.796875c0-9.914063-9.015625-17.949219-20.136719-17.949219s-20.140625 8.035156-20.140625 17.949219c0 9.910156 9.019531 17.949219 20.140625 17.949219s20.136719-8.039063 20.136719-17.949219zm0 0" fill="url(#P)"/><path d="m334.664062 353.378906c-24.527343 11.117188-63.488281-16.484375-73.292968-23.917968-1.484375-1.128907-2.296875-1.789063-2.296875-1.789063s.144531-.535156.441406-1.492187c.183594-.59375.425781-1.347657.734375-2.246094 3.179688-9.355469 13.054688-33.605469 31.785156-40.992188 23.382813-9.210937 13.863282 10.25 13.863282 10.25s21.867187-24.703125 46.097656-29.414062c23.921875-4.648438 5.464844 16.882812 4.988281 17.4375.613281-.480469 28.433594-22.085938 46.542969-14.332032 18.324218 7.832032-8.460938 19.871094-8.460938 19.871094s33.699219-8.113281 39.675782 4.964844c.8125 1.78125.824218 3.382812.226562 4.8125-.007812.015625-.015625.035156-.023438.050781-.050781.117188-.105468.230469-.160156.339844-.066406.132813-.136718.257813-.210937.390625-.074219.125-.160157.25-.242188.375-.167969.246094-.355469.488281-.5625.722656-.011719.019532-.035156.035156-.046875.054688-.09375.101562-.1875.207031-.28125.304687-.183594.1875-.375.371094-.582031.554688-.171875.148437-.351563.300781-.539063.453125-.132812.109375-.277343.214844-.417968.316406-.148438.105469-.292969.214844-.441406.3125-.148438.101562-.300782.203125-.460938.308594-.3125.199218-.640625.390625-.980469.582031-.148437.085937-.292969.164063-.449219.242187-.195312.109376-.394531.210938-.597656.308594-.183594.09375-.367187.183594-.550781.269532-.1875.089843-.375.171874-.5625.257812s-.382813.167969-.578125.253906c-.96875.40625-1.996094.792969-3.050781 1.148438-.363281.125-.730469.242187-1.109375.363281-.273438.082031-.539063.164063-.816406.25-.363282.105469-.726563.207031-1.09375.308594-.046876.015625-.085938.027343-.128907.039062-.132812.039063-.273437.078125-.410156.109375-8.265625 2.226563-17.007813 2.976563-17.394531 3.011719.484375.101563 18.480468 3.894531 15.488281 14.457031-3.007813 10.625-46.324219-.539062-47.007813-.714844.34375.277344 16.953126 13.972657 5.035157 22.230469-11.949219 8.273438-51.796875-9.714843-52.40625-9.992187.492187.328125 21.5625 14.425781 10.277343 19.539062zm0 0" fill="url(#Q)"/><path d="m334.664062 353.378906c-24.527343 11.117188-63.488281-16.484375-73.292968-23.917968-1.484375-1.128907-2.296875-1.789063-2.296875-1.789063s.144531-.535156.441406-1.492187c46.503906-17.171876 93.109375-24.558594 128.691406-27.621094 19.511719-1.679688 35.707031-2.050782 46.761719-2.027344-.007812.015625-.015625.035156-.023438.050781-.050781.117188-.105468.230469-.160156.339844-.066406.132813-.136718.257813-.210937.390625-.074219.125-.160157.25-.242188.375-.171875.246094-.355469.488281-.5625.722656-.011719.019532-.035156.035156-.046875.054688-.09375.101562-.1875.207031-.28125.304687-.183594.1875-.375.371094-.582031.554688-.171875.148437-.351563.300781-.539063.453125-.132812.109375-.277343.214844-.417968.316406-.148438.105469-.292969.214844-.441406.3125-.148438.101562-.300782.203125-.460938.308594-.3125.199218-.640625.390625-.980469.582031-.148437.085937-.292969.164063-.449219.242187-.195312.109376-.394531.210938-.597656.308594-.183594.09375-.367187.183594-.550781.269532-.1875.089843-.375.171874-.5625.257812s-.382813.167969-.578125.253906c-.96875.40625-1.996094.792969-3.050781 1.148438-.363281.125-.730469.242187-1.109375.363281-.273438.082031-.539063.164063-.816406.25-.363282.105469-.726563.207031-1.09375.308594-.046876.015625-.085938.027343-.128907.039062-.132812.039063-.273437.078125-.410156.109375-8.265625 2.226563-17.007813 2.976563-17.394531 3.011719.484375.101563 18.480468 3.894531 15.488281 14.457031-3.007813 10.625-46.324219-.539062-47.007813-.714844.34375.277344 16.953126 13.972657 5.035157 22.230469-11.949219 8.273438-51.796875-9.714843-52.40625-9.992187.492187.328125 21.5625 14.425781 10.277343 19.539062zm0 0" fill="url(#R)"/><path d="m276.539062 327.519531c-1.625-1-3.691406-1.273437-5.636718-.734375l-.035156.011719-5.457032 1.523437c-1.351562.363282-2.695312.746094-4.039062 1.140626-1.484375-1.128907-2.296875-1.789063-2.296875-1.789063s.144531-.535156.441406-1.492187c.183594-.59375.429687-1.347657.734375-2.246094 1.082031-.402344 2.160156-.800782 3.246094-1.199219 1.429687-.503906 2.847656-1.015625 4.277344-1.523437 1.585937-.566407 2.910156-1.644532 3.699218-3.027344 10.144532-17.730469 28.585938-23.582032 20.445313-17.890625-5.671875 3.964843-12.039063 12.484375-15.882813 18.109375 3.054688-1 6.117188-1.976563 9.183594-2.941406 3.660156-1.097657 7.339844-2.140626 11.011719-3.207032 1.832031-.542968 3.683593-1.007812 5.535156-1.484375l1.816406-.464843c2.964844-.765626 5.601563-2.453126 7.382813-4.777344 14.425781-18.800782 35.304687-26.417969 25.210937-19.59375-7.375 4.984375-16.226562 15.109375-21.527343 21.609375l3.828124-.871094 5.597657-1.222656 2.800781-.605469c.933594-.207031 1.871094-.410156 2.808594-.570312 1.632812-.304688 4.335937-.789063 6.957031-1.269532 4.449219-.804687 8.601563-2.757812 11.988281-5.597656 20.617188-17.289062 45.621094-21.804688 32.929688-16.484375-9.945313 4.167969-23.449219 14.203125-30.503906 19.71875l1.238281-.175781c1.886719-.277344 3.777343-.519532 5.667969-.773438 1.894531-.238281 3.777343-.546875 5.683593-.695312 3.796875-.378906 7.59375-.726563 11.386719-1.058594l2.847656-.230469c.949219-.078125 1.890625-.167969 2.847656-.195312 1.902344-.078125 3.800782-.175781 5.703126-.234375.253906-.007813.507812-.023438.757812-.03125.882812-.03125 1.25.71875 1.019531 1.3125-.109375.308594-.390625.578125-.84375.667968-.25.050782-.496093.101563-.742187.148438-1.867188.371094-3.726563.722656-5.59375 1.078125-.929688.167969-1.855469.367187-2.785156.570313l-2.785157.601562c-3.707031.78125-7.417969 1.546875-11.125 2.277344-3.703125.746094-7.390625 1.636718-11.082031 2.414062-.347656.066406-.691406.140625-1.039062.214844 8.148437 1.761719 26.195312 5.261719 37.671874 4.558594 14.25-.878906-12.609374 6.71875-39.757812-1.019532-3.890625-1.109374-8.105469-1.179687-12.175781-.292968-2.394531.523437-4.949219 1.078125-6.796875 1.488281-3.671875.863281-7.335938 1.773437-11 2.65625l-5.417969 1.28125c6.710937 3.207031 21.902344 10.054687 32.207031 11.476563 12.453125 1.714843-11.542968 4.21875-33.324218-7.53125-2.90625-1.574219-6.429688-2.023438-9.800782-1.179688l-.140625.035156-2.742187.6875c-.914063.222656-1.820313.496094-2.730469.722656-3.652344.960938-7.292969 1.945313-10.953125 2.871094-2.644531.726563-5.289062 1.464844-7.9375 2.183594 5.941406 3.324219 15 7.890625 21.601562 8.902344 9.457032 1.457031-7.996093 4.210937-24.375-5.851563zm0 0" fill="url(#S)"/><path d="m117.835938 305.011719c0 13.660156-11.074219 24.734375-24.734376 24.734375-13.664062 0-24.738281-11.074219-24.738281-24.734375 0-13.660157 11.074219-24.734375 24.738281-24.734375 13.660157 0 24.734376 11.074218 24.734376 24.734375zm0 0" fill="url(#T)"/><path d="m111.988281 300.582031c0-9.914062-9.015625-17.949219-20.136719-17.949219-11.125 0-20.140624 8.035157-20.140624 17.949219 0 9.914063 9.015624 17.949219 20.140624 17.949219 11.121094 0 20.136719-8.035156 20.136719-17.949219zm0 0" fill="url(#U)"/><path d="m164.261719 313.929688c0 13.660156-11.074219 24.734374-24.734375 24.734374-13.664063 0-24.738282-11.074218-24.738282-24.734374 0-13.660157 11.074219-24.734376 24.738282-24.734376 13.660156 0 24.734375 11.074219 24.734375 24.734376zm0 0" fill="url(#V)"/><path d="m158.414062 309.5c0-9.914062-9.015624-17.949219-20.136718-17.949219s-20.140625 8.035157-20.140625 17.949219 9.019531 17.949219 20.140625 17.949219 20.136718-8.035157 20.136718-17.949219zm0 0" fill="url(#W)"/><path d="m214.097656 317.601562c0 13.660157-11.074218 24.734376-24.734375 24.734376-13.660156 0-24.734375-11.074219-24.734375-24.734376 0-13.660156 11.074219-24.734374 24.734375-24.734374 13.660157 0 24.734375 11.074218 24.734375 24.734374zm0 0" fill="url(#X)"/><path d="m208.25 313.171875c0-9.914063-9.015625-17.949219-20.136719-17.949219-11.121093 0-20.140625 8.035156-20.140625 17.949219s9.019532 17.949219 20.140625 17.949219c11.121094 0 20.136719-8.035156 20.136719-17.949219zm0 0" fill="url(#Y)"/><path d="m263.148438 317.863281c0 13.660157-11.074219 24.734375-24.738282 24.734375-13.660156 0-24.734375-11.074218-24.734375-24.734375 0-13.660156 11.074219-24.734375 24.734375-24.734375 13.664063 0 24.738282 11.074219 24.738282 24.734375zm0 0" fill="url(#Z)"/><path d="m257.300781 313.433594c0-9.914063-9.015625-17.949219-20.136719-17.949219-11.125 0-20.140624 8.035156-20.140624 17.949219 0 9.914062 9.015624 17.949218 20.140624 17.949218 11.121094 0 20.136719-8.035156 20.136719-17.949218zm0 0" fill="url(#aa)"/><path d="m211.605469 171.296875c-.773438.425781-1.75.1875-2.238281-.546875-3.9375-5.917969-7.800782-11.875-11.707032-17.808594l-4.664062-7.195312c-.261719-.417969-.507813-.757813-.785156-1.242188l-.828126-1.441406c-2.171874-3.886719-3.300781-8.386719-3.480468-12.941406-.144532-4.566406.820312-9.214844 2.800781-13.460938.550781-1.03125 1.03125-2.113281 1.699219-3.085937l.921875-1.429688c.027343-.039062.054687-.078125.082031-.117187l1.042969-1.347656c.699219-.964844 1.5625-1.78125 2.371093-2.664063.414063-.429687.875-.804687 1.316407-1.207031l.671875-.589844.339844-.296875.277343-.230469 8.796875-7.292968 4.402344-3.644532 1.097656-.914062.902344-.828125c.582031-.550781 1.195312-1.0625 1.746094-1.632813 9.070312-8.996094 12.949218-22.144531 10.796875-33.832031-.191407-1.449219-.617188-2.847656-.960938-4.253906-.011719-.050781-.027343-.097657-.042969-.144531-.496093-1.371094-.875-2.765626-1.53125-4.0625-.296874-.644532-.558593-1.300782-.863281-1.933594-.023437-.046875-.046875-.09375-.070312-.136719l-1.039063-1.835937-.484375-.871094c-.03125-.050782-.0625-.101563-.097656-.148438l-.574219-.816406-1.167968-1.71875c-.03125-.046875-.066407-.089844-.101563-.136719l-1.328125-1.589843-.617188-.761719c-.039062-.050781-.078124-.09375-.125-.136719l-.699218-.691406-1.441406-1.46875c-.039063-.039063-.078126-.078125-.125-.113282l-1.578126-1.316406-.742187-.628906c-.042969-.039062-.089844-.074219-.136719-.109375l-.808594-.550781-1.671874-1.171875c-.042969-.03125-.089844-.058594-.132813-.085938l-1.773437-1.007812c-.308594-.171875-.597657-.371094-.917969-.523438l-.960938-.433593c-2.476562-1.273438-5.179687-1.992188-7.835937-2.578126-.050782-.011718-.101563-.023437-.152344-.027343-1.347656-.167969-2.664062-.445313-4.011719-.425781-.683593-.011719-1.359375-.085938-2.035156-.070313l-2.027344.113281c-.671875-.007812-1.34375.109375-2.007812.226563-.636719.105469-1.273438.179687-1.902344.289062-.054687.011719-.105469.023438-.160156.035157l-1.867188.480468-.964843.234375-1.378907.367188-5.527343 1.457031-2.765626.726562-.6875.183594c-.195312.058594-.269531.101563-.410156.152344l-.738281.28125c-3.910156 1.488281-7.136719 4.035156-9.539063 7.203125-1.195312 1.589844-2.183593 3.328125-2.917968 5.179687-.394532.921876-.65625 1.890626-.914063 2.867188-.082031.5-.269531.988281-.316406 1.5l-.101563.765625-.058593.386719-.03125.195312c-.011719.070313-.011719.222656-.019531.332032l-.339844 5.703124-.097656 1.425782-.03125.4375-.035157.28125c-.089843.378906-.058593.746094-.101562 1.132812-.066407 1.527344.261719 3.117188.914062 4.703125 1.371094 3.117188 4.277344 6.039063 8.535157 7.148438 2.074218.5625 4.402343.730469 6.828124.269531 2.398438-.484375 4.882813-1.519531 7.132813-3.191406 2.285156-1.644532 4.21875-3.980469 5.710937-6.832032.183594-.371093.375-.703124.5625-1.117187l.542969-1.363281 1.117188-2.726563c.609375-1.433593 1.214843-2.863281 1.863281-4.289062.3125-.679688 1.039062-1.070313 1.777344-.96875l.617187.082031c.738281.101562 1.332031.671875 1.449219 1.410156.246094 1.546875.445312 3.089844.648438 4.632813l.347656 2.921875.160156 1.460937c.03125.523438.03125 1.121094.042969 1.691407.0625 4.59375-1.074219 9.449218-3.472657 13.800781-2.398437 4.347656-5.941406 8.242187-10.351562 11.140625-1.113281.691406-2.261719 1.382812-3.460938 1.972656l-1.839843.808594-.933594.394531-.960937.324219c-1.285157.425781-2.589844.847656-3.9375 1.097656-.671876.140625-1.347657.296875-2.03125.398438l-2.058594.210937c-11.003906 1.15625-23.015625-3.726563-30.609375-12.898437-3.796875-4.5625-6.59375-10.132813-7.898438-16.109376-.308593-1.496093-.589843-3.003906-.707031-4.53125l-.296875-3.558593-.402344-5.699219-.015625-.378906-.003906-.519532-.003906-1.039062.011718-2.082031c.011719-1.386719.199219-2.773438.320313-4.164063.335937-2.773437.933594-5.519531 1.757813-8.203125 1.660156-5.359375 4.285156-10.425781 7.71875-14.863281 3.421874-4.449219 7.652343-8.265625 12.402343-11.226562 4.75-2.964844 10.023438-5.050782 15.429688-6.175782l2.035156-.375.980469-.167968.710937-.085938 2.839844-.335938 5.675781-.667968 1.421875-.164063 1.859375-.171875 3.640625-.2929685c.039063-.0039063.078125-.0078125.113281-.0078125 1.21875-.03125 2.441407-.0039062 3.65625 0 1.234376.0117188 2.460938.015625 3.691407.164063l3.667969.359374c1.214843.152344 2.417968.417969 3.621093.636719 2.417969.375 4.742188 1.171875 7.082031 1.800781 1.160157.359376 2.285157.824219 3.421876 1.238282 1.136718.421875 2.265624.851562 3.347656 1.390625l3.261718 1.554687c1.066407.558594 2.09375 1.191406 3.128907 1.792969l1.550781.914063c.507812.316406.988281.679687 1.484375 1.019531l2.871094 2.042969c.035156.027343.070312.050781.101562.078124.914063.738282 1.800781 1.507813 2.695313 2.265626l1.308594 1.125c.03125.027343.0625.058593.089843.085937l1.222657 1.222656 2.445312 2.5c.035156.035157.066406.070313.09375.105469l2.230469 2.695312 1.078125 1.332032c.027344.035156.054687.070312.078125.105468l.972656 1.410157 1.945313 2.886719c.027343.039062.050781.082031.074218.121093l1.6875 3.039063.808594 1.496094c.019531.039062.042969.078124.058594.117187l.691406 1.554687 1.371094 3.183594c.015625.035156.03125.070313.042968.109375.398438 1.082031.738282 2.183594 1.101563 3.273438.785156 2.183593 1.226563 4.46875 1.742187 6.714843.007813.035157.015626.074219.023438.109376.355469 2.289062.746094 4.558593.84375 6.867187.292969 4.628906.058594 9.277344-.800781 13.789063-.847657 4.503906-2.105469 8.925781-4.023438 13.050781-1.898437 4.117187-4.183593 8.042969-6.972656 11.566406-2.800781 3.507813-5.941406 6.714844-9.429687 9.457031-.867188.6875-1.792969 1.296875-2.691407 1.941406l-1.339843.933594-1.207032.765625-4.820312 3.0625-9.648438 6.125-.296875.191407-.21875.148437-.4375.300781c-.289062.203125-.609375.378906-.882812.605469-.527344.46875-1.144531.863281-1.625 1.398437l-.714844.695313c-.039063.039063-.078125.082031-.113281.125l-.644532.765625c-.488281.511719-.832031 1.125-1.257812 1.691406-.03125.042969-.058594.085938-.085938.128906-.738281 1.230469-1.441406 2.523438-1.902343 3.917969-.542969 1.402344-.84375 2.894531-1.046875 4.40625-.300782 3.027344-.027344 6.214844 1.128906 9.183594l.4375 1.113281c.136719.367188.382812.84375.570312 1.261719l1.207032 2.589844 2.410156 5.183593c2.953125 6.464844 5.941406 12.902344 8.867188 19.382813.359374.804687.042968 1.757813-.730469 2.1875zm0 0" fill="url(#ac)"/><path d="m235.410156 151.648438c-1.273437-6.050782-1.527344-12.425782-.886718-18.785157.117187-1.597656.433593-3.167969.667968-4.765625.351563-1.5625.640625-3.164062 1.078125-4.71875.433594-1.558594.851563-3.136718 1.417969-4.667968.273438-.765626.515625-1.554688.816406-2.3125l.933594-2.277344c2.5625-6.058594 6.15625-11.742188 10.511719-16.871094 1.058593-1.308594 2.273437-2.476562 3.433593-3.710938l3.25-3.261718 1.617188-1.597656c.789062-.683594 1.582031-1.382813 2.417969-2.035157.871093-.597656 1.734375-1.234375 2.65625-1.765625.945312-.496094 1.867187-1.070312 2.867187-1.464844 3.941406-1.722656 8.289063-2.660156 12.71875-2.617187 1.109375-.023437 2.210938.128906 3.328125.210937 1.109375.132813 2.207031.367188 3.320313.585938 1.082031.308594 2.183594.605469 3.253906 1.003906 1.046875.441406 2.144531.820313 3.148438 1.386719 4.105468 2.117187 7.691406 5.347656 10.203124 9.246094 2.542969 3.894531 4.027344 8.53125 4.253907 13.144531.238281 4.617188-.757813 9.191406-2.703125 13.179688-1.949219 3.988281-4.882813 7.40625-8.363282 9.78125-.84375.621093-1.804687 1.085937-2.691406 1.589843-.925781.457031-1.878906.835938-2.816406 1.195313-1.558594.453125-3.066406.796875-4.628906 1.15625-3.125.667968-6.300782 1.257812-9.6875 1.488281l-1.078125-1.785156c1.785156-2.890625 3.785156-5.425781 5.835937-7.875 1.019532-1.207031 2.109375-2.414063 3.125-3.539063.300782-.507812.632813-.925781.910156-1.386718.242188-.496094.507813-.929688.714844-1.394532.832032-1.855468 1.210938-3.671875 1.277344-5.378906.058594-1.699219-.15625-3.28125-.636719-4.667969-.476562-1.394531-1.089843-2.585937-1.820312-3.765625-.746094-1.183594-1.570313-2.296875-2.625-3.328125-2.03125-2.128906-5.644531-3.476562-9.09375-2.621093-.445313.0625-.832031.269531-1.273438.378906-.421875.144531-.8125.371094-1.242187.53125-.398438.226562-.785156.472656-1.203125.695312l-1.835938 1.339844-3.632812 2.632812c-1.058594.820313-2.191407 1.570313-3.191407 2.476563l-1.566406 1.292969-1.492187 1.386718c-1.03125.902344-1.929688 1.921876-2.894531 2.90625-.949219.992188-1.8125 2.0625-2.71875 3.113282-.8125 1.109375-1.734376 2.171875-2.480469 3.34375-6.46875 9.125-10.308594 20.398437-11.109375 32.390625zm0 0" fill="url(#ad)"/></svg>