<svg height="512pt" viewBox="-33 0 512 512.00057" width="512pt" xmlns="http://www.w3.org/2000/svg" xmlns:xlink="http://www.w3.org/1999/xlink"><linearGradient id="a"><stop offset="0" stop-color="#a4508b"/><stop offset=".241" stop-color="#a75585"/><stop offset=".5563" stop-color="#af6575"/><stop offset=".9115" stop-color="#bc7e5a"/><stop offset="1" stop-color="#c08552"/></linearGradient><radialGradient id="b" cx="222.4925" cy="415.2149" gradientTransform="matrix(.969688 -.259815 .259815 .969688 -133.173459 -30.612526)" gradientUnits="userSpaceOnUse" r="285.863" xlink:href="#a"/><linearGradient id="c"><stop offset="0" stop-color="#dab49d" stop-opacity="0"/><stop offset=".2054" stop-color="#d8b198" stop-opacity=".203922"/><stop offset=".4642" stop-color="#d3a788" stop-opacity=".462745"/><stop offset=".7504" stop-color="#ca976e" stop-opacity=".74902"/><stop offset="1" stop-color="#c08552"/></linearGradient><linearGradient id="d" gradientTransform="matrix(.911962 -.351473 .36101 .936759 -1078.350959 -96.86894)" gradientUnits="userSpaceOnUse" x1="1260.3402" x2="1256.8489" xlink:href="#c" y1="779.7619" y2="833.877"/><linearGradient id="e" gradientTransform="matrix(.897606 -.449656 .449656 .897606 -1019.632891 -40.675735)" gradientUnits="userSpaceOnUse" x1="1086.9443" x2="1083.5977" xlink:href="#c" y1="874.0741" y2="925.9481"/><linearGradient id="f" gradientTransform="matrix(1.021892 -.512 .449656 .897606 -1177.570033 37.873397)" gradientUnits="userSpaceOnUse" x1="1084.51" x2="1081.2418" xlink:href="#c" y1="990.3738" y2="1041.0314"/><linearGradient id="g"><stop offset="0" stop-color="#701da0" stop-opacity="0"/><stop offset=".43" stop-color="#701d9e" stop-opacity=".431373"/><stop offset=".5849" stop-color="#6f1e97" stop-opacity=".584314"/><stop offset=".6954" stop-color="#6d208c" stop-opacity=".694118"/><stop offset=".7846" stop-color="#6b237b" stop-opacity=".784314"/><stop offset=".8611" stop-color="#672665" stop-opacity=".862745"/><stop offset=".9287" stop-color="#642a49" stop-opacity=".929412"/><stop offset=".9885" stop-color="#5f2f2a" stop-opacity=".988235"/><stop offset="1" stop-color="#5e3023"/></linearGradient><radialGradient id="h" cx="209.2529" cy="415.2149" gradientTransform="matrix(.969688 -.259815 .259815 .969688 -133.173459 -30.612526)" gradientUnits="userSpaceOnUse" r="285.8624" xlink:href="#g"/><linearGradient id="i" gradientUnits="userSpaceOnUse" x1="389.1316759296" x2="287.6417876148" y1="316.1026651194" y2="226.4751191566"><stop offset="0" stop-color="#701da0" stop-opacity="0"/><stop offset=".1496" stop-color="#6f1e9a" stop-opacity=".14902"/><stop offset=".3413" stop-color="#6d208a" stop-opacity=".341176"/><stop offset=".5559" stop-color="#692470" stop-opacity=".556863"/><stop offset=".7854" stop-color="#642a4c" stop-opacity=".784314"/><stop offset="1" stop-color="#5e3023"/></linearGradient><radialGradient id="j" cx="-14.5738716552" cy="46.4114684522" gradientUnits="userSpaceOnUse" r="407.1799208424" xlink:href="#a"/><linearGradient id="k" gradientTransform="matrix(.81147 .544828 -.559586 .833456 -271.253735 -640.913615)" gradientUnits="userSpaceOnUse" x1="900.8542" x2="898.2485" xlink:href="#c" y1="425.9628" y2="466.3501"/><linearGradient id="l" gradientTransform="matrix(1.047793 .512703 -.601048 1.228198 -446.103944 -425.550854)" gradientUnits="userSpaceOnUse" x1="738.6658" x2="736.0602" xlink:href="#c" y1="114.0018" y2="154.3882"/><linearGradient id="m" gradientTransform="matrix(.883551 .476662 -.476662 .883551 -284.18816 -560.800573)" gradientUnits="userSpaceOnUse" x1="770.593" x2="767.8827" xlink:href="#c" y1="469.9474" y2="511.9563"/><linearGradient id="n" gradientTransform="matrix(.706058 .380888 -.476662 .883551 -147.466391 -487.241433)" gradientUnits="userSpaceOnUse" x1="733.3314" x2="730.621" xlink:href="#c" y1="580.295" y2="622.3054"/><linearGradient id="o" gradientTransform="matrix(1.005929 .54262 -.476662 .883551 -439.410096 -644.967651)" gradientUnits="userSpaceOnUse" x1="811.2684" x2="808.558" xlink:href="#c" y1="552.4913" y2="594.5037"/><radialGradient id="p" cx="-14.5738716552" cy="46.4114684522" gradientUnits="userSpaceOnUse" r="407.1799208424" xlink:href="#g"/><path d="m327.632812 102.050781s-5.097656 48.1875-37.769531 87.550781c-32.671875 39.363282-25.378906 147.253907 34.089844 221.363282 59.46875 74.105468 63.761719 103.566406 73.839844 100.867187 10.082031-2.703125 29.609375-70.957031 40.980469-122.625 11.371093-51.664062 14.636718-133.574219-25.449219-209.269531-40.085938-75.695312-75.761719-114.761719-85.691407-77.886719zm0 0" fill="url(#b)"/><path d="m307.867188 226.109375c6.988281-7.535156 14.484374-13.816406 22.214843-19.585937 3.894531-2.792969 7.847657-5.457032 11.902344-7.871094 4.085937-2.3125 8.234375-4.460938 12.496094-6.332032 4.28125-1.785156 8.515625-3.859374 12.957031-5.347656 4.453125-1.441406 9.207031-1.910156 14.210938-1.179687 5.007812.761719 10.238281 2.507812 15.550781 5.503906 5.296875 3.035156 10.761719 7.324219 15.765625 13.855469l-.050782 1.996094c-4.972656-.660157-9.480468-.816407-13.921874-.652344-4.425782.15625-8.75.566406-13.070313 1.085937-4.3125.585938-8.683594.898438-13.191406.890625-4.5.054688-9.03125.203125-13.390625 1.082032-4.367188.851562-8.679688 1.984374-12.953125 3.285156-4.308594 1.195312-8.558594 2.652344-12.777344 4.25-8.460937 3.101562-16.777344 6.84375-24.945313 11.074218zm0 0" fill="url(#d)"/><path d="m320.683594 291.277344c4.375-7.605469 9.296875-14 14.457031-19.890625 2.613281-2.863281 5.289063-5.59375 8.070313-8.085938 2.816406-2.390625 5.707031-4.625 8.710937-6.589843 3.03125-1.882813 5.992187-4.042969 9.179687-5.640626 3.207032-1.546874 6.757813-2.152343 10.648438-1.585937 3.902344.597656 8.089844 2.15625 12.496094 4.933594 4.398437 2.824219 9.078125 6.867187 13.683594 13.128906l.210937 1.957031c-3.859375-.496094-7.304687-.515625-10.65625-.21875-3.34375.285156-6.578125.816406-9.796875 1.460938-3.203125.703125-6.484375 1.140625-9.910156 1.269531-3.410156.1875-6.835938.46875-10.039063 1.460937-3.210937.96875-6.347656 2.207032-9.433593 3.617188-3.128907 1.300781-6.175782 2.855469-9.179688 4.550781-6.046875 3.300781-11.902344 7.222657-17.585938 11.621094zm0 0" fill="url(#e)"/><path d="m342.917969 411.601562c5.160156-8.199218 10.867187-15.191406 16.824219-21.6875 3.011718-3.164062 6.085937-6.199218 9.269531-8.996093 3.21875-2.695313 6.507812-5.230469 9.914062-7.503907 3.433594-2.1875 6.804688-4.65625 10.402344-6.5625 3.613281-1.855468 7.570313-2.769531 11.855469-2.503906 4.292968.300782 8.871094 1.566406 13.632812 4.070313 4.753906 2.554687 9.773438 6.34375 14.617188 12.421875l.148437 2.003906c-4.25-.199219-8.0625.0625-11.789062.640625-3.714844.566406-7.316407 1.378906-10.90625 2.304687-3.574219.984376-7.226563 1.703126-11.027344 2.117188-3.78125.46875-7.585937 1.039062-11.171875 2.324219-3.597656 1.257812-7.121094 2.792969-10.597656 4.496093-3.515625 1.597657-6.957032 3.449219-10.355469 5.441407-6.828125 3.894531-13.472656 8.417969-19.945313 13.414062zm0 0" fill="url(#f)"/><path d="m327.632812 102.050781s-5.097656 48.1875-37.769531 87.550781c-32.671875 39.363282-25.378906 147.253907 34.089844 221.363282 59.46875 74.105468 63.761719 103.566406 73.839844 100.867187 10.082031-2.703125 29.609375-70.957031 40.980469-122.625 11.371093-51.664062 14.636718-133.574219-25.449219-209.269531-40.085938-75.695312-75.761719-114.761719-85.691407-77.886719zm0 0" fill="url(#h)"/><path d="m327.632812 102.050781s-5.097656 48.1875-37.769531 87.550781c-32.671875 39.363282-25.378906 147.253907 34.089844 221.363282 59.46875 74.105468 63.761719 103.566406 73.839844 100.867187 10.082031-2.703125 29.609375-70.957031 40.980469-122.625 11.371093-51.664062 14.636718-133.574219-25.449219-209.269531-40.085938-75.695312-75.761719-114.761719-85.691407-77.886719zm0 0" fill="url(#i)"/><path d="m62.515625 90.257812s88.171875-94.070312 194.359375-72.101562c45.453125 9.40625 98.746094-32.914062 115.988281-12.539062 19.660157 23.234374 23.511719 117.558593-31.347656 167.714843-74.5 68.113281-36.03125 99.214844-119.148437 197.15625-38.351563 45.191407-138.59375 94.195313-152.121094 89.125-25.078125-9.40625-140.050782-249.058593-7.730469-369.355469zm0 0" fill="url(#j)"/><path d="m153.839844 168.996094c11.941406 4.914062 23.449218 10.714844 34.800781 16.902344 5.640625 3.152343 11.238281 6.402343 16.75 9.824218 5.464844 3.488282 10.875 7.089844 16.183594 10.882813 5.273437 3.839843 10.703125 7.546875 15.90625 11.636719 5.179687 4.117187 9.933593 8.824218 14.054687 14.136718 4.105469 5.328125 7.699219 11.171875 10.472656 17.464844 2.722657 6.285156 4.699219 13.109375 4.625 20.121094l-1.488281.53125c-4.140625-5.261719-8.214843-9.898438-12.457031-14.375-4.230469-4.464844-8.542969-8.75-12.933594-13.003906-4.425781-4.222657-8.714844-8.585938-12.898437-13.183594-4.214844-4.566406-8.535157-9.140625-13.21875-13.324219-4.671875-4.203125-9.496094-8.265625-14.414063-12.242187-4.867187-4.042969-9.867187-7.949219-14.9375-11.777344-10.105468-7.714844-20.535156-15.09375-31.183594-22.179688zm0 0" fill="url(#k)"/><path d="m173.058594 62.835938c15.105468 3.488281 29.769531 8.242187 44.28125 13.539062 7.21875 2.730469 14.398437 5.601562 21.488281 8.722656 7.039063 3.214844 14.019531 6.59375 20.898437 10.246094 6.835938 3.722656 13.855469 7.238281 20.636719 11.304688 6.75 4.109374 13.042969 9.09375 18.621094 15.03125 5.558594 5.957031 10.546875 12.714843 14.570313 20.261718 3.964843 7.550782 7.070312 15.992188 7.683593 25.183594l-1.769531 1.0625c-5.597656-5.863281-11.050781-10.925781-16.691406-15.734375-5.621094-4.800781-11.328125-9.34375-17.132813-13.824219-5.84375-4.433594-11.527343-9.082031-17.109375-14.066406-5.621094-4.9375-11.363281-9.859375-17.519531-14.175781-6.136719-4.347657-12.453125-8.472657-18.867187-12.460938-6.363282-4.089843-12.875-7.96875-19.464844-11.726562-13.140625-7.601563-26.648438-14.683594-40.390625-21.328125zm0 0" fill="url(#l)"/><path d="m118.632812 201.136719c9.566407 2.234375 18.757813 5.378906 27.8125 8.910156 4.496094 1.824219 8.957032 3.75 13.34375 5.855469 4.34375 2.171875 8.644532 4.460937 12.855469 6.949218 4.179688 2.539063 8.492188 4.921876 12.609375 7.707032 4.097656 2.8125 7.835938 6.257812 11.039063 10.386718 3.191406 4.148438 5.957031 8.875 8.039062 14.179688 2.046875 5.304688 3.46875 11.261719 3.226563 17.792969l-1.226563.785156c-3.222656-4.082031-6.410156-7.59375-9.738281-10.925781-3.3125-3.324219-6.703125-6.460938-10.15625-9.554688-3.480469-3.058594-6.847656-6.273437-10.125-9.726562-3.304688-3.421875-6.6875-6.828125-10.382812-9.800782-3.683594-2.992187-7.496094-5.824218-11.378907-8.558593-3.847656-2.804688-7.804687-5.457031-11.824219-8.023438-8-5.195312-16.277343-10.011719-24.734374-14.515625zm0 0" fill="url(#m)"/><path d="m49.808594 289.667969c7.890625 1.328125 15.390625 3.558593 22.738281 6.171875 3.640625 1.363281 7.246094 2.828125 10.773437 4.46875 3.488282 1.710937 6.925782 3.535156 10.273438 5.554687 3.3125 2.074219 6.757812 3.988281 10 6.300781 3.222656 2.34375 6.089844 5.316407 8.449219 8.992188 2.347656 3.691406 4.285156 7.972656 5.601562 12.859375 1.28125 4.894531 1.984375 10.464844 1.226563 16.714844l-1.097656.855469c-2.382813-3.625-4.777344-6.710938-7.304688-9.613282-2.519531-2.894531-5.117188-5.609375-7.777344-8.269531-2.683594-2.628906-5.257812-5.414063-7.734375-8.441406-2.5-2.984375-5.074219-5.953125-7.941406-8.480469-2.859375-2.546875-5.839844-4.933594-8.890625-7.21875-3.011719-2.351562-6.132812-4.554688-9.308594-6.667969-6.320312-4.285156-12.90625-8.191406-19.671875-11.78125zm0 0" fill="url(#n)"/><path d="m52.296875 259.03125c10.722656 2.855469 21.082031 6.628906 31.3125 10.796875 5.085937 2.140625 10.136719 4.386719 15.113281 6.808594 4.9375 2.492187 9.832032 5.101562 14.640625 7.910156 4.773438 2.859375 9.683594 5.570313 14.40625 8.679687 4.699219 3.136719 9.035157 6.90625 12.824219 11.351563 3.773438 4.460937 7.109375 9.496094 9.722656 15.082031 2.570313 5.59375 4.492188 11.816406 4.597656 18.535156l-1.308593.738282c-3.804688-4.394532-7.535157-8.199219-11.414063-11.828125-3.863281-3.617188-7.792968-7.050781-11.800781-10.441407-4.03125-3.355468-7.945313-6.863281-11.773437-10.617187-3.855469-3.71875-7.800782-7.425781-12.0625-10.707031-4.25-3.296875-8.636719-6.4375-13.097657-9.480469-4.421875-3.117187-8.957031-6.082031-13.550781-8.960937-9.164062-5.820313-18.605469-11.265626-28.234375-16.398438zm0 0" fill="url(#o)"/><path d="m62.515625 90.257812s88.171875-94.070312 194.359375-72.101562c45.453125 9.40625 98.746094-32.914062 115.988281-12.539062 19.660157 23.234374 23.511719 117.558593-31.347656 167.714843-74.5 68.113281-36.03125 99.214844-119.148437 197.15625-38.351563 45.191407-138.59375 94.195313-152.121094 89.125-25.078125-9.40625-140.050782-249.058593-7.730469-369.355469zm0 0" fill="url(#p)"/></svg>