<svg height="511pt" viewBox="-38 0 511 511.99998" width="511pt" xmlns="http://www.w3.org/2000/svg" xmlns:xlink="http://www.w3.org/1999/xlink"><radialGradient id="a" cx="47.7006012864" cy="128.0139545158" gradientUnits="userSpaceOnUse" r="451.180115435"><stop offset="0" stop-color="#ff4b3e"/><stop offset=".4462" stop-color="#fd4a3d"/><stop offset=".6069" stop-color="#f64939"/><stop offset=".7215" stop-color="#eb4533"/><stop offset=".8141" stop-color="#da412a"/><stop offset=".8935" stop-color="#c43a1f"/><stop offset=".9625" stop-color="#a93311"/><stop offset="1" stop-color="#972e07"/></radialGradient><linearGradient id="b" gradientUnits="userSpaceOnUse" x1="314.5255002514" x2="289.8030174716" y1="180.0893964998" y2="94.1685313454"><stop offset="0" stop-color="#ff1d25" stop-opacity="0"/><stop offset="1" stop-color="#ff1d25"/></linearGradient><linearGradient id="c"><stop offset="0" stop-color="#972e07" stop-opacity="0"/><stop offset="1" stop-color="#582707"/></linearGradient><linearGradient id="d" gradientUnits="userSpaceOnUse" x1="338.0685754656" x2="253.038590694" xlink:href="#c" y1="206.9681029512" y2="57.9369863654"/><linearGradient id="e" gradientTransform="matrix(.979727 -.219256 .219256 .979727 -162.070453 425.48359)" gradientUnits="userSpaceOnUse" x1="497.6628" x2="577.7517" y1="-247.1563" y2="-152.2817"><stop offset="0" stop-color="#acc130"/><stop offset="1" stop-color="#97a03b"/></linearGradient><linearGradient id="f" gradientTransform="matrix(.979727 -.219256 .219256 .979727 -162.070453 425.48359)" gradientUnits="userSpaceOnUse" x1="546.5545" x2="473.2458" y1="-200.0636" y2="-265.3639"><stop offset="0" stop-color="#97a03b" stop-opacity="0"/><stop offset="1" stop-color="#575c55"/></linearGradient><linearGradient id="g" gradientTransform="matrix(.979727 -.219256 .219256 .979727 -162.070453 425.48359)" gradientUnits="userSpaceOnUse" x1="481.2031" x2="500.3015" y1="-243.5157" y2="-218.8725"><stop offset="0" stop-color="#97a03b"/><stop offset="1" stop-color="#6c7d47"/></linearGradient><linearGradient id="h" gradientUnits="userSpaceOnUse" x1="153.8446719932" x2="229.2351985052" y1="101.1504072866" y2="101.1504072866"><stop offset="0" stop-color="#c08552"/><stop offset="1" stop-color="#895738"/></linearGradient><linearGradient id="i" gradientUnits="userSpaceOnUse" x1="218.476568" x2="218.476568" xlink:href="#c" y1="439.0142324624" y2="610.2303185808"/><linearGradient id="j" gradientUnits="userSpaceOnUse" x1="301.6358445168" x2="216.0939599174" xlink:href="#c" y1="260.9765967462" y2="76.0553690526"/><linearGradient id="k" gradientUnits="userSpaceOnUse" x1="217.8057473196" x2="217.8057473196" xlink:href="#c" y1="146.8364880938" y2="194.2621649426"/><linearGradient id="l" gradientUnits="userSpaceOnUse" x1="121.5700855762" x2="-110.023275113" y1="252.2547231946" y2="96.1529839628"><stop offset=".0013" stop-color="#e7eeed" stop-opacity="0"/><stop offset=".7731" stop-color="#f9fbfa" stop-opacity=".772549"/><stop offset="1" stop-color="#fff"/></linearGradient><path d="m292.117188 117.285156c-28.125 6.054688-54.492188 30.929688-73.640626 30.929688-19.148437 0-45.519531-24.875-73.640624-30.929688-59.65625-7.804687-144.335938 33.875-144.335938 162.011719 0 128.132813 92.785156 232.703125 132.554688 232.703125 44.183593 0 50.074218-20.621094 85.421874-20.621094 35.347657 0 41.238282 20.621094 85.421876 20.621094 39.769531 0 132.554687-104.570312 132.554687-232.703125 0-128.136719-84.679687-169.816406-144.335937-162.011719zm0 0" fill="url(#a)"/><path d="m322.503906 117.539062c-10.472656-1.476562-20.757812-1.515624-30.386718-.253906-28.121094 6.054688-54.492188 30.929688-73.640626 30.929688-.484374 0-.980468-.027344-1.476562-.058594v31.183594l26.089844 4.863281 179.5625 33.480469zm0 0" fill="url(#b)"/><path d="m292.117188 117.285156c-28.125 6.054688-54.492188 30.929688-73.640626 30.929688-.980468 0-1.984374-.082032-3.003906-.207032 4.226563 10.105469 8.585938 17.25 10.140625 19.671876-.035156.15625-.078125.3125-.117187.472656l1.429687.867187 195.972657 195.882813c8.398437-26.519532 13.554687-55.410156 13.554687-85.605469 0-128.136719-84.679687-169.816406-144.335937-162.011719zm0 0" fill="url(#d)"/><path d="m226.210938 168.585938s-89.949219-131.273438 108.609374-168.320313c8.285157-1.542969 16.289063 3.777344 18.171876 11.992187 9.054687 39.5 20 147.242188-126.78125 156.328126zm0 0" fill="url(#e)"/><path d="m352.992188 12.257812c-1.042969-4.554687-3.972657-8.214843-7.785157-10.3125-65.785156 71.734376-118.996093 166.640626-118.996093 166.640626 146.78125-9.085938 135.835937-116.828126 126.78125-156.328126zm0 0" fill="url(#f)"/><path d="m320.214844 60.910156c-1.535156.546875-3.113282.984375-4.667969 1.433594-1.550781.457031-3.09375.910156-4.65625 1.277344-1.554687.402344-3.175781.578125-4.769531.785156-1.59375.195312-3.089844.636719-4.535156 1.308594-1.429688.691406-2.832032 1.445312-4.238282 2.386718 1.167969-1.871093 2.335938-3.738281 3.5-5.613281l5.8125-9.078125c1.925782-3.042968 4.015625-5.9375 5.988282-8.949218 4.042968-5.941407 8.28125-11.6875 12.929687-17.167969l-1.132813-1.226563-4.152343 3.578125-2.089844 1.804688c-.679687.617187-1.308594 1.269531-1.964844 1.902343-2.550781 2.59375-5.253906 5.113282-7.664062 7.828126-5.007813 5.316406-9.71875 10.859374-14.472657 16.386718-.886718 1.085938-1.773437 2.175782-2.660156 3.261719.003906-1.167969-.082031-2.328125-.351562-3.488281-.359375-1.5625-.753906-3.148438-.914063-4.742188-.195312-1.597656-.304687-3.199218-.414062-4.8125-.117188-1.613281-.253907-3.246094-.269531-4.875-.191407-3.285156-.070313-6.570312-.046876-9.960937l-.898437-.222657c-1.460937 3.074219-2.699219 6.285157-3.65625 9.59375-.5 1.652344-.882813 3.328126-1.285156 5.019532-.3125 1.695312-.628907 3.402344-.851563 5.121094-.238281 1.71875-.582031 3.453124-.84375 5.203124-.226562 1.75-.15625 3.503907.28125 5.214844.089844.335938.1875.671875.289063 1.007813 1.113281 3.636719.308593 7.59375-2.03125 10.589843l-.042969.058594c-4.078125 5.21875-8.027344 10.511719-12.011719 15.792969-.035156-1.640625-.207031-3.1875-.449219-4.71875-.273437-1.570313-.765624-3.050781-1.511718-4.472656-.738282-1.421875-1.519532-2.855469-2.070313-4.363281-.589843-1.496094-1.09375-3.019532-1.605469-4.554688-.515624-1.535156-1.054687-3.078125-1.480468-4.652344-1.007813-3.128906-1.714844-6.34375-2.535156-9.628906l-.929688.007812c-.644531 3.339844-1.039062 6.757813-1.140625 10.203126-.066406 1.722656-.015625 3.441406.015625 5.179687.121094 1.71875.242188 3.453125.457031 5.171875.199219 1.726562.300781 3.488281.484375 5.25.21875 1.746094.726563 3.429688 1.578125 4.980469.386719.675781.800781 1.347656 1.25 2.003906 2.203125 3.183594 1.953125 7.464844-.414062 10.527344-2.035157 2.628906-4.082031 5.253906-6.097657 7.894531-2.558593 3.34375-4.941406 6.804688-7.183593 10.351562-.058594-1.414062-.214844-2.761718-.425781-4.097656-.269532-1.574218-.761719-3.050781-1.507813-4.476562-.742187-1.421875-1.519531-2.855469-2.074219-4.363282-.589844-1.492187-1.09375-3.019531-1.605468-4.554687-.515626-1.53125-1.054688-3.078125-1.480469-4.648437-1.007813-3.132813-1.714844-6.347657-2.535157-9.632813l-.929687.007813c-.644531 3.339843-1.039063 6.761718-1.136719 10.203124-.070312 1.722657-.019531 3.445313.015625 5.179688.117188 1.71875.238281 3.453125.453125 5.175781.199219 1.722657.300782 3.484375.484375 5.246094.222657 1.75.726563 3.433594 1.582031 4.980469.863282 1.527344 1.871094 3.011718 3.144532 4.34375 1.457031 1.527344 1.832031 3.777344.863281 5.652344-2.507813 4.855468-6.972656 13.667968-9.023437 18.519531-2.804688 6.773437-5.375 13.691406-7.089844 21.109375l1.429687.863281c5.792969-4.90625 10.851563-10.246094 15.671875-15.722656 4.800782-5.488281 9.316406-11.140625 13.589844-16.945313.078125-.101562.152344-.203125.226562-.308594 1.382813-1.871093 3.828126-2.460937 5.980469-1.582031 1.585938.648438 3.214844 1.042969 4.835938 1.308594 1.746093.261719 3.5.15625 5.21875-.242187 1.714843-.4375 3.402343-.953126 5.089843-1.363282 1.6875-.394531 3.355469-.878906 5.011719-1.363281 1.640625-.566406 3.273438-1.117187 4.863281-1.777344 3.195313-1.285156 6.269532-2.839843 9.179688-4.601562l-.3125-.871094c-3.367188.367187-6.625.8125-9.914062.953125-1.621094.144531-3.257813.171875-4.875.222656-1.617188.050782-3.222657.105469-4.828126.070313-1.605468 0-3.222656-.234375-4.8125-.4375-1.59375-.207031-3.152343-.15625-4.71875.132812-1.695312.339844-3.386718.777344-5.132812 1.421875 2.039062-3.175781 3.972656-6.421875 5.800781-9.734375 1.4375-2.660156 3.417969-6.222656 5.167969-9.347656 1.859375-3.324219 5.636719-5.183594 9.367188-4.410156 1.824218.378906 3.6875.484375 5.371093.757812 1.75.265625 3.503907.160157 5.21875-.242187 1.71875-.4375 3.40625-.949219 5.09375-1.359375 1.6875-.394531 3.355469-.882813 5.007813-1.363281 1.640625-.570313 3.273437-1.117188 4.867187-1.78125 3.195313-1.285157 6.265625-2.835938 9.179688-4.597657l-.316407-.875c-3.367187.367188-6.625.816407-9.910156.957031-1.625.144532-3.261718.171876-4.878906.21875-1.613281.050782-3.222656.105469-4.828125.070313-1.605469.003906-3.21875-.234375-4.8125-.433594-1.589844-.207031-3.148437-.15625-4.71875.128907-2.988281.597656-5.957031 1.480468-9.257813 3.375 3.710938-6.144532 7.378907-12.335938 11.183594-18.417969l.140625-.238281c2.230469-3.753907 6.328125-6.128907 10.683594-5.871094 1.230469.074218 2.449219.03125 3.644531-.078125 1.757813-.183594 3.429688-.722657 4.992188-1.539063 1.550781-.855468 3.058594-1.773437 4.585937-2.59375 1.539063-.804687 3.03125-1.691406 4.511719-2.574218 1.445312-.960938 2.890625-1.898438 4.265625-2.9375 2.773437-2.046876 5.359375-4.320313 7.734375-6.75l-.519531-.769532c-3.171875 1.199219-6.214844 2.449219-9.359375 3.40625zm0 0" fill="url(#g)"/><path d="m229.234375 180.671875c-3.84375.324219-7.804687.5-11.835937.5-2.847657 0-5.636719-.082031-8.386719-.257813-.339844-19.535156-2.480469-43.507812-8.925781-67.480468-3.832032-14.277344-9.195313-28.570313-16.625-41.933594-12.566407-22.582031-25.28125-31.941406-25.414063-32.035156-4.503906-3.261719-5.554687-9.558594-2.335937-14.089844 3.238281-4.515625 9.480468-5.609375 14.023437-2.414062 1.847656 1.296874 35.054687 25.457031 51.046875 89.433593 4.785156 19.078125 8.023438 41.675781 8.453125 68.277344zm0 0" fill="url(#h)"/><path d="m21.191406 384.996094c29.695313 75.273437 83.890625 127.003906 111.863282 127.003906 44.183593 0 50.074218-20.621094 85.421874-20.621094 35.347657 0 41.238282 20.621094 85.421876 20.621094 27.972656 0 82.167968-51.730469 111.863281-127.003906zm0 0" fill="url(#i)"/><path d="m296.628906 156.613281c-2.910156 2.167969-5.898437 4.003907-8.964844 5.625-3.125 1.542969-6.257812 2.945313-9.484374 4.125-6.421876 2.402344-13.050782 4.121094-19.726563 5.480469-13.367187 2.695312-27.003906 3.832031-40.644531 3.84375-13.613282-.050781-27.292969-1.160156-40.648438-3.851562-6.691406-1.328126-13.28125-3.125-19.714844-5.5-3.253906-1.132813-6.347656-2.59375-9.492187-4.109376-1.507813-.835937-3.089844-1.625-4.535156-2.609374-1.5625-.867188-2.917969-1.976563-4.433594-3.003907 2.023437 3.492188 4.683594 6.625 7.6875 9.429688l129.722656 129.71875c3.042969 3.308593 6.609375 6.207031 10.355469 8.707031 6.171875 4.125 12.933594 7.324219 19.902344 9.78125 13.992187 4.894531 28.738281 7.054688 43.46875 7.082031 14.699218-.023437 29.496094-2.214843 43.464844-7.109375 6.957031-2.496094 13.738281-5.609375 19.902343-9.753906 6.121094-4.125 11.8125-9.238281 15.453125-15.539062zm0 0" fill="url(#j)"/><path d="m296.628906 156.613281c-3.644531 6.304688-9.332031 11.414063-15.453125 15.542969-6.167969 4.140625-12.949219 7.253906-19.90625 9.75-13.96875 4.898438-28.761719 7.089844-43.460937 7.109375-14.730469-.027344-29.480469-2.1875-43.472656-7.082031-6.96875-2.453125-13.730469-5.65625-19.902344-9.777344-6.136719-4.09375-11.804688-9.25-15.449219-15.542969 1.515625 1.027344 2.871094 2.136719 4.433594 3.003907 1.445312.984374 3.027343 1.773437 4.535156 2.609374 3.144531 1.515626 6.238281 2.976563 9.492187 4.109376 6.433594 2.375 13.023438 4.171874 19.714844 5.5 13.355469 2.691406 27.035156 3.800781 40.648438 3.851562 13.640625-.011719 27.277344-1.148438 40.644531-3.84375 6.675781-1.359375 13.304687-3.078125 19.726563-5.480469 3.226562-1.179687 6.359374-2.582031 9.484374-4.125 3.066407-1.621093 6.054688-3.457031 8.964844-5.625zm0 0" fill="url(#k)"/><path d="m256.84375 264.046875c0-73.625-52.730469-133.3125-117.777344-133.3125s-117.777344 59.6875-117.777344 133.3125c0 73.628906 52.730469 133.3125 117.777344 133.3125s117.777344-59.683594 117.777344-133.3125zm0 0" fill="url(#l)"/></svg>