<svg height="512pt" viewBox="-59 0 512 512.00009" width="512pt" xmlns="http://www.w3.org/2000/svg" xmlns:xlink="http://www.w3.org/1999/xlink"><linearGradient id="a"><stop offset="0" stop-color="#c08552"/><stop offset="1" stop-color="#895738"/></linearGradient><linearGradient id="b" gradientUnits="userSpaceOnUse" x1="177.8057408414" x2="206.3739476266" xlink:href="#a" y1="45.708380699" y2="45.708380699"/><radialGradient id="c" cx="164.8321" cy="153.5995" gradientTransform="matrix(.896301 0 0 1.003922 -31.326282 .000314)" gradientUnits="userSpaceOnUse" r="362.6456"><stop offset="0" stop-color="#dab49d"/><stop offset=".3389" stop-color="#d9b29a"/><stop offset=".5402" stop-color="#d6ad92"/><stop offset=".7054" stop-color="#d1a484"/><stop offset=".8511" stop-color="#ca9870"/><stop offset=".9827" stop-color="#c18856"/><stop offset="1" stop-color="#c08552"/></radialGradient><linearGradient id="d" gradientUnits="userSpaceOnUse" x1="92.0331549664" x2="-167.1411556132" y1="302.857479428" y2="332.2674748102"><stop offset=".0013" stop-color="#e7eeed" stop-opacity="0"/><stop offset=".7731" stop-color="#f9fbfa" stop-opacity=".772549"/><stop offset="1" stop-color="#fff"/></linearGradient><linearGradient id="e" gradientUnits="userSpaceOnUse" x1="265.7537252982" x2="124.4846324398" y1="306.5362512048" y2="111.8988656108"><stop offset="0" stop-color="#c08552" stop-opacity="0"/><stop offset="1" stop-color="#c08552"/></linearGradient><linearGradient id="f" gradientUnits="userSpaceOnUse" x1="156.8867169508" x2="199.5485831252" xlink:href="#a" y1="49.6903369198" y2="204.5712066074"/><linearGradient id="g" gradientUnits="userSpaceOnUse" x1="23.6038236024" x2="59.1631424112" xlink:href="#a" y1="197.3816192044" y2="243.7165348002"/><linearGradient id="h" gradientUnits="userSpaceOnUse" x1="334.897246773" x2="371.0703634926" xlink:href="#a" y1="185.827782083" y2="213.4174660948"/><linearGradient id="i" gradientUnits="userSpaceOnUse" x1="260.623081525" x2="328.822514751" xlink:href="#a" y1="50.12613946" y2="143.378446196"/><linearGradient id="j" gradientUnits="userSpaceOnUse" x1="85.4143976126" x2="126.2614739876" xlink:href="#a" y1="73.3163360912" y2="133.0925625606"/><linearGradient id="k" gradientUnits="userSpaceOnUse" x1="314.1554151154" x2="354.9392444044" xlink:href="#a" y1="119.9095608176" y2="161.9293184808"/><linearGradient id="l" gradientUnits="userSpaceOnUse" x1="36.8923375476" x2="71.9897518442" xlink:href="#a" y1="152.9530510944" y2="193.3683406172"/><linearGradient id="m" gradientUnits="userSpaceOnUse" x1="133.794603499" x2="163.843996803" xlink:href="#a" y1="89.718313335" y2="131.5729258292"/><linearGradient id="n" gradientUnits="userSpaceOnUse" x1="232.0592919966" x2="275.0642987106" xlink:href="#a" y1="68.8139467056" y2="127.6167704038"/><linearGradient id="o" gradientUnits="userSpaceOnUse" x1="82.7280027328" x2="132.9851411904" xlink:href="#a" y1="186.957194333" y2="263.9468681988"/><linearGradient id="p" gradientUnits="userSpaceOnUse" x1="258.3725895776" x2="302.2576343168" xlink:href="#a" y1="178.34203769" y2="230.6305119224"/><linearGradient id="q" gradientUnits="userSpaceOnUse" x1="245.13005526" x2="292.0732471956" xlink:href="#a" y1="116.2280784514" y2="168.8043771212"/><linearGradient id="r" gradientUnits="userSpaceOnUse" x1="104.5145156236" x2="151.8208261466" xlink:href="#a" y1="148.566213131" y2="193.7700098094"/><linearGradient id="s" gradientUnits="userSpaceOnUse" x1="179.0562260846" x2="214.2616623884" xlink:href="#a" y1="72.5844769532" y2="120.7225368532"/><linearGradient id="t" gradientUnits="userSpaceOnUse" x1="172.0074889382" x2="222.2119214908" xlink:href="#a" y1="187.021445341" y2="255.6683266024"/><linearGradient id="u" gradientUnits="userSpaceOnUse" x1="178.1873315936" x2="223.6935095784" xlink:href="#a" y1="130.4389959302" y2="193.9581447922"/><path d="m216.773438 91.417969h-33.074219c0-31.75-9.191407-51.035157-16.335938-61.230469-4.394531-6.269531-4.777343-14.953125-.789062-21.554688l.402343-.664062c6.191407-10.25 19.460938-10.671875 26.261719-.921875 11.980469 17.164063 23.535157 45.082031 23.535157 84.371094zm0 0" fill="url(#b)"/><path d="m241.144531 93.101562h-88.0625c-75.292969 0-136.328125 68.367188-136.328125 152.699219v49.316407c0 98.410156 62.824219 180.371093 145.996094 198.34375 5.34375 1.15625 10.289062 3.980468 14.140625 8.292968l1.316406 1.476563c10.441407 11.691406 27.371094 11.691406 37.808594 0l1.320313-1.476563c3.847656-4.3125 8.792968-7.136718 14.140624-8.292968 83.171876-17.972657 145.996094-99.933594 145.996094-198.34375v-49.316407c0-84.335937-61.039062-152.699219-136.328125-152.699219zm0 0" fill="url(#c)"/><path d="m319.054688 293.367188c0-100.394532-64.191407-181.777344-143.371094-181.777344-79.183594 0-143.375 81.382812-143.375 181.777344 0 100.390624 64.191406 181.773437 143.375 181.773437 79.179687 0 143.371094-81.382813 143.371094-181.773437zm0 0" fill="url(#d)"/><path d="m377.472656 295.117188v-49.316407c0-84.332031-61.039062-152.699219-136.328125-152.699219h-88.0625c-71.421875 0-130.007812 61.523438-135.839843 139.832032l.226562.425781 228.722656 256.1875c75.753906-23.941406 131.28125-101.914063 131.28125-194.429687zm0 0" fill="url(#e)"/><path d="m197.113281 237.082031c55.996094 0 108.601563-4.675781 154.289063-12.875 15.054687-2.707031 24.6875-19.726562 20.488281-36.328125-16.304687-64.449218-68.703125-111.613281-130.828125-111.613281h-87.902344c-62.125 0-114.523437 47.164063-130.828125 111.613281-4.199219 16.601563 5.433594 33.625 20.492188 36.328125 45.6875 8.199219 98.292969 12.875 154.289062 12.875zm0 0" fill="url(#f)"/><path d="m39.632812 180.601562c-4.796874-.660156-9.542968-1.347656-14.242187-2.0625-13.25-2.019531-25.214844 9.292969-25.38671875 24.269532-.03125005 2.71875.15234375 5.125.65234375 6.902344 4.292969 15.1875 15.921875 27.421874 31.402344 29.925781.070312.011719.140625.023437.210937.035156 11.671875 1.886719 22.574219-6.910156 24.804688-19.878906.523437-3.03125 1.078125-6.183594 1.65625-9.332031 2.621093-14.292969-6.167969-28.089844-19.097657-29.859376zm0 0" fill="url(#g)"/><path d="m354.59375 180.601562c4.796875-.660156 9.542969-1.347656 14.238281-2.0625 13.25-2.019531 25.21875 9.292969 25.390625 24.269532.03125 2.71875-.152344 5.125-.65625 6.902344-4.289062 15.1875-15.917968 27.421874-31.398437 29.925781-.070313.011719-.144531.023437-.214844.035156-11.667969 1.886719-22.574219-6.910156-24.804687-19.878906-.519532-3.03125-1.078126-6.183594-1.65625-9.332031-2.621094-14.292969 6.167968-28.089844 19.101562-29.859376zm0 0" fill="url(#h)"/><path d="m319.976562 128.886719c7.175782.742187 14.261719 1.550781 21.25 2.417969 9.433594 1.171874 14.546876-12.011719 7.34375-18.933594-27.203124-26.136719-62.566406-41.929688-101.21875-41.929688h-14.503906c25.242188 0 48.511719 17.027344 67.128906 45.683594 4.722657 7.273438 12.003907 11.933594 20 12.761719zm0 0" fill="url(#i)"/><path d="m161.378906 70.441406h-14.503906c-38.65625 0-74.015625 15.792969-101.21875 41.929688-7.203125 6.921875-2.089844 20.105468 7.339844 18.933594 6.992187-.867188 14.078125-1.675782 21.253906-2.417969 7.996094-.828125 15.273438-5.488281 20-12.761719 18.617188-28.65625 41.882812-45.683594 67.128906-45.683594zm0 0" fill="url(#j)"/><path d="m323.941406 164.808594c.160156.457031.316406.910156.476563 1.367187 3.566406 10.324219 12.832031 16.710938 22.652343 15.441407 8.804688-1.136719 17.449219-2.375 25.925782-3.703126 8.121094-1.273437 12.722656-11.109374 9.003906-19.300781-2.050781-4.523437-4.359375-9.324219-6.636719-13.5-3.445312-6.316406-9.25-10.523437-15.804687-11.457031-4.296875-.613281-8.636719-1.199219-13.015625-1.765625-16.238281-2.09375-28.578125 15.878906-22.601563 32.917969zm0 0" fill="url(#k)"/><path d="m70.28125 164.808594c-.15625.457031-.316406.910156-.472656 1.367187-3.566406 10.324219-12.835938 16.710938-22.652344 15.441407-8.804688-1.136719-17.453125-2.375-25.925781-3.703126-8.125-1.273437-12.722657-11.109374-9.007813-19.300781 2.054688-4.523437 4.359375-9.324219 6.636719-13.5 3.449219-6.316406 9.25-10.523437 15.804687-11.457031 4.300782-.613281 8.640626-1.199219 13.019532-1.765625 16.238281-2.09375 28.578125 15.878906 22.597656 32.917969zm0 0" fill="url(#l)"/><path d="m121.074219 125.019531c8.890625-.554687 17.890625-1.011719 26.980469-1.371093 6.5625-.257813 12.183593-5.292969 13.9375-12.378907 2.5-10.113281 5.21875-18.585937 8.109374-25.144531 3.183594-7.226562-1.40625-15.683594-8.601562-15.683594h-.121094c-18.542968 0-36.023437 9.1875-51.371094 25.421875-10.25 10.839844-3.003906 30.03125 11.066407 29.15625zm0 0" fill="url(#m)"/><path d="m246.167969 123.648438c9.09375.359374 18.089843.816406 26.980469 1.371093 14.070312.875 21.316406-18.316406 11.070312-29.15625-15.351562-16.234375-32.828125-25.421875-51.371094-25.421875h-.125c-7.191406 0-11.78125 8.457032-8.601562 15.683594 2.890625 6.558594 5.609375 15.03125 8.113281 25.144531 1.753906 7.085938 7.371094 12.121094 13.933594 12.378907zm0 0" fill="url(#n)"/><path d="m122.714844 188.703125c-12.238282-.734375-24.28125-1.644531-36.097656-2.726563-13.1875-1.210937-25.109376 8.707032-27.890626 23.199219-.101562.539063-.207031 1.078125-.308593 1.621094-3.273438 17.195313 7.535156 33.804687 23.164062 35.460937 12.347657 1.3125 24.988281 2.417969 37.882813 3.304688 14.519531 1 27.027344-11.359375 27.902344-27.625.035156-.679688.074218-1.359375.109374-2.039062.886719-16.285157-10.214843-30.324219-24.761718-31.195313zm0 0" fill="url(#o)"/><path d="m271.507812 188.703125c12.242188-.734375 24.28125-1.644531 36.097657-2.726563 13.191406-1.210937 25.109375 8.707032 27.890625 23.199219.105468.539063.207031 1.078125.3125 1.621094 3.273437 17.195313-7.535156 33.804687-23.164063 35.460937-12.347656 1.3125-24.988281 2.417969-37.886719 3.304688-14.519531 1-27.023437-11.359375-27.898437-27.625-.039063-.679688-.074219-1.359375-.113281-2.039062-.882813-16.285157 10.214844-30.324219 24.761718-31.195313zm0 0" fill="url(#p)"/><path d="m272.230469 188.785156c7.785156-.460937 15.492187-.988281 23.113281-1.589844 19.210938-1.515624 30.910156-24.464843 22.226562-43.71875-.078124-.179687-.160156-.355468-.242187-.535156-4.308594-9.492187-12.683594-15.824218-22.167969-16.570312-7.707031-.609375-15.503906-1.144532-23.382812-1.605469-16.960938-.992187-30.554688 15.671875-28.066406 34.492187.15625 1.207032.316406 2.425782.46875 3.652344 1.953124 15.445313 14.144531 26.691406 28.050781 25.875zm0 0" fill="url(#q)"/><path d="m76.894531 142.941406c-.078125.179688-.160156.355469-.238281.535156-8.683594 19.253907 3.011719 42.203126 22.226562 43.71875 7.621094.601563 15.324219 1.128907 23.113282 1.589844 13.902344.816406 26.09375-10.429687 28.050781-25.871094.152344-1.226562.3125-2.445312.46875-3.65625 2.488281-18.816406-11.105469-35.484374-28.066406-34.492187-7.878907.460937-15.675781.996094-23.382813 1.605469-9.484375.746094-17.863281 7.078125-22.171875 16.570312zm0 0" fill="url(#r)"/><path d="m169.261719 88.09375c-6.679688 16.210938 4.15625 34.714844 20.09375 34.617188 2.582031-.015626 5.164062-.023438 7.757812-.023438 2.589844 0 5.175781.007812 7.753907.023438 15.9375.097656 26.773437-18.40625 20.09375-34.617188-4.683594-11.363281-9.835938-17.652344-15.246094-17.652344h-25.207032c-5.410156 0-10.5625 6.289063-15.246093 17.652344zm0 0" fill="url(#s)"/><path d="m148.054688 219.164062c-.011719.257813-.027344.515626-.039063.773438-.890625 17.171875 11.144531 31.707031 26.496094 32.015625 7.472656.148437 15.007812.222656 22.601562.222656 7.589844 0 15.128907-.074219 22.601563-.222656 15.351562-.308594 27.386718-14.84375 26.496094-32.015625-.011719-.257812-.027344-.515625-.039063-.773438-.847656-16.1875-12.9375-28.714843-27.414063-28.460937-7.164062.128906-14.378906.191406-21.644531.191406-7.261719 0-14.476562-.0625-21.644531-.191406-14.476562-.253906-26.566406 12.273437-27.414062 28.460937zm0 0" fill="url(#t)"/><path d="m197.113281 122.6875c-4.441406 0-8.867187.023438-13.273437.070312-14.644532.15625-27.023438 12.128907-29.375 28.320313-.035156.21875-.066406.441406-.097656.660156-2.933594 20.347657 10.984374 38.882813 29.386718 39.085938 4.433594.046875 8.886719.074219 13.359375.074219 4.46875 0 8.921875-.027344 13.355469-.074219 18.402344-.203125 32.320312-18.738281 29.386719-39.085938-.03125-.21875-.0625-.441406-.097657-.660156-2.351562-16.191406-14.730468-28.164063-29.375-28.320313-4.402343-.046874-8.828124-.070312-13.269531-.070312zm0 0" fill="url(#u)"/></svg>