<svg height="511pt" viewBox="0 0 511.99987 511" width="511pt" xmlns="http://www.w3.org/2000/svg" xmlns:xlink="http://www.w3.org/1999/xlink"><linearGradient id="a"><stop offset="0" stop-color="#dab49d"/><stop offset=".3389" stop-color="#d9b29a"/><stop offset=".5402" stop-color="#d6ad92"/><stop offset=".7054" stop-color="#d1a484"/><stop offset=".8511" stop-color="#ca9870"/><stop offset=".9827" stop-color="#c18856"/><stop offset="1" stop-color="#c08552"/></linearGradient><linearGradient id="b" gradientTransform="matrix(.709873 .709873 -.709873 .709873 134.832991 286.625456)" gradientUnits="userSpaceOnUse" x1="39.9089" x2="88.3414" xlink:href="#a" y1="-85.3142" y2="-85.3142"/><radialGradient id="c" cx="40.2085" cy="173.2566" gradientTransform="matrix(.709873 .709873 -.709873 .709873 134.832991 286.625456)" gradientUnits="userSpaceOnUse" r="79.3898" xlink:href="#a"/><linearGradient id="d" gradientTransform="matrix(.709873 .709873 -.709873 .709873 134.832991 286.625456)" gradientUnits="userSpaceOnUse" x1="216.6769" x2="115.678" y1="-32.9893" y2="-132.3048"><stop offset="0" stop-color="#dab49d" stop-opacity="0"/><stop offset=".1682" stop-color="#d5ab8e" stop-opacity=".168627"/><stop offset=".7198" stop-color="#c69063" stop-opacity=".721569"/><stop offset="1" stop-color="#c08552"/></linearGradient><linearGradient id="e"><stop offset="0" stop-color="#ffe548"/><stop offset=".2472" stop-color="#ffe042"/><stop offset=".5621" stop-color="#ffd133"/><stop offset=".9123" stop-color="#ffb919"/><stop offset="1" stop-color="#ffb211"/></linearGradient><linearGradient id="f" gradientTransform="matrix(.709873 .709873 -.709873 .709873 134.832991 286.625456)" gradientUnits="userSpaceOnUse" x1="59.6659" x2="67.3413" xlink:href="#e" y1="-395.1768" y2="-304.3508"/><linearGradient id="g" gradientTransform="matrix(.709873 .709873 -.709873 .709873 134.832991 286.625456)" gradientUnits="userSpaceOnUse" x1="59.6659" x2="67.3413" xlink:href="#e" y1="-131.3254" y2="-40.4994"/><linearGradient id="h" gradientTransform="matrix(.709873 .709873 -.709873 .709873 134.832991 286.625456)" gradientUnits="userSpaceOnUse" x1="59.3274" x2="67.5854" xlink:href="#e" y1="-331.5785" y2="-233.8588"/><linearGradient id="i"><stop offset="0" stop-color="#ffb211" stop-opacity="0"/><stop offset=".1722" stop-color="#ffad13" stop-opacity=".172549"/><stop offset=".383" stop-color="#ff9e1a" stop-opacity=".384314"/><stop offset=".614" stop-color="#ff8525" stop-opacity=".615686"/><stop offset=".8577" stop-color="#ff6334" stop-opacity=".858824"/><stop offset="1" stop-color="#ff4b3e"/></linearGradient><linearGradient id="j" gradientTransform="matrix(.709873 .709873 -.709873 .709873 134.832991 286.625456)" gradientUnits="userSpaceOnUse" x1="75.1247" x2="51.9144" xlink:href="#i" y1="-58.7483" y2="-161.1936"/><linearGradient id="k" gradientTransform="matrix(.709873 .709873 -.709873 .709873 134.832991 286.625456)" gradientUnits="userSpaceOnUse" x1="59.3274" x2="67.5854" xlink:href="#e" y1="-194.4941" y2="-96.7743"/><linearGradient id="l" gradientTransform="matrix(.709873 .709873 -.709873 .709873 134.832991 286.625456)" gradientUnits="userSpaceOnUse" x1="100.0135" x2="73.6098" xlink:href="#i" y1="-256.1237" y2="-372.6641"/><linearGradient id="m" gradientTransform="matrix(.709873 .709873 -.709873 .709873 134.832991 286.625456)" gradientUnits="userSpaceOnUse" x1="81.9228" x2="55.2881" xlink:href="#i" y1="-115.264" y2="-232.8238"/><linearGradient id="n" gradientTransform="matrix(.709873 .709873 -.709873 .709873 134.832991 286.625456)" gradientUnits="userSpaceOnUse" x1="59.0951" x2="67.753" xlink:href="#e" y1="-265.7859" y2="-163.3334"/><linearGradient id="o" gradientTransform="matrix(.709873 .709873 -.709873 .709873 134.832991 286.625456)" gradientUnits="userSpaceOnUse" x1="95.9549" x2="66.6137" xlink:href="#i" y1="-184.6079" y2="-314.1135"/><path d="m84.292969 462.589844-34.382813-34.382813 347.628906-347.628906 34.382813 34.382813zm0 0" fill="url(#b)"/><path d="m86.046875 469.476562c0 23.761719-19.261719 43.023438-43.023437 43.023438-23.761719 0-43.023438-19.261719-43.023438-43.023438 0-23.761718 19.261719-43.023437 43.023438-43.023437 23.761718 0 43.023437 19.261719 43.023437 43.023437zm0 0" fill="url(#c)"/><path d="m189.171875 288.949219v68.761719l242.75-242.75-34.382813-34.382813zm0 0" fill="url(#d)"/><path d="m509.960938 154.394531c4.746093-14.566406 1.003906-30.574219-9.132813-42.058593-61.144531-69.25-31.414063-39.523438-100.664063-100.664063-11.484374-10.136719-27.492187-13.878906-42.054687-9.132813-10.808594 3.523438-17.703125 10.421876-21.226563 21.226563-4.75 14.566406-1.003906 30.574219 9.132813 42.054687 61.140625 69.253907 31.410156 39.523438 100.664063 100.664063 11.484374 10.140625 27.492187 13.882813 42.054687 9.136719 10.808594-3.523438 17.703125-10.421875 21.226563-21.226563zm0 0" fill="url(#f)"/><path d="m322.660156 341.695312c4.746094-14.566406 1.003906-30.574218-9.132812-42.058593-61.140625-69.253907-31.414063-39.523438-100.664063-100.664063-11.484375-10.136718-27.492187-13.882812-42.058593-9.132812-10.804688 3.523437-17.703126 10.417968-21.222657 21.226562-4.75 14.5625-1.007812 30.574219 9.132813 42.054688 61.140625 69.253906 31.410156 39.523437 100.664062 100.664062 11.480469 10.140625 27.488282 13.882813 42.054688 9.132813 10.804687-3.519531 17.703125-10.417969 21.226562-21.222657zm0 0" fill="url(#g)"/><path d="m490.113281 230.527344c4.75-14.566406 1.007813-30.574219-9.132812-42.054688-61.140625-69.253906-87.699219-95.8125-156.953125-156.953125-11.484375-10.140625-27.488282-13.882812-42.054688-9.132812-10.808594 3.523437-17.703125 10.417969-21.226562 21.226562-4.746094 14.5625-1.003906 30.570313 9.132812 42.054688 61.140625 69.253906 87.699219 95.8125 156.953125 156.953125 11.484375 10.136718 27.492188 13.878906 42.054688 9.132812 10.808593-3.523437 17.703125-10.421875 21.226562-21.226562zm0 0" fill="url(#h)"/><path d="m313.527344 299.636719c-61.140625-69.253907-31.414063-39.523438-100.664063-100.664063-9.707031-8.570312-22.648437-12.546875-35.21875-10.710937v86.441406c36.347657 41.6875 21.078125 25.535156 81.730469 79.082031 11.484375 10.140625 27.492188 13.882813 42.054688 9.132813 10.808593-3.519531 17.703124-10.417969 21.230468-21.222657 4.746094-14.566406 1.003906-30.574218-9.132812-42.058593zm0 0" fill="url(#j)"/><path d="m392.800781 327.839844c4.75-14.5625 1.007813-30.574219-9.132812-42.058594-61.140625-69.25-87.699219-95.808594-156.953125-156.949219-11.480469-10.140625-27.488282-13.882812-42.054688-9.132812-10.804687 3.523437-17.703125 10.417969-21.226562 21.226562-4.746094 14.5625-1.003906 30.570313 9.136718 42.054688 61.140626 69.25 87.699219 95.808593 156.949219 156.953125 11.484375 10.136718 27.492188 13.878906 42.058594 9.132812 10.804687-3.523437 17.699219-10.417968 21.222656-21.226562zm0 0" fill="url(#k)"/><path d="m468.886719 251.753906c10.808593-3.523437 17.703125-10.421875 21.230469-21.226562 4.746093-14.5625 1.003906-30.574219-9.136719-42.054688-57.972657-65.667968-84.859375-92.953125-146.53125-147.726562v115.421875c26.484375 27.226562 52.273437 51.039062 92.382812 86.453125 11.484375 10.136718 27.492188 13.878906 42.054688 9.132812zm0 0" fill="url(#l)"/><path d="m392.800781 327.839844c4.75-14.5625 1.007813-30.574219-9.132812-42.058594-59.496094-67.386719-86.25-94.355469-151.457031-152.09375l-26.742188-14.964844v101.027344c40.453125 44.375 68.535156 71.167969 124.050781 120.183594 11.484375 10.136718 27.492188 13.882812 42.058594 9.132812 10.804687-3.523437 17.699219-10.417968 21.222656-21.226562zm0 0" fill="url(#m)"/><path d="m460.78125 298.503906c4.746094-14.5625 1.003906-30.574218-9.136719-42.054687-61.140625-69.253907-126.339843-134.453125-195.59375-195.59375-11.484375-10.140625-27.492187-13.882813-42.054687-9.136719-10.808594 3.523438-17.703125 10.421875-21.226563 21.226562-4.75 14.566407-1.003906 30.574219 9.132813 42.058594 61.140625 69.25 126.34375 134.453125 195.59375 195.59375 11.484375 10.136719 27.492187 13.882813 42.058594 9.132813 10.804687-3.523438 17.703124-10.417969 21.226562-21.226563zm0 0" fill="url(#n)"/><path d="m259.4375 177.710938c44.074219 46.238281 90.09375 90.539062 138.058594 132.886718 11.484375 10.136719 27.492187 13.882813 42.058594 9.132813 10.804687-3.523438 17.703124-10.417969 21.226562-21.226563 4.75-14.5625 1.003906-30.570312-9.132812-42.054687-60.140626-68.121094-124.222657-132.308594-192.210938-192.582031zm0 0" fill="url(#o)"/></svg>