<svg height="512pt" viewBox="-29 0 512 512.00028" width="512pt" xmlns="http://www.w3.org/2000/svg" xmlns:xlink="http://www.w3.org/1999/xlink"><linearGradient id="a"><stop offset="0" stop-color="#acc130"/><stop offset="1" stop-color="#97a03b"/></linearGradient><linearGradient id="b" gradientUnits="userSpaceOnUse" x1="180.2094704806" x2="408.7514102508" xlink:href="#a" y1="207.2166788618" y2="207.2166788618"/><linearGradient id="c"><stop offset="0" stop-color="#acc130"/><stop offset=".3485" stop-color="#a9bd31"/><stop offset=".6956" stop-color="#a2b135"/><stop offset="1" stop-color="#97a03b"/></linearGradient><radialGradient id="d" cx="126.6354741272" cy="138.9559060016" gradientUnits="userSpaceOnUse" r="338.1611868722" xlink:href="#c"/><linearGradient id="e"><stop offset="0" stop-color="#ffb211"/><stop offset="1" stop-color="#ff4b3e"/></linearGradient><linearGradient id="f" gradientUnits="userSpaceOnUse" x1="223.8061888214" x2="225.0531603376" xlink:href="#e" y1="35.6283384658" y2="78.4415960778"/><linearGradient id="g"><stop offset="0" stop-color="#97a03b" stop-opacity="0"/><stop offset="1" stop-color="#575c55"/></linearGradient><linearGradient id="h" gradientUnits="userSpaceOnUse" x1="232.2126300806" x2="207.3324311546" xlink:href="#g" y1="72.3752970006" y2="-17.6975887614"/><linearGradient id="i" gradientUnits="userSpaceOnUse" x1="229.0082114488" x2="217.8077548714" xlink:href="#g" y1="116.445665741" y2="-18.7080362544"/><linearGradient id="j" gradientUnits="userSpaceOnUse" x1="223.5609306768" x2="223.976654777" xlink:href="#e" y1="11.7277666274" y2="49.9686614904"/><linearGradient id="k"><stop offset="0" stop-color="#97a03b" stop-opacity="0"/><stop offset=".2147" stop-color="#919a3d" stop-opacity=".215686"/><stop offset=".5066" stop-color="#818844" stop-opacity=".505882"/><stop offset=".8414" stop-color="#666c4f" stop-opacity=".843137"/><stop offset="1" stop-color="#575c55"/></linearGradient><linearGradient id="l" gradientUnits="userSpaceOnUse" x1="277.5829774188" x2="277.5829774188" xlink:href="#k" y1="361.9575014304" y2="430.4229739864"/><linearGradient id="m" gradientUnits="userSpaceOnUse" x1="277.5833789876" x2="277.5833789876" xlink:href="#e" y1="421.1305715622" y2="505.9616793856"/><linearGradient id="n"><stop offset="0" stop-color="#ff4b3e" stop-opacity="0"/><stop offset=".1177" stop-color="#f5493b" stop-opacity=".117647"/><stop offset=".3191" stop-color="#da4332" stop-opacity=".317647"/><stop offset=".5796" stop-color="#ad3923" stop-opacity=".580392"/><stop offset=".886" stop-color="#702c0f" stop-opacity=".886275"/><stop offset="1" stop-color="#582707"/></linearGradient><linearGradient id="o" gradientUnits="userSpaceOnUse" x1="432.0963112622" x2="386.8475388782" xlink:href="#n" y1="417.9079819422" y2="492.8655168956"/><linearGradient id="p" gradientUnits="userSpaceOnUse" x1="395.9888510414" x2="350.7400786574" xlink:href="#n" y1="417.9079819422" y2="492.8655168956"/><linearGradient id="q" gradientUnits="userSpaceOnUse" x1="359.8812904284" x2="314.6325180444" xlink:href="#n" y1="417.9079819422" y2="492.8655168956"/><linearGradient id="r" gradientUnits="userSpaceOnUse" x1="323.7737298154" x2="278.5250578236" xlink:href="#n" y1="417.9079819422" y2="492.8655168956"/><linearGradient id="s" gradientUnits="userSpaceOnUse" x1="287.6662695946" x2="242.4174972106" xlink:href="#n" y1="417.9079819422" y2="492.8655168956"/><linearGradient id="t" gradientUnits="userSpaceOnUse" x1="251.5587089816" x2="206.3099365976" xlink:href="#n" y1="417.9079819422" y2="492.8655168956"/><linearGradient id="u" gradientUnits="userSpaceOnUse" x1="216.3419283592" x2="176.4668492646" xlink:href="#n" y1="416.4340236618" y2="482.4897822412"/><linearGradient id="v" gradientUnits="userSpaceOnUse" x1="182.0461457796" x2="153.1317866888" xlink:href="#n" y1="413.4275784484" y2="461.3262029514"/><linearGradient id="w" gradientUnits="userSpaceOnUse" x1="146.1281256402" x2="103.7824948958" xlink:href="#n" y1="418.5643461458" y2="488.7126931504"/><linearGradient id="x" gradientUnits="userSpaceOnUse" x1="123.7687748562" x2="92.196833447" xlink:href="#n" y1="422.8389456296" y2="475.139968887"/><linearGradient id="y" gradientUnits="userSpaceOnUse" x1="207.1754177538" x2="348.9934551618" xlink:href="#k" y1="174.3501800336" y2="167.1391086998"/><linearGradient id="z" gradientUnits="userSpaceOnUse" x1="254.152542253" x2="91.3116754196" y1="282.9633968994" y2="192.9074774192"><stop offset="0" stop-color="#97a03b" stop-opacity="0"/><stop offset=".2541" stop-color="#848b43" stop-opacity=".254902"/><stop offset=".738" stop-color="#636950" stop-opacity=".737255"/><stop offset="1" stop-color="#575c55"/></linearGradient><linearGradient id="A" gradientUnits="userSpaceOnUse" x1="78.962631682" x2="307.5045714522" xlink:href="#a" y1="250.0977012088" y2="250.0977012088"/><radialGradient id="B" cx="25.3886353286" cy="181.8369283486" gradientUnits="userSpaceOnUse" r="338.16108648" xlink:href="#c"/><linearGradient id="C" gradientUnits="userSpaceOnUse" x1="122.5592496306" x2="123.8061207546" xlink:href="#e" y1="78.509461205" y2="121.3226184248"/><linearGradient id="D" gradientUnits="userSpaceOnUse" x1="130.9656908898" x2="106.0854919638" xlink:href="#g" y1="115.2563193476" y2="25.1834335856"/><linearGradient id="E" gradientUnits="userSpaceOnUse" x1="127.761272258" x2="116.5608156806" xlink:href="#g" y1="159.3267884802" y2="24.1730864848"/><linearGradient id="F" gradientUnits="userSpaceOnUse" x1="122.3140918782" x2="122.7298159784" xlink:href="#e" y1="54.6087889744" y2="92.8496838374"/><linearGradient id="G" gradientUnits="userSpaceOnUse" x1="176.3361386202" x2="176.3361386202" xlink:href="#k" y1="404.8385237774" y2="473.3039963334"/><linearGradient id="H" gradientUnits="userSpaceOnUse" x1="176.3363394046" x2="176.3363394046" xlink:href="#e" y1="464.0116943014" y2="548.8426013404"/><linearGradient id="I" gradientUnits="userSpaceOnUse" x1="330.8493720714" x2="285.6007000796" xlink:href="#n" y1="460.7890042892" y2="535.7465392426"/><linearGradient id="J" gradientUnits="userSpaceOnUse" x1="294.7419118506" x2="249.4931394666" xlink:href="#n" y1="460.7890042892" y2="535.7465392426"/><linearGradient id="K" gradientUnits="userSpaceOnUse" x1="258.6343512376" x2="213.3856792458" xlink:href="#n" y1="460.7890042892" y2="535.7465392426"/><linearGradient id="L" gradientUnits="userSpaceOnUse" x1="222.5268910168" x2="177.2781186328" xlink:href="#n" y1="460.7890042892" y2="535.7465392426"/><linearGradient id="M" gradientUnits="userSpaceOnUse" x1="186.4193304038" x2="141.1705580198" xlink:href="#n" y1="460.7890042892" y2="535.7465392426"/><linearGradient id="N" gradientUnits="userSpaceOnUse" x1="150.3117697908" x2="105.063097799" xlink:href="#n" y1="460.7890042892" y2="535.7465392426"/><linearGradient id="O" gradientUnits="userSpaceOnUse" x1="115.0950895606" x2="75.220010466" xlink:href="#n" y1="459.3150460088" y2="525.3708045882"/><linearGradient id="P" gradientUnits="userSpaceOnUse" x1="80.799306981" x2="51.8850482824" xlink:href="#n" y1="456.3087011876" y2="504.2072252984"/><linearGradient id="Q" gradientUnits="userSpaceOnUse" x1="44.8811864494" x2="2.5356560972" xlink:href="#n" y1="461.4453684928" y2="531.5937154974"/><linearGradient id="R" gradientUnits="userSpaceOnUse" x1="22.5218356654" x2="-9.0501057438" xlink:href="#n" y1="465.7199679766" y2="518.020991234"/><linearGradient id="S"><stop offset="0" stop-color="#c08552"/><stop offset="1" stop-color="#895738"/></linearGradient><linearGradient id="T" gradientUnits="userSpaceOnUse" x1="49.359983668" x2="119.4030192548" xlink:href="#S" y1="292.5592849442" y2="292.5592849442"/><linearGradient id="U" gradientUnits="userSpaceOnUse" x1="114.055729114" x2="143.065059226" xlink:href="#S" y1="320.4071776944" y2="320.4071776944"/><linearGradient id="V" gradientUnits="userSpaceOnUse" x1="103.1734154184" x2="119.7031919328" xlink:href="#S" y1="344.3717997564" y2="344.3717997564"/><linearGradient id="W" gradientUnits="userSpaceOnUse" x1="105.9285789552" x2="247.746515971" xlink:href="#k" y1="217.2312023806" y2="210.0201310468"/><path d="m444.246094 414.433594 1.53125-12.121094c7.28125-57.632812-40.847656-107.105469-98.664063-101.414062l-2.859375.285156c-13.546875 0-24.265625-11.460938-23.359375-24.976563l16.703125-249.496093c.371094-5.53125-2.828125-10.683594-7.949218-12.804688l-3.539063-1.464844c-67.476563-17.699218-138.523437-16.492187-205.363281 3.488282-6.789063.855468-11.730469 6.855468-11.273438 13.683593l24.996094 185.753907c6.105469 45.382812.707031 91.574218-15.699219 134.324218-6.6875 17.414063-10.113281 35.910156-10.113281 54.566406v10.175782zm0 0" fill="url(#b)"/><path d="m444.246094 414.433594 1.53125-12.121094c7.28125-57.632812-40.847656-107.105469-98.664063-101.414062l-2.859375.285156c-13.546875 0-24.265625-11.460938-23.359375-24.976563l16.703125-249.496093c.371094-5.53125-2.828125-10.683594-7.949218-12.804688l-3.539063-1.464844c-67.476563-17.699218-138.523437-16.492187-205.363281 3.488282-6.789063.855468-11.730469 6.855468-11.273438 13.683593l24.996094 185.753907c6.105469 45.382812.707031 91.574218-15.699219 134.324218-6.6875 17.414063-10.113281 35.910156-10.113281 54.566406v10.175782zm0 0" fill="url(#d)"/><path d="m335.152344 63.335938-.78125 11.59375c-1.269532-1.4375-2.867188-2.597657-4.726563-3.367188l-3.539062-1.46875c-67.472657-17.699219-138.523438-16.492188-205.359375 3.488281-1.878906.230469-3.605469.867188-5.117188 1.796875l-1.539062-11.460937c1.839844-1.539063 4.117187-2.570313 6.65625-2.890625 66.835937-19.988282 137.886718-21.1875 205.363281-3.484375l3.535156 1.457031c2.257813.929688 4.136719 2.449219 5.507813 4.335938zm0 0" fill="url(#f)"/><path d="m329.644531 32.414062-3.535156-1.46875c-67.476563-17.703124-138.527344-16.492187-205.363281 3.488282-4.265625.539062-7.804688 3.105468-9.734375 6.636718l.039062.28125 1.382813 10.230469 60.324218 60.328125c2.011719-2.457031 4.929688-4.167968 8.316407-4.597656 49.421875-14.773438 101.148437-19.269531 152.027343-13.460938l3.722657-55.597656c-.03125-.027344-.054688-.0625-.089844-.089844-.367187-.417968-.761719-.816406-1.183594-1.183593-.367187-.417969-.757812-.8125-1.179687-1.183594-1.277344-1.4375-2.867188-2.617187-4.726563-3.382813zm0 0" fill="url(#h)"/><path d="m201.550781 161.300781c1.511719-.929687 3.242188-1.566406 5.117188-1.796875 40.074219-11.980468 81.664062-17.203125 123.085937-15.65625l5.402344-80.683594c-.199219-.1875-.394531-.378906-.605469-.550781-1.304687-1.546875-2.949219-2.8125-4.90625-3.617187l-3.535156-1.457032c-67.476563-17.699218-138.527344-16.5-205.363281 3.488282-2.539063.320312-4.816406 1.347656-6.65625 2.886718l1.5 11.160157.039062.304687c.4375-.261718 85.921875 85.921875 85.921875 85.921875zm0 0" fill="url(#i)"/><path d="m335.152344 63.335938-.78125 11.59375c-1.269532-1.4375-2.867188-2.597657-4.726563-3.367188l-3.539062-1.46875c-67.472657-17.699219-138.523438-16.492188-205.359375 3.488281-1.878906.230469-3.605469.867188-5.117188 1.796875l-1.539062-11.460937c1.839844-1.539063 4.117187-2.570313 6.65625-2.890625 66.835937-19.988282 137.886718-21.1875 205.363281-3.484375l3.535156 1.457031c2.257813.929688 4.136719 2.449219 5.507813 4.335938zm0 0" fill="url(#f)"/><path d="m336.730469 39.617188-.730469 11.035156c-1.378906-2.507813-3.578125-4.535156-6.355469-5.6875l-3.539062-1.46875c-67.472657-17.699219-138.523438-16.492188-205.359375 3.488281-3.386719.429687-6.304688 2.140625-8.316406 4.597656l-1.417969-10.511719c1.929687-3.527343 5.46875-6.097656 9.734375-6.636718 66.835937-19.980469 137.886718-21.191406 205.359375-3.488282l3.539062 1.46875c3.320313 1.367188 5.828125 4.015626 7.085938 7.203126zm0 0" fill="url(#j)"/><path d="m118.769531 349.691406c-6.683593 17.414063-10.113281 35.910156-10.113281 54.566406v10.175782h335.589844l1.53125-12.121094c2.476562-19.582031-1.453125-38.222656-9.980469-54.074219h-316.484375c-.179688.480469-.359375.96875-.542969 1.453125zm0 0" fill="url(#l)"/><path d="m433.535156 405.269531h-311.90625c-11.253906 0-20.378906 9.125-20.378906 20.382813v23.085937c0 11.253907 9.125 20.378907 20.378906 20.378907h21.234375c11.257813 0 20.382813-9.125 20.382813-20.378907v-7.890625c0-7.535156 9.417968-10.945312 14.242187-5.15625 3.058594 3.667969 4.71875 8.296875 4.726563 13.074219.011718 11.242187 9.132812 20.351563 20.378906 20.351563h230.941406c11.257813 0 20.382813-9.125 20.382813-20.378907v-23.085937c0-11.257813-9.125-20.382813-20.382813-20.382813zm0 0" fill="url(#m)"/><path d="m453.917969 425.652344v23.085937c0 11.253907-9.125 20.378907-20.378907 20.378907h-37.679687c11.265625 0 20.390625-9.125 20.390625-20.378907v-23.085937c0-11.253906-9.128906-20.378906-20.390625-20.378906h37.679687c11.253907 0 20.378907 9.125 20.378907 20.378906zm0 0" fill="url(#o)"/><path d="m417.8125 425.652344v23.085937c0 11.253907-9.125 20.378907-20.378906 20.378907h-37.679688c11.261719 0 20.386719-9.125 20.386719-20.378907v-23.085937c0-11.253906-9.125-20.378906-20.386719-20.378906h37.679688c11.253906 0 20.378906 9.125 20.378906 20.378906zm0 0" fill="url(#p)"/><path d="m381.703125 425.652344v23.085937c0 11.253907-9.125 20.378907-20.378906 20.378907h-37.679688c11.265625 0 20.386719-9.125 20.386719-20.378907v-23.085937c0-11.253906-9.125-20.378906-20.386719-20.378906h37.679688c11.253906 0 20.378906 9.125 20.378906 20.378906zm0 0" fill="url(#q)"/><path d="m345.597656 425.652344v23.085937c0 11.253907-9.125 20.378907-20.378906 20.378907h-37.679688c11.261719 0 20.386719-9.125 20.386719-20.378907v-23.085937c0-11.253906-9.125-20.378906-20.386719-20.378906h37.679688c11.253906 0 20.378906 9.125 20.378906 20.378906zm0 0" fill="url(#r)"/><path d="m309.488281 425.652344v23.085937c0 11.253907-9.125 20.378907-20.378906 20.378907h-37.679687c11.265624 0 20.390624-9.125 20.390624-20.378907v-23.085937c0-11.253906-9.125-20.378906-20.390624-20.378906h37.679687c11.253906 0 20.378906 9.125 20.378906 20.378906zm0 0" fill="url(#s)"/><path d="m273.382812 425.652344v23.085937c0 11.253907-9.125 20.378907-20.378906 20.378907h-37.683594c11.265626 0 20.390626-9.125 20.390626-20.378907v-23.085937c0-11.253906-9.125-20.378906-20.390626-20.378906h37.683594c11.253906 0 20.378906 9.125 20.378906 20.378906zm0 0" fill="url(#t)"/><path d="m237.273438 425.652344v23.085937c0 11.253907-9.125 20.378907-20.378907 20.378907h-14.300781c-4.015625 0-7.753906-1.15625-10.902344-3.167969-.261718-.160157-.523437-.328125-.773437-.519531 5.257812-3.6875 8.6875-9.785157 8.6875-16.691407v-23.085937c0-11.253906-9.125-20.378906-20.386719-20.378906h37.679688c11.25 0 20.375 9.125 20.375 20.378906zm0 0" fill="url(#u)"/><path d="m201.164062 425.652344v23.085937c0 7.25-3.777343 13.605469-9.476562 17.214844-.257812-.160156-.519531-.332031-.769531-.523437-5.257813-3.667969-8.695313-9.761719-8.703125-16.667969 0-2.390625-.421875-4.738281-1.21875-6.957031-.800782-2.210938-1.980469-4.277344-3.507813-6.117188-3.5-4.207031-9.4375-3.558594-12.425781.007812-.71875.871094-1.269531 1.910157-1.570312 3.101563v-13.144531c0-11.253906-9.121094-20.378906-20.386719-20.378906h37.679687c11.253906 0 20.378906 9.125 20.378906 20.378906zm0 0" fill="url(#v)"/><path d="m165.0625 425.652344v10.042968c-.71875.871094-1.269531 1.910157-1.570312 3.101563v9.941406c0 11.253907-9.121094 20.378907-20.386719 20.378907h-21.480469c-2.277344 0-4.476562-.378907-6.523438-1.078126-.261718-.078124-.523437-.167968-.78125-.28125 7.65625-2.9375 13.074219-10.34375 13.074219-19.019531v-23.085937c0-8.675782-5.417969-16.082032-13.074219-19.019532.257813-.109374.519532-.199218.78125-.28125 2.046876-.699218 4.246094-1.078124 6.523438-1.078124h23.058594c11.253906 0 20.378906 9.125 20.378906 20.378906zm0 0" fill="url(#w)"/><path d="m128.953125 425.652344v23.085937c0 8.976563-5.796875 16.59375-13.851563 19.300781-.261718-.078124-.519531-.167968-.78125-.28125-7.644531-2.925781-13.074218-10.34375-13.074218-19.019531v-23.085937c0-8.675782 5.429687-16.089844 13.074218-19.019532.261719-.109374.519532-.199218.78125-.28125 8.054688 2.710938 13.851563 10.324219 13.851563 19.300782zm0 0" fill="url(#x)"/><path d="m212.078125 347.785156s54.886719-46.601562 132.175781-46.601562c-13.546875 0-24.265625-11.460938-23.359375-24.976563l16.703125-249.496093c.371094-5.53125-2.828125-10.683594-7.949218-12.804688l-3.539063-1.464844c-37.355469-9.800781-75.804687-13.792968-114.027344-12.023437v347.367187zm0 0" fill="url(#y)"/><path d="m134.46875 215.367188c6.109375 45.382812.707031 91.574218-15.699219 134.324218-6.683593 17.417969-10.113281 35.910156-10.113281 54.566406v10.175782h335.589844l1.53125-12.117188c7.28125-57.636718-40.847656-107.109375-98.664063-101.414062l-2.859375.28125c-13.546875 0-24.265625-11.460938-23.359375-24.976563l7.96875-119.011719-100.464843-100.40625-3.535157-1.464843c-37.203125-9.757813-75.488281-13.757813-113.554687-12.046875zm0 0" fill="url(#z)"/><path d="m343 457.3125 1.53125-12.117188c7.28125-57.636718-40.851562-107.109374-98.664062-101.414062l-2.859376.28125c-13.546874 0-24.265624-11.460938-23.359374-24.976562l16.703124-249.496094c.371094-5.53125-2.828124-10.679688-7.949218-12.800782l-3.539063-1.464843c-67.476562-17.703125-138.523437-16.496094-205.359375 3.488281-6.792968.855469-11.734375 6.855469-11.277344 13.683594l24.996094 185.75c6.109375 45.382812.710938 91.574218-15.699218 134.324218-6.683594 17.417969-10.113282 35.914063-10.113282 54.566407v10.175781zm0 0" fill="url(#A)"/><path d="m343 457.3125 1.53125-12.117188c7.28125-57.636718-40.851562-107.109374-98.664062-101.414062l-2.859376.28125c-13.546874 0-24.265624-11.460938-23.359374-24.976562l16.703124-249.496094c.371094-5.53125-2.828124-10.679688-7.949218-12.800782l-3.539063-1.464843c-67.476562-17.703125-138.523437-16.496094-205.359375 3.488281-6.792968.855469-11.734375 6.855469-11.277344 13.683594l24.996094 185.75c6.109375 45.382812.710938 91.574218-15.699218 134.324218-6.683594 17.417969-10.113282 35.914063-10.113282 54.566407v10.175781zm0 0" fill="url(#B)"/><path d="m233.90625 106.21875-.78125 11.59375c-1.265625-1.441406-2.867188-2.601562-4.726562-3.371094l-3.535157-1.46875c-67.476562-17.699218-138.527343-16.488281-205.363281 3.488282-1.878906.230468-3.605469.871093-5.117188 1.800781l-1.539062-11.464844c1.839844-1.539063 4.117188-2.570313 6.65625-2.886719 66.835938-19.988281 137.886719-21.191406 205.359375-3.488281l3.539063 1.457031c2.257812.929688 4.136718 2.449219 5.507812 4.339844zm0 0" fill="url(#C)"/><path d="m228.398438 75.292969-3.539063-1.46875c-67.472656-17.699219-138.523437-16.492188-205.359375 3.488281-4.265625.539062-7.804688 3.109375-9.734375 6.636719l.039063.28125 1.378906 10.234375 60.328125 60.324218c2.007812-2.457031 4.925781-4.164062 8.316406-4.59375 49.417969-14.773437 101.144531-19.273437 152.027344-13.464843l3.722656-55.59375c-.03125-.03125-.058594-.066407-.089844-.09375-.371093-.414063-.761719-.8125-1.183593-1.183594-.367188-.414063-.761719-.8125-1.183594-1.179687-1.273438-1.441407-2.863282-2.621094-4.722656-3.386719zm0 0" fill="url(#D)"/><path d="m100.304688 204.183594c1.507812-.929688 3.238281-1.570313 5.117187-1.796875 40.074219-11.980469 81.660156-17.203125 123.085937-15.65625l5.402344-80.683594c-.199218-.1875-.394531-.378906-.609375-.554687-1.300781-1.542969-2.949219-2.808594-4.902343-3.613282l-3.539063-1.457031c-67.472656-17.703125-138.527344-16.503906-205.359375 3.488281-2.539062.316406-4.820312 1.347656-6.65625 2.886719l1.496094 11.160156.042968.304688c.4375-.265625 85.921876 85.921875 85.921876 85.921875zm0 0" fill="url(#E)"/><path d="m233.90625 106.21875-.78125 11.59375c-1.265625-1.441406-2.867188-2.601562-4.726562-3.371094l-3.535157-1.46875c-67.476562-17.699218-138.527343-16.488281-205.363281 3.488282-1.878906.230468-3.605469.871093-5.117188 1.800781l-1.539062-11.464844c1.839844-1.539063 4.117188-2.570313 6.65625-2.886719 66.835938-19.988281 137.886719-21.191406 205.359375-3.488281l3.539063 1.457031c2.257812.929688 4.136718 2.449219 5.507812 4.339844zm0 0" fill="url(#C)"/><path d="m235.484375 82.5-.730469 11.035156c-1.378906-2.507812-3.578125-4.539062-6.355468-5.6875l-3.539063-1.46875c-67.472656-17.699218-138.523437-16.492187-205.359375 3.488282-3.386719.429687-6.304688 2.136718-8.316406 4.597656l-1.417969-10.515625c1.929687-3.527344 5.46875-6.097657 9.734375-6.636719 66.835938-19.976562 137.886719-21.1875 205.359375-3.488281l3.539063 1.46875c3.316406 1.371093 5.828124 4.019531 7.085937 7.207031zm0 0" fill="url(#F)"/><path d="m17.523438 392.574219c-6.683594 17.414062-10.113282 35.910156-10.113282 54.566406v10.175781h335.589844l1.53125-12.121094c2.472656-19.585937-1.453125-38.222656-9.984375-54.078124h-316.480469c-.179687.484374-.359375.972656-.542968 1.457031zm0 0" fill="url(#G)"/><path d="m332.289062 448.152344h-311.90625c-11.257812 0-20.37890575 9.125-20.37890575 20.382812v23.082032c0 11.257812 9.12109375 20.382812 20.37890575 20.382812h21.234376c11.257812 0 20.382812-9.125 20.382812-20.382812v-7.886719c0-7.535157 9.417969-10.949219 14.242188-5.160157 3.058593 3.671876 4.71875 8.296876 4.722656 13.074219.015625 11.246094 9.136718 20.355469 20.382812 20.355469h230.941406c11.257813 0 20.378907-9.125 20.378907-20.378906v-23.085938c0-11.257812-9.121094-20.382812-20.378907-20.382812zm0 0" fill="url(#H)"/><path d="m352.671875 468.535156v23.085938c0 11.253906-9.125 20.378906-20.378906 20.378906h-37.679688c11.265625 0 20.386719-9.125 20.386719-20.378906v-23.085938c0-11.253906-9.121094-20.378906-20.386719-20.378906h37.679688c11.253906 0 20.378906 9.125 20.378906 20.378906zm0 0" fill="url(#I)"/><path d="m316.566406 468.535156v23.085938c0 11.253906-9.125 20.378906-20.378906 20.378906h-37.679688c11.261719 0 20.386719-9.125 20.386719-20.378906v-23.085938c0-11.253906-9.125-20.378906-20.386719-20.378906h37.679688c11.25 0 20.378906 9.125 20.378906 20.378906zm0 0" fill="url(#J)"/><path d="m280.457031 468.535156v23.085938c0 11.253906-9.125 20.378906-20.378906 20.378906h-37.679687c11.261718 0 20.386718-9.125 20.386718-20.378906v-23.085938c0-11.253906-9.125-20.378906-20.386718-20.378906h37.679687c11.253906 0 20.378906 9.125 20.378906 20.378906zm0 0" fill="url(#K)"/><path d="m244.351562 468.535156v23.085938c0 11.253906-9.125 20.378906-20.378906 20.378906h-37.683594c11.265626 0 20.390626-9.125 20.390626-20.378906v-23.085938c0-11.253906-9.125-20.378906-20.390626-20.378906h37.683594c11.25 0 20.378906 9.125 20.378906 20.378906zm0 0" fill="url(#L)"/><path d="m208.242188 468.535156v23.085938c0 11.253906-9.125 20.378906-20.378907 20.378906h-37.679687c11.261718 0 20.386718-9.125 20.386718-20.378906v-23.085938c0-11.253906-9.125-20.378906-20.386718-20.378906h37.679687c11.253907 0 20.378907 9.125 20.378907 20.378906zm0 0" fill="url(#M)"/><path d="m172.132812 468.535156v23.085938c0 11.253906-9.121093 20.378906-20.375 20.378906h-37.683593c11.265625 0 20.390625-9.125 20.390625-20.378906v-23.085938c0-11.253906-9.125-20.378906-20.390625-20.378906h37.683593c11.25 0 20.375 9.125 20.375 20.378906zm0 0" fill="url(#N)"/><path d="m136.027344 468.535156v23.085938c0 11.253906-9.125 20.378906-20.378906 20.378906h-14.300782c-4.019531 0-7.757812-1.160156-10.90625-3.167969-.257812-.160156-.519531-.332031-.769531-.519531 5.257813-3.691406 8.683594-9.785156 8.683594-16.691406v-23.089844c0-11.253906-9.125-20.378906-20.386719-20.378906h37.679688c11.253906.003906 20.378906 9.128906 20.378906 20.382812zm0 0" fill="url(#O)"/><path d="m99.917969 468.535156v23.085938c0 7.246094-3.777344 13.601562-9.476563 17.210937-.257812-.160156-.519531-.332031-.769531-.519531-5.257813-3.667969-8.695313-9.765625-8.703125-16.671875 0-2.386719-.421875-4.738281-1.222656-6.957031-.796875-2.207032-1.976563-4.277344-3.507813-6.117188-3.496093-4.207031-9.433593-3.558594-12.421875.011719-.71875.867187-1.269531 1.90625-1.570312 3.097656v-13.144531c0-11.253906-9.125-20.378906-20.386719-20.378906h37.679687c11.253907.003906 20.378907 9.128906 20.378907 20.382812zm0 0" fill="url(#P)"/><path d="m63.816406 468.535156v10.042969c-.71875.867187-1.269531 1.90625-1.570312 3.097656v9.945313c0 11.253906-9.125 20.378906-20.386719 20.378906h-21.480469c-2.277344 0-4.476562-.378906-6.527344-1.078125-.257812-.082031-.519531-.171875-.777343-.28125 7.65625-2.9375 13.070312-10.34375 13.070312-19.019531v-23.089844c0-8.675781-5.414062-16.082031-13.070312-19.019531.257812-.109375.519531-.199219.777343-.28125 2.050782-.699219 4.25-1.078125 6.527344-1.078125h23.058594c11.253906.003906 20.378906 9.128906 20.378906 20.382812zm0 0" fill="url(#Q)"/><path d="m27.707031 468.535156v23.085938c0 8.972656-5.796875 16.589844-13.855469 19.300781-.257812-.082031-.519531-.171875-.777343-.28125-7.648438-2.929687-13.074219-10.34375-13.074219-19.019531v-23.089844c0-8.675781 5.425781-16.089844 13.074219-19.019531.257812-.109375.519531-.199219.777343-.28125 8.058594 2.710937 13.855469 10.328125 13.855469 19.304687zm0 0" fill="url(#R)"/><path d="m86.308594 249.878906c-16.605469-3.019531-49.625 3.746094-31.832032 26.21875 17.789063 22.46875-2.808593 31.832032 7.488282 45.878906 10.300781 14.042969 39.328125 23.40625 39.328125-1.875 0-25.277343 11.234375-13.105468 15.917969-33.707031 4.679687-20.597656 1.871093-28.089843-8.429688-23.40625-10.300781 4.679688-12.171875-11.234375-22.472656-13.109375zm0 0" fill="url(#T)"/><path d="m131.03125 332.144531c14.816406.617188 16.558594-21.625 1.820312-23.265625-7.992187-.890625-15.933593.652344-18.375 9.199219-2.507812 8.785156 6.585938 13.652344 16.554688 14.066406zm0 0" fill="url(#U)"/><path d="m112.847656 351.058594c8.441406.351562 9.433594-12.320313 1.035156-13.257813-4.554687-.507812-9.078124.371094-10.46875 5.242188-1.429687 5.007812 3.75 7.78125 9.433594 8.015625zm0 0" fill="url(#V)"/><path d="m110.832031 390.664062s54.886719-46.601562 132.175781-46.601562c-13.546874 0-24.265624-11.460938-23.359374-24.976562l16.703124-249.496094c.371094-5.53125-2.828124-10.679688-7.949218-12.800782l-3.539063-1.464843c-37.355469-9.800781-75.804687-13.792969-114.027343-12.027344v347.367187zm0 0" fill="url(#W)"/></svg>