<svg height="512pt" viewBox="-55 0 512 512" width="512pt" xmlns="http://www.w3.org/2000/svg" xmlns:xlink="http://www.w3.org/1999/xlink"><linearGradient id="a" gradientTransform="matrix(.942883 .344747 -.344747 .942883 -547.15684 230.016066)" gradientUnits="userSpaceOnUse" x1="712.2881" x2="768.8916" y1="-461.3459" y2="-394.2925"><stop offset="0" stop-color="#acc130"/><stop offset="1" stop-color="#97a03b"/></linearGradient><linearGradient id="b" gradientTransform="matrix(.942883 .344747 -.344747 .942883 -547.15684 230.016066)" gradientUnits="userSpaceOnUse" x1="746.8425" x2="695.0286" y1="-428.063" y2="-474.2166"><stop offset="0" stop-color="#97a03b" stop-opacity="0"/><stop offset="1" stop-color="#575c55"/></linearGradient><linearGradient id="c" gradientTransform="matrix(.942883 .344747 -.344747 .942883 -547.15684 230.016066)" gradientUnits="userSpaceOnUse" x1="700.6553" x2="714.153" y1="-458.7728" y2="-441.3563"><stop offset="0" stop-color="#97a03b"/><stop offset="1" stop-color="#6c7d47"/></linearGradient><linearGradient id="d" gradientUnits="userSpaceOnUse" x1="167.5986690198" x2="210.5368145286" y1="54.1977994842" y2="67.0099524404"><stop offset="0" stop-color="#c08552"/><stop offset="1" stop-color="#895738"/></linearGradient><linearGradient id="e"><stop offset="0" stop-color="#895738" stop-opacity="0"/><stop offset="1" stop-color="#5e3023"/></linearGradient><linearGradient id="f" gradientUnits="userSpaceOnUse" x1="219.1947382488" x2="204.5203099826" xlink:href="#e" y1="9.2652625302" y2="25.7739566826"/><linearGradient id="g" gradientUnits="userSpaceOnUse" x1="181.7331880344" x2="199.8349056164" xlink:href="#e" y1="68.2083341318" y2="55.7956417394"/><linearGradient id="h" gradientUnits="userSpaceOnUse" x1="189.0063017478" x2="203.3250404494" xlink:href="#e" y1="44.193616362" y2="127.5797792508"/><radialGradient id="i" cx="167.7785718422" cy="423.0807062238" gradientUnits="userSpaceOnUse" r="92.1219909562"><stop offset="0" stop-color="#a4508b"/><stop offset=".255" stop-color="#9e4a8d"/><stop offset=".59" stop-color="#8e3a94"/><stop offset=".9681" stop-color="#73209f"/><stop offset="1" stop-color="#701da0"/></radialGradient><radialGradient id="j" cx="216.0822788722" cy="367.727057341" gradientUnits="userSpaceOnUse" r="92.1220913484"><stop offset="0" stop-color="#a4508b"/><stop offset=".2732" stop-color="#9b478f"/><stop offset=".7168" stop-color="#833098"/><stop offset="1" stop-color="#701da0"/></radialGradient><radialGradient id="k" cx="251.6060588422" cy="289.2918361874" gradientUnits="userSpaceOnUse" r="92.1225933094"><stop offset="0" stop-color="#a4508b"/><stop offset=".2591" stop-color="#9f4b8d"/><stop offset=".5684" stop-color="#903d93"/><stop offset=".9021" stop-color="#78259d"/><stop offset="1" stop-color="#701da0"/></radialGradient><linearGradient id="l"><stop offset="0" stop-color="#a4508b"/><stop offset=".328" stop-color="#a14d8c"/><stop offset=".5737" stop-color="#974490"/><stop offset=".7918" stop-color="#873497"/><stop offset=".994" stop-color="#711ea0"/><stop offset="1" stop-color="#701da0"/></linearGradient><radialGradient id="m" cx="318.0482269994" cy="216.370757011" gradientUnits="userSpaceOnUse" r="92.1220913484" xlink:href="#l"/><linearGradient id="n"><stop offset="0" stop-color="#701da0" stop-opacity="0"/><stop offset="1" stop-color="#2f004e"/></linearGradient><linearGradient id="o" gradientUnits="userSpaceOnUse" x1="299.2914503124" x2="205.1196514166" xlink:href="#n" y1="356.1329629474" y2="282.1408997814"/><radialGradient id="p" cx="127.4049450824" cy="352.9245286276" gradientUnits="userSpaceOnUse" r="92.1219909562"><stop offset="0" stop-color="#a4508b"/><stop offset=".2561" stop-color="#9d498e"/><stop offset=".6193" stop-color="#8b3795"/><stop offset="1" stop-color="#701da0"/></radialGradient><linearGradient id="q" gradientUnits="userSpaceOnUse" x1="165.717419584" x2="123.206342494" xlink:href="#n" y1="387.2459112182" y2="293.0321483828"/><radialGradient id="r" cx="174.4007425308" cy="273.1203594348" gradientUnits="userSpaceOnUse" r="92.1219909562"><stop offset="0" stop-color="#a4508b"/><stop offset=".2581" stop-color="#9f4b8d"/><stop offset=".571" stop-color="#903c93"/><stop offset=".9111" stop-color="#78249d"/><stop offset="1" stop-color="#701da0"/></radialGradient><radialGradient id="s" cx="232.9237731676" cy="195.9763827576" gradientUnits="userSpaceOnUse" r="92.1220913484" xlink:href="#l"/><radialGradient id="t" cx="282.112638225" cy="137.8272126736" gradientUnits="userSpaceOnUse" r="92.1219909562" xlink:href="#l"/><linearGradient id="u" gradientUnits="userSpaceOnUse" x1="245.9042838432" x2="137.5745745502" xlink:href="#n" y1="271.9733785498" y2="163.643769649"/><radialGradient id="v" cx="79.1011376602" cy="284.946159026" gradientUnits="userSpaceOnUse" r="92.122392525" xlink:href="#l"/><linearGradient id="w" gradientUnits="userSpaceOnUse" x1="126.945951944" x2="17.753873653" xlink:href="#n" y1="316.377952924" y2="174.4835170518"/><radialGradient id="x" cx="136.5267811588" cy="205.2474016432" gradientUnits="userSpaceOnUse" r="92.1224929172" xlink:href="#l"/><radialGradient id="y" cx="45.7046684082" cy="217.029329843" gradientUnits="userSpaceOnUse" r="92.1221917406" xlink:href="#l"/><radialGradient id="z" cx="184.793945428" cy="127.579879643" gradientUnits="userSpaceOnUse" r="92.121890564" xlink:href="#l"/><radialGradient id="A" cx="89.7856787218" cy="134.5210967432" gradientUnits="userSpaceOnUse" r="92.1226937016" xlink:href="#l"/><path d="m220.644531 79.480469s-3.371093-112.414063 128.855469-58.636719c5.519531 2.246094 8.246094 8.464844 6.230469 14.070312-9.695313 26.949219-44.324219 95.207032-135.085938 44.566407zm0 0" fill="url(#a)"/><path d="m355.730469 34.914062c1.117187-3.105468.773437-6.402343-.691407-9.105468-66.511718 17.542968-134.394531 53.671875-134.394531 53.671875 90.761719 50.640625 125.390625-17.617188 135.085938-44.566407zm0 0" fill="url(#b)"/><path d="m317.660156 51.335938c-1.121094-.261719-2.226562-.605469-3.324218-.929688-1.09375-.324219-2.1875-.640625-3.253907-1.019531-1.078125-.355469-2.109375-.867188-3.136719-1.355469-1.023437-.488281-2.082031-.800781-3.195312-.953125-1.113281-.136719-2.238281-.222656-3.433594-.195313 1.410156-.667968 2.816406-1.335937 4.226563-2.003906l6.921875-3.179687c2.304687-1.074219 4.652344-1.996094 6.976562-3.035157 4.671875-1.992187 9.390625-3.792968 14.246094-5.273437l-.207031-1.164063-3.835938.542969-1.929687.273438c-.640625.109375-1.265625.257812-1.898438.382812-2.503906.566407-5.074218 1.035157-7.546875 1.726563-5.003906 1.253906-9.925781 2.75-14.863281 4.222656-.941406.308594-1.882812.617188-2.828125.921875.449219-.691406.84375-1.414063 1.125-2.207031.382813-1.066406.753906-2.160156 1.265625-3.171875.492188-1.023438 1.042969-2.015625 1.59375-3.019531.546875-1.003907 1.085938-2.023438 1.699219-3 1.140625-2.027344 2.464843-3.9375 3.773437-5.941407l-.449218-.476562c-2.039063 1.269531-4.003907 2.707031-5.835938 4.308593-.929688.792969-1.796875 1.644532-2.679688 2.496094-.832031.890625-1.671874 1.785156-2.460937 2.722656-.800781.929688-1.664063 1.832032-2.488281 2.769532-.804688.957031-1.433594 2.027344-1.824219 3.210937-.074219.234375-.148437.46875-.214844.707031-.726562 2.589844-2.714843 4.636719-5.25 5.523438l-.050781.019531c-4.414062 1.546875-8.785156 3.1875-13.171875 4.804688.605469-.988281 1.09375-1.976563 1.535156-2.976563.4375-1.039062.710938-2.109375.808594-3.238281.105469-1.128906.1875-2.28125.433594-3.386719.222656-1.113281.503906-2.214844.785156-3.320312.28125-1.109375.546875-2.234375.894531-3.332032.597656-2.246093 1.402344-4.429687 2.171875-6.695312l-.558593-.351562c-1.65625 1.742187-3.195313 3.625-4.570313 5.632812-.699219 1-1.328125 2.042969-1.96875 3.085938-.585937 1.070312-1.175781 2.148437-1.703125 3.253906-.542969 1.101562-1.152344 2.1875-1.714844 3.304687-.539062 1.125-.878906 2.320313-.964844 3.566407-.03125.550781-.039062 1.105468-.019531 1.667968.089844 2.734375-1.691406 5.1875-4.269531 6.101563-2.214844.785156-4.429688 1.566406-6.640625 2.367187-2.796875 1.011719-5.535156 2.160156-8.222656 3.414063.503906-.863281.925781-1.726563 1.308593-2.601563.441407-1.035156.710938-2.105468.8125-3.234375.101563-1.128906.1875-2.28125.433594-3.386719.21875-1.117187.5-2.214843.785156-3.324218.277344-1.105469.546876-2.234375.894532-3.332032.597656-2.246093 1.402344-4.425781 2.167968-6.695312l-.554687-.347656c-1.660156 1.742187-3.199219 3.625-4.574219 5.632812-.699218.996094-1.324218 2.039063-1.96875 3.085938-.585937 1.066406-1.171875 2.144531-1.703125 3.25-.539062 1.101562-1.152343 2.1875-1.714843 3.304687-.535157 1.125-.878907 2.320313-.960938 3.566407-.070312 1.238281-.039062 2.507812.210938 3.785156.28125 1.464844-.351563 2.945312-1.644532 3.691406-3.347656 1.929688-9.367187 5.46875-12.4375 7.570312-4.253906 2.957032-8.421875 6.089844-12.273437 9.847657l.515625 1.058593c5.320312-.707031 10.367187-1.949218 15.324218-3.367187 4.953126-1.429687 9.796876-3.070313 14.554688-4.890625.082031-.03125.167969-.0625.25-.09375 1.535156-.585938 3.21875-.003906 4.164062 1.339844.695313.992187 1.511719 1.847656 2.375 2.625.9375.824218 2.019532 1.429687 3.195313 1.847656 1.1875.394531 2.386719.734375 3.546875 1.132812 1.15625.410157 2.332031.757813 3.5 1.105469 1.195312.285157 2.371094.582031 3.574219.796875 2.390625.457032 4.808593.707032 7.214843.769532l.144532-.636719c-2.140625-1.070313-4.25-2.046875-6.257813-3.21875-1.019531-.535157-2.003906-1.140625-2.984375-1.730469-.980468-.585938-1.957031-1.167969-2.898437-1.800781-.953125-.613281-1.824219-1.371094-2.695313-2.097657-.867187-.730468-1.8125-1.296874-2.859375-1.722656-1.136719-.445312-2.308593-.828125-3.59375-1.113281 2.425781-1.109375 4.816407-2.304687 7.167969-3.574219 1.871094-1.035156 4.410156-2.394531 6.640625-3.585937 2.375-1.265625 5.332031-.929688 7.257813.953125.9375.921875 2.007812 1.695312 2.902343 2.503906.941407.824219 2.023438 1.429688 3.199219 1.847656 1.1875.394532 2.386719.734375 3.546875 1.132813 1.15625.410156 2.332031.757812 3.5 1.105469 1.195313.285156 2.371094.585937 3.574219.800781 2.390625.453125 4.808594.703125 7.214844.765625l.144531-.636719c-2.140625-1.070313-4.25-2.046875-6.257813-3.21875-1.019531-.535156-2.003906-1.140625-2.984375-1.730469-.980469-.585937-1.957031-1.167968-2.898437-1.804687-.953125-.609375-1.824219-1.367188-2.695313-2.09375-.867187-.730469-1.816406-1.296875-2.859375-1.726563-2.003906-.78125-4.105468-1.394531-6.792968-1.527344 4.554687-2.234374 9.097656-4.515624 13.683593-6.683593l.175781-.085938c2.757813-1.378906 6.101563-1.230469 8.59375.585938.707032.515625 1.445313.953125 2.199219 1.347656 1.113281.5625 2.3125.875 3.554688.988281 1.25.085938 2.496093.113282 3.71875.210938 1.222656.105468 2.449219.148437 3.667969.191406 1.226562-.019531 2.441406-.027344 3.65625-.121094 2.429687-.15625 4.835937-.523437 7.179687-1.0625l-.019531-.65625c-2.34375-.496094-4.628906-.914062-6.867188-1.542968zm0 0" fill="url(#c)"/><path d="m222.257812 60.351562c-.074218-1.761718-.1875-3.519531-.382812-5.285156-.113281-1.25-.300781-2.492187-.472656-3.742187-.207032-1.246094-.417969-2.492188-.691406-3.730469-.242188-1.238281-.550782-2.460938-.851563-3.6875-.339844-1.222656-.683594-2.433594-1.078125-3.628906-1.222656-3.808594-2.789062-7.480469-4.640625-10.921875.265625-1.023438.511719-2.058594.738281-3.089844.886719-4.101563 1.515625-8.273437 1.789063-12.484375.273437-4.207031.1875-8.460938-.421875-12.628906-.09375-.671875-.605469-1.1757815-1.195313-1.152344-.644531.0351562-1.148437.675781-1.125 1.445312v.015626c.242188 7.539062-1.136719 15.027343-3.339843 22.046874-2.042969-2.972656-4.3125-5.703124-6.773438-8.136718-6.628906-6.609375-14.539062-11.117188-22.871094-13.363282-8.332031-2.203124-17.242187-2.230468-25.769531.957032-4.246094 1.578125-8.347656 4.019531-11.953125 7.265625-1.800781 1.613281-3.496094 3.449219-4.988281 5.378906-1.429688 1.84375-2.789063 3.839844-4.015625 6.003906-2.457032 4.308594-4.410156 9.339844-5.335938 14.804688-.453125 2.738281-.65625 5.566406-.5625 8.375.109375 2.816406.488282 5.625 1.171875 8.300781 1.363281 5.351562 3.820313 10.140625 6.875 13.96875 3.042969 3.859375 6.679688 6.785156 10.492188 8.886719 7.679687 4.167969 16.039062 4.980469 23.6875 3.5 1.917969-.367188 3.800781-.859375 5.640625-1.476563 1.816406-.605468 3.734375-1.355468 5.5-2.253906 3.585937-1.792969 6.902344-4.113281 9.917968-6.789062 2.84375-2.515626 4.34375-4.09375 6.675782-7.132813 0 0-4.113282 27.972656-30.683594 45.160156-5.480469 3.546875-4.855469 13.179688 1.039062 15.609375.050782.019532.105469.042969.15625.0625 14.476563 5.828125 39.0625 10.363282 72.566407-2.5 5.425781-2.082031 6.789062-10.5625 2.335937-14.792968-8.574218-8.144532-19.140625-22.5-21.433594-44.984376zm-35.835937-.515624c-2.648437 1.898437-5.4375 3.398437-8.285156 4.433593-2.796875 1.03125-5.871094 1.570313-8.835938 1.742188-5.933593.347656-11.730469-1.09375-16.304687-4.347657-2.269532-1.621093-4.230469-3.652343-5.675782-5.960937-1.464843-2.285156-2.390624-4.832031-2.785156-7.351563-.847656-5.035156.539063-10.125 3.667969-14.683593.785156-1.144531 1.667969-2.238281 2.644531-3.289063.914063-.972656 1.832032-1.785156 2.832032-2.519531 1.988281-1.457031 4.199218-2.484375 6.554687-3.0625 2.359375-.589844 4.871094-.691406 7.386719-.34375 2.511718.335937 5.035156 1.070313 7.445312 2.1875 4.847656 2.210937 9.230469 5.789063 12.84375 10.015625 3.46875 4.019531 6.257813 8.664062 8.367188 13.796875-3.003906 3.648437-6.300782 6.859375-9.855469 9.382813zm0 0" fill="url(#d)"/><path d="m214.140625 29.351562c.261719-1.023437.507813-2.054687.738281-3.089843.886719-4.09375 1.515625-8.269531 1.785156-12.480469.277344-4.207031.1875-8.464844-.417968-12.625-.097656-.675781-.601563-1.1796875-1.195313-1.15234375-.644531.02734375-1.148437.67187475-1.125 1.44140575v.015626c.238281 7.539062-1.136719 15.027343-3.34375 22.042968zm0 0" fill="url(#f)"/><path d="m186.421875 59.835938c-2.648437 1.898437-5.4375 3.398437-8.285156 4.433593-1.234375.453125-2.523438.796875-3.828125 1.074219v13.1875c.625-.179688 1.253906-.351562 1.871094-.558594 1.820312-.605468 3.734374-1.355468 5.503906-2.253906 3.582031-1.792969 6.902344-4.113281 9.917968-6.789062 2.84375-2.515626 4.34375-4.09375 6.675782-7.132813.71875-5.230469-2-11.34375-2-11.34375-3.003906 3.648437-6.300782 6.859375-9.855469 9.382813zm0 0" fill="url(#g)"/><path d="m243.6875 105.335938c-8.570312-8.144532-19.136719-22.5-21.429688-44.984376-.074218-1.761718-.1875-3.519531-.382812-5.285156-.113281-1.25-.300781-2.492187-.472656-3.742187-.207032-1.246094-.417969-2.492188-.691406-3.730469-.242188-1.238281-.550782-2.460938-.851563-3.6875-.339844-1.222656-.683594-2.433594-1.078125-3.628906-1.222656-3.808594-2.789062-7.480469-4.640625-10.921875.265625-1.023438.511719-2.058594.738281-3.089844.886719-4.101563 1.515625-8.273437 1.789063-12.484375.273437-4.207031.1875-8.460938-.421875-12.628906-.09375-.671875-.605469-1.1757815-1.195313-1.152344-.644531.0351562-1.148437.675781-1.125 1.445312v.015626c.242188 7.539062-1.136719 15.027343-3.339843 22.046874-2.042969-2.972656-4.3125-5.703124-6.773438-8.136718-6.628906-6.609375-14.539062-11.117188-22.871094-13.363282-8.332031-2.203124-17.242187-2.230468-25.769531.957032-4.246094 1.578125-8.347656 4.019531-11.953125 7.265625-1.800781 1.613281-3.496094 3.449219-4.988281 5.378906 0 0 47.03125-18.171875 61.035156 14.703125 11.117187 26.09375 7.53125 66.171875 18.148437 96.539062 7.378907-1.28125 15.359376-3.429687 23.921876-6.714843 5.4375-2.085938 6.8125-10.5625 2.351562-14.800781zm0 0" fill="url(#h)"/><path d="m255 454.523438c0 31.742187-25.734375 57.476562-57.476562 57.476562-31.742188 0-57.476563-25.734375-57.476563-57.476562 0-31.746094 25.734375-57.476563 57.476563-57.476563 31.742187 0 57.476562 25.730469 57.476562 57.476563zm0 0" fill="url(#i)"/><path d="m306.429688 389.792969c0 31.742187-25.734376 57.476562-57.476563 57.476562-31.746094 0-57.476563-25.734375-57.476563-57.476562 0-31.746094 25.730469-57.476563 57.476563-57.476563 31.742187 0 57.476563 25.730469 57.476563 57.476563zm0 0" fill="url(#j)"/><path d="m341.953125 319.171875c0 31.742187-25.734375 57.476563-57.476563 57.476563-31.746093 0-57.476562-25.734376-57.476562-57.476563 0-31.746094 25.730469-57.480469 57.476562-57.480469 31.742188 0 57.476563 25.734375 57.476563 57.480469zm0 0" fill="url(#k)"/><path d="m401.363281 244.6875c0 31.746094-25.734375 57.476562-57.476562 57.476562-31.746094 0-57.476563-25.730468-57.476563-57.476562 0-31.742188 25.730469-57.476562 57.476563-57.476562 31.742187 0 57.476562 25.734374 57.476562 57.476562zm0 0" fill="url(#m)"/><path d="m255 454.523438c0-2.554688-.183594-5.0625-.503906-7.523438 29.140625-2.789062 51.933594-27.335938 51.933594-57.207031 0-5.757813-.855469-11.308594-2.429688-16.550781 22.132812-7.996094 37.953125-29.183594 37.953125-54.074219 0-5.992188-.917969-11.769531-2.621094-17.199219 1.503907.117188 3.019531.195312 4.554688.195312 31.742187 0 57.476562-25.734374 57.476562-57.476562 0-31.746094-25.734375-57.480469-57.476562-57.480469-31.746094 0-57.476563 25.734375-57.476563 57.480469 0 5.992188.917969 11.769531 2.621094 17.199219-1.503906-.117188-3.019531-.195313-4.554688-.195313-31.746093 0-57.476562 25.734375-57.476562 57.476563 0 5.757812.855469 11.308593 2.429688 16.550781-22.132813 7.996094-37.953126 29.183594-37.953126 54.070312 0 2.554688.183594 5.0625.503907 7.527344-23.261719 2.226563-42.464844 18.320313-49.273438 39.917969l72.113281 72.109375c23.289063-7.339844 40.179688-29.105469 40.179688-54.820312zm0 0" fill="url(#o)"/><path d="m210.71875 381.242188c0 31.742187-25.730469 57.476562-57.476562 57.476562-31.742188 0-57.476563-25.734375-57.476563-57.476562 0-31.746094 25.734375-57.480469 57.476563-57.480469 31.746093 0 57.476562 25.734375 57.476562 57.480469zm0 0" fill="url(#p)"/><path d="m210.71875 381.242188c0-31.746094-25.730469-57.480469-57.476562-57.480469-24.113282 0-44.742188 14.855469-53.277344 35.910156l74.847656 74.84375c21.050781-8.53125 35.90625-29.164063 35.90625-53.273437zm0 0" fill="url(#q)"/><path d="m257.714844 301.4375c0 31.742188-25.734375 57.476562-57.476563 57.476562-31.742187 0-57.476562-25.734374-57.476562-57.476562 0-31.746094 25.734375-57.480469 57.476562-57.480469 31.742188 0 57.476563 25.734375 57.476563 57.480469zm0 0" fill="url(#r)"/><path d="m316.238281 224.292969c0 31.742187-25.734375 57.476562-57.476562 57.476562-31.742188 0-57.476563-25.734375-57.476563-57.476562 0-31.742188 25.734375-57.476563 57.476563-57.476563 31.742187 0 57.476562 25.734375 57.476562 57.476563zm0 0" fill="url(#s)"/><path d="m365.429688 166.144531c0 31.742188-25.734376 57.476563-57.480469 57.476563-31.742188 0-57.476563-25.734375-57.476563-57.476563 0-31.746093 25.734375-57.476562 57.476563-57.476562 31.746093 0 57.480469 25.730469 57.480469 57.476562zm0 0" fill="url(#t)"/><path d="m342.445312 212.101562-80.464843-80.464843c-7.222657 9.609375-11.507813 21.558593-11.507813 34.507812 0 .425781.023438.847657.03125 1.269531-27.832031 4.003907-49.21875 27.941407-49.21875 56.878907 0 6.980469 1.246094 13.671875 3.527344 19.863281-1.511719-.117188-3.035156-.195312-4.574219-.195312-31.746093 0-57.480469 25.734374-57.480469 57.476562s25.734376 57.476562 57.480469 57.476562c31.742188 0 57.476563-25.734374 57.476563-57.476562 0-6.980469-1.246094-13.671875-3.527344-19.863281 1.511719.117187 3.03125.195312 4.574219.195312 31.742187 0 57.476562-25.730469 57.476562-57.476562 0-.425781-.023437-.847657-.03125-1.269531 9.753907-1.40625 18.710938-5.265626 26.238281-10.921876zm0 0" fill="url(#u)"/><path d="m159.292969 302.324219c0 31.742187-25.734375 57.476562-57.480469 57.476562-31.742188 0-57.476562-25.734375-57.476562-57.476562 0-31.746094 25.734374-57.476563 57.476562-57.476563 31.746094 0 57.480469 25.730469 57.480469 57.476563zm0 0" fill="url(#v)"/><path d="m101.8125 244.847656c-26.535156 0-48.859375 17.984375-55.472656 42.429688l70.519531 70.519531c24.445313-6.613281 42.433594-28.9375 42.433594-55.472656 0-31.746094-25.734375-57.476563-57.480469-57.476563zm0 0" fill="url(#w)"/><path d="m215.15625 223.40625c0 31.746094-25.734375 57.476562-57.480469 57.476562-31.742187 0-57.476562-25.730468-57.476562-57.476562 0-31.742188 25.734375-57.476562 57.476562-57.476562 31.746094 0 57.480469 25.734374 57.480469 57.476562zm0 0" fill="url(#x)"/><path d="m114.953125 230.5c0 31.746094-25.730469 57.476562-57.476563 57.476562-31.742187 0-57.476562-25.730468-57.476562-57.476562 0-31.742188 25.734375-57.476562 57.476562-57.476562 31.746094 0 57.476563 25.734374 57.476563 57.476562zm0 0" fill="url(#y)"/><path d="m264.203125 148.082031c0 31.746094-25.734375 57.480469-57.480469 57.480469-31.742187 0-57.476562-25.734375-57.476562-57.480469 0-31.742187 25.734375-57.476562 57.476562-57.476562 31.746094 0 57.480469 25.734375 57.480469 57.476562zm0 0" fill="url(#z)"/><path d="m163.722656 154.242188c0 31.746093-25.730468 57.476562-57.476562 57.476562-31.742188 0-57.476563-25.730469-57.476563-57.476562 0-31.742188 25.734375-57.476563 57.476563-57.476563 31.746094 0 57.476562 25.734375 57.476562 57.476563zm0 0" fill="url(#A)"/></svg>