<svg height="512pt" viewBox="-2 0 512 512.0001" width="512pt" xmlns="http://www.w3.org/2000/svg" xmlns:xlink="http://www.w3.org/1999/xlink"><linearGradient id="a" gradientUnits="userSpaceOnUse" x1="213.596980648" x2="275.840020648" y1="63.120159512" y2="81.692679512"><stop offset="0" stop-color="#acc130"/><stop offset="1" stop-color="#97a03b"/></linearGradient><linearGradient id="b"><stop offset="0" stop-color="#97a03b" stop-opacity="0"/><stop offset="1" stop-color="#575c55"/></linearGradient><linearGradient id="c" gradientUnits="userSpaceOnUse" x1="280.792558792" x2="263.378160904" xlink:href="#b" y1="10.749869576" y2="30.341167592"/><linearGradient id="d" gradientUnits="userSpaceOnUse" x1="246.017874304" x2="263.084413912" xlink:href="#b" y1="50.585415176" y2="149.973394784"/><linearGradient id="e"><stop offset="0" stop-color="#ffe548"/><stop offset="1" stop-color="#ffb211"/></linearGradient><linearGradient id="f" gradientUnits="userSpaceOnUse" x1="8.067250024" x2="172.415981464" xlink:href="#e" y1="281.197785824" y2="323.645531264"/><linearGradient id="g"><stop offset="0" stop-color="#ffb211" stop-opacity="0"/><stop offset=".1722" stop-color="#ffad13" stop-opacity=".172549"/><stop offset=".383" stop-color="#ff9e1a" stop-opacity=".384314"/><stop offset=".614" stop-color="#ff8525" stop-opacity=".615686"/><stop offset=".8577" stop-color="#ff6334" stop-opacity=".858824"/><stop offset="1" stop-color="#ff4b3e"/></linearGradient><linearGradient id="h" gradientUnits="userSpaceOnUse" x1="141.623345656" x2="-134.106294104" xlink:href="#g" y1="344.5379096" y2="525.938924984"/><linearGradient id="i" gradientUnits="userSpaceOnUse" x1="446.791031968" x2="307.475447296" xlink:href="#e" y1="324.180219056" y2="312.207770312"/><linearGradient id="j" gradientUnits="userSpaceOnUse" x1="367.471212376" x2="411.00740788" xlink:href="#g" y1="228.719273312" y2="-9.640849936"/><linearGradient id="k" gradientUnits="userSpaceOnUse" x1="176.790763648" x2="450.698790568" xlink:href="#e" y1="313.549710176" y2="313.549710176"/><linearGradient id="l" gradientUnits="userSpaceOnUse" x1="285.746201248" x2="71.330473528" xlink:href="#g" y1="353.059383344" y2="122.317406624"/><linearGradient id="m" gradientUnits="userSpaceOnUse" x1="254.41998196" x2="254.41998196" xlink:href="#g" y1="419.284873592" y2="561.464140064"/><linearGradient id="n" gradientUnits="userSpaceOnUse" x1="229.432613944" x2="252.857480872" xlink:href="#b" y1="80.127568232" y2="64.064848232"/><linearGradient id="o" gradientUnits="userSpaceOnUse" x1="330.830140216" x2="78.846421" y1="183.088298336" y2="-29.742942448"><stop offset="0" stop-color="#ffb211" stop-opacity="0"/><stop offset=".214" stop-color="#ff951d" stop-opacity=".215686"/><stop offset=".5597" stop-color="#ff6d2f" stop-opacity=".560784"/><stop offset=".8338" stop-color="#ff543a" stop-opacity=".835294"/><stop offset="1" stop-color="#ff4b3e"/></linearGradient><path d="m286.054688 70.957031c-.101563-2.066406-.261719-4.136719-.53125-6.214843-.164063-1.464844-.421876-2.929688-.664063-4.394532-.292969-1.464844-.582031-2.933594-.964844-4.386718-.339843-1.457032-.773437-2.894532-1.195312-4.339844-.46875-1.433594-.953125-2.859375-1.503907-4.265625-1.707031-4.476563-3.894531-8.792969-6.484374-12.839844.371093-1.203125.710937-2.417969 1.03125-3.632813 1.234374-4.820312 2.121093-9.730468 2.5-14.679687.382812-4.949219.261718-9.949219-.589844-14.847656-.132813-.792969-.84375-1.3828128-1.667969-1.355469-.902344.0429688-1.605469.792969-1.574219 1.699219v.019531c.339844 8.863281-1.589844 17.667969-4.671875 25.921875-2.847656-3.496094-6.023437-6.707031-9.464843-9.570313-9.265626-7.769531-20.320313-13.070312-31.964844-15.710937-11.644532-2.589844-24.105469-2.621094-36.019532 1.125-5.933593 1.859375-11.667968 4.730469-16.707031 8.542969-2.519531 1.898437-4.886719 4.054687-6.976562 6.324218-1.996094 2.167969-3.894531 4.519532-5.613281 7.058594-3.433594 5.070313-6.164063 10.984375-7.457032 17.40625-.632812 3.222656-.914062 6.546875-.785156 9.851563.152344 3.3125.683594 6.613281 1.636719 9.757812 1.910156 6.292969 5.339843 11.925781 9.609375 16.421875 4.253906 4.539063 9.335937 7.984375 14.667968 10.453125 10.730469 4.898438 22.414063 5.851563 33.109376 4.113281 2.679687-.429687 5.308593-1.011718 7.878906-1.734374 2.539062-.714844 5.21875-1.597657 7.691406-2.652344 5.007812-2.105469 9.644531-4.835938 13.863281-7.980469 3.976563-2.960937 6.066407-4.8125 9.332031-8.386719 0 0-7.65625 43.796875-62.371093 61.363282 0 0 1.628906 1.226562 4.808593 3.011718 3.546876 1.980469 9.015626 4.667969 16.34375 7.148438 22.941407 7.769531 64.050782 13.582031 120.902344-10.160156 0 0-40.585937-17.054688-46.167968-63.066407zm-50.085938-.601562c-3.703125 2.230469-7.601562 3.996093-11.585938 5.210937-3.90625 1.214844-8.203124 1.847656-12.347656 2.046875-8.292968.414063-16.394531-1.285156-22.789062-5.109375-3.171875-1.90625-5.914063-4.296875-7.929688-7.007812-2.050781-2.691406-3.34375-5.679688-3.898437-8.644532-1.183594-5.921874.753906-11.90625 5.132812-17.265624 1.09375-1.34375 2.328125-2.628907 3.695313-3.867188 1.273437-1.144531 2.558594-2.097656 3.953125-2.960938 2.78125-1.714843 5.875-2.921874 9.167969-3.601562 3.292968-.695312 6.804687-.816406 10.320312-.402344 3.511719.390625 7.035156 1.253906 10.410156 2.570313 6.773438 2.597656 12.898438 6.804687 17.949219 11.773437 4.847656 4.730469 8.742187 10.191406 11.695313 16.226563-4.195313 4.285156-8.804688 8.058593-13.773438 11.03125zm0 0" fill="url(#a)"/><path d="m274.707031 34.511719c.367188-1.203125.714844-2.414063 1.03125-3.632813 1.246094-4.816406 2.121094-9.722656 2.5-14.675781.386719-4.949219.261719-9.949219-.582031-14.84375-.136719-.796875-.84375-1.3867188-1.671875-1.35546875-.90625.03124995-1.609375.79296875-1.574219 1.69531275v.019531c.335938 8.863281-1.589844 17.667969-4.671875 25.917969zm0 0" fill="url(#c)"/><path d="m332.222656 134.023438s-40.585937-17.054688-46.167968-63.066407c-.101563-2.066406-.261719-4.136719-.53125-6.214843-.164063-1.464844-.421876-2.929688-.664063-4.394532-.292969-1.464844-.582031-2.933594-.964844-4.386718-.339843-1.457032-.773437-2.894532-1.195312-4.339844-.46875-1.433594-.953125-2.859375-1.503907-4.265625-1.707031-4.476563-3.894531-8.792969-6.484374-12.839844.371093-1.203125.710937-2.417969 1.03125-3.632813 1.234374-4.820312 2.121093-9.730468 2.5-14.679687.382812-4.949219.261718-9.949219-.589844-14.847656-.132813-.792969-.84375-1.3828128-1.667969-1.355469-.902344.0429688-1.605469.792969-1.574219 1.699219v.019531c.339844 8.863281-1.589844 17.667969-4.671875 25.921875-2.847656-3.496094-6.023437-6.707031-9.464843-9.570313-9.265626-7.769531-20.320313-13.070312-31.964844-15.710937-11.644532-2.589844-24.105469-2.621094-36.019532 1.125-5.933593 1.859375-11.667968 4.730469-16.707031 8.542969-2.519531 1.898437-4.886719 4.054687-6.976562 6.324218 0 0 65.738281-21.363281 85.3125 17.289063 15.539062 30.679687 10.523437 77.804687 25.367187 113.511719 15.722656-2.300782 33.402344-6.96875 52.9375-15.128906zm0 0" fill="url(#d)"/><path d="m231.703125 155.988281s-45.433594-49.066406-115.398437-20.898437c-69.964844 28.167968-116.304688 103.585937-116.304688 204.445312s68.148438 218.980469 231.703125 143.5625zm0 0" fill="url(#f)"/><path d="m231.703125 483.097656v-327.109375s-20.996094-22.660156-56.410156-28.335937c-68.257813 29.109375-113.253907 103.789062-113.253907 203.175781 0 76.726563 39.441407 163.4375 130.320313 167.339844 12.449219-3.734375 25.554687-8.710938 39.34375-15.070313zm0 0" fill="url(#h)"/><path d="m277.136719 155.988281s45.433593-49.066406 115.398437-20.898437c69.964844 28.167968 116.304688 103.585937 116.304688 204.445312 0 100.855469-68.148438 218.980469-231.703125 143.5625zm0 0" fill="url(#i)"/><path d="m445.710938 347.152344c0-100.859375-46.339844-176.277344-116.304688-204.445313-7.964844-3.203125-15.605469-5.402343-22.902344-6.792969-18.792968 8.660157-29.367187 20.074219-29.367187 20.074219v327.109375c29.378906 13.550782 55.683593 20.851563 79.0625 23.132813 62.003906-23.960938 89.511719-95 89.511719-159.078125zm0 0" fill="url(#j)"/><path d="m357.238281 197.96875c-47.058593-87.546875-102.820312-82.824219-102.820312-82.824219s-55.761719-4.722656-102.816407 82.824219c-37.101562 69.023438-67.945312 262.367188 58.394532 306.515625 28.683594 10.023437 60.160156 10.023437 88.847656 0 126.339844-44.148437 95.496094-237.492187 58.394531-306.515625zm0 0" fill="url(#k)"/><path d="m316.425781 197.96875c-28.378906-87.546875-62.007812-82.824219-62.007812-82.824219s-33.625-4.722656-62.003907 82.824219c-22.375 69.023438-40.976562 262.367188 35.214844 306.515625 17.300782 10.023437 36.28125 10.023437 53.578125 0 76.195313-44.148437 57.59375-237.492187 35.21875-306.515625zm0 0" fill="url(#l)"/><path d="m12.351562 412.753906c23.414063 65.636719 81.128907 115.792969 181.628907 84.917969 5.039062 2.550781 10.363281 4.835937 16.015625 6.8125 28.683594 10.023437 60.160156 10.023437 88.847656 0 5.652344-1.976563 10.976562-4.261719 16.011719-6.8125 100.503906 30.875 158.21875-19.28125 181.632812-84.917969zm0 0" fill="url(#m)"/><g fill="#ffb211"><path d="m267.761719 180.203125c0 3.050781-2.46875 5.523437-5.519531 5.523437-3.050782 0-5.523438-2.472656-5.523438-5.523437 0-3.046875 2.472656-5.519531 5.523438-5.519531 3.050781 0 5.519531 2.472656 5.519531 5.519531zm0 0"/><path d="m326.410156 189.449219c0 4.828125-3.914062 8.742187-8.742187 8.742187s-8.742188-3.914062-8.742188-8.742187 3.914063-8.742188 8.742188-8.742188 8.742187 3.914063 8.742187 8.742188zm0 0"/><path d="m308.71875 165.042969c0 7.429687-6.019531 13.453125-13.449219 13.453125-7.429687 0-13.453125-6.023438-13.453125-13.453125 0-7.425781 6.023438-13.449219 13.453125-13.449219 7.429688 0 13.449219 6.023438 13.449219 13.449219zm0 0"/><path d="m37.171875 316.339844c0 3.046875-2.472656 5.519531-5.519531 5.519531-3.050782 0-5.523438-2.472656-5.523438-5.519531 0-3.050782 2.472656-5.523438 5.523438-5.523438 3.046875 0 5.519531 2.472656 5.519531 5.523438zm0 0"/><path d="m78.128906 301.175781c0 7.429688-6.019531 13.453125-13.449218 13.453125-7.429688 0-13.449219-6.023437-13.449219-13.453125 0-7.425781 6.019531-13.449219 13.449219-13.449219 7.429687 0 13.449218 6.023438 13.449218 13.449219zm0 0"/><path d="m409.628906 439.820312c0 3.050782-2.472656 5.523438-5.523437 5.523438s-5.519531-2.472656-5.519531-5.523438c0-3.050781 2.46875-5.523437 5.519531-5.523437s5.523437 2.472656 5.523437 5.523437zm0 0"/><path d="m450.585938 424.660156c0 7.425782-6.023438 13.449219-13.453126 13.449219-7.425781 0-13.449218-6.023437-13.449218-13.449219 0-7.429687 6.023437-13.453125 13.449218-13.453125 7.429688 0 13.453126 6.023438 13.453126 13.453125zm0 0"/></g><path d="m235.96875 70.355469c-3.703125 2.230469-7.601562 3.996093-11.585938 5.210937-1.71875.535156-3.523437.9375-5.351562 1.261719v15.507813c.878906-.210938 1.757812-.414063 2.621094-.65625 2.539062-.714844 5.21875-1.597657 7.691406-2.652344 5.007812-2.105469 9.644531-4.835938 13.863281-7.980469 3.976563-2.960937 6.066407-4.8125 9.332031-8.386719 1.003907-6.148437-2.796874-13.335937-2.796874-13.335937-4.195313 4.285156-8.804688 8.058593-13.773438 11.03125zm0 0" fill="url(#n)"/><path d="m490.09375 428.429688c12.734375-27.476563 18.746094-58.945313 18.746094-88.894532 0-100.859375-46.339844-176.277344-116.304688-204.445312-35.832031-14.425782-65.226562-8.59375-85.382812.53125-25.46875-19.515625-46.492188-20.578125-51.558594-20.519532-.765625-.015624-1.175781.042969-1.175781.042969s-.40625-.058593-1.171875-.042969c-5.066406-.058593-26.09375 1.003907-51.5625 20.519532-2.339844-1.0625-4.820313-2.066406-7.410156-3.011719zm0 0" fill="url(#o)"/></svg>