<svg height="512pt" viewBox="0 0 512 512.00053" width="512pt" xmlns="http://www.w3.org/2000/svg" xmlns:xlink="http://www.w3.org/1999/xlink"><linearGradient id="a"><stop offset="0" stop-color="#f2e9dc"/><stop offset=".2282" stop-color="#f0e4d7"/><stop offset=".5158" stop-color="#ead7c7"/><stop offset=".8338" stop-color="#e0c2ad"/><stop offset="1" stop-color="#dab49d"/></linearGradient><linearGradient id="b" gradientTransform="matrix(.709873 .709873 -.709873 .709873 586.42072 -854.178284)" gradientUnits="userSpaceOnUse" x1="341.9156" x2="756.5322" xlink:href="#a" y1="944.6391" y2="944.6391"/><linearGradient id="c" gradientTransform="matrix(.709873 .709873 -.709873 .709873 586.42072 -854.178284)" gradientUnits="userSpaceOnUse" x1="433.1259" x2="665.322" xlink:href="#a" y1="944.6391" y2="944.6391"/><linearGradient id="d"><stop offset="0" stop-color="#dab49d" stop-opacity="0"/><stop offset=".4385" stop-color="#ce9e7a" stop-opacity=".439216"/><stop offset="1" stop-color="#c08552"/></linearGradient><linearGradient id="e" gradientTransform="matrix(.709873 .709873 -.709873 .709873 586.42072 -854.178284)" gradientUnits="userSpaceOnUse" x1="549.2239" x2="549.2239" xlink:href="#d" y1="1005.2739" y2="1050.2457"/><linearGradient id="f" gradientTransform="matrix(.709873 .709873 -.709873 .709873 586.42072 -854.178284)" gradientUnits="userSpaceOnUse" x1="524.7762" x2="573.6716" xlink:href="#a" y1="979.9492" y2="979.9492"/><linearGradient id="g" gradientTransform="matrix(.709873 .709873 -.709873 .709873 586.42072 -854.178284)" gradientUnits="userSpaceOnUse" x1="537.8331" x2="559.4033" y1="1105.2974" y2="1105.2974"><stop offset="0" stop-color="#c08552"/><stop offset="1" stop-color="#895738"/></linearGradient><linearGradient id="h" gradientTransform="matrix(.709873 .709873 -.709873 .709873 562.551882 -911.80278)" gradientUnits="userSpaceOnUse" x1="593.7075" x2="638.2468" y1="1258.5327" y2="1258.5327"><stop offset="0" stop-color="#ffb211"/><stop offset="1" stop-color="#ff4b3e"/></linearGradient><linearGradient id="i" gradientTransform="matrix(.709873 .709873 -.709873 .709873 562.551882 -911.80278)" gradientUnits="userSpaceOnUse" x1="577.5289" x2="642.8138" y1="1150.0768" y2="1150.0768"><stop offset="0" stop-color="#a4508b"/><stop offset="1" stop-color="#701da0"/></linearGradient><linearGradient id="j" gradientTransform="matrix(.709873 .709873 -.709873 .709873 586.42072 -854.178284)" gradientUnits="userSpaceOnUse" x1="595.4017" x2="542.6716" xlink:href="#d" y1="1037.1724" y2="989.5578"/><path d="m320.265625 359.367188-167.632813-167.632813c-34.929687-34.925781-34.929687-91.761719 0-126.691406l57.855469-57.855469c9.582031-9.582031 25.125-9.582031 34.707031 0 9.585938 9.585938 9.585938 25.125 0 34.710938l-57.855468 57.855468c-15.789063 15.789063-15.789063 41.480469 0 57.273438l167.632812 167.632812c15.792969 15.789063 41.484375 15.789063 57.273438 0l57.855468-57.855468c9.585938-9.585938 25.125-9.585938 34.710938 0 9.582031 9.582031 9.582031 25.125 0 34.707031l-57.855469 57.855469c-34.929687 34.929687-91.761719 34.929687-126.691406 0zm0 0" fill="url(#b)"/><path d="m287.113281 326.21875-101.332031-101.332031c-17.507812-17.507813-17.507812-45.992188 0-63.496094l89.453125-89.453125c9.582031-9.585938 25.125-9.585938 34.707031 0 9.585938 9.585938 9.585938 25.125 0 34.710938l-86.488281 86.488281 95.40625 95.410156 86.492187-86.492187c9.585938-9.582032 25.125-9.585938 34.710938 0 9.585938 9.585937 9.585938 25.125 0 34.710937l-89.453125 89.453125c-17.503906 17.507812-45.988281 17.507812-63.496094 0zm0 0" fill="url(#c)"/><path d="m130.222656 102.535156c-9.160156 30.566406-1.691406 65.097656 22.410156 89.199219l167.632813 167.632813c24.101563 24.105468 58.632813 31.570312 89.203125 22.410156zm0 0" fill="url(#e)"/><path d="m186.316406 325.683594c-9.585937-9.582032-9.585937-25.125 0-34.707032l153.976563-153.980468c9.585937-9.582032 25.128906-9.582032 34.710937 0 9.585938 9.585937 9.585938 25.125 0 34.710937l-153.976562 153.976563c-9.585938 9.585937-25.125 9.585937-34.710938 0zm0 0" fill="url(#f)"/><path d="m187.941406 365.945312-41.886718-41.882812 43.597656-43.597656c3.183594-3.183594 8.351562-3.183594 11.535156 0l30.347656 30.351562c3.1875 3.183594 3.1875 8.347656 0 11.53125zm0 0" fill="url(#g)"/><path d="m20.125 502.882812-11.007812-11.003906c-12.15625-12.160156-12.15625-31.871094 0-44.03125l138.097656-138.097656c5.636718-5.636719 14.773437-5.636719 20.410156 0l34.625 34.625c5.632812 5.636719 5.632812 14.773438 0 20.410156l-138.097656 138.097656c-12.15625 12.15625-31.871094 12.15625-44.027344 0zm0 0" fill="url(#h)"/><path d="m152.308594 320.304688 39.390625 39.390624c3.085937 3.085938 4.550781 7.175782 4.417969 11.222657l6.132812-6.132813c5.636719-5.636718 5.636719-14.773437 0-20.410156l-34.625-34.621094c-5.632812-5.636718-14.773438-5.636718-20.410156 0l-6.128906 6.128906c4.042968-.128906 8.132812 1.332032 11.222656 4.421876zm0 0" fill="url(#i)"/><path d="m289 327.992188v-69.304688l-.609375-.613281-34.710937 34.710937 33.433593 33.433594c.617188.613281 1.246094 1.203125 1.886719 1.773438zm0 0" fill="url(#j)"/></svg>