<svg height="511pt" viewBox="0 0 511.99963 511" width="511pt" xmlns="http://www.w3.org/2000/svg" xmlns:xlink="http://www.w3.org/1999/xlink"><linearGradient id="a" gradientTransform="matrix(.70987 -.70987 .70987 .70987 -1190.599568 705.739126)" gradientUnits="userSpaceOnUse" x1="1280.7507" x2="1473.3979" y1="616.8419" y2="919.1498"><stop offset="0" stop-color="#ffe548"/><stop offset=".2472" stop-color="#ffe042"/><stop offset=".5621" stop-color="#ffd133"/><stop offset=".9123" stop-color="#ffb919"/><stop offset="1" stop-color="#ffb211"/></linearGradient><linearGradient id="b"><stop offset="0" stop-color="#ffb211" stop-opacity="0"/><stop offset=".1784" stop-color="#ff931e" stop-opacity=".176471"/><stop offset=".3999" stop-color="#ff742c" stop-opacity=".4"/><stop offset=".6151" stop-color="#ff5d36" stop-opacity=".615686"/><stop offset=".8191" stop-color="#ff503c" stop-opacity=".819608"/><stop offset="1" stop-color="#ff4b3e"/></linearGradient><linearGradient id="c" gradientTransform="matrix(.70987 -.70987 .70987 .70987 -1190.599568 705.739126)" gradientUnits="userSpaceOnUse" x1="1226.9208" x2="986.1099" xlink:href="#b" y1="708.4073" y2="721.0037"/><linearGradient id="d" gradientTransform="matrix(.70987 -.70987 .70987 .70987 -1190.599568 705.739126)" gradientUnits="userSpaceOnUse" x1="1444.5648" x2="1231.6632" xlink:href="#b" y1="696.2963" y2="735.3201"/><linearGradient id="e" gradientTransform="matrix(.70987 -.70987 .70987 .70987 -1190.599568 705.739126)" gradientUnits="userSpaceOnUse" x1="1503.6537" x2="1440.6724" xlink:href="#b" y1="707.5275" y2="826.8215"/><linearGradient id="f" gradientTransform="matrix(.70987 -.70987 .70987 .70987 -1190.599568 705.739126)" gradientUnits="userSpaceOnUse" x1="1093.1599" x2="1031.9075" xlink:href="#b" y1="697.6239" y2="585.4924"/><linearGradient id="g" gradientTransform="matrix(.70987 -.70987 .70987 .70987 -1190.599568 705.739126)" gradientUnits="userSpaceOnUse" x1="1109.6328" x2="1041.4647" xlink:href="#b" y1="737.5526" y2="695.565"/><radialGradient id="h" cx="1330.8833" cy="616.4888" gradientTransform="matrix(.70987 -.70987 .267243 .267243 -917.693896 978.644798)" gradientUnits="userSpaceOnUse" r="491.9974"><stop offset="0" stop-color="#ffb211" stop-opacity="0"/><stop offset=".4471" stop-color="#ffb012" stop-opacity=".447059"/><stop offset=".6081" stop-color="#ffa915" stop-opacity=".607843"/><stop offset=".7229" stop-color="#ff9e1a" stop-opacity=".721569"/><stop offset=".8157" stop-color="#ff8d21" stop-opacity=".815686"/><stop offset=".8952" stop-color="#ff772b" stop-opacity=".894118"/><stop offset=".9643" stop-color="#ff5c37" stop-opacity=".964706"/><stop offset="1" stop-color="#ff4b3e"/></radialGradient><linearGradient id="i" gradientTransform="matrix(.70987 -.70987 .70987 .70987 -1190.599568 705.739126)" gradientUnits="userSpaceOnUse" x1="1419.1941" x2="1263.0992" xlink:href="#b" y1="699.9152" y2="369.9424"/><radialGradient id="j" cx="1284.45" cy="467.8535" gradientTransform="matrix(.70987 -.70987 .70987 .70987 -1190.599568 705.739126)" gradientUnits="userSpaceOnUse" r="219.7411"><stop offset="0" stop-color="#ffe548"/><stop offset=".5071" stop-color="#ffe346"/><stop offset=".6898" stop-color="#ffdd3f"/><stop offset=".82" stop-color="#ffd234"/><stop offset=".9245" stop-color="#ffc223"/><stop offset="1" stop-color="#ffb211"/></radialGradient><linearGradient id="k" gradientTransform="matrix(.70987 -.70987 .70987 .70987 -1190.599568 705.739126)" gradientUnits="userSpaceOnUse" x1="1267.8782" x2="1079.1812" xlink:href="#b" y1="548.5266" y2="421.0821"/><linearGradient id="l" gradientTransform="matrix(.70987 -.70987 .70987 .70987 -1190.599568 705.739126)" gradientUnits="userSpaceOnUse" x1="1401.6482" x2="1653.5735" xlink:href="#b" y1="555.4708" y2="540.6517"/><linearGradient id="m" gradientTransform="matrix(.70987 -.70987 .70987 .70987 -1190.599568 705.739126)" gradientUnits="userSpaceOnUse" x1="1362.725" x2="1523.7595" xlink:href="#b" y1="557.5938" y2="536.847"/><linearGradient id="n" gradientTransform="matrix(.70987 -.70987 .70987 .70987 -1190.599568 705.739126)" gradientUnits="userSpaceOnUse" x1="1282.0574" x2="1150.6937" xlink:href="#b" y1="530.9759" y2="442.2538"/><linearGradient id="o" gradientTransform="matrix(.70987 -.70987 .70987 .70987 -1190.599568 705.739126)" gradientUnits="userSpaceOnUse" x1="1307.3777" x2="1361.7145" y1="615.8645" y2="683.0446"><stop offset="0" stop-color="#acc130"/><stop offset=".3485" stop-color="#a9bd31"/><stop offset=".6956" stop-color="#a2b135"/><stop offset="1" stop-color="#97a03b"/></linearGradient><path d="m198.140625 198.640625c-137.691406 137.695313-223.410156 275.222656-191.457031 307.179687 7.84375 7.84375 22.050781 8.589844 41.058594 3.226563.917968-.261719 1.71875-.828125 2.273437-1.601563 3.035156-4.238281 10.023437-14.125 17.765625-25.851562 2.816406-4.265625 9.390625-.773438 7.40625 3.941406-.042969.097656-.085938.199219-.125.296875-4.210938 9.820313 9.117188-3.507812 12.621094-9.816406 2.375-4.273437 6.351562-.511719 7.152344 6.066406.363281 3 3.601562 4.71875 6.234374 3.234375 17.367188-9.78125 36.371094-22.015625 56.535157-36.410156 1.070312-.765625 1.730469-1.988281 1.773437-3.304688.578125-18.703124 1.242188-41.21875 1.242188-46.730468 0-5.992188 4.964844 15.964844 8.832031 33.992187.644531 3.011719 4.195313 4.320313 6.660156 2.46875 39.320313-29.597656 82.238281-66.566406 125.484375-108.855469 1.640625-1.605468 1.695313-4.238281.125-5.910156-8.3125-8.859375-15.421875-17.015625-12.058594-15.671875 7.011719 2.804688 16.832032 1.402344 10.519532-6.3125-5.449219-6.65625.601562-8.089843 20.398437 4.269531 1.679688 1.050782 3.878907.796876 5.265625-.617187 35.394532-36.1875 67.0625-72.144531 93.804688-105.960937 2.164062-2.734376.257812-6.769532-3.230469-6.828126-15.691406-.25-29.695313-1.292968-22.261719-4.476562 14.726563-6.3125 12.625-16.832031-2.804687-15.429688-14.140625 1.285157 17.675781-2.144531 56.5625-12.445312.957031-.253906 1.808593-.847656 2.378906-1.65625 11.503906-16.242188 21.582031-31.714844 30.078125-46.160156 1.582031-2.6875-.207031-6.089844-3.3125-6.328125-18.566406-1.441407-37.667969-4.207031-21.1875-9.152344 12.410156-3.722656 26.1875-7.992187 37.699219-11.597656 1.113281-.351563 2.03125-1.148438 2.535156-2.203125 16.796875-35.046875 20.957031-61.0625 9.210937-72.8125-31.953124-31.953125-169.484374 53.765625-307.179687 191.457031zm0 0" fill="url(#a)"/><path d="m505.320312 7.183594c-31.957031-31.957032-169.484374 53.761718-307.179687 191.457031-9.605469 9.609375-18.949219 19.214844-28.027344 28.78125-14.339843 87.210937-9.492187 171.445313-9.492187 171.445313 0-5.992188 4.964844 15.96875 8.832031 33.992187.648437 3.015625 4.199219 4.320313 6.660156 2.46875 39.324219-29.597656 82.242188-66.5625 125.488281-108.855469 1.640626-1.601562 1.691407-4.234375.121094-5.910156-8.3125-8.859375-15.417968-17.015625-12.058594-15.671875 7.015626 2.804687 16.832032 1.402344 10.519532-6.308594-5.445313-6.660156.601562-8.089843 20.398437 4.269531 1.679688 1.046876 3.878907.796876 5.265625-.621093 35.394532-36.183594 67.0625-72.140625 93.804688-105.960938 2.164062-2.734375.257812-6.769531-3.226563-6.824219-15.695312-.25-29.699219-1.292968-22.265625-4.476562 14.730469-6.3125 12.625-16.832031-2.804687-15.429688-14.140625 1.285157 17.675781-2.148437 56.5625-12.449218.957031-.253906 1.808593-.84375 2.378906-1.652344 11.503906-16.246094 21.582031-31.71875 30.082031-46.160156 1.578125-2.6875-.207031-6.089844-3.316406-6.332032-18.5625-1.441406-37.664062-4.203124-21.183594-9.148437 12.410156-3.722656 26.1875-7.996094 37.699219-11.601563 1.113281-.347656 2.027344-1.148437 2.535156-2.203124 5.144531-10.738282 9.097657-20.625 11.777344-29.519532l-2.078125-42.757812c-.167969-.179688-.324219-.363282-.492188-.53125zm0 0" fill="url(#c)"/><path d="m505.320312 7.183594c-30.425781-30.425782-156.5625 45.832031-287.425781 172.058594 16.480469 18.800781 66.324219 20.28125 86.144531 27.816406 19.917969 7.566406 51.59375 24.410156 75.25 37.550781 14.433594-16.445313 27.9375-32.625 40.363282-48.339844 2.164062-2.734375.257812-6.769531-3.230469-6.824219-15.691406-.253906-29.695313-1.292968-22.261719-4.480468 14.726563-6.308594 12.625-16.832032-2.804687-15.429688-14.140625 1.289063 17.675781-2.144531 56.5625-12.445312.957031-.253906 1.808593-.847656 2.378906-1.652344 11.503906-16.246094 21.582031-31.71875 30.078125-46.164062 1.582031-2.683594-.207031-6.085938-3.3125-6.328126-18.5625-1.441406-37.667969-4.207031-21.183594-9.152343 12.40625-3.722657 26.183594-7.992188 37.695313-11.597657 1.117187-.347656 2.03125-1.148437 2.535156-2.203124 5.148437-10.738282 9.101563-20.625 11.78125-29.519532l-2.082031-42.761718c-.164063-.175782-.320313-.359376-.488282-.527344zm0 0" fill="url(#d)"/><path d="m497.839844 76.316406c.167968-.363281.328125-.722656.492187-1.085937.398438-.867188.789063-1.730469 1.167969-2.585938.171875-.382812.339844-.765625.503906-1.148437.382813-.875.757813-1.738282 1.121094-2.597656.132812-.3125.265625-.628907.398438-.941407.46875-1.121093.929687-2.238281 1.371093-3.339843.011719-.03125.023438-.0625.035157-.089844.488281-1.226563.957031-2.4375 1.410156-3.632813 0-.007812.003906-.015625.007812-.023437.425782-1.132813.832032-2.25 1.226563-3.355469.054687-.160156.109375-.316406.164062-.472656.34375-.984375.679688-1.960938.996094-2.925781.050781-.152344.101563-.304688.148437-.457032.351563-1.066406.683594-2.125.996094-3.164062 5.945313-19.71875 5.59375-34.523438-2.074218-42.785156-.164063-.175782-.316407-.359376-.488282-.53125-.484375-.484376-1-.941407-1.535156-1.371094-.179688-.144532-.371094-.273438-.554688-.410156-.269531-.199219-.535156-.394532-.8125-.582032-.105468-.074218-.203124-.152344-.308593-.222656-.234375-.152344-.484375-.285156-.726563-.425781-.21875-.132813-.445312-.261719-.671875-.386719-.140625-.078125-.277343-.164062-.421875-.238281-.273437-.140625-.554687-.261719-.832031-.390625-.15625-.074219-.3125-.140625-.472656-.210938-.21875-.097656-.433594-.203125-.65625-.292968-.300781-.121094-.617188-.226563-.925781-.335938-.335938-.121094-.675782-.238281-1.019532-.347656-.050781-.015625-.101562-.035156-.152344-.050782-.328124-.101562-.667968-.1875-1.007812-.277343-.402344-.105469-.808594-.210938-1.226562-.304688-.351563-.074219-.714844-.140625-1.078126-.207031-.425781-.078125-.851562-.152344-1.285156-.214844-.378906-.054687-.765625-.097656-1.15625-.140625-.441406-.050781-.886718-.09375-1.339844-.128906-.402343-.03125-.8125-.054687-1.226562-.074219-.367188-.015625-.742188-.027344-1.117188-.035156-.09375-.003906-.183593-.007812-.28125-.011719-.425781-.003906-.859374-.007812-1.296874-.003906-.476563.007813-.960938.019531-1.449219.039063-.453125.015624-.90625.035156-1.367188.066406-.496093.027344-.996093.070312-1.503906.113281-.476563.042969-.949219.085937-1.433594.136719-.484375.054687-.972656.117187-1.464843.179687-.03125.003907-.0625.007813-.09375.015625-.5.0625-1 .128906-1.507813.207032-.269531.039062-.550781.089843-.828125.136718-.257812.042969-.515625.085938-.777344.128906-.519531.089844-1.042968.179688-1.574218.28125-.089844.015626-.179688.035157-.269532.054688-.453125.089844-.90625.183594-1.363281.28125-.550781.113281-1.101563.226562-1.664063.355469-.082031.015625-.164062.039062-.25.058593-.464843.109376-.945312.226563-1.417968.34375-.578125.140626-1.152344.277344-1.738282.429688-.210937.054688-.425781.121094-.632812.175781-.332031.089844-.664062.179688-1 .273438-.628906.175781-1.253906.339843-1.894531.527343-.484375.144532-.980469.304688-1.472657.453126-1.359374.417968-2.742187.863281-4.148437 1.335937-.03125.011719-.058594.019531-.089844.03125-1.40625.472656-2.839843.980469-4.289062 1.511719-.347657.128906-.683594.242187-1.027344.375-.839844.3125-1.699219.652344-2.554687.984375-.457032.179687-.90625.347656-1.367188.53125-.832031.335937-1.683594.6875-2.53125 1.039062-.285156.117188-.566406.234375-.855469.355469-.210937.085938-.417969.171875-.632812.261719-.851563.359375-1.71875.738281-2.585938 1.113281-.320312.140625-.640625.277344-.964843.421875-.1875.082031-.371094.160156-.558594.246094-.878906.386719-1.765625.792969-2.652344 1.195312-.019531.011719-.035156.019531-.050781.027344-.503907.230469-1.003907.453125-1.507813.6875-.898437.417969-1.804687.847656-2.710937 1.28125-.523438.25-1.042969.496094-1.570313.753906-.933594.449219-1.875.914063-2.824218 1.386719-.507813.253906-1.019532.503906-1.535157.765625-.964843.484375-1.933593.980469-2.910156 1.480469-.4375.226562-.875.453125-1.316406.679687-.074219.039063-.152344.078125-.226563.121094-1.003906.519531-2.011718 1.050781-3.027344 1.589844-.496093.265625-.996093.535156-1.5.804687-1.042968.5625-2.089843 1.132813-3.148437 1.710938-.03125.019531-.066406.039062-.101563.058594-.441406.242187-.882812.484374-1.324218.730468-1.09375.605469-2.191406 1.21875-3.296875 1.84375-.261719.148438-.527344.300782-.792969.449219-.179688.105469-.363281.207031-.542969.3125-1.152343.65625-2.3125 1.320313-3.476562 2-.390625.226563-.785157.457031-1.179688.6875-1.234375.722656-2.476562 1.457031-3.730469 2.203125-.101562.058594-.203124.121094-.300781.179688-.199219.121093-.398437.238281-.597656.359374-1.351563.808594-2.710937 1.628907-4.078125 2.464844-.070312.042969-.140625.085938-.207031.128906-.101563.0625-.203125.125-.304688.1875-2.167969 1.328126-4.359375 2.691407-6.570312 4.089844-.074219.046875-.152344.097656-.230469.144532-6.722656 4.25-13.628906 8.800781-20.699219 13.636718-.074219.050782-.148437.105469-.226562.15625-9.480469 6.496094-19.257813 13.503906-29.273438 21-.007812.007813-.019531.015625-.027343.023438-.011719.007812-.023438.015625-.03125.023437-1.816407 1.359375-3.644532 2.738281-5.476563 4.128907-.019531.015624-.035156.027343-.054687.042968-.019532.015625-.042969.03125-.066407.050782-1.824219 1.382812-3.65625 2.785156-5.496093 4.203124-.007813.007813-.015626.011719-.023438.019532-.023438.019531-.046875.039062-.074219.058594-1.851562 1.425781-3.710937 2.871093-5.578125 4.328124 0 .003907-.003906.003907-.007812.003907-.007813.007812-.015625.015625-.027344.023437-32.109375 25.09375-66.257812 54.738282-100.777344 87.882813l95.609375-1.386719 72.152344-5.703125c-.027344 0-.035156-.003906-.054687-.003906-.082032 0-.113282-.007813-.09375-.023438.007812-.003906.003906-.007812.015624-.011719.078126-.027343.285157-.074218.585938-.132812.015625-.003906.03125-.007812.050781-.011719h.003907c.140624-.027343.3125-.058593.5-.09375.015624-.003906.03125-.003906.046874-.007812h.003907c.175781-.03125.363281-.066407.570312-.105469h.011719c.007812 0 .011719-.003906.019531-.003906.898438-.160156 2.117188-.367188 3.625-.625.4375-.078125.902344-.15625 1.390625-.242188.210938-.039062.429688-.074218.652344-.113281.726562-.125 1.484375-.257813 2.304688-.40625h.015624c.558594-.101563 1.140626-.203125 1.734376-.3125.050781-.007813.09375-.015625.144531-.023437.058593-.011719.113281-.019532.167969-.03125.671874-.121094 1.363281-.246094 2.082031-.375 0-.003907.003906-.003907.007812-.003907.992188-.179687 2.042969-.375 3.121094-.578125.195313-.035156.398437-.074218.597656-.113281 1.074219-.199219 2.175781-.410156 3.324219-.632813.042969-.007812.085938-.015624.128906-.023437.179688-.035156.363282-.070313.542969-.105469.644531-.125 1.300781-.257812 1.972656-.386718.242188-.050782.492188-.097657.738281-.148438.433594-.085938.878907-.175781 1.320313-.265625.207031-.039063.410156-.082031.617187-.121094.28125-.058593.558594-.113281.839844-.171875.648438-.132812 1.3125-.265625 1.980469-.40625.28125-.058594.5625-.117187.847656-.175781.730469-.152344 1.476563-.308594 2.226563-.464844.222656-.050781.441406-.09375.664062-.140625 1.972656-.421875 4.003906-.863281 6.089844-1.328125.253906-.058593.515625-.117187.769531-.175781.773438-.175781 1.554688-.351562 2.339844-.53125.355469-.082031.714844-.164062 1.070313-.246094.277343-.066406.5625-.128906.839843-.195312.425781-.101563.851563-.199219 1.285157-.300782.40625-.09375.816406-.191406 1.222656-.289062.679687-.160156 1.359375-.324219 2.046875-.488281.421875-.105469.847656-.207031 1.273437-.308594.699219-.171875 1.402344-.347656 2.109375-.519531.414063-.101563.824219-.203125 1.238281-.308594.769532-.191406 1.542969-.390625 2.316407-.585938.359375-.09375.714843-.179687 1.074219-.273437 1.132812-.292969 2.273437-.589844 3.421874-.894531.71875-.1875 1.375-.570313 1.902344-1.089844.171875-.171875.332032-.359375.476563-.5625 2.875-4.058594 5.664062-8.074219 8.359375-12.035156 1.347656-1.980469 2.671875-3.945313 3.972656-5.898438 6.507812-9.769531 12.4375-19.199218 17.746094-28.226562 1.582031-2.6875-.207032-6.089844-3.3125-6.332032-10.261719-.792968-20.675782-1.996093-25.164063-3.746093-.148437-.058594-.292969-.117188-.425781-.175781-1.558594-.679688-2.238281-1.4375-1.683594-2.285157.25-.378906.738282-.773437 1.503906-1.1875.507813-.277343 1.140626-.5625 1.902344-.851562.761719-.292969 1.652344-.59375 2.683594-.902344 3.101562-.929687 6.289062-1.894531 9.503906-2.875 3.21875-.980469 6.460938-1.976563 9.679688-2.96875 6.433594-1.984375 12.757812-3.953125 18.511718-5.757813.515626-.160156.984376-.429687 1.390626-.761718.035156-.027344.074218-.046875.105468-.074219.214844-.1875.414063-.398437.585938-.625.175781-.230469.328125-.476563.453125-.742187.597656-1.238282 1.171875-2.460938 1.734375-3.675782zm0 0" fill="url(#e)"/><path d="m117.839844 349.777344c-53.484375 58.039062-89.195313 134.769531-100.769532 161.660156 7.886719 1.992188 18.246094 1.113281 30.671876-2.390625.917968-.261719 1.71875-.828125 2.273437-1.601563 3.03125-4.238281 10.023437-14.125 17.761719-25.851562 2.816406-4.265625 9.394531-.773438 7.410156 3.941406-.042969.097656-.085938.199219-.128906.296875-4.207032 9.820313 9.117187-3.507812 12.625-9.816406 2.375-4.273437 6.351562-.511719 7.148437 6.066406.367188 3 3.605469 4.71875 6.238281 3.234375 16.671876-9.390625 34.867188-21.0625 54.132813-34.714844 4.710937-66.945312 2.9375-144.554687-37.363281-100.824218zm0 0" fill="url(#f)"/><path d="m113.984375 410.441406c-11.9375 29.441406-14.84375 61.476563-15.550781 75.34375.863281.128906 1.78125.015625 2.636718-.46875 13.949219-7.855468 28.976563-17.328125 44.792969-28.207031-7.953125-31.011719-21.449219-72.402344-31.878906-46.667969zm0 0" fill="url(#g)"/><path d="m198.140625 198.640625c-137.691406 137.695313-223.410156 275.222656-191.457031 307.179687 7.84375 7.84375 22.050781 8.589844 41.058594 3.226563.917968-.261719 1.71875-.828125 2.273437-1.601563 3.035156-4.238281 10.023437-14.125 17.765625-25.851562 2.816406-4.265625 9.390625-.773438 7.40625 3.941406-.042969.097656-.085938.199219-.125.296875-4.210938 9.820313 9.117188-3.507812 12.621094-9.816406 2.375-4.273437 6.351562-.511719 7.152344 6.066406.363281 3 3.601562 4.71875 6.234374 3.234375 17.367188-9.78125 36.371094-22.015625 56.535157-36.410156 1.070312-.765625 1.730469-1.988281 1.773437-3.304688.578125-18.703124 1.242188-41.21875 1.242188-46.730468 0-5.992188 4.964844 15.964844 8.832031 33.992187.644531 3.011719 4.195313 4.320313 6.660156 2.46875 39.320313-29.597656 82.238281-66.566406 125.484375-108.855469 1.640625-1.605468 1.695313-4.238281.125-5.910156-8.3125-8.859375-15.421875-17.015625-12.058594-15.671875 7.011719 2.804688 16.832032 1.402344 10.519532-6.3125-5.449219-6.65625.601562-8.089843 20.398437 4.269531 1.679688 1.050782 3.878907.796876 5.265625-.617187 35.394532-36.1875 67.0625-72.144531 93.804688-105.960937 2.164062-2.734376.257812-6.769532-3.230469-6.828126-15.691406-.25-29.695313-1.292968-22.261719-4.476562 14.726563-6.3125 12.625-16.832031-2.804687-15.429688-14.140625 1.285157 17.675781-2.144531 56.5625-12.445312.957031-.253906 1.808593-.847656 2.378906-1.65625 11.503906-16.242188 21.582031-31.714844 30.078125-46.160156 1.582031-2.6875-.207031-6.089844-3.3125-6.328125-18.566406-1.441407-37.667969-4.207031-21.1875-9.152344 12.410156-3.722656 26.1875-7.992187 37.699219-11.597656 1.113281-.351563 2.03125-1.148438 2.535156-2.203125 16.796875-35.046875 20.957031-61.0625 9.210937-72.8125-31.953124-31.953125-169.484374 53.765625-307.179687 191.457031zm0 0" fill="url(#h)"/><path d="m508.101562 31.421875c-3.046874-.0625-6.058593-.058594-9.046874 0-3.046876-.0625-6.0625-.058594-9.046876 0-3.046874-.0625-6.0625-.058594-9.046874 0-3.050782-.0625-6.066407-.058594-9.050782 0-3.046875-.0625-6.0625-.058594-9.046875 0-3.050781-.0625-6.0625-.058594-9.050781 0-3.046875-.0625-6.0625-.058594-9.046875 0-3.046875-.0625-6.0625-.058594-9.050781 0-3.046875-.0625-6.058594-.058594-9.046875 0-3.046875-.0625-6.0625-.058594-9.046875 0-3.046875-.0625-6.0625-.058594-9.050782 0-1.363281-.027344-2.722656-.039063-4.074218-.042969-57.664063 33.695313-131.980469 92.890625-206.355469 167.261719-45.644531 45.648437-85.570313 91.273437-117.398437 133.042969 4.671874 8.75 8.585937 14.828125 11.125 17.367187 3.769531 3.769531 9.769531 5.011719 17.519531 4.019531h164.300781c9.269531-8.609374 18.582031-17.46875 27.914062-26.59375 1.640626-1.605468 1.691407-4.238281.121094-5.910156-8.3125-8.863281-15.417968-17.015625-12.058594-15.671875 7.015626 2.804688 16.832032 1.402344 10.519532-6.3125-5.445313-6.660156.601562-8.089843 20.398437 4.269531 1.679688 1.046876 3.878907.796876 5.265625-.621093 35.394532-36.183594 67.0625-72.140625 93.804688-105.957031 2.164062-2.738282.257812-6.773438-3.226563-6.828126-15.695312-.25-29.699219-1.292968-22.265625-4.476562 14.730469-6.3125 12.625-16.832031-2.804687-15.429688-14.140625 1.285157 17.675781-2.148437 56.5625-12.449218.957031-.253906 1.808593-.84375 2.378906-1.652344 11.503906-16.242188 21.582031-31.714844 30.082031-46.160156 1.578125-2.6875-.207031-6.089844-3.316406-6.332032-18.5625-1.4375-37.664062-4.203124-21.183594-9.148437 12.410156-3.722656 26.1875-7.992187 37.699219-11.601563 1.113281-.347656 2.027344-1.148437 2.535156-2.199218 9.203125-19.207032 14.601563-35.691406 15.679688-48.609375-1.238281.003906-2.464844.011719-3.691407.035156zm0 0" fill="url(#i)"/><path d="m344.339844 96.574219c18.394531 18.394531-23.210938 89.824219-92.929688 159.542969s-141.148437 111.324218-159.542968 92.929687c-18.394532-18.394531-108.933594-221.96875-39.214844-291.6875s273.292968 20.820313 291.6875 39.214844zm0 0" fill="url(#j)"/><path d="m146.355469 339.027344c29.90625-16.316406 67.722656-45.578125 105.054687-82.910156 37.328125-37.332032 66.59375-75.148438 82.910156-105.054688-61.625-42.148438-232.320312-137.519531-280.21875-95.0625-.480468.457031-.980468.890625-1.449218 1.359375s-.902344.96875-1.359375 1.453125c-42.457031 47.898438 52.910156 218.589844 95.0625 280.214844zm0 0" fill="url(#k)"/><path d="m146.355469 339.027344c29.90625-16.316406 67.722656-45.578125 105.054687-82.910156 37.328125-37.332032 66.59375-75.148438 82.910156-105.054688-61.625-42.148438-232.320312-137.519531-280.21875-95.0625-.480468.457031-.980468.890625-1.449218 1.359375s-.902344.96875-1.359375 1.453125c-42.457031 47.898438 52.910156 218.589844 95.0625 280.214844zm0 0" fill="url(#l)"/><path d="m146.355469 339.027344c29.90625-16.316406 67.722656-45.578125 105.054687-82.910156 37.328125-37.332032 66.59375-75.148438 82.910156-105.054688-61.625-42.148438-232.320312-137.519531-280.21875-95.0625-.480468.457031-.980468.890625-1.449218 1.359375s-.902344.96875-1.359375 1.453125c-42.457031 47.898438 52.910156 218.589844 95.0625 280.214844zm0 0" fill="url(#l)"/><path d="m146.355469 339.027344c29.90625-16.316406 67.722656-45.578125 105.054687-82.910156 18.125-18.128907 34.34375-36.367188 48.109375-53.761719-66.152343-47.292969-174.253906-116.515625-249.179687-142.367188-39.980469 49.425781 54.195312 217.902344 96.015625 279.039063zm0 0" fill="url(#m)"/><path d="m146.964844 248.0625c24.6875 33.988281 73.976562 38.285156 103.796875 8.699219.214843-.214844.433593-.429688.648437-.644531.214844-.214844.429688-.429688.644532-.648438 29.585937-29.820312 25.289062-79.109375-8.699219-103.792969-69.730469-50.648437-167.515625-113.199219-189.84375-95.082031-.285157.257812-.585938.496094-.859375.765625-.273438.273437-.507813.574219-.765625.859375-18.117188 22.328125 44.433593 120.113281 95.078125 189.84375zm0 0" fill="url(#n)"/><path d="m228.265625 232.972656c-59.570313 59.574219-120.386719 98.613282-148.304687 97.242188 5.019531 9.535156 9.230468 16.15625 11.90625 18.832031 18.394531 18.394531 89.824218-23.210937 159.542968-92.929687s111.324219-141.148438 92.929688-159.542969c-2.675782-2.675781-9.296875-6.886719-18.835938-11.90625 1.371094 27.917969-37.664062 88.734375-97.238281 148.304687zm0 0" fill="url(#o)"/></svg>