<svg height="511pt" viewBox="-3 1 511 511.99978" width="511pt" xmlns="http://www.w3.org/2000/svg" xmlns:xlink="http://www.w3.org/1999/xlink"><linearGradient id="a" gradientTransform="matrix(.709873 .709873 -.709873 .709873 244.924122 -54.578497)" gradientUnits="userSpaceOnUse" x1="206.664" x2="528.2064" y1="185.9429" y2="303.8418"><stop offset="0" stop-color="#ffb211"/><stop offset="1" stop-color="#ff4b3e"/></linearGradient><linearGradient id="b"><stop offset="0" stop-color="#ff4b3e" stop-opacity="0"/><stop offset=".1177" stop-color="#f5493b" stop-opacity=".117647"/><stop offset=".3191" stop-color="#da4332" stop-opacity=".317647"/><stop offset=".5796" stop-color="#ad3923" stop-opacity=".580392"/><stop offset=".886" stop-color="#702c0f" stop-opacity=".886275"/><stop offset="1" stop-color="#582707"/></linearGradient><linearGradient id="c" gradientTransform="matrix(.709873 .709873 -.709873 .709873 244.924122 -54.578497)" gradientUnits="userSpaceOnUse" x1="125.5944" x2="210.5704" xlink:href="#b" y1="262.5199" y2="105.5644"/><linearGradient id="d" gradientTransform="matrix(.709873 .709873 -.709873 .709873 244.924122 -54.578497)" gradientUnits="userSpaceOnUse" x1="156.1983" x2="227.1153" xlink:href="#b" y1="35.3323" y2="23.8323"/><linearGradient id="e" gradientTransform="matrix(.709873 .709873 -.709873 .709873 244.924122 -54.578497)" gradientUnits="userSpaceOnUse" x1="240.6603" x2="312.9192" xlink:href="#b" y1="23.7646" y2="23.7646"/><linearGradient id="f" gradientTransform="matrix(.709873 .709873 -.709873 .709873 244.924122 -54.578497)" gradientUnits="userSpaceOnUse" x1="335.0264" x2="390.4033" xlink:href="#b" y1="65.4467" y2="74.3633"/><linearGradient id="g" gradientTransform="matrix(.709873 .709873 -.709873 .709873 244.924122 -54.578497)" gradientUnits="userSpaceOnUse" x1="390.349" x2="443.2443" xlink:href="#b" y1="136.0235" y2="159.1652"/><linearGradient id="h" gradientTransform="matrix(.709873 .709873 -.709873 .709873 244.924122 -54.578497)" gradientUnits="userSpaceOnUse" x1="221.8042" x2="253.5448" xlink:href="#b" y1="152.5589" y2="9.3569"/><linearGradient id="i" gradientUnits="userSpaceOnUse" x1="119.0833084018" x2="91.2700509606" y1="393.4166521444" y2="421.2299095856"><stop offset="0" stop-color="#ffe548"/><stop offset=".2472" stop-color="#ffe042"/><stop offset=".5621" stop-color="#ffd133"/><stop offset=".9123" stop-color="#ffb919"/><stop offset="1" stop-color="#ffb211"/></linearGradient><path d="m491.195312 311.039062c-1.109374-18.050781-16.636718-31.796874-34.703124-30.6875l-54.90625 3.359376c-8.261719.503906-11.109376-10.796876-3.59375-14.265626l85.738281-39.5625c16.308593-7.667968 24.980469-27.84375 19.261719-44.964843-1.589844-4.777344-4.132813-8.824219-7.34375-12.035157-8.335938-8.335937-21.109376-10.910156-33-5.421874l-3.117188 1.4375-85.542969 39.476562c-10.617187 4.902344-19.316406-9.605469-9.988281-16.664062l96.25-72.847657c14.425781-10.917969 17.273438-31.453125 6.351562-45.878906-.921874-1.226563-1.929687-2.371094-2.988281-3.429687-11.375-11.375-29.691406-12.917969-42.898437-2.929688l-98.726563 74.71875c-7.917969 5.992188-17.480469-4.984375-10.457031-12.003906l72.9375-72.941406c11.011719-11.011719 13.003906-28.0625 5.195312-40.835938-.0625-.109375-.121093-.21875-.203124-.324219-.1875-.304687-.390626-.609375-.601563-.90625-.101563-.183593-.222656-.355469-.355469-.507812-.1875-.285157-.390625-.558594-.601562-.820313-.09375-.160156-.210938-.3125-.339844-.457031-.175781-.246094-.371094-.472656-.574219-.710937-.253906-.324219-.519531-.621094-.796875-.914063-.050781-.070313-.101562-.136719-.160156-.179687-.136719-.167969-.28125-.328126-.433594-.484376-.203125-.21875-.421875-.4375-.632812-.652343l-.011719-.007813c-12.792969-12.792968-33.539063-12.792968-46.332031 0l-134.828125 134.828125 9.511719-68.09375c2.515624-17.917969-9.988282-34.46875-27.902344-36.964843-17.925782-2.507813-34.46875 9.984374-36.96875 27.902343l-16.589844 118.925781c-2.6875 19.285157-12.535156 36.847657-27.585938 49.199219l-84.933593 69.714844 182.304687 182.308594 59.492188-72.484375c31.316406-38.160156 77.066406-61.601563 126.324218-64.726563l73.050782-4.472656c.027344-.007813.054687 0 .078125-.007813 18.027343-1.136718 31.714843-16.652343 30.621093-34.6875zm0 0" fill="url(#a)"/><path d="m72.691406 261.304688 119.773438 119.769531 32.238281-32.238281c50.417969-50.417969 50.417969-132.160157 0-182.578126l-21.023437-21.027343.113281-.804688 9.511719-68.09375c2.515624-17.917969-9.988282-34.46875-27.902344-36.96875-17.925782-2.507812-34.46875 9.988281-36.96875 27.902344l-16.589844 118.929687c-2.6875 19.285157-12.535156 36.847657-27.585938 49.199219zm0 0" fill="url(#c)"/><path d="m384.953125 9.59375c-12.789063-12.792969-33.53125-12.792969-46.320313 0l-102.257812 102.257812 46.320312 46.324219 102.257813-102.257812c12.792969-12.792969 12.792969-33.53125 0-46.324219zm0 0" fill="url(#d)"/><path d="m460.253906 118.863281-116.078125 87.851563-39.929687-51.945313 116.472656-88.144531c14.433594-10.910156 34.96875-8.066406 45.886719 6.359375s8.070312 34.960937-6.351563 45.878906zm0 0" fill="url(#e)"/><path d="m486.976562 228.382812-114.253906 52.722657-22.125-61.941407 108.933594-50.265624c16.425781-7.578126 34.117188-4.117188 41.699219 12.308593 7.578125 16.425781 1.503906 37.144531-14.253907 47.175781zm0 0" fill="url(#f)"/><path d="m460.496094 345.734375-92.957032 5.691406 5.445313-65.960937 83.507813-5.113282c18.066406-1.109374 33.59375 12.636719 34.703124 30.6875 1.101563 18.058594-12.640624 33.59375-30.699218 34.695313zm0 0" fill="url(#g)"/><path d="m326.863281 165.402344c-27.535156-27.535156-58.996093-46.421875-88.703125-55.34375l-34.367187 34.367187 5.574219-39.898437c-24.507813-1.894532-46.214844 4.226562-61.261719 19.273437-3.558594 3.558594-6.621094 7.492188-9.195313 11.746094l-8.566406 61.421875c6.011719 34.359375 26.539062 72.765625 59.367188 105.589844 46.003906 46.003906 102.96875 67.867187 144.394531 59.433594 5.613281-2.1875 11.347656-4.09375 17.175781-5.703126 6.375-3.074218 12.15625-7.097656 17.1875-12.128906 37.871094-37.871094 19.246094-117.90625-41.605469-178.757812zm0 0" fill="url(#h)"/><path d="m180.953125 505.695312-174.148437-174.148437c-8.40625-8.402344-8.40625-22.03125 0-30.433594 8.402343-8.40625 22.027343-8.40625 30.433593 0l174.148438 174.148438c8.402343 8.40625 8.402343 22.03125 0 30.433593-8.402344 8.40625-22.03125 8.40625-30.433594 0zm0 0" fill="url(#i)"/></svg>