<svg height="512pt" viewBox="0 -35 512.00093 512" width="512pt" xmlns="http://www.w3.org/2000/svg" xmlns:xlink="http://www.w3.org/1999/xlink"><linearGradient id="a"><stop offset="0" stop-color="#f2e9dc"/><stop offset=".423" stop-color="#f1e7da"/><stop offset=".6192" stop-color="#eee1d2"/><stop offset=".7687" stop-color="#e9d6c6"/><stop offset=".8937" stop-color="#e3c7b3"/><stop offset="1" stop-color="#dab49d"/></linearGradient><radialGradient id="b" cx="222.418416905" cy="275.8149410722" gradientUnits="userSpaceOnUse" r="196.4658287326" xlink:href="#a"/><radialGradient id="c" cx="347.8202213768" cy="7.6766109546" gradientUnits="userSpaceOnUse" r="187.0649023402" xlink:href="#a"/><linearGradient id="d"><stop offset="0" stop-color="#ffe548"/><stop offset=".9688" stop-color="#97a03b"/></linearGradient><linearGradient id="e" gradientTransform="matrix(.992075 -.153801 .153801 .992075 -43.54821 39.538955)" gradientUnits="userSpaceOnUse" x1="422.4308" x2="467.6908" xlink:href="#d" y1="227.1732" y2="406.5362"/><linearGradient id="f"><stop offset="0" stop-color="#97a03b" stop-opacity="0"/><stop offset="1" stop-color="#575c55"/></linearGradient><linearGradient id="g" gradientTransform="matrix(.821409 -.577255 .577255 .821409 913.479178 -420.899533)" gradientUnits="userSpaceOnUse" x1="-729.6758" x2="-812.1166" xlink:href="#f" y1="304.5197" y2="231.0849"/><linearGradient id="h"><stop offset="0" stop-color="#ffb211"/><stop offset="1" stop-color="#6c7d47"/></linearGradient><linearGradient id="i" gradientTransform="matrix(.992075 -.153801 .153801 .992075 -43.54821 39.538955)" gradientUnits="userSpaceOnUse" x1="408.0282" x2="458.0592" xlink:href="#h" y1="277.3435" y2="305.486"/><linearGradient id="j" gradientTransform="matrix(.57866 .820304 .820304 -.57866 .861565 25.23508)" gradientUnits="userSpaceOnUse" x1="246.5192" x2="270.6019" xlink:href="#d" y1="226.1543" y2="321.5929"/><linearGradient id="k" gradientTransform="matrix(.155507 .991774 .991774 -.155507 334.543812 1033.685741)" gradientUnits="userSpaceOnUse" x1="-903.9968" x2="-947.8629" xlink:href="#f" y1="185.2732" y2="146.1992"/><linearGradient id="l" gradientTransform="matrix(.57866 .820304 .820304 -.57866 .861565 25.23508)" gradientUnits="userSpaceOnUse" x1="238.8562" x2="265.4772" xlink:href="#h" y1="252.8496" y2="267.8239"/><radialGradient id="m" cx="227.0367592816" cy="272.3870494032" gradientUnits="userSpaceOnUse" r="182.9892801968" xlink:href="#a"/><radialGradient id="n" cx="210.3267787682" cy="50.2607735662" gradientUnits="userSpaceOnUse" r="24.7183666996" xlink:href="#a"/><linearGradient id="o"><stop offset="0" stop-color="#dab49d" stop-opacity="0"/><stop offset=".4385" stop-color="#ce9e7a" stop-opacity=".439216"/><stop offset="1" stop-color="#c08552"/></linearGradient><linearGradient id="p" gradientUnits="userSpaceOnUse" x1="175.5032343932" x2="172.9587940842" xlink:href="#o" y1="352.2868923626" y2="304.3058458634"/><linearGradient id="q" gradientUnits="userSpaceOnUse" x1="129.4048428206" x2="129.4048428206" xlink:href="#o" y1="275.602511177" y2="319.3612625286"/><path d="m394.703125 380.355469c-18.636719 9.566406-38.90625 15.347656-59.300781 17.191406l-3.820313.351563-3.832031.171874c-2.558594.101563-5.046875.242188-7.792969.261719l-7.707031-.078125-1.921875-.023437-1.921875-.121094-3.835938-.234375c-10.210937-.71875-20.34375-2.078125-30.246093-4.390625-19.761719-4.71875-38.722657-12.335937-55.789063-22.984375-8.542968-5.28125-16.640625-11.246094-24.1875-17.808594l-2.796875-2.5c-.921875-.839844-1.898437-1.625-2.773437-2.519531l-5.375-5.214844-5.113282-5.460937c-1.703124-1.820313-3.25-3.78125-4.886718-5.660156-2.449219-2.976563-4.8125-6.023438-7.082032-9.132813l10.734376-.246094 8.0625-.183593 4.488281-.230469c1.507812-.078125 3.003906-.296875 4.507812-.445313 6.003907-.71875 11.964844-1.980468 17.785157-3.773437 5.816406-1.792969 11.488281-4.121094 16.914062-6.945313 5.425781-2.832031 10.570312-6.214844 15.390625-10.011718 9.640625-7.601563 17.933594-16.96875 24.347656-27.5625 6.40625-10.597657 10.828125-22.457032 12.992188-34.742188 1.089843-6.144531 1.621093-12.390625 1.601562-18.632812-.035156-1.5625-.027343-3.105469-.113281-4.691407-.125-1.59375-.203125-3.1875-.386719-4.777343-.355469-3.179688-.851562-6.351563-1.527343-9.488282-2.691407-12.5625-8.113282-24.578125-15.757813-34.964844-7.609375-10.433593-17.589844-19.082031-28.859375-25.4375-11.277344-6.359374-23.96875-10.324218-36.921875-11.4375-12.941406-1.097656-26.0625.542969-38.382813 4.839844-12.289062 4.292969-23.695312 11.179688-33.101562 20.167969-9.398438 8.992187-16.890625 19.949219-21.832031 31.992187-4.925781 12.042969-7.269531 25.175782-6.757813 38.125l.109375 2.425782c.042969.792968.128907 1.464844.191407 2.203125l.40625 4.339843.417968 4.332032.613282 4.316406.632812 4.308594.320312 2.15625.421876 2.136718c.570312 2.851563 1.109374 5.707032 1.714843 8.542969 2.589844 11.332031 6.125 22.441407 10.609375 33.144531 1.714844 4.160157 3.578125 8.253907 5.566406 12.277344-2.488281-.109375-4.980468-.261718-7.46875-.460937-10.347656-.773438-20.667968-2.292969-30.871093-4.539063-10.203125-2.25-20.257813-5.296875-30.132813-8.980468-9.84375-3.757813-19.449218-8.128907-28.292968-13.851563-4.441407-2.832031-8.679688-6.011719-12.648438-9.558594-3.953125-3.550781-7.664062-7.433593-11.09375-11.59375 5.308594 9.398438 12.484375 17.847657 20.800781 25.070313 8.367188 7.1875 17.800781 13.082031 27.523438 18.164062 9.742187 5.109375 19.949219 9.390625 30.433593 12.964844 10.503907 3.539062 21.324219 6.175781 32.300782 8.121094 6.421875 1.125 12.90625 1.917968 19.417968 2.441406 18.640626 29.640625 44.871094 54.3125 75.378907 70.769531 10.019531 5.554688 20.597656 10.03125 31.398437 13.675781 10.808594 3.640626 21.886719 6.398438 33.101563 8.140626 22.441406 3.40625 45.300781 2.964843 67.28125-1.078126 11.070312-2.117187 21.902343-5.253906 32.25-9.472656 10.347656-4.203125 20.210937-9.476562 29.375-15.660156 9.1875-6.15625 17.675781-13.234375 25.335937-21.027344 7.597656-7.855468 14.480469-16.316406 20.246094-25.441406-14.410156 16.066406-31.503906 29.1875-50.140625 38.730469zm-258.675781-182.460938c3.269531-7.820312 8.214844-14.957031 14.378906-20.789062 6.121094-5.886719 13.503906-10.410157 21.476562-13.25 7.953126-2.847657 16.617188-3.960938 25.097657-3.335938 8.480469.5625 16.816406 2.996094 24.339843 7.050781 7.527344 4.042969 14.21875 9.703126 19.527344 16.460938 5.300782 6.765625 9.171875 14.652344 11.25 23.054688.523438 2.097656.921875 4.230468 1.234375 6.382812.164063 1.074219.230469 2.164062.363281 3.246094.109376 1.09375.140626 2.238281.222657 3.359375.203125 4.5.011719 9.015625-.582031 13.488281-.59375 4.46875-1.59375 8.894531-2.992188 13.203125-1.402344 4.308594-3.234375 8.488281-5.378906 12.507813-4.289063 8.042968-10.070313 15.363281-16.992188 21.460937-6.921875 6.089844-14.933594 11.03125-23.660156 14.335937-4.355469 1.664063-8.878906 2.9375-13.503906 3.808594-1.160156.183594-2.3125.449219-3.484375.578125l-3.542969.449219-8.027344.796875-16.050781 1.597656-4.015625.398438-1.769531.167969c-4.058594-7.285157-7.605469-14.839844-10.539063-22.632813-3.496094-9.246094-6.371094-18.71875-8.402344-28.386719l-1.320312-7.289062-.332031-1.820313-.234375-1.839843-.464844-3.671876-.46875-3.671874-.277344-3.695313-.285156-3.695313c-.042969-.601562-.113281-1.261718-.128906-1.8125l-.035156-1.601562c-.183594-8.527344 1.320312-17.023438 4.597656-24.855469zm0 0" fill="url(#b)"/><path d="m197.683594 65.238281c13.503906 19.042969 30.046875 34.804688 48.046875 48.316407 2.25 1.691406 4.535156 3.332031 6.835937 4.945312 2.289063 1.621094 4.597656 3.210938 6.9375 4.753906 4.671875 3.097656 9.457032 6.003906 14.253906 8.84375 4.808594 2.828125 9.710938 5.46875 14.664063 7.953125 1.183594.613281 2.566406 1.316407 3.777344 1.898438 1.214843.566406 2.40625 1.175781 3.636719 1.707031 1.21875.546875 2.433593 1.097656 3.671874 1.597656 1.226563.527344 2.460938 1.023438 3.707032 1.492188 19.820312 7.777344 40.996094 10.984375 61.738281 9.625 20.742187-1.308594 41.0625-7.148438 59.164063-17.015625 18.113281-9.847657 33.996093-23.65625 46.253906-40.382813 1.550781-2.078125 3.019531-4.21875 4.457031-6.382812l2.070313-3.257813c.535156-.9375 1.128906-1.847656 1.609374-2.816406.539063-.9375.957032-1.933594 1.433594-2.90625.394532-1 .859375-1.984375 1.1875-3.015625.738282-2.035156 1.347656-4.125 1.78125-6.261719.464844-2.128906.738282-4.308593.859375-6.507812.144531-2.195313.101563-4.414063-.109375-6.625-.074218-1.113281-.257812-2.210938-.382812-3.320313-.199219-1.097656-.359375-2.210937-.632813-3.300781-.492187-2.1875-1.128906-4.363281-1.964843-6.464844-.820313-2.109375-1.765626-4.1875-2.914063-6.15625-1.117187-1.988281-2.332031-3.953125-3.753906-5.765625-2.78125-3.6875-6.179688-6.949218-10.003907-9.769531-1.902343-1.433594-3.933593-2.707031-6.050781-3.832031-2.105469-1.164063-4.328125-2.101563-6.609375-2.9375-4.550781-1.699219-9.429687-2.734375-14.429687-3.011719-2.503907-.195313-5.039063-.164063-7.578125.035156-2.546875.175781-5.085938.59375-7.613282 1.15625-2.535156.535157-5.050781 1.277344-7.507812 2.226563-2.460938.9375-4.890625 2.035156-7.238281 3.332031-2.359375 1.28125-4.640625 2.753906-6.816407 4.40625-2.203124 1.628906-4.304687 3.4375-6.253906 5.429687-1.019531.960938-1.9375 2.019532-2.898437 3.058594-.902344 1.089844-1.804688 2.15625-2.714844 3.320313-1.800781 2.296875-3.632813 4.574219-5.484375 6.839843 1.042969-2.734374 2.109375-5.453124 3.203125-8.160156.515625-1.351562 1.167969-2.726562 1.78125-4.09375.683594-1.335937 1.339844-2.707031 2.121094-4.003906 3.046875-5.25 6.984375-10.117188 11.667969-14.277344 1.15625-1.066406 2.386718-2.035156 3.621093-3.027344 1.277344-.921874 2.546875-1.875 3.898438-2.707031 2.660156-1.738281 5.476562-3.269531 8.414062-4.585937 2.933594-1.328125 5.992188-2.414063 9.132813-3.261719 3.140625-.863281 6.359375-1.53125 9.636718-1.902344 6.546876-.746093 13.285157-.5156248 19.90625.730469 3.304688.644531 6.585938 1.519531 9.777344 2.683594 3.199219 1.132812 6.328125 2.496094 9.335938 4.113281 12.050781 6.429687 22.425781 16.746094 28.796875 29.328125 1.628906 3.125 2.996093 6.390625 4.136719 9.742188 1.148437 3.347656 2.074218 6.792968 2.664062 10.308593.625 3.503907.988281 7.070313 1.066406 10.648438.097656 3.582031-.054687 7.183593-.511718 10.757812-.4375 3.574219-1.097657 7.140625-2.117188 10.613281-.460938 1.753907-1.078125 3.453126-1.65625 5.171876-.660156 1.683593-1.289062 3.386718-2.0625 5.023437-.71875 1.664063-1.558594 3.265625-2.402344 4.867187-.804687 1.46875-1.5625 2.796876-2.363281 4.195313-1.621094 2.738281-3.285156 5.453125-5.058594 8.105469-14.125 21.257812-33.726562 39.015625-56.3125 51.113281-22.5625 12.152344-48.085937 18.636719-73.558593 18.792969-12.738282.109375-25.441407-1.46875-37.734376-4.433594-6.15625-1.464844-12.175781-3.414062-18.0625-5.640625-5.878906-2.246094-11.625-4.796875-17.132812-7.773437-1.382812-.730469-2.75-1.488282-4.101562-2.273438-1.363282-.761719-2.695313-1.574219-4.027344-2.382812-1.339844-.789063-2.632813-1.660157-3.949219-2.488282l-3.71875-2.453125c-5.011719-3.371093-9.894531-6.894531-14.640625-10.574219-4.761719-3.65625-9.332031-7.550781-13.789062-11.542968-2.226563-2-4.414063-4.042969-6.570313-6.109375-2.132813-2.101563-4.238281-4.222657-6.292969-6.386719-4.125-4.316406-8.078125-8.789062-11.800781-13.445312-3.746094-4.625-7.273437-9.425782-10.53125-14.386719-6.515625-9.917969-12.058594-20.453125-15.894531-31.492188zm0 0" fill="url(#c)"/><path d="m407.886719 356.128906s-149.917969-97.722656 40.46875-221.601562c7.945312-5.171875 18.550781-3.082032 24.039062 4.644531 26.394531 37.148437 84.105469 144.394531-64.507812 216.957031zm0 0" fill="url(#e)"/><path d="m472.394531 139.171875c-3.042969-4.285156-7.660156-6.828125-12.523437-7.367187-37.507813 102.824218-51.984375 224.328124-51.984375 224.328124 148.613281-72.566406 90.902343-179.8125 64.507812-216.960937zm0 0" fill="url(#g)"/><path d="m459.257812 203.824219c-1.359374 1.226562-2.8125 2.359375-4.230468 3.492187-1.417969 1.140625-2.824219 2.277344-4.292969 3.332032-1.441406 1.085937-3.050781 1.96875-4.617187 2.863281-1.570313.890625-2.9375 1.992187-4.152344 3.3125-1.183594 1.332031-2.320313 2.722656-3.375 4.304687.410156-2.449218.816406-4.890625 1.222656-7.339844l2.136719-11.929687c.691406-3.992187 1.621093-7.894531 2.371093-11.875 1.644532-7.914063 3.578126-15.710937 6.054688-23.402344l-1.707031-.785156-2.777344 5.503906-1.394531 2.773438c-.441406.933593-.8125 1.882812-1.222656 2.824219-1.535157 3.789062-3.257813 7.570312-4.601563 11.425781-2.914063 7.679687-5.425781 15.464843-7.988281 23.25-.453125 1.511719-.90625 3.023437-1.363282 4.535156-.496093-1.214844-1.082031-2.386719-1.863281-3.472656-1.046875-1.472657-2.136719-2.949219-2.988281-4.539063-.890625-1.570312-1.691406-3.191406-2.5-4.820312-.816406-1.628906-1.65625-3.265625-2.378906-4.949219-1.609375-3.332031-2.898438-6.796875-4.328125-10.328125l-1.03125.152344c-.195313 3.824218-.101563 7.691406.324219 11.542968.195312 1.929688.519531 3.835938.828124 5.765626.402344 1.894531.808594 3.808593 1.316407 5.691406.492187 1.886718.878906 3.835937 1.359375 5.765625.519531 1.917969 1.347656 3.710937 2.539062 5.300781.234375.308594.480469.617188.730469.921875 2.722656 3.300781 3.589844 7.753906 2.441406 11.878906l-.019531.074219c-1.992188 7.175781-3.820312 14.378906-5.6875 21.578125-.742188-1.691406-1.585938-3.222656-2.496094-4.710937-.957031-1.515626-2.105468-2.839844-3.492187-3.996094-1.378907-1.164063-2.808594-2.316406-4.03125-3.644532-1.253907-1.300781-2.4375-2.667968-3.625-4.042968-1.195313-1.371094-2.421875-2.746094-3.542969-4.195313-2.390625-2.820312-4.507812-5.855469-6.773438-8.917969l-.960937.410157c.765625 3.746093 1.828125 7.46875 3.203125 11.089843.671875 1.820313 1.460938 3.585938 2.246094 5.378907.863281 1.734375 1.734375 3.480469 2.695312 5.179687.949219 1.703125 1.8125 3.492188 2.761719 5.242188.980469 1.722656 2.230469 3.253906 3.78125 4.496094.695313.542968 1.410156 1.0625 2.164063 1.546874 3.65625 2.359376 5.238281 6.917969 4.09375 11.117188-.984376 3.605469-1.980469 7.210938-2.9375 10.824219-1.226563 4.578125-2.210938 9.195312-3.015626 13.847656-.671874-1.441406-1.414062-2.777344-2.203124-4.078125-.960938-1.515625-2.109376-2.839844-3.496094-3.996094-1.378906-1.164062-2.804688-2.316406-4.027344-3.644531-1.257812-1.300781-2.4375-2.667969-3.628906-4.042969-1.195313-1.371094-2.417969-2.742187-3.539063-4.195312-2.390625-2.820313-4.507812-5.855469-6.777343-8.917969l-.957032.410156c.765625 3.746094 1.828125 7.46875 3.203125 11.089844.667969 1.820313 1.460938 3.589844 2.242188 5.378906.863281 1.734375 1.734375 3.480469 2.699219 5.175781.949218 1.707032 1.8125 3.496094 2.761718 5.246094.980469 1.722656 2.230469 3.253906 3.78125 4.496094 1.554688 1.214844 3.242188 2.324219 5.136719 3.164062 2.171875.960938 3.527344 3.136719 3.328125 5.5-.519531 6.125-1.367188 17.203126-1.410156 23.121094-.003906 8.246094.300781 16.539063 1.710937 24.984375l1.855469.285157c3.90625-7.589844 6.871094-15.3125 9.523438-23.074219 2.628906-7.769531 4.890624-15.585938 6.835937-23.453125.035156-.140625.066406-.28125.101563-.417969.628906-2.539063 2.921874-4.207031 5.535156-4.21875 1.925781-.007813 3.789062-.296875 5.585937-.71875 1.925781-.476563 3.703125-1.34375 5.316407-2.496094 1.597656-1.191406 3.128906-2.453125 4.703124-3.605469 1.585938-1.136718 3.109376-2.355468 4.621094-3.570312 1.460938-1.296875 2.921875-2.566406 4.292969-3.941406 2.765625-2.707032 5.289063-5.644532 7.558594-8.722656l-.703125-.773438c-3.339844 1.828125-6.535156 3.695312-9.886719 5.253906-1.625.847656-3.3125 1.582032-4.972656 2.324219-1.65625.75-3.304688 1.496094-4.988281 2.152344-1.667969.691406-3.445313 1.140625-5.1875 1.617187-1.742188.46875-3.34375 1.191406-4.847657 2.164063-1.613281 1.082031-3.183593 2.265625-4.71875 3.6875.753907-4.179688 1.363281-8.382813 1.84375-12.613281.347657-3.382813.871094-7.933594 1.34375-11.933594.503907-4.253906 3.632813-7.808594 7.839844-8.613282 2.054687-.390624 4.042969-1.082031 5.910156-1.519531 1.929688-.476562 3.703125-1.34375 5.316407-2.496093 1.59375-1.191407 3.128906-2.453126 4.707031-3.605469 1.585937-1.136719 3.109375-2.359375 4.621093-3.570313 1.460938-1.296875 2.917969-2.566406 4.289063-3.941406 2.765625-2.707031 5.292969-5.644531 7.558594-8.726562l-.699219-.769532c-3.34375 1.828125-6.535156 3.695313-9.890625 5.253906-1.625.847657-3.3125 1.578126-4.972656 2.324219-1.65625.75-3.304688 1.496094-4.988281 2.148438-1.664063.691406-3.445313 1.144531-5.183594 1.617187-1.742188.46875-3.34375 1.191406-4.847656 2.167969-2.847657 1.90625-5.554688 4.097656-8.171876 7.484375 1.214844-7.980469 2.363282-15.988281 3.699219-23.945312l.046875-.308594c.703125-4.859375 3.9375-9.089844 8.578125-10.691406 1.3125-.453126 2.554688-1.023438 3.75-1.652344 1.75-.945313 3.253907-2.226563 4.527344-3.746094 1.246094-1.554688 2.414063-3.15625 3.652344-4.667969 1.25-1.496093 2.417969-3.058593 3.578125-4.613281 1.089844-1.621094 2.183594-3.214844 3.167968-4.886719 2-3.316406 3.710938-6.789062 5.136719-10.339843l-.875-.574219c-2.78125 2.605469-5.40625 5.210937-8.261719 7.5625zm0 0" fill="url(#i)"/><path d="m387.839844 37.859375s-92.8125-21.238281-69.839844 97.40625c.957031 4.949219 5.675781 8.234375 10.664062 7.480469 23.972657-3.632813 86.34375-21.191406 59.175782-104.886719zm0 0" fill="url(#j)"/><path d="m328.664062 142.746094c-2.765624.417968-5.445312-.40625-7.449218-2.066406 25.480468-52.363282 66.625-102.820313 66.625-102.820313 27.167968 83.695313-35.203125 101.253906-59.175782 104.886719zm0 0" fill="url(#k)"/><path d="m348.546875 113.820312c-.035156-.972656-.136719-1.949218-.226563-2.910156-.089843-.964844-.171874-1.921875-.3125-2.875-.117187-.953125-.375-1.894531-.609374-2.824218-.242188-.929688-.324219-1.859376-.269532-2.8125.074219-.945313.183594-1.894532.402344-2.882813-.785156 1.0625-1.570312 2.121094-2.359375 3.183594l-3.773437 5.226562c-1.273438 1.738281-2.425782 3.539063-3.667969 5.296875-2.421875 3.554688-4.6875 7.175782-6.71875 10.964844l-.929688-.359375 1.078125-3.097656.546875-1.558594c.191407-.515625.417969-1.007813.628907-1.511719.878906-1.988281 1.691406-4.046875 2.671874-5.984375 1.859376-3.953125 3.910157-7.792969 5.941407-11.652343.414062-.730469.824219-1.464844 1.234375-2.199219-.652344.257812-1.316406.46875-2.019532.570312-.949218.144531-1.917968.273438-2.84375.535157-.929687.238281-1.847656.53125-2.769531.824218-.921875.289063-1.859375.574219-2.769531.917969-1.871094.617187-3.675781 1.40625-5.554688 2.164063l-.320312-.453126c1.386719-1.484374 2.90625-2.878906 4.535156-4.140624.808594-.640626 1.660156-1.21875 2.511719-1.8125.875-.550782 1.753906-1.097657 2.664063-1.601563.902343-.511719 1.792968-1.082031 2.707031-1.613281.925781-.507813 1.917969-.855469 2.96875-.984375.203125-.023438.410156-.046875.621093-.0625 2.269532-.179688 4.296876-1.492188 5.449219-3.457031l.019531-.035157c2.011719-3.414062 4.089844-6.777343 6.15625-10.152343-.921874.339843-1.820312.582031-2.726562.785156-.933594.195312-1.867188.246094-2.820312.144531-.957032-.101563-1.925782-.21875-2.882813-.195313-.960937 0-1.921875.050782-2.890625.105469-.964844.050781-1.945312.085938-2.914062.195313-1.960938.128906-3.90625.441406-5.914063.703125l-.199219-.515625c1.71875-1.09375 3.535156-2.0625 5.425782-2.875.945312-.417969 1.914062-.765625 2.886718-1.128906.984375-.3125 1.976563-.625 2.980469-.882813 1.003906-.269531 2.007813-.597656 3.027344-.882813 1.023437-.261718 2.070312-.351562 3.117187-.214843.464844.066406.929688.148437 1.390625.253906 2.257813.527344 4.585938-.550781 5.769531-2.542969 1.015626-1.710937 2.027344-3.421875 3.054688-5.125 1.300781-2.160156 2.703125-4.246094 4.183594-6.273437-.796875.277343-1.585938.488281-2.375.664062-.933594.195313-1.863282.246094-2.820313.140625-.957031-.097656-1.925781-.214844-2.882812-.195312-.960938 0-1.921875.054687-2.890625.105468-.964844.050782-1.941406.089844-2.910156.199219-1.964844.125-3.910157.4375-5.917969.703125l-.199219-.519531c1.71875-1.089844 3.535156-2.0625 5.429688-2.871094.945312-.417969 1.910156-.769531 2.886718-1.132812.980469-.308594 1.972656-.621094 2.976563-.878907 1.003906-.269531 2.007812-.597656 3.03125-.882812 1.019531-.261719 2.066406-.351562 3.117187-.214844 1.039063.144532 2.089844.378906 3.109375.796875 1.167969.472657 2.503907.191407 3.335938-.761719 2.152343-2.460937 6.074219-6.882812 8.324219-9.085937 3.15625-3.050781 6.441406-6 10.191406-8.582031l.796875.605468c-1.460938 4.300782-3.320313 8.289063-5.308594 12.171876-2 3.878906-4.15625 7.632812-6.449219 11.285156-.039062.066406-.082031.132812-.121094.195312-.738281 1.179688-.53125 2.671875.429688 3.675782.710938.742187 1.289062 1.5625 1.789062 2.40625.53125.914062.859376 1.910156 1.011719 2.957031.132813 1.050781.21875 2.101562.359375 3.128906.152344 1.027344.25 2.0625.34375 3.089844.042969 1.039062.097656 2.066406.078125 3.097656-.015625 2.0625-.207031 4.113281-.546875 6.121094l-.554687.015625c-.535157-1.953125-1-3.867188-1.644531-5.726563-.273438-.9375-.617188-1.851562-.949219-2.761719-.324219-.910156-.648438-1.816406-1.019531-2.703124-.351563-.894532-.835938-1.742188-1.296876-2.582032-.46875-.839844-.78125-1.71875-.964843-2.65625-.183594-1.019531-.308594-2.054687-.335938-3.167968-1.320312 1.832031-2.703125 3.621093-4.144531 5.367187-1.164062 1.382813-2.710938 3.265625-4.066406 4.925781-1.441406 1.765625-1.648438 4.277344-.398438 6.183594.609375.933594 1.078125 1.949219 1.601563 2.824219.53125.914062.855469 1.914062 1.011719 2.957031.132812 1.050781.21875 2.105469.359374 3.132812.152344 1.027344.246094 2.0625.339844 3.089844.042969 1.035156.097656 2.066406.078125 3.097656-.011719 2.058594-.203125 4.109376-.542969 6.117188l-.554687.019531c-.535156-1.957031-1.003906-3.867187-1.644531-5.726562-.277344-.9375-.621094-1.851563-.949219-2.761719s-.648437-1.816406-1.023437-2.703125c-.351563-.894531-.835938-1.742187-1.296876-2.582031-.464843-.84375-.78125-1.71875-.964843-2.65625-.320313-1.792969-.484375-3.640625-.15625-5.894532-2.601563 3.414063-5.242188 6.816407-7.792969 10.269532l-.101562.132812c-1.597657 2.0625-2.023438 4.867188-.921876 7.234375.3125.667969.554688 1.355469.753907 2.042969.285156 1.019531.351562 2.070312.242187 3.117188-.136718 1.050781-.316406 2.09375-.4375 3.125-.109375 1.03125-.277344 2.058593-.441406 3.074218-.21875 1.015625-.425781 2.027344-.699219 3.019532-.53125 1.992187-1.226562 3.929687-2.0625 5.789062l-.539062-.121094c-.023438-2.035156.003906-4.003906-.152344-5.964844zm0 0" fill="url(#l)"/><path d="m97.570312 340.21875c5.023438 5.917969 9.890626 11.539062 14.882813 16.984375 4.960937 5.441406 9.933594 10.722656 15.058594 15.757813 10.183593 10.128906 20.878906 19.316406 32.113281 27.660156 5.660156 4.125 11.488281 7.96875 17.453125 11.660156 5.996094 3.640625 12.191406 6.972656 18.546875 10.203125l4.832031 2.300781c1.613281.789063 3.238281 1.554688 4.894531 2.257813 1.648438.734375 3.316407 1.4375 4.972657 2.207031 1.664062.746094 3.371093 1.359375 5.066406 2.074219 3.375 1.507812 6.859375 2.683593 10.351563 4.117187 1.746093.734375 3.527343 1.316406 5.308593 1.988282 1.785157.683593 3.582031 1.359374 5.386719 2.152343-7.609375 1.484375-15.40625 2.019531-23.183594 1.59375-1.941406-.117187-3.902344-.207031-5.847656-.398437-1.9375-.226563-3.863281-.519532-5.8125-.785156-.96875-.148438-1.957031-.234376-2.910156-.449219l-2.878906-.613281c-1.914063-.425782-3.863282-.78125-5.757813-1.308594l-5.679687-1.648438c-1.90625-.535156-3.734376-1.273437-5.59375-1.945312-3.75-1.289063-7.34375-2.945313-10.945313-4.609375-7.109375-3.496094-13.949219-7.578125-20.34375-12.261719-12.734375-9.429688-23.789063-21.007812-32.433594-34.039062-4.3125-6.519532-8.054687-13.386719-11.074219-20.550782-1.511718-3.578125-2.84375-7.230468-3.945312-10.953125-1.101562-3.722656-2.035156-7.507812-2.460938-11.394531zm0 0" fill="url(#m)"/><path d="m194.699219 24.464844c4.0625 3.738281 7.261719 7.503906 10.347656 11.328125 3.0625 3.816406 5.796875 7.730469 8.472656 11.6875 2.660157 3.96875 5.136719 8.054687 7.507813 12.328125 1.136718 2.175781 2.328125 4.332031 3.386718 6.652344 1.039063 2.34375 2.160157 4.644531 2.941407 7.371093-5.226563-1.800781-9.664063-4.71875-13.570313-8.132812-3.960937-3.382813-7.292968-7.367188-10.160156-11.652344-2.859375-4.285156-5.171875-8.941406-6.796875-13.878906-1.574219-4.941407-2.6875-10.148438-2.128906-15.703125zm0 0" fill="url(#n)"/><path d="m174.34375 371.347656h45.578125c-.460937-.28125-.925781-.558594-1.386719-.84375-8.546875-5.285156-16.640625-11.25-24.1875-17.8125l-2.796875-2.5c-.925781-.839844-1.902343-1.621094-2.773437-2.515625l-5.375-5.214843-5.117188-5.464844c-1.703125-1.820313-3.25-3.78125-4.882812-5.65625-2.449219-2.976563-4.8125-6.027344-7.085938-9.136719l-35.839844-.480469c11.835938 18.824219 26.75 35.636719 43.867188 49.625zm0 0" fill="url(#p)"/><path d="m143.378906 280.238281c-2.402344-6.351562-4.5-12.816406-6.246094-19.371093h-32.242187c2.535156 10.515624 5.875 20.835937 10.046875 30.796874 1.714844 4.160157 3.578125 8.253907 5.570312 12.277344l33.410157-1.074218c-4.058594-7.285157-7.601563-14.839844-10.539063-22.628907zm0 0" fill="url(#q)"/></svg>