<svg height="512pt" viewBox="-65 0 512 512.00078" width="512pt" xmlns="http://www.w3.org/2000/svg" xmlns:xlink="http://www.w3.org/1999/xlink"><linearGradient id="a" gradientUnits="userSpaceOnUse" x1="40.2037749966" x2="372.4565797222" y1="178.9135576612" y2="389.2661374588"><stop offset="0" stop-color="#f2e9dc"/><stop offset=".2282" stop-color="#f0e4d7"/><stop offset=".5158" stop-color="#ead7c7"/><stop offset=".8338" stop-color="#e0c2ad"/><stop offset="1" stop-color="#dab49d"/></linearGradient><linearGradient id="b"><stop offset="0" stop-color="#dab49d" stop-opacity="0"/><stop offset=".4385" stop-color="#ce9e7a" stop-opacity=".439216"/><stop offset="1" stop-color="#c08552"/></linearGradient><linearGradient id="c" gradientUnits="userSpaceOnUse" x1="191.48448" x2="191.48448" xlink:href="#b" y1="403.5985294996" y2="528.085058284"/><linearGradient id="d"><stop offset="0" stop-color="#a4508b"/><stop offset="1" stop-color="#701da0"/></linearGradient><linearGradient id="e" gradientUnits="userSpaceOnUse" x1="61.2534091394" x2="329.705966843" xlink:href="#d" y1="258.6299840712" y2="428.5899629832"/><linearGradient id="f" gradientUnits="userSpaceOnUse" x1="99.792770013" x2="291.1386969378" xlink:href="#d" y1="169.0698012746" y2="290.212767838"/><linearGradient id="g" gradientUnits="userSpaceOnUse" x1="238.017268622" x2="190.5551494046" xlink:href="#b" y1="224.0153558644" y2="-29.5667076064"/><linearGradient id="h"><stop offset=".0013" stop-color="#e7eeed" stop-opacity="0"/><stop offset=".7731" stop-color="#f9fbfa" stop-opacity=".772549"/><stop offset="1" stop-color="#fff"/></linearGradient><linearGradient id="i" gradientUnits="userSpaceOnUse" x1="141.6798091878" x2="-98.9960338354" xlink:href="#h" y1="267.230985414" y2="267.230985414"/><linearGradient id="j" gradientUnits="userSpaceOnUse" x1="191.48448" x2="191.48448" y1="361.6065804758" y2="526.1858386444"><stop offset="0" stop-color="#701da0" stop-opacity="0"/><stop offset="1" stop-color="#2f004e"/></linearGradient><linearGradient id="k"><stop offset="0" stop-color="#ffb211"/><stop offset=".1645" stop-color="#ffac14"/><stop offset=".3888" stop-color="#ff9a1b"/><stop offset=".6475" stop-color="#ff7e28"/><stop offset=".9301" stop-color="#ff5639"/><stop offset="1" stop-color="#ff4b3e"/></linearGradient><linearGradient id="l" gradientUnits="userSpaceOnUse" x1="187.7626399694" x2="203.1082904848" xlink:href="#k" y1="13.122264462" y2="126.443473939"/><linearGradient id="m" gradientUnits="userSpaceOnUse" x1="191.8051326868" x2="190.981013117" xlink:href="#k" y1="1.805553717" y2="101.5270334288"/><linearGradient id="n" gradientUnits="userSpaceOnUse" x1="188.4528363444" x2="200.9527695586" xlink:href="#k" y1="18.2188752794" y2="110.5259894524"/><linearGradient id="o" gradientUnits="userSpaceOnUse" x1="191.7993099392" x2="190.9902491994" xlink:href="#k" y1="2.5144230412" y2="100.4139851074"/><linearGradient id="p" gradientUnits="userSpaceOnUse" x1="191.48448" x2="191.48448" xlink:href="#h" y1="244.031351916" y2="27.8222927392"/><linearGradient id="q" gradientUnits="userSpaceOnUse" x1="191.48448" x2="191.48448" y1="52.7943505282" y2="93.3889405202"><stop offset="0" stop-color="#ff4b3e" stop-opacity="0"/><stop offset=".1177" stop-color="#f5493b" stop-opacity=".117647"/><stop offset=".3191" stop-color="#da4332" stop-opacity=".317647"/><stop offset=".5796" stop-color="#ad3923" stop-opacity=".580392"/><stop offset=".886" stop-color="#702c0f" stop-opacity=".886275"/><stop offset="1" stop-color="#582707"/></linearGradient><path d="m382.96875 125.871094v328.496094c0 17.945312-12.230469 33.574218-29.65625 37.882812v.015625c-106.28125 26.3125-217.375 26.3125-323.652344 0v-.015625c-17.429687-4.308594-29.660156-19.9375-29.660156-37.882812v-328.496094c0-6.597656 2.683594-12.585938 7.003906-16.917969 4.332032-4.320313 10.316406-7 16.917969-7 13.210937 0 23.917969-10.707031 23.917969-23.921875v-34.789062h287.289062v34.792968c0 6.597656 2.679688 12.582032 7.003906 16.917969 4.332032 4.320313 10.316407 7 16.917969 7 13.207031 0 23.917969 10.707031 23.917969 23.917969zm0 0" fill="url(#a)"/><path d="m0 347.46875v106.894531c0 17.945313 12.230469 33.578125 29.65625 37.886719v.011719c106.28125 26.316406 217.375 26.316406 323.652344 0v-.011719c17.429687-4.308594 29.660156-19.9375 29.660156-37.886719v-106.894531zm0 0" fill="url(#c)"/><path d="m364.066406 227.121094v212.15625c0 16.171875-11.027344 30.257812-26.730468 34.144531v.011719c-95.792969 23.71875-195.910157 23.71875-291.703126 0v-.011719c-15.703124-3.886719-26.730468-17.972656-26.730468-34.144531v-212.15625c0-15.5625 77.269531-28.179688 172.582031-28.179688s172.582031 12.617188 172.582031 28.179688zm0 0" fill="url(#e)"/><path d="m364.066406 227.117188c0-15.558594-77.265625-28.175782-172.582031-28.175782s-172.582031 12.617188-172.582031 28.175782c0 15.5625 77.265625 28.175781 172.582031 28.175781s172.582031-12.613281 172.582031-28.175781zm0 0" fill="url(#f)"/><path d="m359.050781 101.953125c-6.601562 0-12.585937-2.679687-16.921875-7.003906-4.320312-4.332031-7-10.316407-7-16.917969v-34.789062h-287.289062v34.792968c0 1.136719-.105469 2.246094-.261719 3.339844l.070313.046875 335.320312 335.320313v-290.871094c0-13.210938-10.710938-23.917969-23.917969-23.917969zm0 0" fill="url(#g)"/><path d="m365.824219 145.035156v294.515625c0 16.085938-11.136719 30.101563-27.003907 33.964844v.011719c-96.761718 23.59375-197.910156 23.59375-294.671874 0v-.011719c-15.867188-3.863281-27.003907-17.878906-27.003907-33.964844v-294.515625c0-5.917968 2.441407-11.285156 6.375-15.167968 3.945313-3.875 9.394531-6.277344 15.402344-6.277344 12.03125 0 21.777344-9.601563 21.777344-21.445313v-58.902343h261.566406v58.902343c0 5.914063 2.441406 11.28125 6.375 15.167969 3.945313 3.871094 9.394531 6.273438 15.402344 6.273438 12.03125 0 21.78125 9.601562 21.78125 21.449218zm0 0" fill="url(#i)"/><path d="m18.902344 347.46875v91.808594c0 16.171875 11.027344 30.257812 26.730468 34.144531v.011719c95.792969 23.71875 195.910157 23.71875 291.703126 0v-.011719c15.703124-3.886719 26.730468-17.972656 26.730468-34.144531v-91.808594zm0 0" fill="url(#j)"/><path d="m347.914062 81.214844h-312.859374c-12.066407 0-21.84375-9.78125-21.84375-21.84375v-37.53125c0-12.0625 9.78125-21.839844 21.84375-21.839844h312.859374c12.066407 0 21.84375 9.777344 21.84375 21.839844v37.53125c0 12.0625-9.78125 21.84375-21.84375 21.84375zm0 0" fill="url(#l)"/><path d="m315.523438 81.214844h-248.078126c-10.828124 0-19.605468-8.777344-19.605468-19.605469v-42.003906c0-10.828125 8.777344-19.605469 19.605468-19.605469h248.078126c10.828124 0 19.605468 8.777344 19.605468 19.605469v42.003906c0 10.824219-8.777344 19.605469-19.605468 19.605469zm0 0" fill="url(#m)"/><path d="m263.472656 81.214844h-143.976562c-8.4375 0-15.28125-6.84375-15.28125-15.285156v-50.648438c0-8.441406 6.84375-15.28125 15.28125-15.28125h143.976562c8.441406 0 15.28125 6.839844 15.28125 15.28125v50.648438c0 8.441406-6.84375 15.285156-15.28125 15.285156zm0 0" fill="url(#n)"/><path d="m223.519531 81.214844h-64.070312c-5.902344 0-10.691407-4.789063-10.691407-10.695313v-59.828125c0-5.902344 4.789063-10.691406 10.691407-10.691406h64.070312c5.902344 0 10.691407 4.789062 10.691407 10.691406v59.828125c0 5.90625-4.789063 10.695313-10.691407 10.695313zm0 0" fill="url(#o)"/><path d="m382.96875 128.480469v325.886719c0 17.945312-12.230469 33.574218-29.65625 37.882812v.015625c-106.28125 26.3125-217.375 26.3125-323.652344 0v-.015625c-17.429687-4.308594-29.660156-19.9375-29.660156-37.882812v-325.886719c21.394531 8.679687 99.007812 15.101562 191.484375 15.101562s170.089844-6.425781 191.484375-15.101562zm0 0" fill="url(#p)"/><path d="m13.210938 44.167969v15.203125c0 12.0625 9.78125 21.84375 21.84375 21.84375h312.859374c12.066407 0 21.84375-9.78125 21.84375-21.84375v-15.203125zm0 0" fill="url(#q)"/></svg>