<svg height="512pt" viewBox="-73 0 512 512.00103" width="512pt" xmlns="http://www.w3.org/2000/svg" xmlns:xlink="http://www.w3.org/1999/xlink"><linearGradient id="a" gradientUnits="userSpaceOnUse" x1="145.6128156796" x2="210.9504688524" y1="62.02230116" y2="62.02230116"><stop offset="0" stop-color="#ffe548"/><stop offset=".246" stop-color="#ffdf42"/><stop offset=".5783" stop-color="#ffcf31"/><stop offset=".9586" stop-color="#ffb515"/><stop offset="1" stop-color="#ffb211"/></linearGradient><linearGradient id="b" gradientUnits="userSpaceOnUse" x1="170.2961455014" x2="262.9801319932" y1="442.2707092538" y2="534.9547961378"><stop offset="0" stop-color="#c08552"/><stop offset="1" stop-color="#895738"/></linearGradient><linearGradient id="c" gradientUnits="userSpaceOnUse" x1="208.4989917206" x2="165.8799930156" y1="492.8171780318" y2="422.8003448092"><stop offset="0" stop-color="#895738" stop-opacity="0"/><stop offset="1" stop-color="#5e3023"/></linearGradient><radialGradient id="d" cx="76.153661128" cy="37.2639783648" gradientUnits="userSpaceOnUse" r="394.549879337"><stop offset="0" stop-color="#ffe548"/><stop offset=".3924" stop-color="#ffe346"/><stop offset=".6089" stop-color="#ffdb3e"/><stop offset=".7826" stop-color="#ffcf30"/><stop offset=".9326" stop-color="#ffbd1c"/><stop offset="1" stop-color="#ffb211"/></radialGradient><linearGradient id="e" gradientTransform="matrix(1.003922 .00501961 -.00501961 1.003922 -70.684288 -6.529104)" gradientUnits="userSpaceOnUse" x1="249.032" x2="273.3141" y1="387.7592" y2="523.3339"><stop offset="0" stop-color="#ff4b3e"/><stop offset=".1888" stop-color="#fb4a3c"/><stop offset=".3876" stop-color="#ee4635"/><stop offset=".5911" stop-color="#d9402a"/><stop offset=".7963" stop-color="#bc381a"/><stop offset="1" stop-color="#972e07"/></linearGradient><linearGradient id="f" gradientUnits="userSpaceOnUse" x1="215.951807472" x2="103.084370739" y1="231.4143613966" y2="8.1153038792"><stop offset="0" stop-color="#ffb211" stop-opacity="0"/><stop offset=".1784" stop-color="#ff931e" stop-opacity=".176471"/><stop offset=".3999" stop-color="#ff742c" stop-opacity=".4"/><stop offset=".6151" stop-color="#ff5d36" stop-opacity=".615686"/><stop offset=".8191" stop-color="#ff503c" stop-opacity=".819608"/><stop offset="1" stop-color="#ff4b3e"/></linearGradient><linearGradient id="g"><stop offset="0" stop-color="#ff4b3e"/><stop offset=".0699" stop-color="#ff5639"/><stop offset=".3525" stop-color="#ff7e28"/><stop offset=".6112" stop-color="#ff9a1b"/><stop offset=".8355" stop-color="#ffac14"/><stop offset="1" stop-color="#ffb211"/></linearGradient><linearGradient id="h" gradientTransform="matrix(-.709873 .709873 -.709873 -.709873 46.172985 -202.225544)" gradientUnits="userSpaceOnUse" x1="173.7976" x2="184.1911" xlink:href="#g" y1="-300.1666" y2="-189.9953"/><linearGradient id="i"><stop offset="0" stop-color="#ff4b3e" stop-opacity="0"/><stop offset=".1177" stop-color="#f5493b" stop-opacity=".117647"/><stop offset=".3191" stop-color="#da4332" stop-opacity=".317647"/><stop offset=".5796" stop-color="#ad3923" stop-opacity=".580392"/><stop offset=".886" stop-color="#702c0f" stop-opacity=".886275"/><stop offset="1" stop-color="#582707"/></linearGradient><linearGradient id="j" gradientUnits="userSpaceOnUse" x1="132.0047179714" x2="129.91786531" xlink:href="#i" y1="158.2210683866" y2="111.2672348778"/><linearGradient id="k" gradientUnits="userSpaceOnUse" x1="128.1909186856" x2="207.0268051094" xlink:href="#i" y1="117.7131168632" y2="54.6443274104"/><linearGradient id="l" gradientTransform="matrix(.709873 .709873 .709873 -.709873 775.442193 -202.225544)" gradientUnits="userSpaceOnUse" x1="-146.8916" x2="-136.4981" xlink:href="#g" y1="-620.8557" y2="-510.6845"/><linearGradient id="m" gradientTransform="matrix(-1.003922 0 0 1.003922 578.61072 1286.322899)" gradientUnits="userSpaceOnUse" x1="342.9524" x2="340.8737" y1="-1123.6947" y2="-1170.4651"><stop offset="0" stop-color="#ff5d00" stop-opacity="0"/><stop offset="1" stop-color="#d54003"/></linearGradient><linearGradient id="n" gradientTransform="matrix(-1.003922 0 0 1.003922 578.61072 1286.322899)" gradientUnits="userSpaceOnUse" x1="339.1536" x2="417.6814" xlink:href="#i" y1="-1164.0444" y2="-1226.8667"/><linearGradient id="o" gradientUnits="userSpaceOnUse" x1="250.5734277424" x2="143.101369014" xlink:href="#i" y1="124.9172611352" y2="110.3093928976"/><linearGradient id="p" gradientUnits="userSpaceOnUse" x1="139.77637935" x2="208.5057829998" y1="68.076101025" y2="136.8055046748"><stop offset="0" stop-color="#ffb211"/><stop offset=".1645" stop-color="#ffac14"/><stop offset=".3888" stop-color="#ff9a1b"/><stop offset=".6475" stop-color="#ff7e28"/><stop offset=".9301" stop-color="#ff5639"/><stop offset="1" stop-color="#ff4b3e"/></linearGradient><radialGradient id="q" cx="472.3119" cy="239.7164" gradientTransform="matrix(1.003922 0 0 1.312627 -72.95285 -73.99946)" gradientUnits="userSpaceOnUse" r="148.7413"><stop offset="0" stop-color="#ff4b3e"/><stop offset=".1809" stop-color="#ff503c" stop-opacity=".819608"/><stop offset=".3849" stop-color="#ff5d36" stop-opacity=".615686"/><stop offset=".6001" stop-color="#ff742c" stop-opacity=".4"/><stop offset=".8216" stop-color="#ff931e" stop-opacity=".176471"/><stop offset="1" stop-color="#ffb211" stop-opacity="0"/></radialGradient><path d="m199.0625 124.042969h-31.804688l-12.640624-91.277344c-2.398438-17.320313 11.058593-32.765625 28.542968-32.765625s30.9375 15.445312 28.539063 32.765625zm0 0" fill="url(#a)"/><path d="m240.023438 455.132812c0 31.40625-25.457032 56.867188-56.863282 56.867188s-56.867187-25.460938-56.867187-56.867188 25.460937-56.863281 56.867187-56.863281 56.863282 25.457031 56.863282 56.863281zm0 0" fill="url(#b)"/><path d="m240.027344 455.132812c0-31.40625-25.460938-56.863281-56.867188-56.863281-31.410156 0-56.867187 25.457031-56.867187 56.863281 0 3.1875.273437 6.308594.777343 9.347657l46.738282 46.742187c3.042968.503906 6.164062.777344 9.351562.777344 31.40625 0 56.867188-25.460938 56.867188-56.867188zm0 0" fill="url(#c)"/><path d="m362.921875 404.097656-40.273437-80.035156c-14.96875-29.742188-22.761719-62.578125-22.761719-95.875v-.628906c0-64.46875-52.261719-116.726563-116.726563-116.726563-64.46875 0-116.730468 52.257813-116.730468 116.726563 0 33.605468-7.9375 66.734375-23.171876 96.691406l-40.054687 78.75c-8.5 16.71875.652344 37.015625 18.8125 41.707031l9.4375 2.4375c99.316406 25.667969 203.488281 25.984375 302.957031.925781l9.449219-2.378906c18.1875-4.582031 27.464844-24.820312 19.0625-41.59375zm0 0" fill="url(#d)"/><path d="m355.019531 388.871094c-3.136719 2.441406-6.832031 4.296875-10.996093 5.324218l-9.460938 2.332032c-99.59375 24.5625-203.761719 23.722656-302.949219-2.441406l-9.421875-2.484376c-4.058594-1.070312-7.65625-2.925781-10.710937-5.335937l-8.152344 15.835937c-8.585937 16.675782.464844 37.015626 18.601563 41.800782l9.421874 2.484375c99.1875 26.164062 203.355469 27.003906 302.949219 2.441406l9.460938-2.332031c18.210937-4.492188 27.589843-24.683594 19.273437-41.496094zm0 0" fill="url(#e)"/><path d="m322.648438 324.0625c-14.96875-29.742188-22.761719-62.578125-22.761719-95.875v-.628906c0-64.46875-52.261719-116.726563-116.726563-116.726563-42.269531 0-79.289062 22.464844-99.773437 56.109375l272.5 272.5c9.738281-8.4375 13.292969-22.847656 7.035156-35.339844zm0 0" fill="url(#f)"/><path d="m70.609375 69.496094c4.363281-17.460938 23.496094-26.789063 39.960937-19.523438 11.792969 5.207032 23.132813 12.03125 33.503907 17.734375 9.730469 5.347657 16.773437 10.789063 23.183593 16.132813 15.929688 13.289062 15.929688 37.777344 0 51.066406-6.410156 5.34375-13.453124 10.78125-23.183593 16.132812-10.371094 5.703126-21.710938 12.527344-33.503907 17.734376-16.464843 7.265624-35.597656-2.0625-39.960937-19.523438-6.660156-26.65625-6.660156-53.09375 0-79.753906zm0 0" fill="url(#h)"/><path d="m167.257812 134.902344c5.074219-4.230469 8.523438-9.601563 10.367188-15.382813-29.359375 2.628907-75.226562 12.578125-92.53125 48.261719 7.566406 4.046875 16.882812 4.78125 25.476562.988281 11.792969-5.203125 23.132813-12.027343 33.503907-17.734375 9.730469-5.347656 16.773437-10.785156 23.183593-16.132812zm0 0" fill="url(#j)"/><path d="m93.324219 107.054688c0 11.742187 1.390625 44.054687 33.738281 53.464843 5.886719-3.207031 11.585938-6.496093 17.011719-9.480469 9.730469-5.351562 16.773437-10.789062 23.183593-16.136718 8.929688-7.445313 12.851563-18.414063 11.769532-28.953125 0 0-16.960938-9.160157-24.492188-12.808594-40.691406-19.707031-61.210937-2.605469-61.210937 13.914063zm0 0" fill="url(#k)"/><path d="m295.710938 69.496094c-4.363282-17.460938-23.496094-26.789063-39.964844-19.523438-11.789063 5.207032-23.132813 12.03125-33.503906 17.734375-9.726563 5.347657-16.769532 10.789063-23.179688 16.132813-15.929688 13.289062-15.929688 37.777344 0 51.066406 6.410156 5.34375 13.453125 10.78125 23.179688 16.132812 10.375 5.703126 21.714843 12.527344 33.503906 17.734376 16.46875 7.265624 35.601562-2.0625 39.964844-19.523438 6.65625-26.65625 6.660156-53.09375 0-79.753906zm0 0" fill="url(#l)"/><path d="m199.0625 134.902344c-5.074219-4.230469-8.527344-9.601563-10.367188-15.382813 29.355469 2.628907 75.222657 12.578125 92.53125 48.261719-7.570312 4.046875-16.886718 4.78125-25.480468.988281-11.792969-5.203125-23.132813-12.027343-33.503906-17.734375-9.726563-5.347656-16.769532-10.785156-23.179688-16.132812zm0 0" fill="url(#m)"/><path d="m272.996094 107.054688c0 11.742187-1.390625 44.054687-33.742188 53.464843-5.882812-3.207031-11.582031-6.496093-17.011718-9.480469-9.726563-5.351562-16.769532-10.789062-23.179688-16.136718-8.929688-7.445313-12.851562-18.414063-11.769531-28.953125 0 0 16.957031-9.160157 24.488281-12.808594 40.695312-19.707031 61.214844-2.605469 61.214844 13.914063zm0 0" fill="url(#n)"/><path d="m199.0625 134.902344c6.410156 5.347656 13.453125 10.785156 23.179688 16.136718 10.371093 5.703126 21.710937 12.527344 33.503906 17.730469 13.882812 6.128907 29.65625.460938 36.882812-11.933593l-76.136718-76.136719c-1.882813-2.039063-3.957032-3.894531-6.179688-5.558594-4.148438 2.90625-7.796875 5.816406-11.25 8.699219-15.929688 13.289062-15.929688 37.777344 0 51.0625zm0 0" fill="url(#o)"/><path d="m228.523438 111.460938c0 25.050781-20.3125 45.363281-45.363282 45.363281-25.054687 0-45.367187-20.3125-45.367187-45.363281 0-25.054688 20.3125-45.367188 45.367187-45.367188 25.050782 0 45.363282 20.3125 45.363282 45.367188zm0 0" fill="url(#p)"/><path d="m322.648438 324.0625c-14.96875-29.742188-22.761719-62.578125-22.761719-95.875v-.628906c0-52.621094-34.820313-97.101563-82.671875-111.675782-52.597656 45.21875-86.472656 116.042969-86.472656 195.667969 0 58.714844 18.429687 112.640625 49.1875 155.050781 51.871093.40625 103.785156-5.757812 154.480468-18.527343l9.449219-2.382813c18.1875-4.582031 27.464844-24.820312 19.0625-41.59375zm0 0" fill="url(#q)"/></svg>