<svg height="511pt" viewBox="0 -7 511.99969 511" width="511pt" xmlns="http://www.w3.org/2000/svg" xmlns:xlink="http://www.w3.org/1999/xlink"><linearGradient id="a"><stop offset="0" stop-color="#ff4b3e"/><stop offset=".1888" stop-color="#fb4a3c"/><stop offset=".3876" stop-color="#ee4635"/><stop offset=".5911" stop-color="#d9402a"/><stop offset=".7963" stop-color="#bc381a"/><stop offset="1" stop-color="#972e07"/></linearGradient><linearGradient id="b" gradientTransform="matrix(.521136 -.858052 1.045685 .494833 -108.047646 350.740292)" gradientUnits="userSpaceOnUse" x1="43.944" x2="43.944" xlink:href="#a" y1="102.36" y2="144.7962"/><linearGradient id="c" gradientTransform="matrix(.521136 -.858052 1.045685 .494833 -108.047646 350.740292)" gradientUnits="userSpaceOnUse" x1="31.4879" x2="31.4879" xlink:href="#a" y1="121.0364" y2="165.335"/><linearGradient id="d" gradientTransform="matrix(.521136 -.858052 1.045685 .494833 -108.047646 350.740292)" gradientUnits="userSpaceOnUse" x1="21.4177" x2="21.4177" xlink:href="#a" y1="140.8508" y2="185.8739"/><linearGradient id="e" gradientTransform="matrix(.521136 -.858052 1.045685 .494833 -108.047646 350.740292)" gradientUnits="userSpaceOnUse" x1="12.4951" x2="12.4951" xlink:href="#a" y1="162.8813" y2="206.4128"/><linearGradient id="f" gradientTransform="matrix(.521136 -.858052 1.045685 .494833 -108.047646 350.740292)" gradientUnits="userSpaceOnUse" x1="5.1458" x2="5.1458" xlink:href="#a" y1="184.1019" y2="226.9517"/><linearGradient id="g" gradientTransform="matrix(.521136 -.858052 1.045685 .494833 -108.047646 350.740292)" gradientUnits="userSpaceOnUse" x1="-1.7945" x2="-1.7945" xlink:href="#a" y1="208.8155" y2="247.4914"/><linearGradient id="h" gradientTransform="matrix(-.552759 .838074 .894595 .733565 454.46788 -537.826773)" gradientUnits="userSpaceOnUse" x1="507.1175" x2="507.1175" xlink:href="#a" y1="204.8062" y2="247.2442"/><linearGradient id="i" gradientTransform="matrix(-.552759 .838074 .894595 .733565 454.46788 -537.826773)" gradientUnits="userSpaceOnUse" x1="494.6626" x2="494.6626" xlink:href="#a" y1="223.4806" y2="267.7818"/><linearGradient id="j" gradientTransform="matrix(-.552759 .838074 .894595 .733565 454.46788 -537.826773)" gradientUnits="userSpaceOnUse" x1="484.5927" x2="484.5927" xlink:href="#a" y1="243.2934" y2="288.3194"/><linearGradient id="k" gradientTransform="matrix(-.552759 .838074 .894595 .733565 454.46788 -537.826773)" gradientUnits="userSpaceOnUse" x1="475.6708" x2="475.6708" xlink:href="#a" y1="265.3232" y2="308.8571"/><linearGradient id="l" gradientTransform="matrix(-.552759 .838074 .894595 .733565 454.46788 -537.826773)" gradientUnits="userSpaceOnUse" x1="468.3221" x2="468.3221" xlink:href="#a" y1="286.5428" y2="329.3947"/><linearGradient id="m" gradientTransform="matrix(-.552759 .838074 .894595 .733565 454.46788 -537.826773)" gradientUnits="userSpaceOnUse" x1="461.3832" x2="461.3832" xlink:href="#a" y1="311.2568" y2="349.9331"/><linearGradient id="n"><stop offset="0" stop-color="#acc130"/><stop offset=".3485" stop-color="#a9bd31"/><stop offset=".6956" stop-color="#a2b135"/><stop offset="1" stop-color="#97a03b"/></linearGradient><linearGradient id="o" gradientTransform="matrix(.536998 -.848213 .848213 .536998 -86.735395 343.715954)" gradientUnits="userSpaceOnUse" x1="228.7178" x2="228.7178" xlink:href="#n" y1="151.0104" y2="272.7607"/><linearGradient id="p"><stop offset="0" stop-color="#ffb211"/><stop offset=".1645" stop-color="#ffac14"/><stop offset=".3888" stop-color="#ff9a1b"/><stop offset=".6475" stop-color="#ff7e28"/><stop offset=".9301" stop-color="#ff5639"/><stop offset="1" stop-color="#ff4b3e"/></linearGradient><linearGradient id="q" gradientTransform="matrix(.536998 -.848213 .848213 .536998 -86.735395 343.715954)" gradientUnits="userSpaceOnUse" x1="57.7476" x2="58.9953" xlink:href="#p" y1="198.9601" y2="308.7528"/><linearGradient id="r" gradientTransform="matrix(.536998 -.848213 .848213 .536998 -86.735395 343.715954)" gradientUnits="userSpaceOnUse" x1="131.514" x2="132.7618" xlink:href="#p" y1="198.1231" y2="307.9166"/><linearGradient id="s" gradientTransform="matrix(.536998 -.848213 .848213 .536998 -86.735395 343.715954)" gradientUnits="userSpaceOnUse" x1="250.5436" x2="251.7913" xlink:href="#p" y1="196.7724" y2="306.5652"/><linearGradient id="t" gradientTransform="matrix(.536998 -.848213 .848213 .536998 -86.735395 343.715954)" gradientUnits="userSpaceOnUse" x1="355.1229" x2="356.3706" xlink:href="#p" y1="195.5848" y2="305.3776"/><linearGradient id="u" gradientTransform="matrix(.536998 -.848213 .848213 .536998 -86.735395 343.715954)" gradientUnits="userSpaceOnUse" x1="430.4417" x2="431.6895" xlink:href="#p" y1="194.7305" y2="304.5233"/><linearGradient id="v"><stop offset="0" stop-color="#ff4b3e" stop-opacity="0"/><stop offset=".1177" stop-color="#f5493b" stop-opacity=".117647"/><stop offset=".3191" stop-color="#da4332" stop-opacity=".317647"/><stop offset=".5796" stop-color="#ad3923" stop-opacity=".580392"/><stop offset=".886" stop-color="#702c0f" stop-opacity=".886275"/><stop offset="1" stop-color="#582707"/></linearGradient><linearGradient id="w" gradientTransform="matrix(.536998 -.848213 .848213 .536998 -86.735395 343.715954)" gradientUnits="userSpaceOnUse" x1="232.6954" x2="216.9634" xlink:href="#v" y1="217.8859" y2="319.8013"/><linearGradient id="x" gradientTransform="matrix(.536998 -.848213 .848213 .536998 -86.735395 343.715954)" gradientUnits="userSpaceOnUse" x1="324.2533" x2="426.8813" xlink:href="#v" y1="198.1294" y2="236.7528"/><linearGradient id="y" gradientTransform="matrix(.536998 -.848213 .848213 .536998 -86.735395 343.715954)" gradientUnits="userSpaceOnUse" x1="281.9736" x2="281.9736" xlink:href="#a" y1="209.1243" y2="260.9465"/><linearGradient id="z" gradientTransform="matrix(.536998 -.848213 .848213 .536998 -86.735395 343.715954)" gradientUnits="userSpaceOnUse" x1="300.6299" x2="300.6299" xlink:href="#n" y1="255.5109" y2="380.8828"/><linearGradient id="A" gradientTransform="matrix(.536998 -.848213 .848213 .536998 -86.735395 343.715954)" gradientUnits="userSpaceOnUse" x1="129.579" x2="131.0485" xlink:href="#p" y1="300.7264" y2="430.0312"/><linearGradient id="B" gradientTransform="matrix(.536998 -.848213 .848213 .536998 -86.735395 343.715954)" gradientUnits="userSpaceOnUse" x1="203.4261" x2="204.6739" xlink:href="#p" y1="306.7036" y2="416.4969"/><linearGradient id="C" gradientTransform="matrix(.536998 -.848213 .848213 .536998 -86.735395 343.715954)" gradientUnits="userSpaceOnUse" x1="322.4557" x2="323.7034" xlink:href="#p" y1="305.3528" y2="415.1456"/><linearGradient id="D" gradientTransform="matrix(.536998 -.848213 .848213 .536998 -86.735395 343.715954)" gradientUnits="userSpaceOnUse" x1="427.035" x2="428.2827" xlink:href="#p" y1="304.1653" y2="413.958"/><linearGradient id="E" gradientTransform="matrix(.536998 -.848213 .848213 .536998 -86.735395 343.715954)" gradientUnits="userSpaceOnUse" x1="502.3539" x2="503.6016" xlink:href="#p" y1="303.3111" y2="413.1036"/><path d="m86.925781 350.664062c-.089843.140626-.183593.277344-.28125.417969-23.097656 31.890625-73.050781 56.933594-75.164062 57.980469-3.929688 1.953125-8.699219.351562-10.648438-3.578125-1.953125-3.929687-.347656-8.699219 3.578125-10.652344.605469-.300781 48.605469-24.40625 69.363282-53.070312 2.574218-3.554688 7.539062-4.347657 11.09375-1.773438 3.417968 2.472657 4.285156 7.160157 2.058593 10.675781zm0 0" fill="url(#b)"/><path d="m103.171875 369.4375c-.089844.140625-.183594.28125-.28125.417969-23.0625 31.84375-77.234375 59.980469-79.53125 61.164062-3.898437 2.007813-8.6875.476563-10.699219-3.425781-2.011718-3.898438-.476562-8.6875 3.421875-10.699219.527344-.273437 53.109375-27.597656 73.9375-56.359375 2.574219-3.554687 7.542969-4.347656 11.09375-1.773437 3.417969 2.472656 4.285157 7.160156 2.058594 10.675781zm0 0" fill="url(#c)"/><path d="m119.417969 388.214844c-.089844.140625-.183594.277344-.28125.414062-23.085938 31.878906-78.066407 59.730469-80.394531 60.898438-3.921876 1.972656-8.695313.390625-10.664063-3.53125-1.972656-3.917969-.390625-8.691406 3.53125-10.664063.535156-.269531 53.855469-27.296875 74.65625-56.023437 2.574219-3.550782 7.542969-4.347656 11.097656-1.773438 3.414063 2.472656 4.28125 7.164063 2.054688 10.679688zm0 0" fill="url(#d)"/><path d="m135.664062 406.988281c-.089843.140625-.179687.28125-.28125.417969-23.074218 31.863281-75.433593 58.59375-77.652343 59.714844-3.914063 1.984375-8.691407.414062-10.675781-3.5-1.980469-3.914063-.414063-8.695313 3.5-10.675782.507812-.257812 51.152343-26.128906 71.957031-54.859374 2.574219-3.554688 7.542969-4.347657 11.09375-1.773438 3.421875 2.472656 4.285156 7.160156 2.058593 10.675781zm0 0" fill="url(#e)"/><path d="m151.914062 425.761719c-.089843.140625-.183593.28125-.285156.417969-23.175781 32.003906-72.351562 54.636718-74.433594 55.585937-3.992187 1.816406-8.703124.054687-10.523437-3.941406-1.816406-3.992188-.050781-8.703125 3.941406-10.519531.625-.285157 47.484375-21.914063 68.148438-50.445313 2.574219-3.554687 7.539062-4.347656 11.09375-1.773437 3.417969 2.472656 4.28125 7.160156 2.058593 10.675781zm0 0" fill="url(#f)"/><path d="m168.160156 444.539062c-.089844.140626-.183594.28125-.28125.417969-23.167968 31.992188-65.042968 51.507813-66.8125 52.324219-3.988281 1.832031-8.707031.089844-10.539062-3.898438-1.835938-3.984374-.09375-8.699218 3.890625-10.535156.394531-.183594 39.902343-18.644531 60.589843-47.210937 2.574219-3.554688 7.539063-4.347657 11.09375-1.773438 3.417969 2.472657 4.285157 7.160157 2.058594 10.675781zm0 0" fill="url(#g)"/><path d="m373.421875 101.769531c-2.226563 3.515625-6.832031 4.738281-10.53125 2.707031-3.847656-2.109374-5.253906-6.9375-3.140625-10.785156 17.085938-31.121094 18.296875-84.859375 18.304688-85.398437.082031-4.382813 3.707031-7.875 8.09375-7.792969 4.386718.085938 7.875 3.707031 7.792968 8.097656-.046875 2.359375-1.316406 58.222656-20.261718 92.738282-.082032.148437-.167969.292968-.257813.433593zm0 0" fill="url(#h)"/><path d="m397.339844 108.425781c-2.222656 3.515625-6.832032 4.738281-10.53125 2.707031-3.84375-2.113281-5.25-6.941406-3.140625-10.785156 17.113281-31.179687 19.296875-90.34375 19.316406-90.9375.148437-4.382812 3.824219-7.820312 8.210937-7.671875 4.382813.148438 7.820313 3.820313 7.671876 8.207031-.089844 2.582032-2.351563 63.585938-21.269532 98.046876-.082031.148437-.167968.292968-.257812.433593zm0 0" fill="url(#i)"/><path d="m421.261719 115.082031c-2.226563 3.515625-6.832031 4.738281-10.53125 2.707031-3.847657-2.113281-5.253907-6.941406-3.140625-10.785156 17.09375-31.140625 18.691406-90.847656 18.703125-91.449218.105469-4.386719 3.742187-7.855469 8.128906-7.753907 4.386719.101563 7.859375 3.742188 7.757813 8.128907-.0625 2.605468-1.722657 64.21875-20.660157 98.71875-.082031.148437-.167969.289062-.257812.433593zm0 0" fill="url(#j)"/><path d="m445.183594 121.734375c-2.226563 3.519531-6.835938 4.738281-10.53125 2.710937-3.847656-2.113281-5.253906-6.941406-3.140625-10.789062 17.070312-31.097656 18.792969-87.9375 18.808593-88.507812.113282-4.386719 3.765626-7.847657 8.152344-7.730469 4.386719.117187 7.847656 3.765625 7.730469 8.152343-.066406 2.484376-1.832031 61.242188-20.765625 95.730469-.082031.148438-.167969.292969-.253906.433594zm0 0" fill="url(#k)"/><path d="m469.101562 128.390625c-2.226562 3.515625-6.832031 4.738281-10.53125 2.707031-3.847656-2.109375-5.253906-6.9375-3.140624-10.785156 17.015624-31 16.453124-82.660156 16.445312-83.175781-.0625-4.386719 3.441406-8 7.828125-8.0625 4.386719-.066407 7.996094 3.4375 8.058594 7.824219.035156 2.289062.613281 56.421874-18.402344 91.058593-.082031.148438-.167969.292969-.257813.433594zm0 0" fill="url(#l)"/><path d="m493.023438 135.046875c-2.226563 3.515625-6.835938 4.738281-10.53125 2.707031-3.847657-2.109375-5.253907-6.941406-3.140626-10.785156 16.972657-30.921875 16.761719-74.527344 16.757813-74.964844-.042969-4.386718 3.476563-7.976562 7.863281-8.019531 4.386719-.042969 7.976563 3.472656 8.023438 7.859375.019531 1.949219.289062 48.144531-18.71875 82.769531-.082032.148438-.164063.292969-.253906.433594zm0 0" fill="url(#m)"/><path d="m365.304688 131.691406c-44.355469 121.84375-113.527344 231.101563-204.691407 323.308594-9.761719 9.875-25.753906 9.714844-35.265625-.398438-21.003906-22.316406-42.007812-44.632812-63.011718-66.949218-8.96875-9.535156-8.890626-24.480469.277343-33.828125 75.195313-76.664063 132.183594-166.675781 169.320313-267.441407 4.523437-12.285156 18.003906-18.75 30.457031-14.714843 29.15625 9.4375 58.3125 18.875 87.46875 28.316406 13.207031 4.273437 20.191406 18.664063 15.445313 31.707031zm0 0" fill="url(#o)"/><path d="m79.886719 335.636719 45.570312 119.082031c-.039062-.035156-.074219-.082031-.113281-.121094-21.003906-22.3125-42-44.632812-63.003906-66.945312-8.976563-9.527344-8.894532-24.488282.277344-33.824219 5.863281-5.980469 11.625-12.046875 17.269531-18.191406zm0 0" fill="url(#q)"/><path d="m150.597656 245.925781 59.316406 155.003907c-12.054687 14.347656-24.59375 28.363281-37.59375 42.007812l-56.949218-148.816406c12.414062-15.621094 24.15625-31.695313 35.226562-48.195313zm0 0" fill="url(#r)"/><path d="m212.695312 133.6875 66.269532 173.183594c-9.808594 15.394531-20.101563 30.480468-30.855469 45.25-1.226563 1.679687-2.449219 3.351562-3.683594 5.027344l-62.179687-162.75c11.03125-19.707032 21.183594-39.960938 30.449218-60.710938zm0 0" fill="url(#s)"/><path d="m298.453125 83.34375 41.960937 109.652344c-8.464843 18.835937-17.558593 37.339844-27.265624 55.464844-1.023438 1.914062-2.046876 3.808593-3.085938 5.707031l-68.675781-179.683594c6.003906-3.933594 13.675781-5.183594 21.003906-2.8125 12.019531 3.882813 24.050781 7.777344 36.0625 11.671875zm0 0" fill="url(#t)"/><path d="m357.859375 104.351562c6.570313 5.402344 9.960937 13.992188 8.640625 22.585938zm0 0" fill="url(#u)"/><path d="m365.304688 131.691406c-44.355469 121.84375-113.527344 231.101563-204.691407 323.308594-9.761719 9.875-25.753906 9.714844-35.265625-.398438-21.003906-22.316406-42.007812-44.632812-63.011718-66.949218-8.96875-9.535156-8.890626-24.480469.277343-33.828125 75.195313-76.664063 132.183594-166.675781 169.320313-267.441407 4.523437-12.285156 18.003906-18.75 30.457031-14.714843 29.15625 9.4375 58.3125 18.875 87.46875 28.316406 13.207031 4.273437 20.191406 18.664063 15.445313 31.707031zm0 0" fill="url(#w)"/><path d="m262.390625 71.667969c-12.457031-4.03125-25.933594 2.429687-30.460937 14.714843-9.738282 26.429688-20.855469 52.113282-33.296876 77.015626l119.480469 75.644531c17.957031-34.542969 33.726563-70.363281 47.191407-107.351563 4.746093-13.042968-2.238282-27.433594-15.445313-31.707031-29.15625-9.4375-58.3125-18.878906-87.46875-28.316406zm0 0" fill="url(#x)"/><path d="m166.679688 357.050781s-14.164063-9.15625-3.921876-25.335937c9.503907-15.015625 105.0625-120.929688 138.453126-221.683594 4.203124-12.691406-2.664063-26.394531-15.3125-30.726562l75.007812 24.042968s-54.789062 154.777344-169.820312 260.734375c0 .003907-10.410157 5.824219-24.40625-7.03125zm0 0" fill="url(#y)"/><path d="m496.019531 129.003906c-44.355469 121.84375-113.527343 231.097656-204.6875 323.308594-9.835937 9.945312-25.683593 9.785156-35.269531-.398438-26.453125-28.109374-52.910156-56.21875-79.363281-84.332031 83.46875-80.125 146.125-175.824219 185.949219-283.890625 4.527343-12.28125 18.003906-18.746094 30.457031-14.714844 29.160156 9.4375 58.3125 18.878907 87.472656 28.316407 13.304687 4.308593 20.226563 18.566406 15.441406 31.710937zm0 0" fill="url(#z)"/><path d="m210.601562 332.949219 45.5625 119.066406s.011719.007813.003907.015625c-.039063-.039062-.0625-.078125-.101563-.117188l-.007812-.003906c-25.714844-27.316406-63.675782-67.535156-89.378906-94.859375-.019532-.023437-.03125-.035156-.035157-.039062-.367187-.308594 9.800781 9.183593 21-.144531 1.996094-1.664063 3.667969-3.679688 5.484375-5.53125 1.347656-1.378907 2.691406-2.746094 4.015625-4.128907.886719-.902343 1.765625-1.816406 2.632813-2.730469 1.878906-1.960937 3.734375-3.917968 5.585937-5.894531.988281-1.042969 1.964844-2.089843 2.933594-3.144531.765625-.832031 1.539063-1.65625 2.304687-2.488281zm0 0" fill="url(#A)"/><path d="m281.316406 243.238281 59.3125 155c-12.054687 14.347657-24.589844 28.367188-37.59375 42.011719l-56.945312-148.816406c12.410156-15.625 24.152344-31.699219 35.226562-48.195313zm0 0" fill="url(#B)"/><path d="m343.410156 130.996094 66.269532 173.1875c-9.808594 15.390625-20.097657 30.480468-30.851563 45.246094-1.226563 1.683593-2.449219 3.355468-3.683594 5.027343l-62.183593-162.746093c11.035156-19.707032 21.1875-39.960938 30.449218-60.714844zm0 0" fill="url(#C)"/><path d="m429.171875 80.65625 41.960937 109.652344c-8.46875 18.835937-17.5625 37.339844-27.269531 55.464844-1.019531 1.910156-2.046875 3.808593-3.085937 5.707031l-68.671875-179.6875c6-3.933594 13.675781-5.179688 21-2.8125 12.019531 3.886719 24.050781 7.777343 36.066406 11.675781zm0 0" fill="url(#D)"/><path d="m488.574219 101.664062c6.574219 5.402344 9.960937 13.992188 8.644531 22.585938zm0 0" fill="url(#E)"/></svg>