<svg height="512pt" viewBox="0 -6 512.00079 512" width="512pt" xmlns="http://www.w3.org/2000/svg" xmlns:xlink="http://www.w3.org/1999/xlink"><linearGradient id="a" gradientUnits="userSpaceOnUse" x1="266.0225645026" x2="353.2774412106" y1="329.0505904834" y2="416.3054671914"><stop offset="0" stop-color="#ffe548"/><stop offset=".2472" stop-color="#ffe042"/><stop offset=".5621" stop-color="#ffd133"/><stop offset=".9123" stop-color="#ffb919"/><stop offset="1" stop-color="#ffb211"/></linearGradient><linearGradient id="b" gradientUnits="userSpaceOnUse" x1="345.351677805" x2="256.3372270076" y1="339.6173714944" y2="221.8237898996"><stop offset="0" stop-color="#ffb211" stop-opacity="0"/><stop offset=".1784" stop-color="#ff931e" stop-opacity=".176471"/><stop offset=".3999" stop-color="#ff742c" stop-opacity=".4"/><stop offset=".6151" stop-color="#ff5d36" stop-opacity=".615686"/><stop offset=".8191" stop-color="#ff503c" stop-opacity=".819608"/><stop offset="1" stop-color="#ff4b3e"/></linearGradient><radialGradient id="c" cx="215.5172565266" cy="-30.3791859198" gradientUnits="userSpaceOnUse" r="390.6363905966"><stop offset="0" stop-color="#f2e9dc"/><stop offset=".423" stop-color="#f1e7da"/><stop offset=".6192" stop-color="#eee1d2"/><stop offset=".7687" stop-color="#e9d6c6"/><stop offset=".8937" stop-color="#e3c7b3"/><stop offset="1" stop-color="#dab49d"/></radialGradient><linearGradient id="d"><stop offset="0" stop-color="#f2e9dc" stop-opacity="0"/><stop offset=".6804" stop-color="#cfa37b" stop-opacity=".682353"/><stop offset="1" stop-color="#c08552"/></linearGradient><linearGradient id="e" gradientUnits="userSpaceOnUse" x1="425.8011680594" x2="529.0349692804" xlink:href="#d" y1="270.6352806772" y2="155.9309678608"/><linearGradient id="f" gradientUnits="userSpaceOnUse" x1="338.501416038" x2="320.0480245794" xlink:href="#d" y1="257.4710522756" y2="327.4399984188"/><linearGradient id="g" gradientUnits="userSpaceOnUse" x1="106.6911078046" x2="33.9313588936" xlink:href="#d" y1="227.4387256456" y2="25.4235172736"/><linearGradient id="h" gradientUnits="userSpaceOnUse" x1="186.1339654696" x2="165.0996913334" xlink:href="#d" y1="125.443462996" y2="3.4447533198"/><linearGradient id="i" gradientTransform="matrix(-1.003922 0 0 1.003922 3765.837302 -5.787213)" gradientUnits="userSpaceOnUse" x1="3422.4282" x2="3363.8923" xlink:href="#d" y1="188.24" y2="25.717"/><linearGradient id="j" gradientTransform="matrix(.869597 .501559 -.501559 .869597 -171.322328 -1024.776139)" gradientUnits="userSpaceOnUse" x1="952.4489" x2="846.8752" xlink:href="#d" y1="898.1448" y2="792.5711"/><linearGradient id="k"><stop offset="0" stop-color="#84d5f7"/><stop offset=".3852" stop-color="#82d4f7"/><stop offset=".5639" stop-color="#7ad1f5"/><stop offset=".7001" stop-color="#6ecbf2"/><stop offset=".8147" stop-color="#5bc2ee"/><stop offset=".9146" stop-color="#44b7e8"/><stop offset="1" stop-color="#29abe2"/></linearGradient><radialGradient id="l" cx="46.7207228204" cy="356.9263922652" gradientUnits="userSpaceOnUse" r="46.5301784248" xlink:href="#k"/><radialGradient id="m" cx="145.9474697706" cy="356.9263922652" gradientUnits="userSpaceOnUse" r="46.5301784248" xlink:href="#k"/><radialGradient id="n" cx="443.6277106212" cy="356.9263922652" gradientUnits="userSpaceOnUse" r="46.5301784248" xlink:href="#k"/><radialGradient id="o" cx="94.4970696238" cy="437.8812568544" gradientUnits="userSpaceOnUse" r="46.5301784248" xlink:href="#k"/><radialGradient id="p" cx="193.7237161818" cy="437.8812568544" gradientUnits="userSpaceOnUse" r="46.5301784248" xlink:href="#k"/><radialGradient id="q" cx="392.1772100822" cy="437.8812568544" gradientUnits="userSpaceOnUse" r="46.5301784248" xlink:href="#k"/><path d="m362.617188 349.511719h-31.910157c-5.675781 0-10.019531-5.058594-9.160156-10.671875l14.699219-95.882813c1.523437-9.945312-11.660156-14.851562-17.007813-6.332031l-83.082031 132.351562c-3.871094 6.167969.5625 14.191407 7.851562 14.191407h31.90625c5.675782 0 10.019532 5.058593 9.160157 10.671875l-14.699219 95.882812c-1.523438 9.941406 11.660156 14.851563 17.007812 6.332032l83.082032-132.347657c3.875-6.175781-.5625-14.195312-7.847656-14.195312zm0 0" fill="url(#a)"/><path d="m370.464844 363.703125c3.875-6.171875-.5625-14.191406-7.847656-14.191406h-31.910157c-5.675781 0-10.019531-5.058594-9.160156-10.671875l14.699219-95.882813c1.523437-9.945312-11.660156-14.851562-17.007813-6.332031l-54.109375 86.199219 80.476563 80.476562zm0 0" fill="url(#b)"/><path d="m465.042969 188.320312c3.089843-7.195312 4.808593-15.121093 4.808593-23.449218 0-24.390625-14.691406-45.339844-35.707031-54.5-11.421875-4.976563-19.589843-15.355469-22.355469-27.503906-10.808593-47.453126-53.257812-82.867188-103.988281-82.867188-41.667969 0-77.75 23.898438-95.300781 58.734375-8.054688-2.992187-16.765625-4.632813-25.859375-4.632813-38.484375 0-70.132813 29.269532-73.898437 66.761719-2.015626-.113281-4.042969-.175781-6.085938-.175781-59.40625 0-107.46875 48.570312-106.6445312 108.164062.8085932 58.820313 49.8632812 106.230469 108.6796872 105.132813 25.625-.480469 49.039063-10.003906 67.191406-25.503906 14.726563 13.289062 34.234376 21.386719 55.636719 21.386719 30.996094 0 58.007813-16.984376 72.289063-42.144532 10.390625 8.894532 23.875 14.28125 38.625 14.28125 11.132812 0 21.542968-3.070312 30.449218-8.390625 12.914063 23.0625 37.753907 38.539063 66.179688 38.039063 39.539062-.695313 71.945312-32.863282 72.914062-72.398438.789063-32.171875-18.890624-59.832031-46.933593-70.933594zm0 0" fill="url(#c)"/><path d="m512 257.386719c0 41.023437-33.253906 74.277343-74.277344 74.277343-41.019531 0-74.273437-33.253906-74.273437-74.277343 0-41.019531 33.253906-74.273438 74.273437-74.273438 41.023438 0 74.277344 33.253907 74.277344 74.273438zm0 0" fill="url(#e)"/><path d="m401.878906 242.554688c0 32.832031-26.613281 59.445312-59.445312 59.445312-32.828125 0-59.445313-26.613281-59.445313-59.445312 0-32.828126 26.617188-59.445313 59.445313-59.445313 32.832031 0 59.445312 26.617187 59.445312 59.445313zm0 0" fill="url(#f)"/><path d="m213.3125 227.34375c0 58.90625-47.75 106.65625-106.65625 106.65625s-106.65625-47.75-106.65625-106.65625c0-58.902344 47.75-106.65625 106.65625-106.65625s106.65625 47.753906 106.65625 106.65625zm0 0" fill="url(#g)"/><path d="m260.917969 128.375c0 41.023438-33.257813 74.277344-74.277344 74.277344-41.023437 0-74.277344-33.253906-74.277344-74.277344 0-41.019531 33.253907-74.273438 74.277344-74.273438 41.019531 0 74.277344 33.253907 74.277344 74.273438zm0 0" fill="url(#h)"/><path d="m416.160156 183.113281c0 47.578125-38.570312 86.144531-86.144531 86.144531-47.578125 0-86.144531-38.566406-86.144531-86.144531 0-47.574219 38.566406-86.140625 86.144531-86.140625 47.574219 0 86.144531 38.566406 86.144531 86.140625zm0 0" fill="url(#i)"/><path d="m277.941406 240.066406c0 38.578125-31.273437 69.847656-69.847656 69.847656-38.578125 0-69.851562-31.269531-69.851562-69.847656 0-38.574218 31.273437-69.847656 69.851562-69.847656 38.574219 0 69.847656 31.273438 69.847656 69.847656zm0 0" fill="url(#j)"/><path d="m71.121094 394.320312c0 7.496094-6.078125 13.574219-13.574219 13.574219-7.5 0-13.578125-6.078125-13.578125-13.574219 0-7.496093 6.078125-48.417968 13.578125-48.417968 7.496094 0 13.574219 40.921875 13.574219 48.417968zm0 0" fill="url(#l)"/><path d="m170.347656 394.320312c0 7.496094-6.074218 13.574219-13.574218 13.574219-7.496094 0-13.574219-6.078125-13.574219-13.574219 0-7.496093 6.074219-48.417968 13.574219-48.417968 7.496093 0 13.574218 40.921875 13.574218 48.417968zm0 0" fill="url(#m)"/><path d="m468.027344 394.320312c0 7.496094-6.074219 13.574219-13.574219 13.574219-7.496094 0-13.574219-6.078125-13.574219-13.574219 0-7.496093 6.074219-48.417968 13.574219-48.417968 7.496094 0 13.574219 40.921875 13.574219 48.417968zm0 0" fill="url(#n)"/><path d="m118.898438 475.273438c0 7.5-6.078126 13.578124-13.574219 13.578124-7.5 0-13.578125-6.078124-13.578125-13.578124 0-7.496094 6.078125-48.417969 13.578125-48.417969 7.496093 0 13.574219 40.921875 13.574219 48.417969zm0 0" fill="url(#o)"/><path d="m218.125 475.273438c0 7.5-6.078125 13.578124-13.574219 13.578124-7.5 0-13.578125-6.078124-13.578125-13.578124 0-7.496094 6.078125-48.417969 13.578125-48.417969 7.496094 0 13.574219 40.921875 13.574219 48.417969zm0 0" fill="url(#p)"/><path d="m416.578125 475.273438c0 7.5-6.078125 13.578124-13.574219 13.578124-7.5 0-13.578125-6.078124-13.578125-13.578124 0-7.496094 6.078125-48.417969 13.578125-48.417969 7.496094 0 13.574219 40.921875 13.574219 48.417969zm0 0" fill="url(#q)"/></svg>