<svg height="512pt" viewBox="-3 0 512 512.00074" width="512pt" xmlns="http://www.w3.org/2000/svg" xmlns:xlink="http://www.w3.org/1999/xlink"><linearGradient id="a"><stop offset="0" stop-color="#ffe548"/><stop offset=".9688" stop-color="#97a03b"/></linearGradient><linearGradient id="b" gradientTransform="matrix(-.575849 -.822312 .822312 -.575849 70.227242 344.08089)" gradientUnits="userSpaceOnUse" x1="68.3034" x2="-2.1114" xlink:href="#a" y1="18.023" y2="18.023"/><linearGradient id="c"><stop offset="0" stop-color="#97a03b" stop-opacity="0"/><stop offset="1" stop-color="#575c55"/></linearGradient><linearGradient id="d" gradientTransform="matrix(-.649236 -.765791 .765791 -.649236 12.876114 230.771475)" gradientUnits="userSpaceOnUse" x1="-80.9393" x2="-65.6429" xlink:href="#c" y1="19.7047" y2="-61.3095"/><linearGradient id="e" gradientTransform="matrix(-.380587 -.928929 .928929 -.380587 36.900961 317.587901)" gradientUnits="userSpaceOnUse" x1="83.5084" x2="13.0936" xlink:href="#a" y1="112.4054" y2="112.4054"/><linearGradient id="f" gradientTransform="matrix(-.464615 -.889976 .889976 -.464615 5.915424 194.429112)" gradientUnits="userSpaceOnUse" x1="-74.4914" x2="-59.195" xlink:href="#c" y1="115.0816" y2="34.0674"/><linearGradient id="g" gradientTransform="matrix(-.22538 -.978322 .978322 -.22538 10.399239 284.210521)" gradientUnits="userSpaceOnUse" x1="113.6639" x2="43.2491" xlink:href="#a" y1="201.7046" y2="201.7046"/><linearGradient id="h" gradientTransform="matrix(-.314529 -.953424 .953424 -.314529 -.258393 157.66169)" gradientUnits="userSpaceOnUse" x1="-52.6892" x2="-37.3928" xlink:href="#c" y1="206.7739" y2="125.7597"/><linearGradient id="i" gradientTransform="matrix(-.0106416 -1.003821 1.003821 -.0106416 -25.777677 217.559566)" gradientUnits="userSpaceOnUse" x1="146.1836" x2="75.7688" xlink:href="#a" y1="293.8927" y2="293.8927"/><linearGradient id="j" gradientTransform="matrix(-.103002 -.998701 .998701 -.103002 -9.087281 91.664287)" gradientUnits="userSpaceOnUse" x1="-28.7989" x2="-13.5026" xlink:href="#c" y1="301.5603" y2="220.5462"/><linearGradient id="k" gradientTransform="matrix(.158419 -.991373 .991373 .158419 -49.715183 144.981759)" gradientUnits="userSpaceOnUse" x1="179.0781" x2="110.9324" xlink:href="#a" y1="387.1322" y2="387.1322"/><linearGradient id="l" gradientTransform="matrix(.0664596 -1.001813 1.001813 .0664596 -12.07977 23.689762)" gradientUnits="userSpaceOnUse" x1="-3.8506" x2="10.9528" xlink:href="#c" y1="396.6267" y2="318.2231"/><linearGradient id="m" gradientTransform="matrix(1.003922 .00471843 -.00471843 1.003922 253.265937 -287.658844)" gradientUnits="userSpaceOnUse" x1="150.954" x2="82.8082" xlink:href="#a" y1="406.8805" y2="406.8805"/><linearGradient id="n" gradientTransform="matrix(1.000107 -.0877427 .0877427 1.000107 378.891763 -269.049451)" gradientUnits="userSpaceOnUse" x1="-33.6725" x2="-18.869" xlink:href="#c" y1="413.7001" y2="335.2965"/><linearGradient id="o" gradientTransform="matrix(.996292 -.123683 .123683 .996292 189.419938 -281.476092)" gradientUnits="userSpaceOnUse" x1="83.4094" x2="15.2637" xlink:href="#a" y1="453.466" y2="453.466"/><linearGradient id="p" gradientTransform="matrix(.980731 -.21494 .21494 .980731 316.394131 -279.079932)" gradientUnits="userSpaceOnUse" x1="-105.2167" x2="-90.4132" xlink:href="#c" y1="453.8651" y2="375.4615"/><linearGradient id="q" gradientTransform="matrix(.938265 -.357095 .357095 .938265 74.068145 -242.474844)" gradientUnits="userSpaceOnUse" x1="10.5185" x2="-57.6273" xlink:href="#a" y1="484.6162" y2="484.6162"/><linearGradient id="r" gradientTransform="matrix(.901421 -.442027 .442027 .901421 197.967828 -270.350332)" gradientUnits="userSpaceOnUse" x1="-180.6629" x2="-165.8594" xlink:href="#c" y1="478.1688" y2="399.7652"/><linearGradient id="s" gradientTransform="matrix(.938265 -.357095 .357095 .938265 74.068145 -242.474844)" gradientUnits="userSpaceOnUse" x1="-63.5838" x2="-131.7295" xlink:href="#a" y1="525.1467" y2="525.1467"/><linearGradient id="t" gradientTransform="matrix(.901421 -.442027 .442027 .901421 197.967828 -270.350332)" gradientUnits="userSpaceOnUse" x1="-258.179" x2="-243.3755" xlink:href="#c" y1="511.7008" y2="433.2973"/><linearGradient id="u" gradientTransform="matrix(.971194 -.254293 .254293 .971194 134.433246 -251.576397)" gradientUnits="userSpaceOnUse" x1="-130.1301" x2="-198.2758" xlink:href="#a" y1="580.0574" y2="580.0574"/><linearGradient id="v" gradientTransform="matrix(.943686 -.342638 .342638 .943686 260.609824 -265.986586)" gradientUnits="userSpaceOnUse" x1="-329.4959" x2="-314.6925" xlink:href="#c" y1="560.2472" y2="481.8436"/><linearGradient id="w" gradientUnits="userSpaceOnUse" x1="-8.3530147948" x2="419.7135032576" y1="291.7316254708" y2="291.7316254708"><stop offset="0" stop-color="#97a03b"/><stop offset="1" stop-color="#6c7d47"/></linearGradient><linearGradient id="x" gradientTransform="matrix(.882748 -.478268 .478268 .882748 70.459148 -296.42087)" gradientUnits="userSpaceOnUse" x1="182.4077" x2="114.2619" xlink:href="#a" y1="496.9861" y2="496.9861"/><linearGradient id="y" gradientTransform="matrix(.834962 -.557478 .557478 .834962 189.575747 -340.459597)" gradientUnits="userSpaceOnUse" x1="-10.6519" x2="4.1515" xlink:href="#c" y1="506.3148" y2="427.9113"/><linearGradient id="z"><stop offset="0" stop-color="#ffb211"/><stop offset="1" stop-color="#972e07"/></linearGradient><linearGradient id="A" gradientTransform="matrix(.137035 -.994485 .994485 .137035 105.173752 102.913931)" gradientUnits="userSpaceOnUse" x1="-233.3993" x2="-303.8141" xlink:href="#z" y1="100.5924" y2="100.5924"/><linearGradient id="B"><stop offset="0" stop-color="#972e07" stop-opacity="0"/><stop offset="1" stop-color="#582707"/></linearGradient><linearGradient id="C" gradientTransform="matrix(.0448753 -1.002918 1.002918 .0448753 140.190937 -19.159719)" gradientUnits="userSpaceOnUse" x1="-388.9486" x2="-373.6522" xlink:href="#B" y1="74.1351" y2="-6.879"/><linearGradient id="D" gradientTransform="matrix(.346855 -.94208 .94208 .346855 95.0486 27.756749)" gradientUnits="userSpaceOnUse" x1="-207.6272" x2="-278.042" xlink:href="#z" y1="271.3013" y2="271.3013"/><linearGradient id="E" gradientTransform="matrix(.25861 -.970089 .970089 .25861 155.395731 -83.985846)" gradientUnits="userSpaceOnUse" x1="-379.0081" x2="-363.7117" xlink:href="#B" y1="246.4834" y2="165.4692"/><linearGradient id="F" gradientTransform="matrix(.500455 -.8703 .8703 .500455 98.470166 -48.590081)" gradientUnits="userSpaceOnUse" x1="-173.4896" x2="-241.6353" xlink:href="#z" y1="424.395" y2="424.395"/><linearGradient id="G" gradientTransform="matrix(.418234 -.912765 .912765 .418234 176.75868 -148.585488)" gradientUnits="userSpaceOnUse" x1="-358.334" x2="-343.5305" xlink:href="#B" y1="401.261" y2="322.8574"/><linearGradient id="H" gradientTransform="matrix(.936659 .361211 -.361211 .936659 535.440079 -345.293278)" gradientUnits="userSpaceOnUse" x1="133.7641" x2="65.6183" xlink:href="#z" y1="760.9948" y2="760.9948"/><linearGradient id="I" gradientTransform="matrix(.965973 .273468 -.273468 .965973 646.248826 -283.248114)" gradientUnits="userSpaceOnUse" x1="-83.3991" x2="-68.5956" xlink:href="#B" y1="764.7089" y2="686.3053"/><linearGradient id="J" gradientTransform="matrix(.975209 .238532 -.238532 .975209 473.565482 -362.206847)" gradientUnits="userSpaceOnUse" x1="21.0891" x2="-47.0566" xlink:href="#z" y1="802.477" y2="802.477"/><linearGradient id="K" gradientTransform="matrix(.993079 .147677 -.147677 .993079 591.397061 -314.837008)" gradientUnits="userSpaceOnUse" x1="-199.4097" x2="-184.6063" xlink:href="#B" y1="795.6364" y2="717.2328"/><linearGradient id="L" gradientTransform="matrix(1.003922 -.00031157 .00031157 1.003922 351.883863 -366.750897)" gradientUnits="userSpaceOnUse" x1="-131.3223" x2="-199.4681" xlink:href="#z" y1="806.1227" y2="806.1227"/><linearGradient id="M" gradientTransform="matrix(.999705 -.0927624 .0927624 .999705 477.600845 -348.769357)" gradientUnits="userSpaceOnUse" x1="-351.5013" x2="-336.6978" xlink:href="#B" y1="785.2313" y2="706.8276"/><linearGradient id="N" gradientTransform="matrix(.938365 .356794 -.356794 .938365 193.760393 -167.464635)" gradientUnits="userSpaceOnUse" x1="123.2806" x2="401.411" y1="515.5216" y2="515.5216"><stop offset="0" stop-color="#972e07"/><stop offset="1" stop-color="#582707"/></linearGradient><linearGradient id="O" gradientTransform="matrix(.995087 -.13322 .13322 .995087 367.684183 -418.457677)" gradientUnits="userSpaceOnUse" x1="-2.8095" x2="-70.9552" xlink:href="#z" y1="799.2891" y2="799.2891"/><linearGradient id="P" gradientTransform="matrix(.978623 -.224376 .224376 .978623 494.675443 -417.28359)" gradientUnits="userSpaceOnUse" x1="-222.912" x2="-208.1085" xlink:href="#B" y1="790.2613" y2="711.8577"/><path d="m75.347656 344.597656s-85.253906-4.132812-36.703125-100.976562c2.027344-4.042969 6.894531-5.738282 11.015625-3.878906 19.8125 8.9375 69.398438 39.195312 25.6875 104.855468zm0 0" fill="url(#b)"/><path d="m49.660156 239.742188c-2.285156-1.03125-4.796875-.964844-6.929687-.015626 9.320312 51.363282 32.617187 104.871094 32.617187 104.871094 43.710938-65.660156-5.875-95.917968-25.6875-104.855468zm0 0" fill="url(#d)"/><path d="m123.671875 269.171875s-82.25-22.808594-13.558594-106.585937c2.863281-3.496094 7.988281-4.074219 11.597657-1.355469 17.359374 13.085937 59.0625 53.519531 1.960937 107.941406zm0 0" fill="url(#e)"/><path d="m121.710938 161.234375c-2-1.511719-4.464844-2-6.753907-1.542969-2.222656 52.15625 8.714844 109.480469 8.714844 109.480469 57.101563-54.421875 15.398437-94.855469-1.960937-107.9375zm0 0" fill="url(#f)"/><path d="m184.425781 200.84375s-77.476562-35.8125 3.859375-107.375c3.394532-2.988281 8.542969-2.730469 11.664063.539062 15.011719 15.714844 49.625 62.363282-15.523438 106.835938zm0 0" fill="url(#g)"/><path d="m199.949219 94.007812c-1.730469-1.8125-4.085938-2.695312-6.417969-2.617187-10.628906 51.109375-9.105469 109.449219-9.105469 109.449219 65.148438-44.46875 30.535157-91.117188 15.523438-106.832032zm0 0" fill="url(#h)"/><path d="m254.261719 139.769531s-68.007813-51.574219 26.765625-104.058593c3.953125-2.191407 8.929687-.835938 11.277344 3.027343 11.300781 18.566407 35.121093 71.542969-38.042969 101.03125zm0 0" fill="url(#i)"/><path d="m292.304688 38.738281c-1.300782-2.144531-3.414063-3.507812-5.707032-3.929687-21.328125 47.648437-32.332031 104.960937-32.332031 104.960937 73.160156-29.488281 49.339844-82.464843 38.039063-101.03125zm0 0" fill="url(#j)"/><path d="m337.882812 95.367188s-56.480468-60.273438 42.476563-94.910157c4.128906-1.445312 8.652344.65625 10.265625 4.722657 7.757812 19.550781 21.855469 73.972656-52.742188 90.1875zm0 0" fill="url(#k)"/><path d="m390.625 5.179688c-.894531-2.253907-2.683594-3.902344-4.804688-4.679688-28.105468 41.984375-47.9375 94.867188-47.9375 94.867188 74.597657-16.214844 60.5-70.636719 52.742188-90.1875zm0 0" fill="url(#l)"/><path d="m333.347656 107.457031s50.910156-65.050781 100.296875 27.433594c2.0625 3.859375.679688 8.652344-3.09375 10.871094-18.132812 10.65625-69.75 32.925781-97.203125-38.304688zm0 0" fill="url(#m)"/><path d="m430.550781 145.761719c2.089844-1.230469 3.445313-3.25 3.886719-5.46875-45.792969-21.339844-101.089844-32.835938-101.089844-32.835938 27.453125 71.230469 79.070313 48.960938 97.203125 38.304688zm0 0" fill="url(#n)"/><path d="m257.828125 154.925781s42.171875-71.023437 102.980469 14.386719c2.535156 3.5625 1.777344 8.496094-1.679688 11.175781-16.621094 12.890625-64.96875 41.574219-101.300781-25.5625zm0 0" fill="url(#o)"/><path d="m359.128906 180.488281c1.917969-1.488281 3-3.664062 3.15625-5.917969-48.144531-15.3125-104.457031-19.644531-104.457031-19.644531 36.332031 67.136719 84.679687 38.453125 101.300781 25.5625zm0 0" fill="url(#p)"/><path d="m187.050781 220.386719s24.070313-79.019531 103.445313-10.523438c3.316406 2.859375 3.75 7.828125 1.03125 11.257813-13.082032 16.472656-53.214844 55.832031-104.476563-.734375zm0 0" fill="url(#q)"/><path d="m291.527344 221.121094c1.507812-1.902344 2.042968-4.277344 1.65625-6.5-50.40625-3.421875-106.132813 5.765625-106.132813 5.765625 51.261719 56.566406 91.394531 17.207031 104.476563.734375zm0 0" fill="url(#r)"/><path d="m131.996094 284.878906s24.070312-79.019531 103.449218-10.523437c3.3125 2.859375 3.75 7.828125 1.027344 11.253906-13.078125 16.472656-53.214844 55.835937-104.476562-.730469zm0 0" fill="url(#s)"/><path d="m236.472656 285.609375c1.507813-1.898437 2.042969-4.273437 1.660156-6.5-50.40625-3.421875-106.136718 5.769531-106.136718 5.769531 51.261718 56.566406 91.398437 17.203125 104.476562.730469zm0 0" fill="url(#t)"/><path d="m84.738281 349.199219s32.414063-75.976563 103.976563.644531c2.988281 3.199219 2.886718 8.1875-.183594 11.300781-14.773438 14.972657-58.902344 49.796875-103.792969-11.945312zm0 0" fill="url(#u)"/><path d="m188.53125 361.144531c1.703125-1.726562 2.488281-4.027343 2.34375-6.28125-49.746094-8.816406-106.136719-5.664062-106.136719-5.664062 44.886719 61.742187 89.019531 26.917969 103.792969 11.945312zm0 0" fill="url(#v)"/><path d="m2.539062 511.199219c-.664062 1.511719-2.9375.699219-2.476562-.890625.0195312-.066406.039062-.136719.058594-.203125 1.953125-6.503907 4.03125-12.972657 6.167968-19.421875 2.109376-6.464844 4.429688-12.851563 6.769532-19.234375 2.332031-6.386719 4.777344-12.730469 7.246094-19.074219 10.046874-25.285156 21.40625-50.078125 33.929687-74.304688 12.539063-24.21875 26.285156-47.855468 41.308594-70.695312 7.492187-11.429688 15.339843-22.640625 23.449219-33.664062 8.167968-10.984376 16.65625-21.730469 25.40625-32.273438 35.171874-41.972656 75.867187-79.8125 122.007812-109.664062 11.492188-7.503907 23.378906-14.390626 35.527344-20.742188 3.054687-1.554688 6.0625-3.195312 9.152344-4.679688l9.269531-4.429687c3.085937-1.480469 6.261719-2.773437 9.382812-4.167969l4.703125-2.054687c1.570313-.667969 3.171875-1.285157 4.761719-1.910157l9.554687-3.722656 9.65625-3.425781c3.199219-1.1875 6.472657-2.164063 9.71875-3.210937 3.257813-1.015626 6.480469-2.113282 9.789063-2.957032 13.09375-3.789062 26.40625-6.6875 39.765625-9.007812-3.21875 1.085937-6.4375 2.152344-9.65625 3.191406-1.605469.53125-3.21875 1.027344-4.8125 1.59375l-4.769531 1.734375c-3.175781 1.164063-6.378907 2.214844-9.523438 3.433594l-9.414062 3.695312c-12.457031 5.136719-24.824219 10.402344-36.738281 16.59375-11.972657 6.035157-23.734376 12.449219-35.125 19.453125l-4.289063 2.59375-4.226563 2.699219c-2.808593 1.8125-5.648437 3.5625-8.425781 5.417969l-8.289062 5.628906c-2.773438 1.855469-5.449219 3.859375-8.179688 5.773438-43.40625 31.140624-81.929687 68.601562-116.28125 109.527343-17.175781 20.480469-33.316406 41.863281-48.523437 63.925781-7.628906 11.015626-14.996094 22.222657-22.175782 33.558594-7.144531 11.359375-14.121093 22.835938-20.867187 34.457032-13.523437 23.230468-26.207031 46.988281-38.191406 71.148437-6.039063 12.058594-11.761719 24.28125-17.367188 36.578125-2.8125 6.144531-5.542969 12.328125-8.210937 18.542969-.027344.0625-.054688.125-.082032.1875zm0 0" fill="url(#w)"/><path d="m401.390625 76.117188s13.390625-81.507813 101.140625-24.128907c3.660156 2.394531 4.753906 7.261719 2.507812 11.019531-10.78125 18.058594-45.351562 62.390626-103.648437 13.109376zm0 0" fill="url(#x)"/><path d="m505.039062 63.007812c1.246094-2.082031 1.460938-4.503906.785157-6.660156-50.414063 3.28125-104.433594 19.769532-104.433594 19.769532 58.296875 49.28125 92.867187 4.949218 103.648437-13.109376zm0 0" fill="url(#y)"/><path d="m149.335938 418.144531s-59.691407-61.011719 41.769531-98.992187c4.234375-1.585938 8.953125.484375 10.710937 4.648437 8.445313 20.027344 24.21875 75.933594-52.480468 94.34375zm0 0" fill="url(#A)"/><path d="m201.816406 323.800781c-.972656-2.308593-2.859375-3.96875-5.066406-4.726562-28.101562 43.996093-47.414062 99.070312-47.414062 99.070312 76.699218-18.410156 60.925781-74.316406 52.480468-94.34375zm0 0" fill="url(#C)"/><path d="m240.441406 380.066406s-45.238281-72.378906 62-87.75c4.472656-.640625 8.644532 2.390625 9.46875 6.835938 3.960938 21.371094 7.394532 79.355468-71.46875 80.914062zm0 0" fill="url(#D)"/><path d="m311.910156 299.152344c-.457031-2.464844-1.945312-4.492188-3.941406-5.703125-36.871094 36.957031-67.527344 86.617187-67.527344 86.617187 78.863282-1.558594 75.429688-59.542968 71.46875-80.914062zm0 0" fill="url(#E)"/><path d="m334.382812 368.28125s-31.371093-76.410156 73.433594-73.613281c4.375.117187 7.859375 3.6875 7.921875 8.0625.300781 21.03125-5.867187 76.910156-81.355469 65.550781zm0 0" fill="url(#F)"/><path d="m415.738281 302.730469c-.035156-2.425781-1.125-4.601563-2.828125-6.082031-41.191406 29.253906-78.527344 71.636718-78.527344 71.636718 75.488282 11.355469 81.65625-44.523437 81.355469-65.554687zm0 0" fill="url(#G)"/><path d="m325.847656 377.972656s70.703125-42.707031 83.996094 61.289063c.554688 4.339843-2.441406 8.332031-6.753906 9.0625-20.742188 3.515625-76.902344 5.984375-77.242188-70.351563zm0 0" fill="url(#H)"/><path d="m403.089844 448.324219c2.390625-.40625 4.375-1.816407 5.574218-3.726563-35.214843-36.226562-82.816406-66.625-82.816406-66.625.339844 76.335938 56.5 73.867188 77.242188 70.351563zm0 0" fill="url(#I)"/><path d="m238.386719 395.5s64.664062-51.398438 91.140625 50.050781c1.105468 4.230469-1.355469 8.570313-5.539063 9.847657-20.121093 6.140624-75.503906 15.769531-85.601562-59.898438zm0 0" fill="url(#J)"/><path d="m323.988281 455.398438c2.320313-.707032 4.105469-2.359376 5.054688-4.410157-39.558594-31.425781-90.65625-55.488281-90.65625-55.488281 10.097656 75.667969 65.480469 66.039062 85.601562 59.898438zm0 0" fill="url(#K)"/><path d="m150.679688 428.855469s50.582031-65.300781 100.433593 26.933593c2.078125 3.851563.71875 8.652344-3.039062 10.886719-18.082031 10.746094-69.585938 33.273438-97.394531-37.820312zm0 0" fill="url(#L)"/><path d="m248.070312 466.675781c2.085938-1.242187 3.429688-3.269531 3.859376-5.488281-45.898438-21.113281-101.25-32.332031-101.25-32.332031 27.804687 71.09375 79.3125 48.566406 97.390624 37.820312zm0 0" fill="url(#M)"/><path d="m254.632812 376.90625c13.40625-2.929688 26.96875-5.140625 40.578126-6.761719 3.410156-.367187 6.804687-.832031 10.21875-1.117187l10.238281-.851563c3.410156-.285156 6.839843-.363281 10.253906-.558593l5.125-.246094c1.707031-.070313 3.417969-.074219 5.128906-.097656l10.253907-.082032 10.246093.230469c3.410157.027344 6.820313.277344 10.222657.453125 3.40625.207031 6.808593.328125 10.203124.714844 13.582032 1.113281 27.058594 3.132812 40.371094 5.710937-3.394531-.128906-6.78125-.273437-10.160156-.445312-1.691406-.074219-3.375-.1875-5.066406-.222657l-5.074219-.070312c-3.378906-.046875-6.746094-.203125-10.121094-.179688l-10.113281.109376c-13.46875.375-26.898438.898437-40.234375 2.453124-13.339844 1.386719-26.613281 3.199219-39.75 5.699219l-4.929687.898438-4.910157 1.019531c-3.269531.695312-6.546875 1.324219-9.800781 2.074219l-9.746094 2.3125c-3.253906.75-6.464844 1.671875-9.699218 2.492187-51.640626 13.675782-158.484376 64.089844-159.351563 56.113282 14.855469-8.554688 102.378906-58.144532 156.117187-69.648438zm0 0" fill="url(#N)"/><path d="m400.582031 372.863281s41.492188-71.429687 103.117188 13.394531c2.570312 3.539063 1.859375 8.476563-1.570313 11.191407-16.5 13.046875-64.566406 42.199219-101.546875-24.585938zm0 0" fill="url(#O)"/><path d="m502.128906 397.449219c1.902344-1.503907 2.964844-3.695313 3.097656-5.949219-48.289062-14.847656-104.644531-18.636719-104.644531-18.636719 36.980469 66.785157 85.046875 37.632813 101.546875 24.585938zm0 0" fill="url(#P)"/></svg>