<svg height="512pt" viewBox="0 -19 512.00123 512" width="512pt" xmlns="http://www.w3.org/2000/svg" xmlns:xlink="http://www.w3.org/1999/xlink"><linearGradient id="a"><stop offset="0" stop-color="#dab49d"/><stop offset=".2034" stop-color="#d8b097"/><stop offset=".4686" stop-color="#d2a687"/><stop offset=".7667" stop-color="#c9956c"/><stop offset="1" stop-color="#c08552"/></linearGradient><linearGradient id="b" gradientTransform="matrix(.709873 .709873 -.709873 .709873 -860.00678 -587.427027)" gradientUnits="userSpaceOnUse" x1="1364.8893" x2="1399.8719" xlink:href="#a" y1="-429.4786" y2="-429.4786"/><linearGradient id="c" gradientTransform="matrix(.709873 .709873 -.709873 .709873 -860.00678 -587.427027)" gradientUnits="userSpaceOnUse" x1="1383.8292" x2="1396.9658" xlink:href="#a" y1="-136.5764" y2="-136.5764"/><linearGradient id="d" gradientTransform="matrix(.709873 .709873 -.709873 .709873 -860.00678 -587.427027)" gradientUnits="userSpaceOnUse" x1="1451.1074" x2="1420.4828" y1="-156.8919" y2="-187.5165"><stop offset="0" stop-color="#c08552" stop-opacity="0"/><stop offset="1" stop-color="#c08552"/></linearGradient><linearGradient id="e" gradientTransform="matrix(.709873 .709873 -.709873 .709873 -860.00678 -587.427027)" gradientUnits="userSpaceOnUse" x1="1157.1224" x2="1336.7098" y1="-377.7645" y2="-264.7654"><stop offset="0" stop-color="#ff4b3e"/><stop offset=".1888" stop-color="#fb4a3c"/><stop offset=".3876" stop-color="#ee4635"/><stop offset=".5911" stop-color="#d9402a"/><stop offset=".7963" stop-color="#bc381a"/><stop offset="1" stop-color="#972e07"/></linearGradient><linearGradient id="f" gradientTransform="matrix(.709873 .709873 -.709873 .709873 -860.00678 -587.427027)" gradientUnits="userSpaceOnUse" x1="1394.5159" x2="1494.3988" y1="-273.8793" y2="-298.0934"><stop offset="0" stop-color="#ffe548"/><stop offset=".2472" stop-color="#ffe042"/><stop offset=".5621" stop-color="#ffd133"/><stop offset=".9123" stop-color="#ffb919"/><stop offset="1" stop-color="#ffb211"/></linearGradient><linearGradient id="g" gradientTransform="matrix(.709873 .709873 -.709873 .709873 -860.00678 -587.427027)" gradientUnits="userSpaceOnUse" x1="1299.5234" x2="1414.5403" y1="-289.5631" y2="-278.465"><stop offset="0" stop-color="#ffb211"/><stop offset=".1645" stop-color="#ffac14"/><stop offset=".3888" stop-color="#ff9a1b"/><stop offset=".6475" stop-color="#ff7e28"/><stop offset=".9301" stop-color="#ff5639"/><stop offset="1" stop-color="#ff4b3e"/></linearGradient><linearGradient id="h" gradientTransform="matrix(.709873 .709873 -.709873 .709873 -860.00678 -587.427027)" gradientUnits="userSpaceOnUse" x1="1475.8495" x2="1595.9109" y1="-281.8652" y2="-328.2754"><stop offset="0" stop-color="#acc130"/><stop offset=".3485" stop-color="#a9bd31"/><stop offset=".6956" stop-color="#a2b135"/><stop offset="1" stop-color="#97a03b"/></linearGradient><linearGradient id="i" gradientTransform="matrix(.709873 .709873 -.709873 .709873 -860.00678 -587.427027)" gradientUnits="userSpaceOnUse" x1="1360.4985" x2="1413.8237" y1="53.1555" y2="53.1555"><stop offset="0" stop-color="#c08552"/><stop offset="1" stop-color="#895738"/></linearGradient><path d="m422.386719 109.757812-19.632813-19.632812 14.726563-14.726562c5.417969-5.421876 14.210937-5.421876 19.632812 0 5.421875 5.421874 5.421875 14.210937 0 19.636718zm0 0" fill="url(#b)"/><path d="m334.953125 195.128906-227.542969 227.542969-18.082031-18.082031 227.542969-227.542969c4.992187-4.992187 13.09375-4.992187 18.082031 0 4.992187 4.988281 4.992187 13.089844 0 18.082031zm0 0" fill="url(#c)"/><path d="m334.953125 177.042969c-4.992187-4.992188-13.089844-4.992188-18.082031 0l-92.632813 92.636719v36.167968l110.714844-110.71875c4.996094-4.996094 4.996094-13.089844 0-18.085937zm0 0" fill="url(#d)"/><path d="m467.285156 467.382812c-6.082031 9.980469-21.214844 8.351563-24.796875-2.777343-4.445312-13.820313-12.15625-26.820313-23.128906-37.796875-19.152344-19.152344-44.46875-28.363282-69.554687-27.640625-7.953126.226562-14.425782-6.246094-14.199219-14.199219.722656-25.085938-8.488281-50.398438-27.632813-69.542969-19.152344-19.15625-44.46875-28.367187-69.554687-27.644531-7.953125.226562-14.425781-6.246094-14.195313-14.199219.71875-25.085937-8.492187-50.402343-27.644531-69.554687-19.144531-19.144532-44.460937-28.355469-69.546875-27.632813-7.953125.226563-14.425781-6.242187-14.195312-14.199219.71875-25.082031-8.492188-50.398437-27.644532-69.550781-10.972656-10.976562-23.972656-18.6875-37.792968-23.132812-11.128907-3.578125-12.761719-18.714844-2.78125-24.796875 118.378906-72.121094 274.933593-56.996094 377.300781 45.367187 102.367187 102.367188 117.492187 258.925781 45.367187 377.300781zm0 0" fill="url(#e)"/><path d="m339.105469 394.582031c-2.261719-2.53125-3.601563-5.910156-3.5-9.609375 0-.109375.007812-.207031.007812-.316406.019531-.542969.027344-1.09375.027344-1.636719 0-.289062.007813-.570312-.007813-.839843.015626-.582032.007813-1.167969-.011718-1.746094 0-.164063 0-.324219-.015625-.488282 0-.6875-.027344-1.367187-.0625-2.035156-.109375-2.496094-.316407-5-.644531-7.496094-.042969-.421874-.097657-.839843-.160157-1.265624-.082031-.585938-.171875-1.183594-.261719-1.78125-.183593-1.15625-.390624-2.320313-.617187-3.46875-.171875-.878907-.371094-1.765626-.570313-2.648438-.179687-.832031-.378906-1.664062-.605468-2.488281-.042969-.226563-.097656-.425781-.152344-.640625-.199219-.761719-.414062-1.519532-.632812-2.28125-.027344-.097656-.054688-.214844-.101563-.316406-.222656-.804688-.46875-1.589844-.730469-2.375-.027344-.101563-.046875-.191407-.082031-.28125-.296875-.894532-.59375-1.789063-.914063-2.667969-.367187-1.023438-.757812-2.0625-1.175781-3.074219-.277343-.714844-.566406-1.417969-.875-2.125-.054687-.144531-.117187-.28125-.179687-.414062-.253906-.617188-.527344-1.210938-.816406-1.808594-.179688-.433594-.378907-.867188-.597657-1.285156-.042969-.117188-.097656-.226563-.152343-.332032-.308594-.652344-.621094-1.292968-.957032-1.9375-.652344-1.28125-1.347656-2.558594-2.070312-3.824218-.101563-.1875-.21875-.378907-.335938-.570313-.324218-.578125-.660156-1.148437-1.011718-1.699219-.0625-.117187-.136719-.242187-.21875-.359375-.371094-.625-.757813-1.230469-1.15625-1.828125-.054688-.089844-.109376-.179687-.171876-.261718-.351562-.550782-.714843-1.09375-1.085937-1.644532-.324219-.46875-.648437-.941406-.984375-1.402344-.660156-.949218-1.355469-1.878906-2.0625-2.800781-.316406-.425781-.652344-.851562-.984375-1.257812-.261719-.335938-.527344-.667969-.796875-.996094-.253906-.304687-.507812-.613281-.769531-.914063-.371094-.460937-.75-.914062-1.148438-1.347656-.191406-.242187-.398437-.46875-.613281-.703125-.445312-.515625-.914062-1.023437-1.386719-1.527343-.820312-.894532-1.671875-1.78125-2.546875-2.660157-.871094-.867187-1.746094-1.707031-2.640625-2.53125-.523437-.488281-1.039062-.96875-1.574219-1.429687-.207031-.1875-.40625-.367188-.625-.550782-.476562-.421874-.976562-.847656-1.472656-1.253906-.261718-.226562-.523437-.433594-.796875-.652344-.367187-.316406-.738281-.613281-1.128906-.914062-.378906-.304688-.777344-.613281-1.167969-.914062-1.382812-1.058594-2.785156-2.078126-4.203125-3.046876-.46875-.324218-.949219-.640624-1.429687-.941406-.207032-.152344-.414063-.289062-.640625-.421875-.496094-.335937-.996094-.652343-1.507813-.949219-.273437-.183593-.542968-.34375-.835937-.507812-.414063-.269531-.847657-.523438-1.28125-.777344-.289063-.164062-.5625-.324218-.859375-.480468-1.203125-.695313-2.414063-1.347657-3.644532-1.976563-.644531-.335937-1.285156-.652344-1.9375-.960937-.105468-.054688-.214843-.109376-.332031-.152344-.417969-.21875-.84375-.40625-1.285156-.597656-.597656-.289063-1.195313-.558594-1.808594-.8125-.136719-.0625-.269531-.128907-.414062-.183594-.707031-.304688-1.410157-.59375-2.125-.875-1.015625-.417969-2.054688-.804688-3.085938-1.183594-.894531-.316406-1.796875-.625-2.710937-.925781-.007813-.007813-.027344-.007813-.046875-.007813-.894531-.296875-1.804688-.578125-2.71875-.839844-.816407-.234374-1.621094-.460937-2.433594-.679687-.21875-.054687-.414063-.109375-.640625-.152344-.824219-.226562-1.65625-.425781-2.488281-.605469-.886719-.199218-1.773438-.398437-2.648438-.570312-1.148437-.226562-2.316406-.433594-3.472656-.613281-.597656-.089844-1.195313-.183594-1.78125-.261719-.425781-.066406-.839844-.121094-1.265625-.164062-.730469-.101563-1.484375-.179688-2.234375-.261719-.902344-.089844-1.835937-.171875-2.75-.234375-1.679687-.128906-3.351563-.191406-5.035156-.226563-.578125-.019531-1.167969-.027343-1.746094-.007812-.269531-.019531-.550781-.011719-.839844-.011719-.542969 0-1.09375.011719-1.636719.027344-.109374 0-.207031.011718-.316406.011718-3.96875.117188-7.578125-1.449218-10.164062-4.035156l193.671875-193.671875c54.28125 54.277344 16.78125 182.535157-82.8125 304.5zm0 0" fill="url(#f)"/><path d="m421.917969 90.082031-193.667969 193.667969c-2.585938-2.585938-4.148438-6.195312-4.03125-10.164062 0-.109376.007812-.207032.007812-.316407.019532-.542969.027344-1.09375.027344-1.636719 0-.289062.007813-.570312-.007812-.839843.015625-.578125.007812-1.167969-.007813-1.746094-.039062-1.679687-.101562-3.355469-.226562-5.035156-.066407-.914063-.144531-1.84375-.234375-2.75-.082032-.75-.164063-1.5-.265625-2.234375-.042969-.425782-.097657-.839844-.160157-1.265625-.082031-.585938-.171874-1.183594-.261718-1.78125-.183594-1.15625-.390625-2.324219-.617188-3.472657-.167968-.875-.367187-1.761718-.566406-2.648437-.183594-.832031-.378906-1.664063-.605469-2.484375-.046875-.226562-.101562-.425781-.15625-.644531-.214843-.8125-.441406-1.617188-.675781-2.429688-.261719-.914062-.542969-1.828125-.839844-2.722656 0-.019531 0-.035156-.011718-.046875-.296876-.914062-.605469-1.816406-.921876-2.710938-.378906-1.03125-.769531-2.070312-1.183593-3.082031-.28125-.714843-.570313-1.421875-.878907-2.125-.054687-.144531-.117187-.28125-.179687-.417969-.253906-.613281-.523437-1.210937-.8125-1.808593-.191406-.441407-.382813-.867188-.597656-1.28125-.046875-.117188-.101563-.226563-.152344-.335938-.308594-.652343-.625-1.292969-.960937-1.933593-.632813-1.230469-1.285157-2.445313-1.980469-3.644532-.152344-.300781-.316407-.570312-.476563-.859375-.253906-.433593-.507812-.871093-.777344-1.285156-.164062-.289063-.328124-.5625-.507812-.832031-.296875-.515625-.613281-1.015625-.949219-1.511719-.136719-.226563-.273437-.433594-.425781-.640625-.296875-.480469-.613281-.960938-.941406-1.429688-.964844-1.417968-1.988282-2.820312-3.046875-4.203124-.296875-.390626-.605469-.785157-.914063-1.167969-.296875-.386719-.59375-.757813-.910156-1.128907-.21875-.273437-.425781-.535156-.652344-.796874-.40625-.496094-.824218-.984376-1.246094-1.464844-.183593-.214844-.371093-.425782-.5625-.632813-.460937-.53125-.941406-1.050781-1.429687-1.574219-.820313-.894531-1.660156-1.769531-2.53125-2.640624-.875-.875-1.761719-1.726563-2.65625-2.546876-.507813-.472656-1.015625-.941406-1.527344-1.386718-.238281-.214844-.460937-.421875-.707031-.613282-.433594-.398437-.886719-.777343-1.347656-1.148437-.296875-.261719-.605469-.515625-.914063-.769531-.324219-.269532-.660156-.53125-.992187-.796875-.40625-.332031-.832032-.667969-1.257813-.984375-.921875-.707032-1.851562-1.402344-2.804687-2.0625-.460938-.332032-.929688-.660156-1.398438-.984375-.550781-.371094-1.097656-.734375-1.648437-1.085938-.078125-.0625-.171875-.117187-.261719-.171875-.59375-.398437-1.203125-.785156-1.824219-1.15625-.117187-.082031-.246093-.15625-.363281-.21875-.550781-.351562-1.121094-.6875-1.699219-1.011718-.1875-.117188-.378906-.234376-.570312-.335938-1.265625-.722656-2.539063-1.417969-3.824219-2.070312-.640625-.332032-1.28125-.648438-1.933594-.957032-.109375-.054687-.21875-.109375-.335937-.152344-.414063-.21875-.847657-.417968-1.285157-.597656-.59375-.289062-1.191406-.558594-1.804687-.8125-.136719-.066406-.273437-.128906-.417969-.183594-.703125-.304687-1.410156-.59375-2.125-.875-1.011718-.417968-2.050781-.804687-3.074218-1.175781-.875-.316406-1.769532-.617187-2.667969-.914062-.089844-.035157-.179688-.054688-.277344-.082031-.789063-.261719-1.574219-.507813-2.378906-.734376-.101563-.042968-.21875-.070312-.316407-.097656-.761718-.21875-1.519531-.433594-2.28125-.632812-.214843-.054688-.414062-.109375-.640624-.152344-.824219-.226562-1.652344-.425781-2.484376-.605469-.886718-.199219-1.773437-.398437-2.652343-.570312-1.148438-.226563-2.3125-.433594-3.472657-.617188-.59375-.089843-1.191406-.179687-1.78125-.261719-.421874-.0625-.839843-.117187-1.265624-.160156-2.496094-.324218-5-.535156-7.492188-.644531-.671875-.035156-1.347656-.0625-2.035156-.0625-.164063-.019531-.324219-.019531-.488282-.019531-.578124-.015625-1.167968-.023438-1.746093-.007813-.269531-.015625-.550781-.007812-.839844-.007812-.542969 0-1.09375.007812-1.636719.027343-.109375 0-.207031.007813-.316406.007813-3.699219.101563-7.078125-1.238281-9.609375-3.5 121.960937-99.589844 250.21875-137.085937 304.496094-82.808594zm0 0" fill="url(#g)"/><path d="m467.171875 467.550781c.039063-.054687.074219-.109375.109375-.160156 1.375-2.261719 2.722656-4.53125 4.035156-6.820313.414063-.722656.832032-1.445312 1.226563-2.167968 1.476562-2.613282 2.914062-5.246094 4.304687-7.90625.496094-.929688.976563-1.859375 1.457032-2.792969.015624-.035156.035156-.070313.054687-.109375.476563-.949219.949219-1.886719 1.417969-2.828125.488281-.960937.957031-1.917969 1.417968-2.882813 2.96875-6.09375 5.707032-12.273437 8.246094-18.519531.808594-1.960937 1.574219-3.925781 2.324219-5.902343.328125-.832032.636719-1.664063.941406-2.496094.316407-.84375.625-1.671875.921875-2.515625.371094-1.003907.714844-1.996094 1.070313-3 .316406-.878907.613281-1.753907.914062-2.648438.640625-1.855469 1.253907-3.734375 1.851563-5.617187.261718-.824219.523437-1.644532.777344-2.460938.136718-.441406.28125-.894531.40625-1.34375.613281-2.027344 1.210937-4.050781 1.789062-6.078125 1.3125-4.671875 2.515625-9.347656 3.601562-14.066406.207032-.859375.394532-1.71875.585938-2.578125.253906-1.121094.496094-2.234375.722656-3.347656.199219-.902344.390625-1.796875.5625-2.691406.332032-1.671876.660156-3.335938.964844-5.019532.199219-1.03125.382812-2.0625.550781-3.101562 1.175781-6.761719 2.136719-13.5625 2.851563-20.371094.097656-.859375.179687-1.71875.269531-2.585938.070313-.796874.144531-1.574218.214844-2.371093.09375-.921875.164062-1.84375.238281-2.785157.078125-1.039062.171875-2.085937.234375-3.125.125-1.792968.234375-3.566406.332031-5.34375.054688-1.03125.109375-2.0625.144532-3.09375.34375-8.066406.378906-16.132812.089843-24.195312-.035156-1.140625-.078125-2.269531-.132812-3.410156-.027344-.695313-.074219-1.390625-.101563-2.085938-.054687-.90625-.097656-1.820312-.160156-2.730468-.0625-1.042969-.136719-2.089844-.207031-3.140626-.074219-1.046874-.15625-2.085937-.246094-3.136718-.164063-1.96875-.34375-3.960938-.542969-5.929688-.117187-1.132812-.234375-2.261718-.371094-3.390625-.773437-6.90625-1.789062-13.78125-3.035156-20.617187-.183594-1.011719-.371094-2.03125-.570312-3.046875-.136719-.710938-.269532-1.425781-.414063-2.148438-.15625-.75-.308593-1.503906-.472656-2.261719-.714844-3.425781-1.472656-6.84375-2.3125-10.253906-.417969-1.71875-.84375-3.425781-1.285156-5.136718-1.511719-5.722657-3.183594-11.425782-5.019531-17.078126-.316407-.988281-.640626-1.964843-.976563-2.949218-3.527344-10.507813-7.640625-20.859375-12.339844-31.003906-.308593-.667969-.617187-1.335938-.933593-1.996094-4.386719-9.289063-9.257813-18.410156-14.628907-27.324219-.523437-.871094-1.058593-1.746094-1.59375-2.605469-.460937-.75-.921875-1.5-1.390625-2.242187-.390625-.625-.777344-1.230469-1.167968-1.855469-.503907-.777344-1.011719-1.570312-1.527344-2.359375-.425782-.660156-.859375-1.308594-1.300782-1.96875-2.777343-4.207031-5.679687-8.355469-8.699218-12.460937-1.210938-1.644532-2.441406-3.273438-3.6875-4.902344-.761719-.992188-1.53125-1.976563-2.308594-2.972656-.6875-.867188-1.375-1.738282-2.070312-2.597657-.542969-.6875-1.09375-1.363281-1.652344-2.03125-.488282-.597656-.980469-1.195312-1.464844-1.792969-.652344-.777343-1.304688-1.554687-1.972656-2.332031-.707032-.832031-1.410156-1.664062-2.125-2.488281-.867188-.992188-1.746094-1.996094-2.632813-2.992188-.765625-.875-1.554687-1.734374-2.339843-2.59375-.460938-.515624-.921876-1.03125-1.402344-1.527343-.542969-.597657-1.074219-1.1875-1.628906-1.773438-.804688-.859375-1.617188-1.707031-2.441407-2.566406-1.554687-1.628906-3.125-3.238281-4.726562-4.839844 54.277343 54.277344 16.78125 182.539063-82.816407 304.503907 2.625 2.910156 6.449219 4.710937 10.699219 4.585937.160157 0 .332031-.011719.496094-.011719.414063-.015625.839844-.027344 1.265625-.015625.589844-.011719 1.183594-.011719 1.761719.007813.183593-.019532.363281-.019532.535156-.007813.894531.007813 1.808594.035157 2.703125.078125.949219.027344 1.890625.082032 2.847656.15625.957032.070313 1.910156.152344 2.847656.261719.859376.082031 1.71875.179687 2.558594.296875.183594.019531.363282.035156.535156.0625.859376.117188 1.726563.246094 2.574219.390625.953125.152344 1.890625.316406 2.824219.503906.042969.011719.089844.019531.125.019531.886719.179688 1.78125.371094 2.675781.578126.878907.191406 1.738281.398437 2.597657.625.144531.035156.277343.0625.414062.105468.824219.210938 1.644531.433594 2.460938.6875.0625.011719.132812.027344.1875.046875.84375.242188 1.671874.496094 2.496093.777344 2.082031.671875 4.132813 1.402344 6.160157 2.234375.605468.226562 1.199218.480469 1.789062.742188.253906.089843.496094.207031.730469.316406.488281.199218.976562.414062 1.457031.640625.496094.226562.996094.453125 1.472656.695312 1.476563.699219 2.921875 1.4375 4.359375 2.226563.34375.179687.695313.371094 1.03125.578125.496094.261719.996094.542969 1.484375.832031.289063.160156.566406.332031.839844.515625.453125.25.886719.523437 1.320312.792969.398438.238281.785157.480468 1.15625.742187.363282.21875.714844.445313 1.066407.6875.382812.234375.742187.488281 1.113281.734375.578125.398438 1.167969.804688 1.746094 1.238282.867187.597656 1.71875 1.230468 2.558594 1.890624.335937.242188.667968.503907.996093.777344.449219.34375.894531.695313 1.328125 1.058594.234375.179688.460938.371094.679688.570312.511718.421876 1.03125.847657 1.527344 1.292969.214843.179688.414062.359375.621093.550781.535157.460938 1.058594.949219 1.574219 1.429688.894531.824219 1.773438 1.664062 2.640625 2.53125.605469.605469 1.195313 1.210938 1.773437 1.824219.296876.316406.59375.632812.886719.960937.441407.460938.875.949219 1.300781 1.429688.558594.613281 1.101563 1.246094 1.628907 1.878906.1875.226562.378906.453125.566406.675781.390625.480469.769531.953125 1.148437 1.4375.234376.289063.460938.570313.679688.859375.234375.308594.480469.625.703125.941406.328125.417969.644531.84375.953125 1.277344.460938.621094.910156 1.253906 1.355469 1.898438.359375.503906.695312 1.003906 1.03125 1.519531.621093.945313 1.230469 1.894531 1.816406 2.863281.378906.617188.75 1.238282 1.101563 1.863282.082031.117187.144531.234374.210937.351562.195313.324219.378906.652344.550781.96875.324219.578125.648438 1.15625.949219 1.746094.332031.605468.652344 1.226562.957031 1.84375.199219.398437.398438.792968.589844 1.203125.269531.523437.523438 1.066406.757812 1.609375.597657 1.246094 1.128907 2.503906 1.644532 3.777344.253906.597656.488281 1.195312.722656 1.789062.597656 1.539062 1.160156 3.09375 1.65625 4.65625.042969.136719.097656.28125.144531.417969 3.554688 11.054687 18.546875 12.738281 24.683594 2.945312zm0 0" fill="url(#h)"/><path d="m99.285156 384.75-36.769531 36.765625c-5.523437 5.527344-14.449219 6.269531-20.464844 1.285156-6.902343-5.714843-7.261719-16.007812-1.070312-22.199219l21.046875-21.042968c7.015625-7.019532 7.679687-18.445313 1.015625-25.796875-7.117188-7.859375-19.320313-8.085938-26.730469-.675781l-20.773438 20.777343c-20.539062 20.535157-20.894531 54.507813-.007812 74.6875 20.285156 19.605469 52.738281 19.394531 72.765625-.632812l37.078125-37.078125c6.1875-6.1875 6.1875-16.214844 0-22.402344l-3.6875-3.6875c-6.1875-6.1875-16.21875-6.1875-22.402344 0zm0 0" fill="url(#i)"/></svg>