<svg height="512pt" viewBox="0 -50 512.00251 512" width="512pt" xmlns="http://www.w3.org/2000/svg" xmlns:xlink="http://www.w3.org/1999/xlink"><radialGradient id="a" cx="187.5662324182" cy="3.8048821274" gradientUnits="userSpaceOnUse" r="430.3544562904"><stop offset="0" stop-color="#a4508b"/><stop offset=".328" stop-color="#a14d8c"/><stop offset=".5737" stop-color="#974490"/><stop offset=".7918" stop-color="#873497"/><stop offset=".994" stop-color="#711ea0"/><stop offset="1" stop-color="#701da0"/></radialGradient><linearGradient id="b" gradientUnits="userSpaceOnUse" x1="295.4354426898" x2="240.653527386" y1="375.862190231" y2="180.9649896234"><stop offset="0" stop-color="#701da0" stop-opacity="0"/><stop offset="1" stop-color="#2f004e"/></linearGradient><radialGradient id="c" cx="217.1095" cy="211.7427" gradientTransform="matrix(1.003922 0 0 .691802 .000373 16.250776)" gradientUnits="userSpaceOnUse" r="329.7748"><stop offset="0" stop-color="#ffb211"/><stop offset=".3268" stop-color="#fcb014"/><stop offset=".5445" stop-color="#f4aa1d"/><stop offset=".7304" stop-color="#e5a02c"/><stop offset=".8975" stop-color="#d19141"/><stop offset="1" stop-color="#c08552"/></radialGradient><linearGradient id="d"><stop offset="0" stop-color="#ff4b3e" stop-opacity="0"/><stop offset=".1177" stop-color="#f5493b" stop-opacity=".117647"/><stop offset=".3191" stop-color="#da4332" stop-opacity=".317647"/><stop offset=".5796" stop-color="#ad3923" stop-opacity=".580392"/><stop offset=".886" stop-color="#702c0f" stop-opacity=".886275"/><stop offset="1" stop-color="#582707"/></linearGradient><linearGradient id="e" gradientUnits="userSpaceOnUse" x1="44.3528438224" x2="57.521589873" xlink:href="#d" y1="266.090346985" y2="310.8640634786"/><linearGradient id="f" gradientUnits="userSpaceOnUse" x1="101.4428761964" x2="100.3893604496" xlink:href="#d" y1="270.59042735" y2="333.800368236"/><linearGradient id="g" gradientUnits="userSpaceOnUse" x1="165.4785429274" x2="171.799537016" xlink:href="#d" y1="283.1422633316" y2="331.6031845468"/><linearGradient id="h" gradientUnits="userSpaceOnUse" x1="227.6428990504" x2="237.6511982528" xlink:href="#d" y1="286.1919775832" y2="334.6528987984"/><linearGradient id="i" gradientUnits="userSpaceOnUse" x1="288.1468685776" x2="327.6530063372" xlink:href="#d" y1="276.1915089724" y2="344.6689282002"/><linearGradient id="j" gradientUnits="userSpaceOnUse" x1="356.8397294666" x2="380.0166743274" xlink:href="#d" y1="281.7047474198" y2="323.317916673"/><linearGradient id="k" gradientUnits="userSpaceOnUse" x1="411.172188891" x2="439.6166120936" xlink:href="#d" y1="261.9257773524" y2="320.9216552512"/><linearGradient id="l" gradientUnits="userSpaceOnUse" x1="473.5547976568" x2="505.1597680998" xlink:href="#d" y1="253.4304889962" y2="311.8996090216"/><linearGradient id="m" gradientUnits="userSpaceOnUse" x1="247.4477703054" x2="37.2853333346" y1="179.0921731324" y2="-193.8276043614"><stop offset=".0013" stop-color="#e7eeed" stop-opacity="0"/><stop offset=".7731" stop-color="#f9fbfa" stop-opacity=".772549"/><stop offset="1" stop-color="#fff"/></linearGradient><linearGradient id="n" gradientUnits="userSpaceOnUse" x1="269.695986924" x2="214.903932008" xlink:href="#d" y1="122.814614833" y2="122.814614833"/><linearGradient id="o" gradientTransform="matrix(.811269 .59131 -.59131 .811269 135.073101 -169.346714)" gradientUnits="userSpaceOnUse" x1="249.4368" x2="194.8588" xlink:href="#d" y1="179.1694" y2="179.1694"/><linearGradient id="p" gradientUnits="userSpaceOnUse" x1="296.5019090304" x2="273.3249641696" xlink:href="#d" y1="109.1017430584" y2="140.7067135014"/><linearGradient id="q" gradientUnits="userSpaceOnUse" x1="319.7271425394" x2="243.3484556028" xlink:href="#d" y1="150.4161451244" y2="33.4779050736"/><radialGradient id="r" cx="234.4532047218" cy="26.9462881494" gradientUnits="userSpaceOnUse" r="91.3602149426"><stop offset="0" stop-color="#ff4b3e"/><stop offset=".4462" stop-color="#fd4a3d"/><stop offset=".6069" stop-color="#f64939"/><stop offset=".7215" stop-color="#eb4533"/><stop offset=".8141" stop-color="#da412a"/><stop offset=".8935" stop-color="#c43a1f"/><stop offset=".9625" stop-color="#a93311"/><stop offset="1" stop-color="#972e07"/></radialGradient><linearGradient id="s" gradientUnits="userSpaceOnUse" x1="249.7599030636" x2="289.9965948626" y1="29.8521403784" y2="29.8521403784"><stop offset="0" stop-color="#ff4b3e"/><stop offset=".1888" stop-color="#fb4a3c"/><stop offset=".3876" stop-color="#ee4635"/><stop offset=".5911" stop-color="#d9402a"/><stop offset=".7963" stop-color="#bc381a"/><stop offset="1" stop-color="#972e07"/></linearGradient><linearGradient id="t" gradientUnits="userSpaceOnUse" x1="256.0005797684" x2="256.0005797684" y1="49.3130720104" y2="65.0999462448"><stop offset="0" stop-color="#be3f45" stop-opacity="0"/><stop offset="1" stop-color="#be3f45"/></linearGradient><path d="m418.617188 389.34375c-106.246094 30.644531-218.988282 30.644531-325.230469 0-14.824219-4.277344-26.628907-15.519531-31.621094-30.117188l-42.300781-123.660156h473.074218l-42.300781 123.660156c-4.996093 14.597657-16.796875 25.839844-31.621093 30.117188zm0 0" fill="url(#a)"/><path d="m418.617188 389.34375c14.824218-4.277344 26.628906-15.519531 31.621093-30.117188l42.300781-123.660156h-473.078124l14.261718 41.691406 6.136719 13.417969 112.398437 112.394531c88.398438 15.878907 179.546876 11.3125 266.359376-13.726562zm0 0" fill="url(#b)"/><path d="m503.019531 225.621094c-4.855469-5.941406-8.570312-12.730469-10.511719-20.15625-18.03125-68.921875-117.046874-121.628906-236.507812-121.628906s-218.476562 52.707031-236.503906 121.625c-1.941406 7.425781-5.65625 14.214843-10.515625 20.160156-6.382813 7.804687-9.863281 18.074218-8.789063 29.167968 1.84375 19.027344 17.351563 34.238282 36.40625 35.753907 8.035156.640625 15.621094-1.109375 22.121094-4.609375 4.804688-2.585938 10.65625-1.589844 14.480469 2.300781 7.230469 7.359375 17.289062 11.921875 28.417969 11.921875 7.339843 0 14.21875-1.984375 20.125-5.449219 4.609374-2.699219 10.46875-2.335937 14.359374 1.320313 7.128907 6.699218 16.714844 10.800781 27.269532 10.800781 7.296875 0 14.132812-1.960937 20.015625-5.386719 4.671875-2.71875 10.632812-1.964844 14.589843 1.722656 7.113282 6.628907 16.65625 10.6875 27.148438 10.6875 8.820312 0 16.972656-2.867187 23.574219-7.71875 4.367187-3.210937 10.238281-3.210937 14.605469 0 6.601562 4.851563 14.753906 7.71875 23.574218 7.71875 10.492188 0 20.035156-4.058593 27.148438-10.6875 3.957031-3.6875 9.917968-4.441406 14.589844-1.722656 5.882812 3.425782 12.71875 5.386719 20.015624 5.386719 10.550782 0 20.140626-4.105469 27.269532-10.800781 3.890625-3.65625 9.75-4.019532 14.359375-1.320313 5.90625 3.464844 12.785156 5.449219 20.125 5.449219 11.128906 0 21.1875-4.5625 28.417969-11.921875 3.824218-3.890625 9.675781-4.890625 14.480468-2.300781 6.5 3.503906 14.085938 5.25 22.121094 4.609375 19.054688-1.515625 34.5625-16.726563 36.40625-35.753907 1.070312-11.09375-2.410156-21.363281-8.792969-29.167968zm0 0" fill="url(#c)"/><path d="m79.71875 250.816406c0 22.011719-17.84375 39.859375-39.859375 39.859375-22.011719 0-39.859375-17.847656-39.859375-39.859375 0-22.015625 17.847656-39.859375 39.859375-39.859375 22.015625 0 39.859375 17.84375 39.859375 39.859375zm0 0" fill="url(#e)"/><path d="m141.472656 260.296875c0 22.011719-17.84375 39.859375-39.859375 39.859375-22.011719 0-39.859375-17.847656-39.859375-39.859375 0-22.015625 17.847656-39.859375 39.859375-39.859375 22.015625 0 39.859375 17.84375 39.859375 39.859375zm0 0" fill="url(#f)"/><path d="m203.226562 266.96875c0 22.011719-17.84375 39.859375-39.859374 39.859375-22.011719 0-39.859376-17.847656-39.859376-39.859375 0-22.015625 17.847657-39.859375 39.859376-39.859375 22.015624 0 39.859374 17.84375 39.859374 39.859375zm0 0" fill="url(#g)"/><path d="m264.984375 273.992188c0 22.011718-17.847656 39.859374-39.863281 39.859374-22.011719 0-39.859375-17.847656-39.859375-39.859374 0-22.015626 17.847656-39.859376 39.859375-39.859376 22.015625 0 39.863281 17.84375 39.863281 39.859376zm0 0" fill="url(#h)"/><path d="m326.738281 273.992188c0 22.011718-17.847656 39.859374-39.859375 39.859374-22.015625 0-39.859375-17.847656-39.859375-39.859374 0-22.015626 17.84375-39.859376 39.859375-39.859376 22.011719 0 39.859375 17.84375 39.859375 39.859376zm0 0" fill="url(#i)"/><path d="m388.492188 266.96875c0 22.011719-17.847657 39.859375-39.859376 39.859375-22.015624 0-39.859374-17.847656-39.859374-39.859375 0-22.015625 17.84375-39.859375 39.859374-39.859375 22.011719 0 39.859376 17.84375 39.859376 39.859375zm0 0" fill="url(#j)"/><path d="m450.246094 260.296875c0 22.011719-17.847656 39.859375-39.859375 39.859375-22.015625 0-39.859375-17.847656-39.859375-39.859375 0-22.015625 17.84375-39.859375 39.859375-39.859375 22.011719 0 39.859375 17.84375 39.859375 39.859375zm0 0" fill="url(#k)"/><path d="m512 250.816406c0 22.011719-17.84375 39.859375-39.859375 39.859375s-39.859375-17.847656-39.859375-39.859375c0-22.015625 17.84375-39.859375 39.859375-39.859375s39.859375 17.84375 39.859375 39.859375zm0 0" fill="url(#l)"/><path d="m460.757812 194.269531c0-54.332031-91.675781-98.378906-204.757812-98.378906s-204.753906 44.046875-204.753906 98.378906 91.671875 98.375 204.753906 98.375 204.757812-44.042969 204.757812-98.375zm0 0" fill="url(#m)"/><path d="m272.546875 128.605469c0 9.136719-7.410156 16.546875-16.546875 16.546875s-16.546875-7.410156-16.546875-16.546875 7.410156-28.128907 16.546875-28.128907 16.546875 18.992188 16.546875 28.128907zm0 0" fill="url(#n)"/><path d="m230.394531 129.867188c-5.382812 7.382812-15.730469 9.007812-23.117187 3.625-7.382813-5.382813-9.007813-15.734376-3.625-23.117188 5.382812-7.382812 22.554687-18.367188 29.941406-12.984375 7.382812 5.378906 2.183594 25.089844-3.199219 32.476563zm0 0" fill="url(#o)"/><path d="m281.605469 129.867188c5.382812 7.382812 15.730469 9.007812 23.117187 3.625 7.382813-5.382813 9.007813-15.734376 3.625-23.117188-5.382812-7.382812-22.554687-18.367188-29.9375-12.984375-7.386718 5.378906-2.1875 25.089844 3.195313 32.476563zm0 0" fill="url(#p)"/><path d="m293.59375 85.609375c-12.246094-1.164063-24.800781-1.773437-37.59375-1.773437-12.839844 0-25.441406.609374-37.734375 1.785156 2.320313 5.453125 5.785156 10.320312 10.101563 14.28125l123.425781 123.425781c7.160156 7.769531 17.261719 12.800781 28.472656 13.234375 17.640625.683594 32.914063-9.792969 39.347656-24.933594zm0 0" fill="url(#q)"/><path d="m296.734375 65.34375c-1.585937-14.875-16.171875-24.925781-30.671875-21.261719-3.21875.816407-6.589844 1.246094-10.0625 1.246094s-6.84375-.429687-10.0625-1.246094c-14.515625-3.667969-29.105469 6.414063-30.675781 21.308594-.203125 1.921875-.273438 3.882813-.203125 5.875.777344 21.253906 18.058594 38.582031 39.3125 39.40625 23.367187.90625 42.597656-17.769531 42.597656-40.9375 0-1.484375-.078125-2.949219-.234375-4.390625zm0 0" fill="url(#r)"/><path d="m256.425781 59.703125c-3.359375 0-6.214843-2.570313-6.503906-5.980469-1.203125-14.261718 3.808594-43.765625 31.386719-53.355468 3.410156-1.1875 7.136718.613281 8.324218 4.023437 1.183594 3.414063-.617187 7.136719-4.027343 8.324219-10.242188 3.5625-17.15625 11.136718-20.550781 22.519531-2.714844 9.109375-2.109376 17.324219-2.101563 17.40625.28125 3.59375-2.394531 6.746094-5.984375 7.039063-.183594.015624-.363281.023437-.542969.023437zm0 0" fill="url(#s)"/><path d="m272.488281 52.542969c0-4.585938-7.382812-8.304688-16.488281-8.304688s-16.488281 3.71875-16.488281 8.304688c0 4.585937 7.382812 8.300781 16.488281 8.300781s16.488281-3.714844 16.488281-8.300781zm0 0" fill="url(#t)"/></svg>