<svg height="512pt" viewBox="-76 0 512 512.00003" width="512pt" xmlns="http://www.w3.org/2000/svg" xmlns:xlink="http://www.w3.org/1999/xlink"><linearGradient id="a" gradientTransform="matrix(-.901421 -.441926 .441926 -.901421 583.922056 958.549233)" gradientUnits="userSpaceOnUse" x1="645.4268" x2="595.973" y1="329.0233" y2="329.0233"><stop offset="0" stop-color="#ffe548"/><stop offset=".9688" stop-color="#97a03b"/></linearGradient><linearGradient id="b"><stop offset="0" stop-color="#97a03b" stop-opacity="0"/><stop offset="1" stop-color="#575c55"/></linearGradient><linearGradient id="c" gradientTransform="matrix(-.938365 -.357095 .357095 -.938365 453.469977 822.229534)" gradientUnits="userSpaceOnUse" x1="425.5793" x2="436.3222" xlink:href="#b" y1="323.8314" y2="266.9335"/><linearGradient id="d"><stop offset="0" stop-color="#97a03b"/><stop offset="1" stop-color="#6c7d47"/></linearGradient><linearGradient id="e" gradientUnits="userSpaceOnUse" x1="158.3164338978" x2="205.587707543" xlink:href="#d" y1="341.389197671" y2="341.389197671"/><linearGradient id="f" gradientUnits="userSpaceOnUse" x1="245.6439945586" x2="197.252143177" y1="323.1221341356" y2="274.730282754"><stop offset="0" stop-color="#575c55" stop-opacity="0"/><stop offset="1" stop-color="#575c55"/></linearGradient><linearGradient id="g"><stop offset="0" stop-color="#ffe548"/><stop offset=".2472" stop-color="#ffe042"/><stop offset=".5621" stop-color="#ffd133"/><stop offset=".9123" stop-color="#ffb919"/><stop offset="1" stop-color="#ffb211"/></linearGradient><linearGradient id="h" gradientUnits="userSpaceOnUse" x1="143.531774996" x2="193.3360442394" xlink:href="#g" y1="62.5524723682" y2="62.5524723682"/><linearGradient id="i" gradientTransform="matrix(-1.003922 0 0 -1.003922 436.458024 187.242315)" gradientUnits="userSpaceOnUse" x1="254.7195" x2="304.3291" xlink:href="#g" y1="-74.1861" y2="-74.1861"/><linearGradient id="j" gradientTransform="matrix(0 1.003922 -1.003922 0 436.457924 0)" gradientUnits="userSpaceOnUse" x1="142.9712" x2="192.5809" xlink:href="#g" y1="174.0562" y2="174.0562"/><linearGradient id="k" gradientTransform="matrix(0 -1.003922 1.003922 0 249.215609 512.0001)" gradientUnits="userSpaceOnUse" x1="329.9662" x2="379.5759" xlink:href="#g" y1="-185.9343" y2="-185.9343"/><linearGradient id="l" gradientTransform="matrix(.967278 .26875 -.26875 .967278 2.32188 -59.181779)" gradientUnits="userSpaceOnUse" x1="193.8577" x2="243.4674" xlink:href="#g" y1="70.6048" y2="70.6048"/><linearGradient id="m" gradientTransform="matrix(-.967278 -.26875 .26875 -.967278 445.521127 258.273983)" gradientUnits="userSpaceOnUse" x1="279.0797" x2="328.6894" xlink:href="#g" y1="-82.4828" y2="-82.4828"/><linearGradient id="n" gradientTransform="matrix(-.26875 .967278 -.967278 -.26875 495.639703 77.863956)" gradientUnits="userSpaceOnUse" x1="151.2679" x2="200.8776" xlink:href="#g" y1="198.4165" y2="198.4165"/><linearGradient id="o" gradientTransform="matrix(.26875 -.967278 .967278 .26875 178.183941 521.063203)" gradientUnits="userSpaceOnUse" x1="321.6695" x2="371.2792" xlink:href="#g" y1="-210.2946" y2="-210.2946"/><linearGradient id="p" gradientTransform="matrix(.86006 .517823 -.517823 .86006 93.185617 -95.362409)" gradientUnits="userSpaceOnUse" x1="172.6071" x2="222.2167" xlink:href="#g" y1="85.1192" y2="85.1192"/><linearGradient id="q" gradientTransform="matrix(-.86006 -.517823 .517823 -.86006 435.240569 329.139802)" gradientUnits="userSpaceOnUse" x1="300.3304" x2="349.94" xlink:href="#g" y1="-96.9972" y2="-96.9972"/><linearGradient id="r" gradientTransform="matrix(-.517823 .86006 -.86006 -.517823 531.820333 168.727693)" gradientUnits="userSpaceOnUse" x1="165.7824" x2="215.392" xlink:href="#g" y1="219.6672" y2="219.6672"/><linearGradient id="s" gradientTransform="matrix(.517823 -.86006 .86006 .517823 107.318122 510.782645)" gradientUnits="userSpaceOnUse" x1="307.1551" x2="356.7648" xlink:href="#g" y1="-231.5452" y2="-231.5452"/><linearGradient id="t" gradientTransform="matrix(.690096 .729148 -.729148 .690096 190.418332 -105.901678)" gradientUnits="userSpaceOnUse" x1="156.0169" x2="205.6265" xlink:href="#g" y1="104.7921" y2="104.7921"/><linearGradient id="u" gradientTransform="matrix(-.690096 -.729148 .729148 -.690096 406.36678 394.668072)" gradientUnits="userSpaceOnUse" x1="316.9206" x2="366.5302" xlink:href="#g" y1="-116.6702" y2="-116.6702"/><linearGradient id="v" gradientTransform="matrix(-.729148 .690096 -.690096 -.729148 542.359602 265.960408)" gradientUnits="userSpaceOnUse" x1="185.4553" x2="235.0649" xlink:href="#g" y1="236.2574" y2="236.2574"/><linearGradient id="w" gradientTransform="matrix(.729148 -.690096 .690096 .729148 41.789852 481.908856)" gradientUnits="userSpaceOnUse" x1="287.4822" x2="337.0919" xlink:href="#g" y1="-248.1354" y2="-248.1354"/><linearGradient id="x" gradientTransform="matrix(.469735 .887266 -.887266 .469735 286.924208 -90.030281)" gradientUnits="userSpaceOnUse" x1="145.2978" x2="194.9075" xlink:href="#g" y1="128.1879" y2="128.1879"/><linearGradient id="y" gradientTransform="matrix(-.469735 -.887266 .887266 -.469735 361.006793 450.076712)" gradientUnits="userSpaceOnUse" x1="327.6396" x2="377.2493" xlink:href="#g" y1="-140.0659" y2="-140.0659"/><linearGradient id="z" gradientTransform="matrix(-.887266 .469735 -.469735 -.887266 526.488205 362.466284)" gradientUnits="userSpaceOnUse" x1="208.851" x2="258.4607" xlink:href="#g" y1="246.9764" y2="246.9764"/><linearGradient id="A" gradientTransform="matrix(.887266 -.469735 .469735 .887266 -13.618788 436.548869)" gradientUnits="userSpaceOnUse" x1="264.0865" x2="313.6961" xlink:href="#g" y1="-258.8545" y2="-258.8545"/><linearGradient id="B" gradientTransform="matrix(.21514 .980631 -.980631 .21514 375.660333 -48.906541)" gradientUnits="userSpaceOnUse" x1="141.2322" x2="190.8418" xlink:href="#g" y1="153.5991" y2="153.5991"/><linearGradient id="C" gradientTransform="matrix(-.21514 -.980631 .980631 -.21514 302.470837 491.322127)" gradientUnits="userSpaceOnUse" x1="331.7053" x2="381.3149" xlink:href="#g" y1="-165.4771" y2="-165.4771"/><linearGradient id="D" gradientTransform="matrix(-.980631 .21514 -.21514 -.980631 485.364465 451.202409)" gradientUnits="userSpaceOnUse" x1="234.2622" x2="283.8719" xlink:href="#g" y1="251.0421" y2="251.0421"/><linearGradient id="E" gradientTransform="matrix(.980631 -.21514 .21514 .980631 -54.864203 378.012913)" gradientUnits="userSpaceOnUse" x1="238.6753" x2="288.2849" xlink:href="#g" y1="-262.9201" y2="-262.9201"/><linearGradient id="F" gradientUnits="userSpaceOnUse" x1="250.2906475356" x2="81.916062246" y1="250.290805586" y2="81.9162202964"><stop offset="0" stop-color="#ffb211" stop-opacity="0"/><stop offset=".1784" stop-color="#ff931e" stop-opacity=".176471"/><stop offset=".3999" stop-color="#ff742c" stop-opacity=".4"/><stop offset=".6151" stop-color="#ff5d36" stop-opacity=".615686"/><stop offset=".8191" stop-color="#ff503c" stop-opacity=".819608"/><stop offset="1" stop-color="#ff4b3e"/></linearGradient><radialGradient id="G" cx="131.9331629534" cy="88.9500993972" gradientUnits="userSpaceOnUse" r="204.2502399206"><stop offset="0" stop-color="#ffb211"/><stop offset=".2714" stop-color="#fdaf11"/><stop offset=".4402" stop-color="#f6a710"/><stop offset=".581" stop-color="#eb980f"/><stop offset=".7063" stop-color="#db840d"/><stop offset=".8214" stop-color="#c6690b"/><stop offset=".9275" stop-color="#ac4909"/><stop offset="1" stop-color="#972e07"/></radialGradient><linearGradient id="H"><stop offset="0" stop-color="#972e07" stop-opacity="0"/><stop offset=".2637" stop-color="#932e07" stop-opacity=".262745"/><stop offset=".5084" stop-color="#882c07" stop-opacity=".509804"/><stop offset=".7455" stop-color="#752a07" stop-opacity=".745098"/><stop offset=".9768" stop-color="#5b2707" stop-opacity=".976471"/><stop offset="1" stop-color="#582707"/></linearGradient><linearGradient id="I" gradientUnits="userSpaceOnUse" x1="91.5377510862" x2="274.4971144074" xlink:href="#H" y1="109.9361852774" y2="245.2151767384"/><linearGradient id="J" gradientUnits="userSpaceOnUse" x1="104.8510619048" x2="253.3080354988" xlink:href="#H" y1="119.7800420562" y2="229.5481707908"/><linearGradient id="K" gradientTransform="matrix(0 1.003922 1.003922 0 -69.518547 -6.023529)" gradientUnits="userSpaceOnUse" x1="97.1803" x2="279.4249" xlink:href="#H" y1="178.7535" y2="313.504"/><linearGradient id="L" gradientTransform="matrix(0 1.003922 1.003922 0 -69.518547 -6.023529)" gradientUnits="userSpaceOnUse" x1="110.4417" x2="258.3186" xlink:href="#H" y1="188.5589" y2="297.8982"/><linearGradient id="M" gradientUnits="userSpaceOnUse" x1="185.4458196726" x2="202.483580719" y1="446.081697558" y2="560.8032778328"><stop offset="0" stop-color="#c08552"/><stop offset="1" stop-color="#895738"/></linearGradient><linearGradient id="N" gradientTransform="matrix(.987558 .180505 -.180505 .987558 -2321.364821 961.731162)" gradientUnits="userSpaceOnUse" x1="2417.1565" x2="2472.0361" y1="-1055.6323" y2="-990.6209"><stop offset="0" stop-color="#acc130"/><stop offset="1" stop-color="#97a03b"/></linearGradient><linearGradient id="O" gradientTransform="matrix(.987558 .180505 -.180505 .987558 -2321.364821 961.731162)" gradientUnits="userSpaceOnUse" x1="2450.6587" x2="2400.4224" xlink:href="#b" y1="-1023.363" y2="-1068.1113"/><linearGradient id="P" gradientTransform="matrix(.987558 .180505 -.180505 .987558 -2321.364821 961.731162)" gradientUnits="userSpaceOnUse" x1="2405.8779" x2="2418.9646" xlink:href="#d" y1="-1053.1376" y2="-1036.2515"/><path d="m188.527344 407.898438s-53.832032 26.375-56.820313-49.652344c-.125-3.171875 2.292969-5.867188 5.457031-6.121094 15.21875-1.222656 55.972657.570312 51.363282 55.773438zm0 0" fill="url(#a)"/><path d="m137.164062 352.125c-1.753906.140625-3.277343 1.035156-4.265624 2.339844 23.152343 28.429687 55.628906 53.4375 55.628906 53.4375 4.609375-55.207032-36.144532-57-51.363282-55.777344zm0 0" fill="url(#c)"/><path d="m179.625 485.34375-18.316406-9.117188 9.15625 4.558594-9.164063-4.542968c.140625-.285157 14.015625-28.792969 20.523438-76.351563 5.992187-43.804687 6.78125-113.261719-23.507813-195.375l19.195313-7.078125c31.914062 86.523438 30.910156 159.902344 24.445312 206.222656-7.054687 50.566406-21.710937 80.433594-22.332031 81.683594zm0 0" fill="url(#e)"/><path d="m177.511719 197.4375-19.195313 7.078125c15.5 42.027344 22.851563 80.71875 25.539063 114.371094l21.613281 21.613281c-.96875-40.339844-8.070312-89.148438-27.957031-143.0625zm0 0" fill="url(#f)"/><path d="m175.203125 125.105469h-26.132813l-5.445312-105.617188c-.546875-10.59375 7.898438-19.488281 18.511719-19.488281 10.609375 0 19.054687 8.894531 18.511719 19.488281zm0 0" fill="url(#h)"/><path d="m149.070312 199.167969h26.132813l5.445313 105.613281c.542968 10.597656-7.902344 19.492188-18.511719 19.492188-10.613281 0-19.058594-8.894532-18.511719-19.492188zm0 0" fill="url(#i)"/><path d="m199.167969 175.203125v-26.132813l105.613281-5.445312c10.597656-.546875 19.492188 7.898438 19.492188 18.511719s-8.894532 19.058593-19.492188 18.511719zm0 0" fill="url(#j)"/><path d="m125.105469 149.070312v26.132813l-105.617188 5.445313c-10.597656.542968-19.488281-7.902344-19.488281-18.511719 0-10.613281 8.894531-19.058594 19.488281-18.511719zm0 0" fill="url(#k)"/><path d="m184.636719 129.953125-25.179688-6.992187 23.023438-103.21875c2.308593-10.359376 12.828125-16.667969 23.054687-13.824219 10.222656 2.839843 15.980469 13.667969 12.617188 23.734375zm0 0" fill="url(#l)"/><path d="m139.632812 194.316406 25.179688 6.996094-23.023438 103.21875c-2.308593 10.355469-12.828124 16.664062-23.050781 13.824219-10.226562-2.839844-15.984375-13.671875-12.621093-23.734375zm0 0" fill="url(#m)"/><path d="m194.316406 184.636719 6.996094-25.179688 103.21875 23.023438c10.355469 2.308593 16.664062 12.828125 13.824219 23.054687-2.839844 10.222656-13.671875 15.980469-23.734375 12.617188zm0 0" fill="url(#n)"/><path d="m129.953125 139.632812-6.992187 25.179688-103.222657-23.023438c-10.355469-2.308593-16.664062-12.828124-13.820312-23.050781 2.839843-10.226562 13.667969-15.984375 23.730469-12.621093zm0 0" fill="url(#o)"/><path d="m192.429688 137.152344-22.386719-13.480469 49.8125-93.289063c4.996093-9.363281 16.820312-12.625 25.910156-7.148437 9.09375 5.472656 11.742187 17.445313 5.804687 26.242187zm0 0" fill="url(#p)"/><path d="m131.839844 187.121094 22.386718 13.480468-49.808593 93.289063c-5 9.359375-16.820313 12.621094-25.914063 7.148437-9.089844-5.472656-11.738281-17.449218-5.804687-26.246093zm0 0" fill="url(#q)"/><path d="m187.121094 192.429688 13.480468-22.386719 93.289063 49.8125c9.359375 4.996093 12.621094 16.820312 7.148437 25.910156-5.472656 9.09375-17.449218 11.742187-26.246093 5.804687zm0 0" fill="url(#r)"/><path d="m137.152344 131.839844-13.480469 22.386718-93.289063-49.808593c-9.363281-5-12.625-16.820313-7.148437-25.914063 5.472656-9.089844 17.445313-11.738281 26.242187-5.804687zm0 0" fill="url(#s)"/><path d="m198.011719 146.171875-17.960938-18.980469 72.960938-76.554687c7.324219-7.679688 19.585937-7.660157 26.882812.046875 7.292969 7.707031 6.640625 19.957031-1.433593 26.84375zm0 0" fill="url(#t)"/><path d="m126.257812 178.101562 17.964844 18.980469-72.964844 76.550781c-7.320312 7.683594-19.585937 7.660157-26.878906-.046874-7.296875-7.707032-6.640625-19.953126 1.429688-26.839844zm0 0" fill="url(#u)"/><path d="m178.101562 198.011719 18.980469-17.960938 76.550781 72.960938c7.683594 7.324219 7.660157 19.585937-.046874 26.882812-7.707032 7.292969-19.953126 6.640625-26.839844-1.433593zm0 0" fill="url(#v)"/><path d="m146.171875 126.257812-18.980469 17.964844-76.550781-72.964844c-7.683594-7.320312-7.660156-19.585937.046875-26.878906 7.707031-7.296875 19.953125-6.640625 26.839844 1.429688zm0 0" fill="url(#w)"/><path d="m200.976562 156.355469-12.226562-23.09375 90.792969-54.230469c9.109375-5.441406 20.921875-2.136719 25.886719 7.242188 4.964843 9.378906 1.058593 21.003906-8.5625 25.480468zm0 0" fill="url(#x)"/><path d="m123.292969 167.914062 12.230469 23.097657-90.792969 54.226562c-9.109375 5.441407-20.921875 2.140625-25.886719-7.238281s-1.058594-21.003906 8.5625-25.480469zm0 0" fill="url(#y)"/><path d="m167.914062 200.976562 23.097657-12.226562 54.226562 90.792969c5.441407 9.109375 2.140625 20.921875-7.238281 25.886719-9.378906 4.964843-21.003906 1.058593-25.480469-8.5625zm0 0" fill="url(#z)"/><path d="m156.355469 123.292969-23.09375 12.230469-54.230469-90.792969c-5.441406-9.113281-2.136719-20.921875 7.242188-25.886719 9.378906-4.964844 21.003906-1.058594 25.476562 8.5625zm0 0" fill="url(#A)"/><path d="m201.105469 166.964844-5.597657-25.527344 101.996094-27.945312c10.234375-2.808594 20.726563 3.539062 23.003906 13.902343 2.273438 10.367188-4.605468 20.519531-15.074218 22.257813zm0 0" fill="url(#B)"/><path d="m123.164062 157.308594 5.601563 25.523437-101.996094 27.949219c-10.234375 2.804688-20.730469-3.539062-23.003906-13.90625-2.273437-10.363281 4.601563-20.519531 15.070313-22.257812zm0 0" fill="url(#C)"/><path d="m157.308594 201.105469 25.523437-5.597657 27.949219 101.996094c2.804688 10.234375-3.539062 20.726563-13.90625 23.003906-10.363281 2.273438-20.519531-4.605468-22.257812-15.074218zm0 0" fill="url(#D)"/><path d="m166.964844 123.164062-25.527344 5.601563-27.945312-101.996094c-2.808594-10.234375 3.539062-20.730469 13.902343-23.003906 10.367188-2.273437 20.519531 4.601563 22.257813 15.070313zm0 0" fill="url(#E)"/><path d="m318.113281 206.328125-98.035156-98.035156c-14.445313-15.535157-35.054687-25.257813-57.941406-25.257813-43.6875 0-79.101563 35.414063-79.101563 79.101563 0 22.882812 9.722656 43.496093 25.257813 57.9375l96.523437 96.527343c5.355469-4.5 7.949219-11.863281 5.964844-19.101562l-2.914062-10.640625 4.652343 10.003906c4.476563 9.621094 16.101563 13.53125 25.480469 8.566407 9.378906-4.96875 12.683594-16.777344 7.238281-25.890626l-5.65625-9.472656 7.160157 8.394532c6.890624 8.074218 19.136718 8.726562 26.84375 1.433593 7.707031-7.296875 7.730468-19.558593.046874-26.882812l-7.988281-7.609375 9.148438 6.167968c8.796875 5.9375 20.773437 3.289063 26.246093-5.804687 5.472657-9.089844 2.210938-20.914063-7.148437-25.910156l-9.734375-5.199219 10.464844 3.496094c9.800781 3.277344 20.320312-2.097656 23.492187-11.824219zm0 0" fill="url(#F)"/><path d="m241.238281 162.136719c0 43.6875-35.417969 79.101562-79.101562 79.101562-43.6875 0-79.101563-35.414062-79.101563-79.101562s35.414063-79.101563 79.101563-79.101563c43.683593 0 79.101562 35.414063 79.101562 79.101563zm0 0" fill="url(#G)"/><path d="m213.441406 162.136719c0-43.6875-22.96875-79.101563-51.304687-79.101563-28.335938 0-51.308594 35.414063-51.308594 79.101563s22.972656 79.101562 51.308594 79.101562c28.335937 0 51.304687-35.414062 51.304687-79.101562zm0 0" fill="url(#I)"/><path d="m185.855469 162.136719c0-43.6875-10.621094-79.101563-23.71875-79.101563-13.101563 0-23.722657 35.414063-23.722657 79.101563s10.621094 79.101562 23.722657 79.101562c13.097656 0 23.71875-35.414062 23.71875-79.101562zm0 0" fill="url(#J)"/><path d="m241.238281 162.136719c0-28.335938-35.417969-51.308594-79.101562-51.308594-43.6875 0-79.101563 22.972656-79.101563 51.308594 0 28.335937 35.414063 51.304687 79.101563 51.304687 43.683593 0 79.101562-22.96875 79.101562-51.304687zm0 0" fill="url(#K)"/><path d="m241.238281 162.136719c0-13.101563-35.417969-23.71875-79.101562-23.71875-43.6875 0-79.101563 10.617187-79.101563 23.71875 0 13.101562 35.414063 23.71875 79.101563 23.71875 43.683593 0 79.101562-10.617188 79.101562-23.71875zm0 0" fill="url(#L)"/><path d="m351.886719 512h-309.324219c-9.152344 0-16.703125-7.359375-16.71875-16.511719 0-.058593 0-.113281 0-.171875 0-22.761718 8.886719-43.449218 23.382812-58.773437 5.496094-5.613281 11.65625-10.570313 18.367188-14.726563 14.882812-9.234375 32.445312-14.570312 51.25-14.570312 27.75 0 52.777344 11.601562 70.511719 30.222656 4.433593 4.652344 11.039062 6.605469 17.257812 4.9375 4.183594-1.128906 8.589844-1.726562 13.132813-1.726562 14.367187 0 27.324218 6.003906 36.511718 15.632812 4.820313 5.066406 12.175782 6.804688 18.75 4.417969 7.128907-2.585938 14.816407-4.007813 22.832032-4.007813 28.53125 0 52.886718 17.882813 62.476562 43.035156 2.25 5.914063-2.105468 12.242188-8.429687 12.242188zm0 0" fill="url(#M)"/><path d="m202.488281 403.128906s-21.625-106.867187 113.53125-77.128906c5.644531 1.242188 9.269531 6.738281 8.257813 12.425781-4.851563 27.339844-26.765625 98.230469-121.789063 64.703125zm0 0" fill="url(#N)"/><path d="m324.277344 338.425781c.558594-3.152343-.308594-6.246093-2.152344-8.585937-60.683594 27.652344-119.636719 73.289062-119.636719 73.289062 95.023438 33.527344 116.9375-37.363281 121.789063-64.703125zm0 0" fill="url(#O)"/><path d="m290.585938 360.351562c-1.113282-.066406-2.226563-.214843-3.324219-.347656-1.101563-.128906-2.195313-.253906-3.28125-.4375-1.085938-.164062-2.160157-.484375-3.214844-.78125-1.058594-.300781-2.121094-.425781-3.214844-.386718-1.085937.054687-2.171875.152343-3.308593.371093 1.234374-.867187 2.46875-1.734375 3.707031-2.605469l6.09375-4.171874c2.027343-1.402344 4.121093-2.667969 6.171875-4.042969 4.140625-2.667969 8.351562-5.160157 12.75-7.371094l-.390625-1.078125-3.574219 1.148438-1.800781.578124c-.59375.207032-1.164063.449219-1.75.675782-2.300781.953125-4.679688 1.820312-6.929688 2.886718-4.578125 2.015626-9.03125 4.25-13.507812 6.464844-.851563.449219-1.703125.898438-2.554688 1.347656.316407-.734374.574219-1.492187.710938-2.296874.191406-1.082032.367187-2.183594.691406-3.234376.304687-1.058593.664063-2.101562 1.027344-3.148437.359375-1.046875.707031-2.113281 1.132812-3.144531.757813-2.121094 1.714844-4.164063 2.636719-6.292969l-.507812-.382813c-1.742188 1.546876-3.382813 3.242188-4.871094 5.074219-.757813.90625-1.449219 1.863281-2.152344 2.820313-.652344.984375-1.308594 1.980468-1.910156 3.003906-.609375 1.019531-1.289063 2.023438-1.921875 3.054688-.609375 1.042968-1.035157 2.171874-1.21875 3.367187-.03125.234375-.0625.472656-.085938.710937-.269531 2.59375-1.835937 4.875-4.113281 6.140626l-.042969.019531c-3.96875 2.203125-7.875 4.484375-11.800781 6.753906.417969-1.046875.722656-2.070313.980469-3.097656.246093-1.066407.332031-2.128907.242187-3.226563-.085937-1.09375-.195312-2.207031-.140625-3.304687.027344-1.101563.117188-2.199219.207031-3.304688.082032-1.105469.15625-2.222656.308594-3.328125.203125-2.246094.617188-4.460937.976563-6.753906l-.589844-.246094c-1.296875 1.9375-2.460937 3.988282-3.445313 6.132813-.503906 1.070312-.933593 2.167969-1.375 3.273437-.386718 1.113282-.773437 2.242188-1.097656 3.382813-.335937 1.140625-.742187 2.28125-1.097656 3.441406-.328125 1.164063-.460938 2.359375-.335938 3.5625.0625.535156.140626 1.066406.25 1.601563.539063 2.597656-.761718 5.234374-3.078124 6.527343-1.988282 1.113281-3.976563 2.222657-5.957032 3.351563-2.507812 1.421875-4.9375 2.96875-7.300781 4.609375.339844-.910157.605469-1.800781.828125-2.699219.25-1.066406.335938-2.128906.242188-3.226562-.082032-1.09375-.191407-2.207032-.140626-3.308594.03125-1.097656.121094-2.195313.207032-3.300782.085937-1.105468.15625-2.222656.308594-3.332031.203124-2.242187.617187-4.457031.976562-6.75l-.585938-.246093c-1.300781 1.9375-2.464843 3.988281-3.449218 6.132812-.503906 1.070312-.929688 2.167969-1.375 3.269531-.382813 1.117188-.769532 2.242188-1.097656 3.386719-.332032 1.140625-.738282 2.28125-1.09375 3.441406-.332032 1.160156-.460938 2.359375-.339844 3.5625.136718 1.195313.378906 2.402344.824218 3.585938.511719 1.351562.144532 2.871094-.96875 3.792968-2.878906 2.394532-8.054687 6.757813-10.644531 9.269532-3.582031 3.523437-7.050781 7.199218-10.117187 11.417968l.667968.929688c4.96875-1.546875 9.585938-3.558594 14.09375-5.726562 4.496094-2.175782 8.855469-4.535157 13.105469-7.054688.074219-.042969.152344-.085938.226563-.132812 1.371094-.8125 3.074218-.527344 4.195312.601562.828125.832031 1.75 1.515625 2.699219 2.117188 1.03125.632812 2.167969 1.035156 3.355469 1.242187 1.199218.183594 2.402344.308594 3.578125.503906 1.167969.203125 2.351562.339844 3.523437.480469 1.1875.078125 2.363282.171875 3.546875.179688 2.359375.042968 4.710938-.117188 7.019531-.449219l.035157-.632813c-2.222657-.667968-4.398438-1.257812-6.507813-2.046875-1.0625-.34375-2.101562-.765625-3.136718-1.167969-1.03125-.398437-2.058594-.792968-3.0625-1.246093-1.011719-.429688-1.96875-1.007813-2.917969-1.5625-.949219-.554688-1.945313-.941407-3.015625-1.179688-1.160156-.238281-2.34375-.414062-3.617188-.472656 2.136719-1.460937 4.222656-2.992187 6.265625-4.589844 1.617188-1.292969 3.820313-3.011719 5.757813-4.515625 2.0625-1.597656 4.941406-1.761718 7.089844-.273437 1.046874.722656 2.195312 1.289062 3.1875 1.914062 1.03125.632813 2.164062 1.035157 3.355468 1.242188 1.199219.183593 2.402344.3125 3.578125.503906 1.167969.203125 2.351563.339844 3.523438.480469 1.1875.078125 2.363281.171875 3.546875.179687 2.359375.042969 4.710937-.117187 7.019531-.445312l.035156-.636719c-2.222656-.667969-4.398437-1.257812-6.507812-2.046875-1.066407-.34375-2.105469-.765625-3.136719-1.167969-1.03125-.398437-2.058594-.792968-3.066406-1.246094-1.011719-.425781-1.964844-1.007812-2.917969-1.5625-.949219-.554687-1.945313-.941406-3.011719-1.179687-2.042968-.421875-4.152344-.660156-6.742187-.347656 3.984375-2.882813 7.953125-5.808594 11.980469-8.625l.152343-.113281c2.410157-1.773438 5.628907-2.175782 8.308594-.847657.757813.375 1.539063.675781 2.320313.925781 1.15625.355469 2.355468.460938 3.5625.363282 1.207031-.125 2.402343-.300782 3.585937-.40625 1.183594-.097656 2.363281-.261719 3.535156-.417969 1.167969-.222656 2.328125-.429687 3.476563-.714844 2.292968-.546875 4.53125-1.292969 6.683594-2.191406l-.125-.621094c-2.316407-.09375-4.570313-.121093-6.8125-.355469zm0 0" fill="url(#P)"/></svg>