<svg height="512pt" viewBox="-113 0 512 512.00003" width="512pt" xmlns="http://www.w3.org/2000/svg" xmlns:xlink="http://www.w3.org/1999/xlink"><linearGradient id="a"><stop offset="0" stop-color="#f2e9dc"/><stop offset=".2282" stop-color="#f0e4d7"/><stop offset=".5158" stop-color="#ead7c7"/><stop offset=".8338" stop-color="#e0c2ad"/><stop offset="1" stop-color="#dab49d"/></linearGradient><linearGradient id="b" gradientUnits="userSpaceOnUse" x1="134.2533458476" x2="161.0190106818" xlink:href="#a" y1="442.6344301944" y2="556.2076240934"/><linearGradient id="c"><stop offset="0" stop-color="#f2e9dc" stop-opacity="0"/><stop offset=".0203" stop-color="#f0e5d6" stop-opacity=".019608"/><stop offset=".1698" stop-color="#e1c8ae" stop-opacity=".168627"/><stop offset=".3237" stop-color="#d5af8d" stop-opacity=".32549"/><stop offset=".4809" stop-color="#cc9d73" stop-opacity=".482353"/><stop offset=".6427" stop-color="#c58f60" stop-opacity=".643137"/><stop offset=".8117" stop-color="#c18856" stop-opacity=".811765"/><stop offset="1" stop-color="#c08552"/></linearGradient><linearGradient id="d" gradientUnits="userSpaceOnUse" x1="163.7084173276" x2="143.9355711844" xlink:href="#c" y1="514.6994650814" y2="364.715325341"/><linearGradient id="e" gradientUnits="userSpaceOnUse" x1="239.223128991" x2="274.9106486392" xlink:href="#a" y1="385.0260728918" y2="464.1174574646"/><linearGradient id="f" gradientUnits="userSpaceOnUse" x1="202.716509383" x2="148.702995978" xlink:href="#c" y1="294.9001800482" y2="194.589197338"/><linearGradient id="g" gradientUnits="userSpaceOnUse" x1=".0001618862" x2="286.4650881138" xlink:href="#a" y1="142.219606208" y2="142.219606208"/><linearGradient id="h" gradientUnits="userSpaceOnUse" x1=".0001618862" x2="286.4650881138" xlink:href="#a" y1="31.2650424538" y2="31.2650424538"/><linearGradient id="i"><stop offset="0" stop-color="#ff4b3e"/><stop offset=".221" stop-color="#fc4a40"/><stop offset=".3865" stop-color="#f24747"/><stop offset=".534" stop-color="#e24252"/><stop offset=".6709" stop-color="#cc3a61"/><stop offset=".8006" stop-color="#ae3175"/><stop offset=".9232" stop-color="#8a268e"/><stop offset="1" stop-color="#701da0"/></linearGradient><radialGradient id="j" cx="42.854981869" cy="-108.341254396" gradientUnits="userSpaceOnUse" r="393.8142052954" xlink:href="#i"/><linearGradient id="k" gradientUnits="userSpaceOnUse" x1="109.0102291186" x2="156.0310242248" xlink:href="#i" y1="-38.2984195936" y2="184.5076118296"/><linearGradient id="l" gradientUnits="userSpaceOnUse" x1="143.232625" x2="143.232625" y1="108.6648184566" y2="-29.2660329674"><stop offset="0" stop-color="#f2e9dc" stop-opacity="0"/><stop offset=".6804" stop-color="#cfa37b" stop-opacity=".682353"/><stop offset="1" stop-color="#c08552"/></linearGradient><linearGradient id="m" gradientUnits="userSpaceOnUse" x1="152.6473051238" x2="-38.8037324344" y1="131.4602729574" y2="262.4530194394"><stop offset=".0013" stop-color="#e7eeed" stop-opacity="0"/><stop offset=".361" stop-color="#eef3f2" stop-opacity=".305882"/><stop offset="1" stop-color="#fff"/></linearGradient><path d="m286.464844 480.734375c0 17.273437-64.136719 31.265625-143.230469 31.265625-79.097656 0-143.234375-13.992188-143.234375-31.265625 0-17.261719 64.136719-31.265625 143.234375-31.265625 79.09375 0 143.230469 14.003906 143.230469 31.265625zm0 0" fill="url(#b)"/><path d="m214.726562 466.988281h-142.871093c-.933594 1.015625-1.445313 2.0625-1.445313 3.136719 0 1.5.972656 2.949219 2.746094 4.324219l36.699219 36.695312c10.710937.558594 21.882812.855469 33.378906.855469 42.125 0 80.003906-3.96875 106.214844-10.289062zm0 0" fill="url(#d)"/><path d="m143.234375 0c-79.097656 0-143.234375 14.003906-143.234375 31.265625v109.957031c0 62.191406 39.652344 115.117188 95.054688 134.898438 19.015624 6.792968 31.78125 24.703125 31.78125 44.898437v98.882813c0 18.769531-13.402344 34.761718-31.832032 38.320312-15.082031 2.910156-24.59375 7.164063-24.59375 11.902344 0 8.78125 32.609375 15.898438 72.820313 15.898438 40.214843 0 72.824219-7.113282 72.824219-15.898438 0-4.738281-9.515626-8.992188-24.597657-11.902344-18.429687-3.558594-31.828125-19.550781-31.828125-38.320312v-98.882813c0-20.195312 12.765625-38.105469 31.78125-44.898437 55.398438-19.78125 95.054688-72.707032 95.054688-134.898438v-109.957031c0-17.261719-64.136719-31.265625-143.230469-31.265625zm0 0" fill="url(#e)"/><path d="m159.628906 321.015625c0-20.191406 12.765625-38.101563 31.78125-44.894531 40.671875-14.523438 72.832032-46.917969 87.070313-87.722656l-4.554688-20.171876-244.023437 3.375-21.339844 18.457032c14.523438 40.023437 46.371094 71.738281 86.492188 86.0625 1.195312.429687 2.367187.902344 3.515624 1.414062l2.222657.164063 2.035156 2.039062c7.453125 4.273438 13.53125 10.414063 17.707031 17.703125l39.09375 39.09375zm0 0" fill="url(#f)"/><path d="m286.464844 31.265625v109.957031c0 79.09375-64.136719 143.214844-143.230469 143.214844-79.097656 0-143.234375-64.121094-143.234375-143.214844v-109.957031c0-17.261719 64.136719-31.265625 143.234375-31.265625 79.09375 0 143.230469 14.003906 143.230469 31.265625zm0 0" fill="url(#g)"/><path d="m286.464844 31.265625c0 17.273437-64.136719 31.265625-143.230469 31.265625-79.097656 0-143.234375-13.992188-143.234375-31.265625 0-17.261719 64.136719-31.265625 143.234375-31.265625 79.09375 0 143.230469 14.003906 143.230469 31.265625zm0 0" fill="url(#h)"/><path d="m274.890625 123.863281v13.082031c0 72.703126-58.953125 131.644532-131.65625 131.644532-72.707031 0-131.660156-58.9375-131.660156-131.644532v-13.082031c0-15.867187 58.953125-28.738281 131.660156-28.738281 72.703125 0 131.65625 12.871094 131.65625 28.738281zm0 0" fill="url(#j)"/><path d="m274.890625 123.863281c0 15.878907-58.953125 28.738281-131.65625 28.738281-72.707031 0-131.660156-12.863281-131.660156-28.738281 0-15.867187 58.953125-28.738281 131.660156-28.738281 72.703125 0 131.65625 12.871094 131.65625 28.738281zm0 0" fill="url(#k)"/><path d="m275.8125 31.265625c0 13.589844-59.367188 24.597656-132.578125 24.597656-73.214844 0-132.582031-11.007812-132.582031-24.597656 0-13.582031 59.367187-24.597656 132.582031-24.597656 73.210937 0 132.578125 11.015625 132.578125 24.597656zm0 0" fill="url(#l)"/><path d="m167.105469.433594c-67.734375 2.484375-119.359375 15.347656-119.359375 30.832031v109.953125c0 70.964844 51.625 129.863281 119.359375 141.226562 67.734375-11.367187 119.359375-70.261718 119.359375-141.226562v-109.953125c0-15.484375-51.625-28.347656-119.359375-30.832031zm0 0" fill="url(#m)"/></svg>