<svg height="512pt" viewBox="0 0 512.00047 512" width="512pt" xmlns="http://www.w3.org/2000/svg" xmlns:xlink="http://www.w3.org/1999/xlink"><linearGradient id="a"><stop offset="0" stop-color="#dab49d"/><stop offset=".3389" stop-color="#d9b29a"/><stop offset=".5402" stop-color="#d6ad92"/><stop offset=".7054" stop-color="#d1a484"/><stop offset=".8511" stop-color="#ca9870"/><stop offset=".9827" stop-color="#c18856"/><stop offset="1" stop-color="#c08552"/></linearGradient><linearGradient id="b" gradientTransform="matrix(.709873 .709873 -.709873 .709873 -1927.3983 -160.724725)" gradientUnits="userSpaceOnUse" x1="1808.6732" x2="1854.1282" xlink:href="#a" y1="-1054.2352" y2="-1054.2352"/><radialGradient id="c" cx="1808.9543" cy="-959.5708" gradientTransform="matrix(.709873 .709873 -.709873 .709873 -1927.3983 -160.724725)" gradientUnits="userSpaceOnUse" r="74.509" xlink:href="#a"/><linearGradient id="d" gradientTransform="matrix(.709873 .709873 -.709873 .709873 256 -106.038206)" gradientUnits="userSpaceOnUse" x1="315.1299" x2="262.8229" y1="480.0715" y2="427.7644"><stop offset="0" stop-color="#c08552" stop-opacity="0"/><stop offset="1" stop-color="#c08552"/></linearGradient><linearGradient id="e"><stop offset="0" stop-color="#c08552"/><stop offset="1" stop-color="#895738"/></linearGradient><linearGradient id="f" gradientTransform="matrix(.609079 .798118 -.798118 .609079 276.574168 -96.301974)" gradientUnits="userSpaceOnUse" x1="66.2861" x2="72.7567" xlink:href="#e" y1="197.3948" y2="227.591"/><linearGradient id="g" gradientTransform="matrix(.609079 .798118 -.798118 .609079 276.574168 -96.301974)" gradientUnits="userSpaceOnUse" x1="71.0963" x2="77.567" xlink:href="#e" y1="233.2008" y2="263.3971"/><linearGradient id="h" gradientTransform="matrix(.709873 .709873 -.709873 .709873 256 -106.038206)" gradientUnits="userSpaceOnUse" x1="74.5966" x2="81.6065" xlink:href="#e" y1="237.3767" y2="262.1808"/><linearGradient id="i" gradientTransform="matrix(.709873 .709873 -.709873 .709873 256 -106.038206)" gradientUnits="userSpaceOnUse" x1="81.6065" x2="88.6163" xlink:href="#e" y1="260.5631" y2="285.3672"/><linearGradient id="j" gradientTransform="matrix(.778642 .633675 -.633675 .778642 235.880709 -114.258818)" gradientUnits="userSpaceOnUse" x1="56.4882" x2="63.498" xlink:href="#e" y1="246.3638" y2="271.1679"/><linearGradient id="k" gradientTransform="matrix(.778642 .633675 -.633675 .778642 235.880709 -114.258818)" gradientUnits="userSpaceOnUse" x1="65.8429" x2="72.8528" xlink:href="#e" y1="197.455" y2="222.2591"/><linearGradient id="l" gradientTransform="matrix(.709873 .709873 -.709873 .709873 256 -106.038206)" gradientUnits="userSpaceOnUse" x1="64.6235" x2="71.0941" xlink:href="#e" y1="181.931" y2="212.1272"/><linearGradient id="m" gradientTransform="matrix(.617713 .791391 -.791391 .617713 277.154836 -96.458184)" gradientUnits="userSpaceOnUse" x1="76.1033" x2="82.574" xlink:href="#e" y1="215.0937" y2="245.29"/><linearGradient id="n" gradientTransform="matrix(-.798118 -.609079 -.609079 .798118 366.179187 -6.696954)" gradientUnits="userSpaceOnUse" x1="-271.7536" x2="-265.2829" xlink:href="#e" y1="242.8076" y2="273.0039"/><linearGradient id="o" gradientTransform="matrix(-.798118 -.609079 -.609079 .798118 366.179187 -6.696954)" gradientUnits="userSpaceOnUse" x1="-266.9433" x2="-260.4727" xlink:href="#e" y1="278.6136" y2="308.8099"/><linearGradient id="p" gradientTransform="matrix(-.709873 -.709873 -.709873 .709873 375.91542 13.877214)" gradientUnits="userSpaceOnUse" x1="-266.4798" x2="-259.47" xlink:href="#e" y1="237.3767" y2="262.1808"/><linearGradient id="q" gradientTransform="matrix(-.709873 -.709873 -.709873 .709873 375.91542 13.877214)" gradientUnits="userSpaceOnUse" x1="-259.47" x2="-252.4601" xlink:href="#e" y1="260.5631" y2="285.3672"/><linearGradient id="r" gradientTransform="matrix(-.633675 -.778642 -.778642 .633675 384.136031 33.996505)" gradientUnits="userSpaceOnUse" x1="-282.8069" x2="-275.797" xlink:href="#e" y1="211.5502" y2="236.3543"/><linearGradient id="s" gradientTransform="matrix(-.633675 -.778642 -.778642 .633675 384.136031 33.996505)" gradientUnits="userSpaceOnUse" x1="-273.4521" x2="-266.4423" xlink:href="#e" y1="162.6414" y2="187.4455"/><linearGradient id="t" gradientTransform="matrix(-.709873 -.709873 -.709873 .709873 375.91542 13.877214)" gradientUnits="userSpaceOnUse" x1="-276.453" x2="-269.9823" xlink:href="#e" y1="181.931" y2="212.1272"/><linearGradient id="u" gradientTransform="matrix(-.791391 -.617713 -.617713 .791391 366.335398 -7.277623)" gradientUnits="userSpaceOnUse" x1="-262.4141" x2="-255.9434" xlink:href="#e" y1="256.7964" y2="286.9927"/><linearGradient id="v"><stop offset="0" stop-color="#ffe548"/><stop offset=".2472" stop-color="#ffe042"/><stop offset=".5621" stop-color="#ffd133"/><stop offset=".9123" stop-color="#ffb919"/><stop offset="1" stop-color="#ffb211"/></linearGradient><linearGradient id="w" gradientTransform="matrix(.709873 .709873 -.709873 .709873 256 -106.038206)" gradientUnits="userSpaceOnUse" x1="154.7701" x2="463.0041" xlink:href="#v" y1="169.1897" y2="487.6981"/><linearGradient id="x"><stop offset="0" stop-color="#ffb211" stop-opacity="0"/><stop offset=".1677" stop-color="#ffac13" stop-opacity=".168627"/><stop offset=".3845" stop-color="#ff9c1b" stop-opacity=".384314"/><stop offset=".6285" stop-color="#ff8226" stop-opacity=".627451"/><stop offset=".8903" stop-color="#ff5d36" stop-opacity=".890196"/><stop offset="1" stop-color="#ff4b3e"/></linearGradient><linearGradient id="y" gradientTransform="matrix(.709873 .709873 -.709873 .709873 256 -106.038206)" gradientUnits="userSpaceOnUse" x1="361.1923" x2="201.5834" xlink:href="#x" y1="244.1043" y2="-.7012"/><linearGradient id="z"><stop offset="0" stop-color="#ffb211" stop-opacity="0"/><stop offset=".1784" stop-color="#ff931e" stop-opacity=".176471"/><stop offset=".3999" stop-color="#ff742c" stop-opacity=".4"/><stop offset=".6151" stop-color="#ff5d36" stop-opacity=".615686"/><stop offset=".8191" stop-color="#ff503c" stop-opacity=".819608"/><stop offset="1" stop-color="#ff4b3e"/></linearGradient><linearGradient id="A" gradientTransform="matrix(.709873 .709873 -.709873 .709873 256 -106.038206)" gradientUnits="userSpaceOnUse" x1="230.9028" x2="200.9445" xlink:href="#z" y1="372.8757" y2="342.9174"/><linearGradient id="B" gradientTransform="matrix(.709873 .709873 -.709873 .709873 256 -106.038206)" gradientUnits="userSpaceOnUse" x1="252.6355" x2="91.2292" xlink:href="#z" y1="429.6954" y2="335.1523"/><linearGradient id="C" gradientTransform="matrix(.709873 .709873 -.709873 .709873 256 -106.038206)" gradientUnits="userSpaceOnUse" x1="192.1573" x2="163.5146" xlink:href="#z" y1="427.7979" y2="399.1552"/><linearGradient id="D" gradientTransform="matrix(.709873 .709873 -.709873 .709873 256 -106.038206)" gradientUnits="userSpaceOnUse" x1="243.7542" x2="215.5076" xlink:href="#z" y1="385.7271" y2="357.4805"/><linearGradient id="E"><stop offset="0" stop-color="#a4508b"/><stop offset=".328" stop-color="#a14d8c"/><stop offset=".5737" stop-color="#974490"/><stop offset=".7918" stop-color="#873497"/><stop offset=".994" stop-color="#711ea0"/><stop offset="1" stop-color="#701da0"/></linearGradient><linearGradient id="F" gradientTransform="matrix(.709873 .709873 -.709873 .709873 256 -106.038206)" gradientUnits="userSpaceOnUse" x1="185.0547" x2="240.055" xlink:href="#E" y1="369.2212" y2="436.0844"/><linearGradient id="G"><stop offset="0" stop-color="#701da0" stop-opacity="0"/><stop offset="1" stop-color="#2f004e"/></linearGradient><linearGradient id="H" gradientTransform="matrix(.709873 .709873 -.709873 .709873 256 -106.038206)" gradientUnits="userSpaceOnUse" x1="223.8011" x2="198.0926" xlink:href="#G" y1="382.1344" y2="356.426"/><linearGradient id="I" gradientTransform="matrix(.709873 .709873 -.709873 .709873 256 -106.038206)" gradientUnits="userSpaceOnUse" x1="239.8896" x2="205.801" xlink:href="#G" y1="396.2422" y2="362.1537"/><linearGradient id="J"><stop offset="0" stop-color="#ffb211"/><stop offset=".1645" stop-color="#ffac14"/><stop offset=".3888" stop-color="#ff9a1b"/><stop offset=".6475" stop-color="#ff7e28"/><stop offset=".9301" stop-color="#ff5639"/><stop offset="1" stop-color="#ff4b3e"/></linearGradient><linearGradient id="K" gradientTransform="matrix(0 1.003922 -1.003922 0 660.683696 16.868498)" gradientUnits="userSpaceOnUse" x1="281.679" x2="293.2872" xlink:href="#J" y1="503.493" y2="503.493"/><linearGradient id="L" gradientTransform="matrix(0 1.003922 -1.003922 0 660.683696 16.868498)" gradientUnits="userSpaceOnUse" x1="299.6418" x2="311.2499" xlink:href="#J" y1="503.493" y2="503.493"/><linearGradient id="M" gradientTransform="matrix(.709873 .709873 -.709873 .709873 256 -106.038206)" gradientUnits="userSpaceOnUse" x1="197.4807" x2="169.2093" xlink:href="#G" y1="419.5986" y2="391.3271"/><linearGradient id="N" gradientTransform="matrix(0 1.003922 -1.003922 0 660.683696 16.868498)" gradientUnits="userSpaceOnUse" x1="292.3976" x2="304.0057" xlink:href="#J" y1="569.726" y2="569.726"/><linearGradient id="O" gradientTransform="matrix(.709873 .709873 -.709873 .709873 256 -106.038206)" gradientUnits="userSpaceOnUse" x1="240.3633" x2="183.6651" xlink:href="#z" y1="441.8717" y2="385.1735"/><linearGradient id="P" gradientTransform="matrix(.709873 .709873 -.709873 .709873 256 -106.038206)" gradientUnits="userSpaceOnUse" x1="253.0649" x2="196.3667" xlink:href="#z" y1="429.1701" y2="372.4719"/><linearGradient id="Q" gradientTransform="matrix(-1.003922 0 0 -1.003922 737.023598 794.61487)" gradientUnits="userSpaceOnUse" x1="600.5651" x2="612.1732" xlink:href="#J" y1="447.8268" y2="447.8268"/><linearGradient id="R" gradientTransform="matrix(-1.003922 0 0 -1.003922 737.023598 794.61487)" gradientUnits="userSpaceOnUse" x1="618.5278" x2="630.136" xlink:href="#J" y1="447.8268" y2="447.8268"/><linearGradient id="S" gradientTransform="matrix(.709873 .709873 -.709873 .709873 256 -106.038206)" gradientUnits="userSpaceOnUse" x1="201.9438" x2="174.5622" xlink:href="#G" y1="393.2073" y2="365.8256"/><linearGradient id="T" gradientTransform="matrix(-1.003922 0 0 -1.003922 737.023598 794.61487)" gradientUnits="userSpaceOnUse" x1="611.2836" x2="622.8917" xlink:href="#J" y1="514.0598" y2="514.0598"/><linearGradient id="U" gradientTransform="matrix(.709873 .709873 -.709873 .709873 256 -106.038206)" gradientUnits="userSpaceOnUse" x1="380.897" x2="302.5305" xlink:href="#x" y1="200.9808" y2="318.1711"/><linearGradient id="V" gradientTransform="matrix(.709873 .709873 -.709873 .709873 256 -106.038206)" gradientUnits="userSpaceOnUse" x1="108.7224" x2="214.4094" xlink:href="#x" y1="180.9488" y2="318.2699"/><linearGradient id="W" gradientTransform="matrix(.709873 .709873 -.709873 .709873 256 -106.038206)" gradientUnits="userSpaceOnUse" x1="255" x2="255" xlink:href="#e" y1="169.2186" y2="119.5987"/><linearGradient id="X" gradientTransform="matrix(.709873 .709873 -.709873 .709873 360.751887 290.310632)" gradientUnits="userSpaceOnUse" x1="-128.7471" x2="-20.0328" xlink:href="#v" y1="-155.8335" y2="14.7644"/><linearGradient id="Y" gradientTransform="matrix(.709873 .709873 -.709873 .709873 360.751887 290.310632)" gradientUnits="userSpaceOnUse" x1="-159.1243" x2="-295.0183" xlink:href="#z" y1="-104.1614" y2="-97.0531"/><linearGradient id="Z" gradientTransform="matrix(.709873 .709873 -.709873 .709873 360.751887 290.310632)" gradientUnits="userSpaceOnUse" x1="-36.3039" x2="-156.4481" xlink:href="#z" y1="-110.9958" y2="-88.974"/><linearGradient id="aa" gradientTransform="matrix(.709873 .709873 -.709873 .709873 360.751887 290.310632)" gradientUnits="userSpaceOnUse" x1="-2.9589" x2="-38.5004" xlink:href="#z" y1="-104.6579" y2="-37.3381"/><linearGradient id="ab" gradientTransform="matrix(.709873 .709873 -.709873 .709873 360.751887 290.310632)" gradientUnits="userSpaceOnUse" x1="-234.608" x2="-269.1739" xlink:href="#z" y1="-110.2467" y2="-173.5245"/><linearGradient id="ac" gradientTransform="matrix(.709873 .709873 -.709873 .709873 360.751887 290.310632)" gradientUnits="userSpaceOnUse" x1="-225.3121" x2="-263.7805" xlink:href="#z" y1="-87.7142" y2="-111.4086"/><radialGradient id="ad" cx="-100.4564" cy="-156.0327" gradientTransform="matrix(.709873 .709873 -.267244 .267244 429.824301 221.238318)" gradientUnits="userSpaceOnUse" r="277.643"><stop offset="0" stop-color="#ffb211" stop-opacity="0"/><stop offset=".4471" stop-color="#ffb012" stop-opacity=".447059"/><stop offset=".6081" stop-color="#ffa915" stop-opacity=".607843"/><stop offset=".7229" stop-color="#ff9e1a" stop-opacity=".721569"/><stop offset=".8157" stop-color="#ff8d21" stop-opacity=".815686"/><stop offset=".8952" stop-color="#ff772b" stop-opacity=".894118"/><stop offset=".9643" stop-color="#ff5c37" stop-opacity=".964706"/><stop offset="1" stop-color="#ff4b3e"/></radialGradient><linearGradient id="ae" gradientTransform="matrix(.709873 .709873 -.709873 .709873 360.751887 290.310632)" gradientUnits="userSpaceOnUse" x1="-50.621" x2="-138.7082" xlink:href="#z" y1="-108.9537" y2="-295.1633"/><radialGradient id="af" cx="-126.6596" cy="-239.9103" gradientTransform="matrix(.709873 .709873 -.709873 .709873 360.751887 290.310632)" gradientUnits="userSpaceOnUse" r="124.0039"><stop offset="0" stop-color="#ffe548"/><stop offset=".5071" stop-color="#ffe346"/><stop offset=".6898" stop-color="#ffdd3f"/><stop offset=".82" stop-color="#ffd234"/><stop offset=".9245" stop-color="#ffc223"/><stop offset="1" stop-color="#ffb211"/></radialGradient><linearGradient id="ag" gradientTransform="matrix(.709873 .709873 -.709873 .709873 360.751887 290.310632)" gradientUnits="userSpaceOnUse" x1="-136.0114" x2="-242.4965" xlink:href="#z" y1="-194.385" y2="-266.3043"/><linearGradient id="ah" gradientTransform="matrix(.709873 .709873 -.709873 .709873 360.751887 290.310632)" gradientUnits="userSpaceOnUse" x1="-60.5225" x2="81.6435" xlink:href="#z" y1="-190.4662" y2="-198.829"/><linearGradient id="ai" gradientTransform="matrix(.709873 .709873 -.709873 .709873 360.751887 290.310632)" gradientUnits="userSpaceOnUse" x1="-82.4876" x2="8.3872" xlink:href="#z" y1="-189.2682" y2="-200.976"/><linearGradient id="aj" gradientTransform="matrix(.709873 .709873 -.709873 .709873 360.751887 290.310632)" gradientUnits="userSpaceOnUse" x1="-128.0098" x2="-202.1407" xlink:href="#z" y1="-204.2892" y2="-254.3566"/><radialGradient id="ak" cx="150.0706" cy="51.3948" gradientTransform="matrix(0 1.003922 -1.003922 0 440.272515 -29.709447)" gradientUnits="userSpaceOnUse" r="75.5288" xlink:href="#E"/><path d="m79.109375 465.160156-32.265625-32.269531 116.121094-116.121094 32.265625 32.265625zm0 0" fill="url(#b)"/><path d="m80.757812 471.621094c0 22.300781-18.078124 40.378906-40.378906 40.378906-22.300781 0-40.378906-18.078125-40.378906-40.378906 0-22.300782 18.078125-40.378906 40.378906-40.378906 22.300782 0 40.378906 18.078124 40.378906 40.378906zm0 0" fill="url(#c)"/><path d="m82.589844 397.140625.042968.074219v64.421875l112.597657-112.601563-32.265625-32.265625zm0 0" fill="url(#d)"/><path d="m200.289062 118.273438s-61.417968-41.910157-94.972656-59.835938c-3.882812-2.074219-2.15625-7.980469 2.234375-7.652344 22.847657 1.71875 63.273438 13.101563 92.738281 67.488282zm0 0" fill="url(#f)"/><path d="m174.640625 143.917969s-61.414063-41.910157-94.96875-59.835938c-3.882813-2.070312-2.15625-7.980469 2.234375-7.648437 22.847656 1.714844 63.269531 13.097656 92.734375 67.484375zm0 0" fill="url(#g)"/><path d="m189.839844 146.636719s-64.894532-36.296875-95.894532-58.339844c-3.589843-2.550781-8.105468 1.625-5.855468 5.410156 11.722656 19.6875 39.929687 50.796875 101.75 52.929688zm0 0" fill="url(#h)"/><path d="m178.355469 168.074219s-64.894531-36.296875-95.894531-58.34375c-3.585938-2.550781-8.105469 1.628906-5.855469 5.410156 11.722656 19.691406 39.929687 50.800781 101.75 52.933594zm0 0" fill="url(#i)"/><path d="m176.0625 139.371094s-68.261719-29.480469-101.351562-48.25c-3.824219-2.171875-7.894532 2.449218-5.269532 5.980468 13.667969 18.390626 44.902344 46.457032 106.621094 42.269532zm0 0" fill="url(#j)"/><path d="m214.339844 107.21875s-68.261719-29.484375-101.347656-48.25c-3.828126-2.171875-7.898438 2.449219-5.273438 5.980469 13.667969 18.390625 44.90625 46.457031 106.621094 42.269531zm0 0" fill="url(#k)"/><path d="m218.757812 104.625s-66.449218-33.359375-102.089843-46.65625c-4.121094-1.539062-3.199219-7.625 1.195312-7.882812 22.875-1.339844 64.453125 4.558593 100.894531 54.539062zm0 0" fill="url(#l)"/><path d="m195.285156 137.644531s-61.871094-41.234375-95.621094-58.789062c-3.902343-2.03125-2.242187-7.960938 2.148438-7.679688 22.867188 1.46875 63.414062 12.40625 93.472656 66.46875zm0 0" fill="url(#m)"/><path d="m393.726562 311.714844s41.910157 61.414062 59.835938 94.96875c2.074219 3.882812 7.980469 2.15625 7.652344-2.234375-1.71875-22.847657-13.101563-63.269531-67.488282-92.734375zm0 0" fill="url(#n)"/><path d="m368.082031 337.359375s41.910157 61.414063 59.835938 94.96875c2.074219 3.882813 7.980469 2.15625 7.652343-2.234375-1.71875-22.847656-13.101562-63.269531-67.488281-92.734375zm0 0" fill="url(#o)"/><path d="m365.363281 322.160156s36.296875 64.894532 58.34375 95.894532c2.550781 3.589843-1.628906 8.109374-5.410156 5.855468-19.691406-11.71875-50.800781-39.929687-52.933594-101.75zm0 0" fill="url(#p)"/><path d="m343.925781 333.644531s36.296875 64.894531 58.34375 95.894531c2.550781 3.589844-1.628906 8.105469-5.410156 5.855469-19.6875-11.722656-50.796875-39.929687-52.933594-101.75zm0 0" fill="url(#q)"/><path d="m372.628906 335.941406s29.484375 68.257813 48.25 101.347656c2.171875 3.828126-2.449218 7.894532-5.980468 5.269532-18.390626-13.667969-46.457032-44.902344-42.269532-106.617188zm0 0" fill="url(#r)"/><path d="m404.78125 297.664062s29.484375 68.257813 48.25 101.347657c2.171875 3.828125-2.445312 7.894531-5.980469 5.269531-18.386719-13.667969-46.457031-44.90625-42.269531-106.617188zm0 0" fill="url(#s)"/><path d="m407.375 293.242188s33.359375 66.449218 46.65625 102.089843c1.539062 4.121094 7.625 3.199219 7.882812-1.195312 1.339844-22.875-4.558593-64.453125-54.539062-100.894531zm0 0" fill="url(#t)"/><path d="m374.355469 316.714844s41.234375 61.871094 58.792969 95.621094c2.03125 3.90625 7.957031 2.242187 7.675781-2.148438-1.46875-22.867188-12.40625-63.414062-66.46875-93.472656zm0 0" fill="url(#u)"/><path d="m444.269531 302.839844c-53.816406-99.582032-135.527343-181.292969-235.109375-235.109375-16.1875-8.746094-36.199218-5.824219-49.207031 7.183593l-40.609375 40.609376c-16.6875 16.6875-14.105469 44.4375 5.378906 57.757812l48.777344 33.351562-122.691406 80.164063c-13.527344 8.835937-18.652344 26.175781-12.105469 40.945313 28.761719 64.90625 80.648437 116.792968 145.554687 145.554687 14.769532 6.546875 32.109376 1.421875 40.945313-12.105469l80.164063-122.695312 33.351562 48.78125c13.324219 19.480468 41.070312 22.066406 57.757812 5.378906l40.609376-40.609375c13.011718-13.007813 15.933593-33.019531 7.183593-49.207031zm0 0" fill="url(#w)"/><path d="m273.640625 108.265625v278.792969l31.726563-48.558594 33.351562 48.777344c13.324219 19.484375 41.070312 22.066406 57.757812 5.378906l40.609376-40.609375c13.011718-13.011719 15.933593-33.019531 7.183593-49.207031-41.6875-77.140625-100.125-143.542969-170.628906-194.574219zm0 0" fill="url(#y)"/><path d="m170.800781 302.769531c0-2.582031-2.09375-4.675781-4.675781-4.675781h-21.816406c-2.582032 0-4.675782 2.09375-4.675782 4.675781v26.957031c0 2.585938 2.09375 4.675782 4.675782 4.675782h21.816406c2.582031 0 4.675781-2.089844 4.675781-4.675782zm0 0" fill="url(#A)"/><path d="m141.226562 449.59375h6.945313c1.488281 0 2.523437-1.425781 2.128906-2.859375-.003906-.011719-.007812-.023437-.007812-.03125-.035157-.128906-.066407-.257813-.101563-.386719.019532-19.027344.042969-38.058594.070313-57.085937.03125-27.117188.03125-54.234375.042969-81.339844 0-5.847656.003906-11.695313.007812-17.546875 0-2.3125 1.648438-12.824219-2.140625-12.824219h-48.765625c-.859375 0-1.632812.496094-2.007812 1.265625-.253907.511719-.460938 1.054688-.617188 1.625-2.960938 10.867188-4.445312 22.03125-4.445312 33.191406l.105468 94.820313c14.640625 15.46875 31 29.285156 48.785156 41.171875zm0 0" fill="url(#B)"/><path d="m104.308594 313.527344c0-2.582032-2.09375-4.671875-4.675782-4.671875h-21.820312c-2.582031 0-4.671875 2.089843-4.671875 4.671875v26.960937c0 2.582031 2.089844 4.675781 4.671875 4.675781h21.820312c2.582032 0 4.675782-2.09375 4.675782-4.675781zm0 0" fill="url(#C)"/><path d="m170.800781 320.800781c0-2.582031-2.09375-4.675781-4.675781-4.675781h-21.816406c-2.582032 0-4.675782 2.09375-4.675782 4.675781v26.960938c0 2.582031 2.09375 4.675781 4.675782 4.675781h21.816406c2.582031 0 4.675781-2.09375 4.675781-4.675781zm0 0" fill="url(#D)"/><path d="m148.171875 349.6875c1.488281 0 2.523437-1.421875 2.128906-2.859375-.003906-.011719-.007812-.019531-.007812-.03125-.207031-.757813-.40625-1.519531-.597657-2.277344-.136718-.53125-.269531-1.058593-.390624-1.589843-.054688-.210938-.105469-.421876-.148438-.632813-.109375-.460937-.214844-.921875-.3125-1.382813-.039062-.152343-.074219-.308593-.105469-.460937-.105469-.484375-.210937-.96875-.304687-1.453125-.046875-.210938-.089844-.429688-.132813-.644531-.101562-.503907-.199219-1.007813-.292969-1.511719-.03125-.179688-.066406-.351562-.101562-.527344-.109375-.621094-.21875-1.238281-.320312-1.855468-.101563-.582032-.191407-1.167969-.285157-1.75-.066406-.445313-.128906-.890626-.195312-1.335938-.023438-.164062-.042969-.324219-.066407-.484375-.074218-.515625-.140624-1.035156-.207031-1.546875-.007812-.058594-.011719-.113281-.015625-.171875-.0625-.5-.125-1-.179687-1.5-.027344-.21875-.050781-.4375-.070313-.65625-.046875-.402344-.085937-.808594-.125-1.210937-.179687-1.859376-.320312-3.722657-.421875-5.585938-.015625-.410156-.039062-.824219-.054687-1.238281-.007813-.125-.011719-.25-.015625-.375v-.023438c-.070313-1.660156-.101563-3.320312-.101563-4.976562 0-11.164063 1.480469-22.324219 4.445313-33.195313.003906-.007812.007812-.019531.007812-.03125.398438-1.433594-.636719-2.859375-2.125-2.859375h-48.769531c-.855469 0-1.628906.496094-2.007812 1.265625-.253907.515625-.460938 1.058594-.617188 1.625-2.960938 10.867188-4.445312 22.03125-4.445312 33.195313 0 1.65625.035156 3.316406.101562 4.972656v.023437c.003906.128907.007812.25.019531.378907.011719.414062.035157.828125.050781 1.234375.101563 1.863281.242188 3.726562.425782 5.585937.035156.40625.074218.8125.121094 1.214844.023437.21875.046874.4375.070312.65625.054688.5.113281 1 .179688 1.5.003906.058594.007812.113281.019531.171875.0625.511719.128906 1.03125.203125 1.542969.023437.164062.046875.324219.066406.488281.066406.445312.128906.890625.199219 1.335938.089843.582031.179687 1.167968.28125 1.75.105469.617187.214843 1.234374.320312 1.851562.039063.179688.070313.351562.101563.527344.09375.507812.191406 1.011718.296875 1.515625.039062.214843.085937.429687.128906.644531.097656.484375.199219.96875.304687 1.449219.03125.15625.070313.308593.105469.464843.101563.457032.203125.921876.3125 1.382813.046875.210937.09375.421875.148438.628906.125.535157.257812 1.058594.390625 1.59375.191406.757813.390625 1.515625.597656 2.277344.152344.566406.359375 1.109375.613281 1.625.378907.769531 1.152344 1.265625 2.007813 1.265625zm0 0" fill="url(#F)"/><path d="m147.105469 331.375c-.023438-.164062-.046875-.324219-.070313-.488281-.070312-.511719-.140625-1.03125-.203125-1.542969-.007812-.058594-.015625-.113281-.019531-.171875-.0625-.5-.121094-1-.175781-1.5-.027344-.21875-.050781-.4375-.074219-.65625-.042969-.402344-.085938-.808594-.121094-1.214844-.183594-1.859375-.324218-3.722656-.421875-5.585937-.019531-.40625-.042969-.820313-.054687-1.234375-.007813-.128907-.015625-.25-.019532-.378907v-.023437c-.066406-1.65625-.097656-3.316406-.097656-4.972656 0-5.183594.332032-10.363281.972656-15.511719h-2.511718c-2.582032 0-4.675782 2.09375-4.675782 4.675781v26.957031c0 2.585938 2.09375 4.675782 4.675782 4.675782h3.265625c-.097657-.5625-.183594-1.128906-.273438-1.691406-.070312-.445313-.132812-.890626-.195312-1.335938zm0 0" fill="url(#H)"/><path d="m150.300781 346.828125c-.003906-.011719-.007812-.019531-.007812-.03125-.207031-.757813-.40625-1.519531-.597657-2.277344-.136718-.53125-.269531-1.058593-.390624-1.589843-.054688-.210938-.105469-.421876-.148438-.632813-.109375-.460937-.214844-.921875-.3125-1.382813-.039062-.152343-.074219-.308593-.105469-.460937-.105469-.484375-.210937-.96875-.304687-1.453125-.046875-.210938-.089844-.429688-.132813-.644531-.101562-.503907-.199219-1.007813-.292969-1.511719-.03125-.179688-.066406-.351562-.101562-.527344-.109375-.621094-.21875-1.238281-.320312-1.855468-.101563-.582032-.191407-1.167969-.285157-1.75-.066406-.445313-.128906-.890626-.195312-1.335938-.023438-.164062-.042969-.324219-.066407-.488281-.074218-.511719-.140624-1.03125-.207031-1.542969-.007812-.058594-.011719-.113281-.015625-.171875-.0625-.5-.125-1-.179687-1.5-.027344-.21875-.050781-.4375-.070313-.65625-.046875-.402344-.085937-.808594-.125-1.214844-.179687-1.859375-.320312-3.722656-.421875-5.585937-.015625-.40625-.039062-.820313-.054687-1.234375-.007813-.128907-.011719-.25-.015625-.378907v-.023437c-.035157-.816406-.035157-1.632813-.050781-2.453125h-1.589844c-2.582032 0-4.675782 2.09375-4.675782 4.675781v26.960938c0 .6875.160157 1.335937.425782 1.925781h8.117187c1.484375 0 2.519531-1.425781 2.125-2.859375zm0 0" fill="url(#I)"/><path d="m139.632812 302.769531c0-2.582031 2.09375-4.675781 4.675782-4.675781h21.816406c2.582031 0 4.675781 2.09375 4.675781 4.675781s-2.09375 4.675781-4.675781 4.675781h-21.816406c-2.582032 0-4.675782-2.09375-4.675782-4.675781zm0 0" fill="url(#K)"/><path d="m139.632812 320.800781c0-2.582031 2.09375-4.671875 4.675782-4.671875h21.816406c2.582031 0 4.675781 2.089844 4.675781 4.671875s-2.09375 4.675781-4.675781 4.675781h-21.816406c-2.582032 0-4.675782-2.09375-4.675782-4.675781zm0 0" fill="url(#L)"/><path d="m104.308594 340.488281v-26.960937c0-2.582032-2.09375-4.671875-4.675782-4.671875h-7.199218c-.058594 1.582031-.097656 3.164062-.097656 4.75 0 1.65625.035156 3.316406.101562 4.972656v.023437c.003906.128907.007812.25.019531.378907.011719.414062.035157.828125.050781 1.234375.101563 1.863281.242188 3.726562.425782 5.585937.035156.40625.074218.8125.121094 1.214844.023437.21875.046874.4375.070312.65625.054688.5.113281 1 .179688 1.5.003906.058594.007812.113281.019531.171875.0625.511719.128906 1.03125.203125 1.542969.023437.164062.046875.324219.066406.488281.066406.445312.128906.890625.199219 1.335938.089843.582031.179687 1.167968.28125 1.75.105469.617187.214843 1.234374.320312 1.851562.039063.179688.070313.351562.101563.527344.09375.503906.191406 1.011718.296875 1.515625.039062.214843.085937.429687.128906.644531.097656.484375.199219.96875.304687 1.449219.03125.15625.070313.308593.105469.464843.097657.457032.203125.921876.3125 1.382813.046875.210937.09375.421875.148438.628906.125.535157.257812 1.058594.390625 1.59375.054687.214844.113281.429688.167968.644531h3.277344c2.585938 0 4.679688-2.09375 4.679688-4.675781zm0 0" fill="url(#M)"/><path d="m73.140625 313.527344c0-2.582032 2.09375-4.671875 4.675781-4.671875h21.816406c2.582032 0 4.675782 2.089843 4.675782 4.671875 0 2.582031-2.09375 4.675781-4.675782 4.675781h-21.816406c-2.582031 0-4.675781-2.09375-4.675781-4.675781zm0 0" fill="url(#N)"/><path d="m117.628906 334.121094c0-2.582032-2.09375-4.671875-4.675781-4.671875s-4.675781 2.089843-4.675781 4.671875v59.585937c0 2.582031 2.09375 4.675781 4.675781 4.675781s4.675781-2.09375 4.675781-4.675781zm0 0" fill="url(#O)"/><path d="m135.660156 334.121094c0-2.582032-2.089844-4.671875-4.671875-4.671875s-4.675781 2.089843-4.675781 4.671875v59.585937c0 2.582031 2.09375 4.675781 4.675781 4.675781s4.671875-2.09375 4.671875-4.675781zm0 0" fill="url(#P)"/><path d="m130.988281 329.449219c2.582031 0 4.671875 2.089843 4.671875 4.671875v21.820312c0 2.582032-2.089844 4.675782-4.671875 4.675782s-4.675781-2.09375-4.675781-4.675782v-21.820312c0-2.582032 2.09375-4.671875 4.675781-4.671875zm0 0" fill="url(#Q)"/><path d="m112.953125 329.449219c2.582031 0 4.675781 2.089843 4.675781 4.671875v21.820312c0 2.582032-2.09375 4.675782-4.675781 4.675782s-4.675781-2.09375-4.675781-4.675782v-21.820312c0-2.582032 2.09375-4.671875 4.675781-4.671875zm0 0" fill="url(#R)"/><path d="m124.902344 267.628906c0-2.582031-2.09375-4.675781-4.675782-4.675781-2.582031 0-4.675781 2.09375-4.675781 4.675781v59.585938c0 2.582031 2.09375 4.675781 4.675781 4.675781 2.582032 0 4.675782-2.09375 4.675782-4.675781zm0 0" fill="url(#S)"/><path d="m120.226562 262.953125c2.582032 0 4.675782 2.09375 4.675782 4.675781v21.820313c0 2.582031-2.09375 4.675781-4.675782 4.675781-2.582031 0-4.675781-2.09375-4.675781-4.675781v-21.820313c0-2.582031 2.09375-4.675781 4.675781-4.675781zm0 0" fill="url(#T)"/><path d="m444.269531 302.839844c-17.367187-32.140625-37.660156-62.402344-60.503906-90.484375l-78.398437 126.144531 33.351562 48.777344c13.324219 19.484375 41.070312 22.066406 57.757812 5.378906l40.609376-40.609375c13.011718-13.007813 15.933593-33.019531 7.183593-49.207031zm0 0" fill="url(#U)"/><path d="m209.160156 67.730469c-16.1875-8.746094-36.199218-5.824219-49.207031 7.183593l-40.609375 40.609376c-16.6875 16.6875-14.105469 44.4375 5.378906 57.757812l48.777344 33.351562 119.40625-83.792968c-26.167969-20.652344-54.160156-39.121094-83.746094-55.109375zm0 0" fill="url(#V)"/><path d="m460.949219 138.070312c0 48.0625-38.960938 87.019532-87.019531 87.019532-48.0625 0-87.019532-38.957032-87.019532-87.019532 0-48.058593 38.957032-87.019531 87.019532-87.019531 48.058593 0 87.019531 38.960938 87.019531 87.019531zm0 0" fill="url(#W)"/><path d="m400.183594 111.816406c-77.703125-77.703125-155.3125-126.078125-173.34375-108.046875-4.429688 4.429688-4.851563 12.445313-1.820313 23.171875.144531.519532.464844.972656.902344 1.285156 2.390625 1.710938 7.96875 5.65625 14.585937 10.023438 2.410157 1.589844.4375 5.300781-2.222656 4.179688-.054687-.023438-.113281-.046876-.167968-.070313-5.539063-2.375 1.980468 5.144531 5.542968 7.125 2.410156 1.335937.285156 3.582031-3.425781 4.03125-1.691406.207031-2.664063 2.035156-1.824219 3.519531 5.519532 9.800782 12.421875 20.527344 20.546875 31.90625.429688.605469 1.121094.976563 1.863281 1 10.554688.328125 23.261719.703125 26.375.703125 3.378907 0-9.011718 2.800781-19.183593 4.980469-1.699219.367188-2.4375 2.371094-1.390625 3.757812 16.699218 22.191407 37.5625 46.414063 61.425781 70.816407.90625.925781 2.390625.957031 3.335937.070312 5-4.691406 9.601563-8.703125 8.84375-6.804687-1.582031 3.957031-.789062 9.496094 3.5625 5.933594 3.757813-3.074219 4.5625.339843-2.410156 11.511718-.589844.949219-.449218 2.191406.351563 2.96875 20.417969 19.976563 40.710937 37.847656 59.792969 52.9375 1.546874 1.222656 3.820312.148438 3.851562-1.820312.144531-8.855469.730469-16.757813 2.527344-12.5625 3.5625 8.308594 9.5 7.121094 8.707031-1.585938-.726563-7.980468 1.210937 9.976563 7.027344 31.921875.140625.539063.476562 1.019531.929687 1.339844 9.167969 6.492187 17.898438 12.179687 26.050782 16.976563 1.515624.890624 3.4375-.117188 3.570312-1.871094.816406-10.476563 2.375-21.257813 5.164062-11.957032 2.101563 7.003907 4.511719 14.78125 6.546876 21.277344.195312.628906.648437 1.144532 1.242187 1.429688 19.777344 9.476562 34.460937 11.824218 41.089844 5.195312 18.03125-18.03125-30.34375-95.640625-108.046875-173.34375zm0 0" fill="url(#X)"/><path d="m508.230469 285.164062c18.03125-18.035156-30.339844-95.644531-108.046875-173.347656-5.421875-5.421875-10.839844-10.695312-16.242188-15.816406-49.210937-8.09375-96.75-5.355469-96.75-5.355469 3.382813 0-9.007812 2.800781-19.179687 4.984375-1.703125.363282-2.441407 2.367188-1.394531 3.757813 16.703124 22.1875 37.5625 46.410156 61.429687 70.8125.902344.925781 2.390625.957031 3.332031.070312 5.003906-4.691406 9.605469-8.703125 8.847656-6.804687-1.585937 3.957031-.792968 9.496094 3.558594 5.933594 3.757813-3.070313 4.566406.339843-2.40625 11.511718-.59375.949219-.449218 2.191406.347656 2.972656 20.421876 19.972657 40.710938 37.84375 59.796876 52.933594 1.542968 1.222656 3.820312.148438 3.851562-1.820312.140625-8.855469.730469-16.757813 2.527344-12.5625 3.5625 8.308594 9.496094 7.121094 8.707031-1.585938-.726563-7.980468 1.210937 9.976563 7.023437 31.921875.140626.539063.476563 1.019531.933594 1.339844 9.164063 6.492187 17.898438 12.179687 26.046875 16.976563 1.519531.890624 3.4375-.117188 3.574219-1.871094.8125-10.476563 2.371094-21.257813 5.164062-11.957032 2.101563 7.003907 4.507813 14.78125 6.542969 21.277344.199219.628906.648438 1.144532 1.246094 1.429688 6.058594 2.902344 11.636719 5.136718 16.65625 6.648437l24.132813-1.175781c.101562-.089844.203124-.179688.300781-.273438zm0 0" fill="url(#Y)"/><path d="m508.230469 285.164062c17.167969-17.171874-25.863281-88.351562-97.097657-162.199218-10.609374 9.300781-11.445312 37.425781-15.695312 48.613281-4.273438 11.238281-13.777344 29.113281-21.191406 42.464844 9.28125 8.144531 18.410156 15.761719 27.277344 22.777343 1.542968 1.21875 3.820312.144532 3.851562-1.824218.140625-8.855469.730469-16.757813 2.527344-12.5625 3.5625 8.3125 9.5 7.125 8.707031-1.582032-.726563-7.980468 1.210937 9.972657 7.023437 31.917969.144532.539063.476563 1.019531.933594 1.34375 9.167969 6.488281 17.898438 12.179688 26.050782 16.972657 1.515624.890624 3.433593-.117188 3.570312-1.871094.8125-10.476563 2.375-21.253906 5.164062-11.953125 2.101563 7 4.511719 14.777343 6.546876 21.273437.195312.628906.648437 1.144532 1.242187 1.429688 6.058594 2.90625 11.636719 5.136718 16.65625 6.648437l24.132813-1.175781c.101562-.089844.203124-.179688.300781-.273438zm0 0" fill="url(#Z)"/><path d="m469.214844 280.941406c.207031.09375.410156.183594.613281.277344.488281.226562.976563.445312 1.457031.660156.21875.097656.433594.191406.648438.285156.492187.214844.984375.425782 1.46875.632813.175781.074219.351562.148437.527344.222656.636718.265625 1.265624.527344 1.886718.773438.019532.007812.035156.015625.050782.019531.691406.277344 1.375.542969 2.050781.796875.003906 0 .007812.003906.011719.003906.640624.242188 1.269531.472657 1.894531.691407.089843.03125.179687.0625.265625.09375.558594.195312 1.109375.382812 1.652344.5625.085937.027343.171874.058593.257812.085937.601562.195313 1.199219.386719 1.785156.5625 11.128906 3.355469 19.484375 3.15625 24.144532-1.171875.097656-.089844.203124-.179688.296874-.273438.277344-.277343.535157-.566406.777344-.867187.082032-.101563.152344-.210937.230469-.3125.113281-.152344.222656-.304687.328125-.460937.042969-.058594.085938-.113282.125-.171876.085938-.132812.160156-.273437.242188-.410156.074218-.125.148437-.25.214843-.378906.046875-.078125.09375-.15625.136719-.238281.078125-.152344.148438-.3125.222656-.472657.039063-.085937.078125-.171874.117188-.261718.054687-.125.113281-.246094.164062-.371094.070313-.171875.128906-.347656.191406-.523438.066407-.1875.132813-.378906.195313-.574218.007813-.03125.019531-.058594.027344-.085938.058593-.1875.105469-.378906.15625-.570312.0625-.226563.121093-.457032.171875-.691406.046875-.199219.082031-.40625.121094-.609376.042968-.238281.082031-.480468.121093-.726562.03125-.214844.054688-.429688.078125-.652344.027344-.246094.054688-.5.074219-.753906.015625-.230469.03125-.460938.039063-.695312.011718-.207032.015624-.417969.019531-.628907.003906-.050781.003906-.105469.007812-.15625.003907-.242187.003907-.488281 0-.734375-.003906-.269531-.007812-.542968-.019531-.820312-.011719-.253906-.019531-.511719-.035156-.769532-.019532-.28125-.042969-.5625-.066406-.847656-.023438-.269531-.046876-.539062-.078126-.808594-.03125-.273437-.066406-.550781-.101562-.828124 0-.015626-.003906-.035157-.007812-.050782-.035157-.285156-.070313-.566406-.117188-.851562-.023438-.15625-.050781-.3125-.078125-.46875-.023437-.144532-.046875-.289063-.070313-.4375-.050781-.296875-.101562-.589844-.160156-.890625-.007812-.046875-.019531-.101563-.03125-.152344-.050781-.253906-.101562-.511719-.15625-.769531-.066406-.308594-.128906-.621094-.203125-.9375-.007812-.046875-.023437-.09375-.03125-.140625-.0625-.261719-.128906-.53125-.195312-.800781-.082031-.324219-.15625-.648438-.242188-.980469-.03125-.117188-.066406-.238281-.097656-.355469-.054687-.191406-.105469-.378906-.15625-.566406-.097656-.355469-.195313-.707032-.300781-1.070313-.078125-.273437-.167969-.550781-.253906-.828125-.234376-.769531-.484376-1.550781-.753907-2.34375-.003906-.015625-.007812-.03125-.015625-.050781-.269531-.792969-.554687-1.601563-.855468-2.417969-.070313-.195312-.136719-.386718-.210938-.582031-.175781-.472656-.367188-.957031-.554688-1.4375-.101562-.257813-.195312-.511719-.300781-.773437-.1875-.46875-.386719-.949219-.585937-1.429688-.066406-.160156-.128906-.320312-.199219-.480469-.046875-.121093-.097656-.238281-.144531-.359375-.203125-.480468-.417969-.96875-.632813-1.457031-.078125-.183594-.15625-.363281-.234375-.542969-.046875-.105468-.09375-.210937-.140625-.316406-.21875-.496094-.445312-.996094-.675781-1.496094-.003906-.011718-.007812-.023437-.011719-.03125-.128906-.285156-.257812-.566406-.390625-.851562-.234375-.503906-.476562-1.015625-.722656-1.527344-.140625-.296875-.277344-.589844-.421875-.886719-.257813-.527343-.519531-1.058593-.785156-1.59375-.140625-.289062-.285157-.578125-.429688-.867187-.273437-.542969-.554687-1.09375-.835937-1.644532-.128906-.246093-.257813-.492187-.386719-.738281-.019531-.042969-.042969-.085937-.066406-.128906-.292969-.566406-.59375-1.136719-.898438-1.707031-.148437-.28125-.300781-.5625-.453125-.847656-.316406-.589844-.636718-1.179688-.964844-1.777344-.011718-.019532-.023437-.039063-.03125-.058594-.136718-.246094-.273437-.496094-.414062-.746094-.34375-.617187-.6875-1.238281-1.042969-1.859375-.082031-.148437-.167969-.296875-.253906-.449219-.058594-.101562-.113281-.203124-.171875-.304687-.371094-.652344-.746094-1.304687-1.128906-1.960937-.128906-.222657-.261719-.445313-.390625-.664063-.40625-.699219-.820313-1.402344-1.242188-2.105469-.035156-.058594-.066406-.113281-.101562-.171875-.066407-.113281-.136719-.222656-.203125-.335937-.457032-.765625-.917969-1.53125-1.390625-2.304688-.023438-.039062-.050781-.078125-.074219-.117187-.035156-.054688-.070312-.113281-.105469-.167969-.75-1.226562-1.519531-2.460938-2.308593-3.707031-.027344-.042969-.054688-.089844-.082032-.132813-2.394531-3.792968-4.964844-7.6875-7.695312-11.679687-.027344-.042969-.058594-.085938-.085938-.128907-3.664062-5.347656-7.621094-10.867187-11.851562-16.519531-.003906-.003906-.007813-.007812-.011719-.015625-.003906-.003906-.011719-.011718-.015625-.015625-.765625-1.027343-1.542969-2.054687-2.328125-3.089843-.007813-.011719-.015625-.019532-.023437-.03125-.011719-.011719-.019532-.027344-.03125-.039063-.78125-1.027344-1.570313-2.0625-2.371094-3.101563-.003906-.003906-.007813-.007812-.011719-.011718-.011719-.015625-.019531-.03125-.03125-.042969-.804687-1.046875-1.621094-2.097656-2.445313-3.148437v-.003907c-.003906-.003906-.007812-.011719-.011718-.015625-14.164063-18.121094-30.890625-37.390625-49.597656-56.871094l.785156 53.953126 3.21875 40.71875c0-.015626 0-.019532 0-.03125 0-.046876.007812-.0625.015625-.050782 0 .003906.003906 0 .003906.007813.019531.042969.042969.160156.074219.328125.003906.011718.003906.019531.007812.03125.015625.082031.03125.175781.054688.285156 0 .007812 0 .015625.003906.027344.015625.097656.035156.203125.058594.324218v.003907.007812c.089844.507813.207031 1.199219.355468 2.046875.042969.25.085938.511719.132813.785156.023437.121094.042969.242188.066406.367188.070313.410156.144531.839844.226563 1.300781 0 .003907 0 .007813.003906.011719.054688.3125.113281.640625.171875.976562.007813.03125.011719.054688.015625.082032.007812.03125.011719.0625.015625.09375.070313.378906.140625.769531.214844 1.175781v.003906c.101562.558594.210937 1.152344.328125 1.761719.019531.109375.039062.222656.0625.335938.113281.605468.234375 1.230468.359375 1.875.003906.027343.007812.046874.011719.074218.019531.101563.042968.203125.058593.304688.074219.367187.144531.734375.21875 1.113281.027344.140625.054688.277344.082031.417969.050782.246094.101563.496094.152344.742187.023438.117188.042969.234375.070313.351563.03125.15625.0625.316406.09375.472656.074219.367188.152343.742188.230469 1.117188.03125.160156.0625.320312.097656.480468.085937.414063.171875.832032.265625 1.253906.027343.125.050781.25.078125.375.238281 1.113282.488281 2.261719.75 3.4375.03125.144532.066406.289063.097656.433594.097656.4375.195312.878906.296875 1.324219.046875.199219.09375.398437.140625.601563.035156.15625.074219.316406.109375.472656.058594.242187.113281.484375.171875.726562.050781.230469.105469.460938.160156.691406.09375.382813.183594.765626.277344 1.152344.058594.238282.117188.480469.175781.71875.09375.394532.191407.792969.292969 1.191406.054688.234376.113281.464844.171875.699219.109375.433594.21875.871094.332031 1.308594.050782.199219.101563.398437.152344.601563.164062.640624.332031 1.285156.503906 1.933593.109375.40625.324219.773438.617188 1.070313.09375.101562.203125.191406.316406.269531 2.292969 1.625 4.558594 3.195313 6.792969 4.71875 1.117187.761719 2.226562 1.507813 3.328125 2.242187 5.511718 3.671876 10.832031 7.019532 15.929687 10.015626 1.515625.890624 3.433594-.117188 3.570313-1.871094.449218-5.792969 1.128906-11.667969 2.117187-14.203125.03125-.082031.0625-.164063.097657-.238281.382812-.878907.8125-1.261719 1.289062-.949219.214844.140625.4375.417969.671875.847656.152344.289063.3125.644531.480469 1.074219.164062.429687.332031.933594.507812 1.511718.523438 1.753907 1.070313 3.550782 1.621094 5.367188.554688 1.816406 1.117188 3.644531 1.675781 5.460938 1.121094 3.632812 2.230469 7.199218 3.25 10.449218.089844.289063.242188.554688.429688.785156.015625.015626.027343.039063.042969.058594.105468.121094.222656.230469.351562.332032.128906.097656.269531.183593.417969.253906.703125.335937 1.390625.660156 2.078125.976562zm0 0" fill="url(#aa)"/><path d="m314.894531 66.5c-32.75-30.183594-76.054687-50.335938-91.226562-56.867188-1.125 4.453126-.628907 10.296876 1.347656 17.308594.148437.519532.46875.972656.90625 1.285156 2.390625 1.710938 7.96875 5.65625 14.585937 10.023438 2.410157 1.589844.4375 5.300781-2.222656 4.179688-.054687-.023438-.113281-.046876-.167968-.070313-5.539063-2.375 1.980468 5.144531 5.539062 7.125 2.414062 1.339844.289062 3.582031-3.421875 4.03125-1.695313.207031-2.664063 2.035156-1.828125 3.519531 5.300781 9.410156 11.886719 19.679688 19.59375 30.550782 37.777344 2.65625 81.574219 1.65625 56.894531-21.085938zm0 0" fill="url(#ab)"/><path d="m280.664062 64.324219c-16.617187-6.734375-34.695312-8.375-42.519531-8.777344-.074219.488281-.007812 1.003906.265625 1.488281 4.429688 7.871094 9.777344 16.351563 15.914063 25.277344 17.5-4.484375 40.859375-12.101562 26.339843-17.988281zm0 0" fill="url(#ac)"/><path d="m400.183594 111.816406c-77.703125-77.703125-155.3125-126.078125-173.34375-108.046875-4.429688 4.429688-4.851563 12.445313-1.820313 23.171875.144531.519532.464844.972656.902344 1.285156 2.390625 1.710938 7.96875 5.65625 14.585937 10.023438 2.410157 1.589844.4375 5.300781-2.222656 4.179688-.054687-.023438-.113281-.046876-.167968-.070313-5.539063-2.375 1.980468 5.144531 5.542968 7.125 2.410156 1.335937.285156 3.582031-3.425781 4.03125-1.691406.207031-2.664063 2.035156-1.824219 3.519531 5.519532 9.800782 12.421875 20.527344 20.546875 31.90625.429688.605469 1.121094.976563 1.863281 1 10.554688.328125 23.261719.703125 26.375.703125 3.378907 0-9.011718 2.800781-19.183593 4.980469-1.699219.367188-2.4375 2.371094-1.390625 3.757812 16.699218 22.191407 37.5625 46.414063 61.425781 70.816407.90625.925781 2.390625.957031 3.335937.070312 5-4.691406 9.601563-8.703125 8.84375-6.804687-1.582031 3.957031-.789062 9.496094 3.5625 5.933594 3.757813-3.074219 4.5625.339843-2.410156 11.511718-.589844.949219-.449218 2.191406.351563 2.96875 20.417969 19.976563 40.710937 37.847656 59.792969 52.9375 1.546874 1.222656 3.820312.148438 3.851562-1.820312.144531-8.855469.730469-16.757813 2.527344-12.5625 3.5625 8.308594 9.5 7.121094 8.707031-1.585938-.726563-7.980468 1.210937 9.976563 7.027344 31.921875.140625.539063.476562 1.019531.929687 1.339844 9.167969 6.492187 17.898438 12.179687 26.050782 16.976563 1.515624.890624 3.4375-.117188 3.570312-1.871094.816406-10.476563 2.375-21.257813 5.164062-11.957032 2.101563 7.003907 4.511719 14.78125 6.546876 21.277344.195312.628906.648437 1.144532 1.242187 1.429688 19.777344 9.476562 34.460937 11.824218 41.089844 5.195312 18.03125-18.03125-30.34375-95.640625-108.046875-173.34375zm0 0" fill="url(#ad)"/><path d="m494.550781 286.734375c.035157-1.71875.03125-3.421875 0-5.105469.035157-1.722656.03125-3.421875 0-5.105468.035157-1.722657.03125-3.421876 0-5.109376.035157-1.71875.03125-3.417968 0-5.105468.035157-1.71875.03125-3.421875 0-5.105469.035157-1.71875.03125-3.421875 0-5.105469.035157-1.71875.03125-3.421875 0-5.105468.035157-1.722657.03125-3.421876 0-5.105469.035157-1.722657.03125-3.421875 0-5.109375.035157-1.71875.03125-3.417969 0-5.105469.035157-1.71875.03125-3.421875 0-5.105469.015625-.769531.019531-1.535156.023438-2.300781-19.015625-32.539063-52.417969-74.476563-94.390625-116.449219-25.757813-25.757812-51.503906-48.289062-75.078125-66.25-4.9375 2.636719-8.363281 4.84375-9.796875 6.277344-2.128906 2.128906-2.832032 5.511719-2.269532 9.886719v92.71875c4.859376 5.230469 9.859376 10.484375 15.007813 15.75.90625.925781 2.390625.957031 3.335937.070312 5-4.691406 9.601563-8.703125 8.84375-6.804687-1.582031 3.957031-.792968 9.496094 3.5625 5.933594 3.757813-3.070313 4.5625.339843-2.410156 11.511718-.59375.949219-.449218 2.191406.347656 2.972656 20.421876 19.972657 40.714844 37.84375 59.796876 52.933594 1.542968 1.222656 3.820312.148438 3.851562-1.820312.140625-8.855469.730469-16.757813 2.527344-12.5625 3.5625 8.308594 9.5 7.121094 8.707031-1.585938-.726563-7.980468 1.210937 9.976563 7.023437 31.921875.144532.539063.476563 1.019531.933594 1.339844 9.167969 6.492187 17.898438 12.179687 26.050782 16.976563 1.515624.890624 3.433593-.117188 3.570312-1.871094.8125-10.476563 2.375-21.257813 5.164062-11.957032 2.101563 7.003907 4.511719 14.78125 6.546876 21.277344.195312.628906.648437 1.144532 1.242187 1.429688 10.835937 5.191406 20.140625 8.238281 27.429687 8.847656-.003906-.695312-.007812-1.390625-.019531-2.078125zm0 0" fill="url(#ae)"/><path d="m457.785156 194.320312c-10.382812 10.378907-50.691406-13.101562-90.035156-52.445312s-62.824219-79.652344-52.441406-90.03125c10.378906-10.382812 125.261718-61.472656 164.605468-22.128906s-11.75 154.222656-22.128906 164.605468zm0 0" fill="url(#af)"/><path d="m320.960938 82.589844c9.207031 16.878906 25.722656 38.21875 46.789062 59.285156s42.40625 37.582031 59.285156 46.789062c23.785156-34.777343 77.605469-131.101562 53.644532-158.132812-.257813-.273438-.503907-.550781-.769532-.816406-.261718-.265625-.546875-.511719-.816406-.769532-27.03125-23.960937-123.355469 29.859376-158.132812 53.644532zm0 0" fill="url(#ag)"/><path d="m320.960938 82.589844c9.207031 16.878906 25.722656 38.21875 46.789062 59.285156s42.40625 37.582031 59.285156 46.789062c23.785156-34.777343 77.605469-131.101562 53.644532-158.132812-.257813-.273438-.503907-.550781-.769532-.816406-.261718-.265625-.546875-.511719-.816406-.769532-27.03125-23.960937-123.355469 29.859376-158.132812 53.644532zm0 0" fill="url(#ah)"/><path d="m320.960938 82.589844c9.207031 16.878906 25.722656 38.21875 46.789062 59.285156s42.40625 37.582031 59.285156 46.789062c23.785156-34.777343 77.605469-131.101562 53.644532-158.132812-.257813-.273438-.503907-.550781-.769532-.816406-.261718-.265625-.546875-.511719-.816406-.769532-27.03125-23.960937-123.355469 29.859376-158.132812 53.644532zm0 0" fill="url(#ah)"/><path d="m320.960938 82.589844c9.207031 16.878906 25.722656 38.21875 46.789062 59.285156 10.230469 10.230469 20.523438 19.382812 30.339844 27.148438 26.6875-37.328126 65.75-98.332032 80.339844-140.613282-27.890626-22.566406-122.964844 30.582032-157.46875 54.179688zm0 0" fill="url(#ai)"/><path d="m372.292969 82.9375c-19.179688 13.929688-21.601563 41.742188-4.90625 58.574219.121093.121093.242187.242187.363281.363281s.242188.242188.363281.363281c16.828125 16.695313 44.644531 14.273438 58.574219-4.90625 28.582031-39.351562 63.878906-94.535156 53.65625-107.132812-.144531-.164063-.277344-.332031-.433594-.484375-.152344-.15625-.324218-.289063-.480468-.433594-12.601563-10.222656-67.785157 25.074219-107.136719 53.65625zm0 0" fill="url(#aj)"/><path d="m380.808594 128.816406c-33.617188-33.617187-55.644532-67.9375-54.871094-83.691406-5.382812 2.832031-9.121094 5.207031-10.628906 6.71875-10.382813 10.378906 13.097656 50.6875 52.441406 90.03125s79.652344 62.824219 90.035156 52.445312c1.507813-1.511718 3.886719-5.246093 6.714844-10.628906-15.753906.773438-50.070312-21.257812-83.691406-54.875zm0 0" fill="url(#ak)"/></svg>