<svg height="511pt" viewBox="-66 1 511 511.99998" width="511pt" xmlns="http://www.w3.org/2000/svg" xmlns:xlink="http://www.w3.org/1999/xlink"><linearGradient id="a"><stop offset="0" stop-color="#ffe548"/><stop offset=".2472" stop-color="#ffe042"/><stop offset=".5621" stop-color="#ffd133"/><stop offset=".9123" stop-color="#ffb919"/><stop offset="1" stop-color="#ffb211"/></linearGradient><linearGradient id="b" gradientUnits="userSpaceOnUse" x1="33.9752447342" x2="116.6272394644" xlink:href="#a" y1="180.736530621" y2="224.1818575242"/><linearGradient id="c" gradientUnits="userSpaceOnUse" x1="281.0094277444" x2="393.3314336548" xlink:href="#a" y1="196.774686532" y2="185.118650151"/><linearGradient id="d" gradientUnits="userSpaceOnUse" x1="198.711717088" x2="308.9144436564" xlink:href="#a" y1="260.0223748852" y2="261.0820145562"/><linearGradient id="e" gradientUnits="userSpaceOnUse" x1="126.7339230228" x2="192.431683017" xlink:href="#a" y1="256.8505837184" y2="260.0295027314"/><linearGradient id="f" gradientUnits="userSpaceOnUse" x1="183.8027726426" x2="194.025911153" xlink:href="#a" y1="-113.5600915208" y2="112.0800117084"/><linearGradient id="g"><stop offset="0" stop-color="#ffb211" stop-opacity="0"/><stop offset=".1677" stop-color="#ffac13" stop-opacity=".168627"/><stop offset=".3845" stop-color="#ff9c1b" stop-opacity=".384314"/><stop offset=".6285" stop-color="#ff8226" stop-opacity=".627451"/><stop offset=".8903" stop-color="#ff5d36" stop-opacity=".890196"/><stop offset="1" stop-color="#ff4b3e"/></linearGradient><linearGradient id="h" gradientUnits="userSpaceOnUse" x1="183.0353746658" x2="95.0850811884" xlink:href="#g" y1="459.0756117884" y2="381.1919453816"/><linearGradient id="i" gradientUnits="userSpaceOnUse" x1="182.556102303" x2="213.1371726982" y1="342.3622502656" y2="342.3622502656"><stop offset="0" stop-color="#f2e9dc"/><stop offset=".7074" stop-color="#e1c4b0"/><stop offset="1" stop-color="#dab49d"/></linearGradient><linearGradient id="j"><stop offset="0" stop-color="#dab49d" stop-opacity="0"/><stop offset=".4385" stop-color="#ce9e7a" stop-opacity=".439216"/><stop offset="1" stop-color="#c08552"/></linearGradient><linearGradient id="k" gradientUnits="userSpaceOnUse" x1="197.4552083128" x2="180.5009735768" xlink:href="#j" y1="211.648794884" y2="181.2724241846"/><linearGradient id="l"><stop offset="0" stop-color="#f2e9dc"/><stop offset=".3005" stop-color="#f1e6d9"/><stop offset=".5297" stop-color="#eddecf"/><stop offset=".7352" stop-color="#e7d1bf"/><stop offset=".9258" stop-color="#debda8"/><stop offset="1" stop-color="#dab49d"/></linearGradient><linearGradient id="m" gradientUnits="userSpaceOnUse" x1="181.8736361274" x2="258.9250511962" xlink:href="#l" y1="71.715621031" y2="146.7393144442"/><linearGradient id="n" gradientTransform="matrix(1.003922 -.00230902 .00230902 1.003922 -66.278815 .685529)" gradientUnits="userSpaceOnUse" x1="279.8655" x2="319.9744" xlink:href="#l" y1="103.4904" y2="142.5439"/><linearGradient id="o" gradientUnits="userSpaceOnUse" x1="169.0731286664" x2="230.5323299766" xlink:href="#j" y1="111.8571410244" y2="174.905751645"/><linearGradient id="p" gradientUnits="userSpaceOnUse" x1="144.6573440576" x2="192.3411292526" xlink:href="#j" y1="97.9316385702" y2="88.9247515628"/><linearGradient id="q" gradientUnits="userSpaceOnUse" x1="189.308481675" x2="189.308481675" xlink:href="#l" y1="8.3032894698" y2="32.4874692732"/><linearGradient id="r"><stop offset="0" stop-color="#a4508b"/><stop offset=".328" stop-color="#a14d8c"/><stop offset=".5737" stop-color="#974490"/><stop offset=".7918" stop-color="#873497"/><stop offset=".994" stop-color="#711ea0"/><stop offset="1" stop-color="#701da0"/></linearGradient><linearGradient id="s" gradientUnits="userSpaceOnUse" x1="125.0379975882" x2="127.1573773224" xlink:href="#r" y1="380.3916187632" y2="443.9700994154"/><linearGradient id="t" gradientUnits="userSpaceOnUse" x1="317.1984064316" x2="219.9763913232" xlink:href="#g" y1="460.07230555" y2="384.572853501"/><linearGradient id="u" gradientTransform="matrix(-1.003922 0 0 1.003922 321.932134 -.000049)" gradientUnits="userSpaceOnUse" x1="66.7613" x2="68.8723" xlink:href="#r" y1="378.9056" y2="442.2357"/><linearGradient id="v" gradientUnits="userSpaceOnUse" x1="208.9588493342" x2="187.1473387856" xlink:href="#j" y1="249.6365006186" y2="227.82499007"/><linearGradient id="w"><stop offset="0" stop-color="#c08552"/><stop offset="1" stop-color="#895738"/></linearGradient><linearGradient id="x" gradientUnits="userSpaceOnUse" x1="186.3185007824" x2="196.5617177328" xlink:href="#w" y1="226.7441676448" y2="237.6938445066"/><linearGradient id="y" gradientUnits="userSpaceOnUse" x1="208.9588493342" x2="187.1473387856" xlink:href="#j" y1="298.3800258768" y2="276.5685153282"/><linearGradient id="z" gradientUnits="userSpaceOnUse" x1="186.3185007824" x2="196.5617177328" xlink:href="#w" y1="275.487692903" y2="286.4373697648"/><linearGradient id="A" gradientUnits="userSpaceOnUse" x1="208.9588493342" x2="187.1473387856" xlink:href="#j" y1="347.123551135" y2="325.3120405864"/><linearGradient id="B" gradientUnits="userSpaceOnUse" x1="186.3185007824" x2="196.5617177328" xlink:href="#w" y1="324.2312181612" y2="335.180895023"/><linearGradient id="C" gradientUnits="userSpaceOnUse" x1="208.9588493342" x2="187.1473387856" xlink:href="#j" y1="395.8670763932" y2="374.0555658446"/><linearGradient id="D" gradientUnits="userSpaceOnUse" x1="186.3185007824" x2="196.5617177328" xlink:href="#w" y1="372.9747434194" y2="383.924319889"/><linearGradient id="E" gradientUnits="userSpaceOnUse" x1="208.9588493342" x2="187.1473387856" xlink:href="#j" y1="444.6106016514" y2="422.7990911028"/><linearGradient id="F" gradientUnits="userSpaceOnUse" x1="186.3185007824" x2="196.5617177328" xlink:href="#w" y1="421.7182686776" y2="432.6678451472"/><linearGradient id="G" gradientUnits="userSpaceOnUse" x1="208.9588493342" x2="187.1473387856" xlink:href="#j" y1="493.3540265174" y2="471.5425159688"/><linearGradient id="H" gradientUnits="userSpaceOnUse" x1="186.3185007824" x2="196.5617177328" xlink:href="#w" y1="470.4616935436" y2="481.4113704054"/><linearGradient id="I" gradientUnits="userSpaceOnUse" x1="189.97358" x2="189.97358" xlink:href="#g" y1="451.409964573" y2="525.6151603796"/><path d="m77.128906 55.640625-75.496094 235.191406c-3.890624 12.125 2.558594 25.144531 14.5625 29.398438l25.519532 9.035156c11 3.898437 22.921875-2.757813 25.375-14.167969l39.480468-183.648437c1.734376-8.066407 1.550782-16.425781-.574218-24.398438-5.046875-18.9375-15.820313-52.289062-28.867188-51.410156zm0 0" fill="url(#b)"/><path d="m302.820312 55.640625 75.492188 235.191406c3.894531 12.125-2.554688 25.144531-14.558594 29.398438l-25.519531 9.035156c-11.003906 3.898437-22.921875-2.757813-25.375-14.167969l-39.484375-183.648437c-1.734375-8.066407-1.546875-16.425781.578125-24.398438 5.046875-18.9375 15.816406-52.289062 28.867187-51.410156zm0 0" fill="url(#c)"/><path d="m275.195312 277.703125c-13.097656-61.984375-8.242187-126.421875 14.003907-185.742187l13.621093-36.320313-21.773437-18.144531c-22.902344-19.085938-51.773437-29.535156-81.582031-29.535156h-18.980469c-29.8125 0-58.679687 10.449218-81.582031 29.535156l-21.773438 18.144531 13.617188 36.320313c22.246094 59.320312 27.105468 123.757812 14.003906 185.742187l-39.324219 186.082031c-3.242187 15.335938 6.074219 30.527344 21.214844 34.589844 67.691406 18.160156 138.972656 18.160156 206.664063 0 15.140624-4.0625 24.457031-19.253906 21.21875-34.589844zm0 0" fill="url(#d)"/><path d="m189.792969 512c-34.683594-.011719-69.375-4.558594-103.15625-13.628906-15.132813-4.058594-24.457031-19.253906-21.210938-34.585938l39.320313-186.082031c13.109375-61.992187 8.246094-126.425781-13.996094-185.746094l-13.617188-36.3125 21.765626-18.152343c22.910156-19.082032 51.773437-29.53125 81.582031-29.53125h18.988281c13.988281 0 27.773438 2.308593 40.839844 6.71875l-66.496094 187.703124-.007812.011719v293.59375c0 8.828125 7.152343 16 15.988281 16.011719zm0 0" fill="url(#e)"/><path d="m242.683594 7.960938c-34.375-10.488282-71.082032-10.617188-105.53125-.363282l-1.222656.363282 54.042968 167.589843zm0 0" fill="url(#f)"/><path d="m156.023438 384.640625c-.863282-1.234375-2.203126-2.128906-3.789063-2.359375l-46.742187-6.773438c-3.035157-.441406-5.867188 1.632813-6.363282 4.660157l-4.464844 27.289062c-1.449218 8.855469 1.816407 17.382813 7.945313 23.039063l69.257813 69.257812c3.789062 4.066406 8.910156 6.949219 14.828124 7.871094l11.359376 1.773438c15.574218 2.429687 29.644531-9.613282 29.644531-25.375v-25.527344c0-1.890625-.953125-3.574219-2.417969-4.597656zm0 0" fill="url(#h)"/><path d="m204.808594 202.394531v295.84375c0 7.5625-6.105469 13.738281-13.667969 13.761719-.386719 0-.777344 0-1.167969 0h-.160156c-8.84375-.003906-16.007812-7.171875-16.007812-16.011719v-293.59375l20.40625-29.667969zm0 0" fill="url(#i)"/><path d="m173.804688 202.390625 31.003906 31.003906v-31l-10.597656-29.667969zm0 0" fill="url(#k)"/><path d="m287.773438 36.675781-45.089844-28.714843c-34.375-10.488282-71.082032-10.617188-105.53125-.363282l-1.222656.363282-45.085938 28.714843c-9.839844 6.265625-5.695312 21.480469 5.964844 21.890625l2.441406.085938c9.851562.34375 16.601562 10.066406 13.484375 19.417968l-.476563 1.429688c-7.4375 22.316406-.320312 46.90625 17.886719 61.804688l50.628907 41.425781-6.964844 19.664062 74.664062-61.089843c18.207032-14.898438 25.324219-39.488282 17.886719-61.804688l-.476563-1.429688c-3.117187-9.351562 3.632813-19.074218 13.484376-19.417968l2.441406-.085938c11.660156-.410156 15.804687-15.625 5.964844-21.890625zm-143.296876-4.589843c29.429688-7.445313 60.242188-7.433594 89.660157.003906l-44.828125 126.546875zm0 0" fill="url(#m)"/><path d="m242.460938 7.9375-68.429688 194.59375 74.523438-61.261719c18.175781-14.9375 25.234374-39.546875 17.742187-61.847656l-.476563-1.429687c-3.140624-9.34375 3.589844-19.078126 13.4375-19.449219l2.445313-.089844c11.65625-.433594 15.765625-15.660156 5.914063-21.902344zm0 0" fill="url(#n)"/><path d="m189.308594 158.636719-53.378906-150.675781-45.085938 28.714843c-9.839844 6.265625-5.695312 21.480469 5.964844 21.890625l2.441406.085938c9.851562.34375 16.601562 10.066406 13.484375 19.417968l-.476563 1.429688c-7.4375 22.316406-.320312 46.90625 17.886719 61.804688l50.628907 41.425781zm0 0" fill="url(#o)"/><path d="m189.308594 158.636719-53.378906-150.675781-45.085938 28.714843c-9.839844 6.265625-5.695312 21.480469 5.964844 21.890625l2.441406.085938c9.851562.34375 16.601562 10.066406 13.484375 19.417968l-.476563 1.429688c-7.4375 22.316406-.320312 46.90625 17.886719 61.804688l50.628907 41.425781zm0 0" fill="url(#p)"/><path d="m233.984375 32.050781 8.699219-24.089843c-34.375-10.488282-71.082032-10.617188-105.53125-.363282l-1.222656.363282 53.378906 150.675781-44.832032-126.550781c29.378907-7.433594 60.136719-7.433594 89.507813-.035157zm0 0" fill="url(#q)"/><path d="m127.410156 438.753906-11.359375-1.769531c-14.085937-2.199219-23.6875-15.453125-21.386719-29.527344l4.464844-27.289062c.496094-3.027344 3.328125-5.101563 6.363282-4.660157l46.742187 6.773438c2.765625.402344 4.820313 2.773438 4.820313 5.570312v25.527344c0 15.761719-14.070313 27.804688-29.644532 25.375zm0 0" fill="url(#s)"/><path d="m314.523438 463.785156-13.730469-64.96875-20.863281-20.863281c-1.167969-1.742187-3.261719-2.765625-5.472657-2.445313l-46.742187 6.773438c-2.769532.402344-4.820313 2.773438-4.820313 5.570312v25.523438c0 7.546875 3.226563 14.230469 8.292969 18.894531l65.121094 65.121094c13.34375-5.148437 21.234375-19.3125 18.214844-33.605469zm0 0" fill="url(#t)"/><path d="m252.535156 438.753906 11.359375-1.769531c14.089844-2.199219 23.691407-15.453125 21.386719-29.527344l-4.464844-27.289062c-.496094-3.027344-3.324218-5.101563-6.359375-4.660157l-46.746093 6.773438c-2.765626.402344-4.816407 2.773438-4.816407 5.570312v25.527344c0 15.761719 14.066407 27.804688 29.640625 25.375zm0 0" fill="url(#u)"/><path d="m197.644531 223.355469c-1.929687-2.027344-4.648437-3.300781-7.671875-3.300781-5.851562 0-10.59375 4.746093-10.59375 10.597656 0 3.019531 1.269532 5.742187 3.300782 7.671875l18.871093 18.871093c1.929688 2.03125 4.648438 3.300782 7.671875 3.300782 5.851563 0 10.597656-4.742188 10.597656-10.59375 0-3.023438-1.273437-5.742188-3.300781-7.671875zm0 0" fill="url(#v)"/><path d="m200.570312 230.652344c0 5.851562-4.746093 10.59375-10.597656 10.59375-5.851562 0-10.59375-4.742188-10.59375-10.59375 0-5.855469 4.742188-10.597656 10.59375-10.597656 5.851563 0 10.597656 4.742187 10.597656 10.597656zm0 0" fill="url(#x)"/><path d="m197.644531 272.101562c-1.929687-2.03125-4.648437-3.304687-7.671875-3.304687-5.851562 0-10.59375 4.746094-10.59375 10.597656 0 3.023438 1.269532 5.742188 3.300782 7.671875l18.871093 18.875c1.929688 2.027344 4.648438 3.300782 7.671875 3.300782 5.851563 0 10.597656-4.746094 10.597656-10.597657 0-3.023437-1.273437-5.742187-3.300781-7.671875zm0 0" fill="url(#y)"/><path d="m200.570312 279.394531c0 5.851563-4.746093 10.597657-10.597656 10.597657-5.851562 0-10.59375-4.746094-10.59375-10.597657 0-5.851562 4.742188-10.597656 10.59375-10.597656 5.851563 0 10.597656 4.746094 10.597656 10.597656zm0 0" fill="url(#z)"/><path d="m197.644531 320.84375c-1.929687-2.03125-4.648437-3.300781-7.671875-3.300781-5.851562 0-10.59375 4.742187-10.59375 10.59375 0 3.023437 1.269532 5.742187 3.300782 7.675781l18.871093 18.871094c1.929688 2.03125 4.648438 3.300781 7.671875 3.300781 5.851563 0 10.597656-4.746094 10.597656-10.597656 0-3.019531-1.273437-5.738281-3.300781-7.671875zm0 0" fill="url(#A)"/><path d="m200.570312 328.136719c0 5.851562-4.746093 10.597656-10.597656 10.597656-5.851562 0-10.59375-4.746094-10.59375-10.597656 0-5.851563 4.742188-10.59375 10.59375-10.59375 5.851563 0 10.597656 4.742187 10.597656 10.59375zm0 0" fill="url(#B)"/><path d="m197.644531 369.585938c-1.929687-2.027344-4.648437-3.300782-7.671875-3.300782-5.851562 0-10.59375 4.742188-10.59375 10.597656 0 3.019532 1.269532 5.742188 3.300782 7.671876l18.871093 18.871093c1.929688 2.03125 4.648438 3.300781 7.671875 3.300781 5.851563 0 10.597656-4.742187 10.597656-10.59375 0-3.023437-1.273437-5.742187-3.300781-7.671874zm0 0" fill="url(#C)"/><path d="m200.570312 376.882812c0 5.851563-4.746093 10.597657-10.597656 10.597657-5.851562 0-10.59375-4.746094-10.59375-10.597657 0-5.851562 4.742188-10.597656 10.59375-10.597656 5.851563 0 10.597656 4.746094 10.597656 10.597656zm0 0" fill="url(#D)"/><path d="m197.644531 418.328125c-1.929687-2.027344-4.648437-3.300781-7.671875-3.300781-5.851562 0-10.59375 4.746094-10.59375 10.597656 0 3.023438 1.269532 5.742188 3.300782 7.671875l18.871093 18.875c1.929688 2.027344 4.648438 3.300781 7.671875 3.300781 5.851563 0 10.597656-4.746094 10.597656-10.597656 0-3.023438-1.273437-5.742188-3.300781-7.671875zm0 0" fill="url(#E)"/><path d="m200.570312 425.625c0 5.851562-4.746093 10.597656-10.597656 10.597656-5.851562 0-10.59375-4.746094-10.59375-10.597656s4.742188-10.597656 10.59375-10.597656c5.851563 0 10.597656 4.746094 10.597656 10.597656zm0 0" fill="url(#F)"/><path d="m197.644531 467.074219c-1.929687-2.03125-4.648437-3.300781-7.671875-3.300781-5.851562 0-10.59375 4.742187-10.59375 10.59375 0 3.023437 1.269532 5.742187 3.300782 7.671874l18.871093 18.875c1.929688 2.03125 4.648438 3.300782 7.671875 3.300782 5.851563 0 10.597656-4.746094 10.597656-10.597656 0-3.019532-1.273437-5.742188-3.300781-7.671876zm0 0" fill="url(#G)"/><path d="m200.570312 474.367188c0 5.855468-4.746093 10.597656-10.597656 10.597656-5.851562 0-10.59375-4.742188-10.59375-10.597656 0-5.851563 4.742188-10.59375 10.59375-10.59375 5.851563 0 10.597656 4.742187 10.597656 10.59375zm0 0" fill="url(#H)"/><path d="m65.425781 463.785156c-3.242187 15.335938 6.074219 30.527344 21.214844 34.589844 67.691406 18.160156 138.972656 18.160156 206.664063 0 15.140624-4.0625 24.457031-19.253906 21.21875-34.589844l-9.558594-45.222656h-229.984375zm0 0" fill="url(#I)"/></svg>