<svg height="512pt" viewBox="0 -86 512.00003 512" width="512pt" xmlns="http://www.w3.org/2000/svg" xmlns:xlink="http://www.w3.org/1999/xlink"><linearGradient id="a" gradientUnits="userSpaceOnUse" x1="238.8585434188" x2="330.2154454188" y1="88.280677506" y2="318.178815506"><stop offset="0" stop-color="#acc130"/><stop offset=".3485" stop-color="#a9bd31"/><stop offset=".6956" stop-color="#a2b135"/><stop offset="1" stop-color="#97a03b"/></linearGradient><linearGradient id="b"><stop offset="0" stop-color="#97a03b" stop-opacity="0"/><stop offset=".3281" stop-color="#7e8545" stop-opacity=".329412"/><stop offset=".7568" stop-color="#626751" stop-opacity=".756863"/><stop offset="1" stop-color="#575c55"/></linearGradient><linearGradient id="c" gradientUnits="userSpaceOnUse" x1="444.8321158446" x2="525.2716672712" xlink:href="#b" y1="293.305644034" y2="203.9282754336"/><linearGradient id="d" gradientUnits="userSpaceOnUse" x1="196.18141763" x2="139.4830152282" xlink:href="#b" y1="259.6345017228" y2="102.2132074142"/><linearGradient id="e" gradientUnits="userSpaceOnUse" x1="258.0711006938" x2="241.6803673764" xlink:href="#b" y1="180.1632330652" y2="85.0966384908"/><linearGradient id="f" gradientTransform="matrix(-1.003922 0 0 1.003922 3765.837503 -85.571507)" gradientUnits="userSpaceOnUse" x1="3382.4048" x2="3336.791" xlink:href="#b" y1="309.5203" y2="182.8753"/><linearGradient id="g" gradientTransform="matrix(.869597 .501559 -.501559 .869597 -704.981333 -1247.48192)" gradientUnits="userSpaceOnUse" x1="1597.2992" x2="1515.0316" xlink:href="#b" y1="817.6934" y2="735.4258"/><linearGradient id="h"><stop offset="0" stop-color="#ffe548"/><stop offset="1" stop-color="#ffb211"/></linearGradient><linearGradient id="i" gradientUnits="userSpaceOnUse" x1="156.6254853392" x2="173.3454046804" xlink:href="#h" y1="276.168695494" y2="388.7499140648"/><linearGradient id="j"><stop offset="0" stop-color="#ffb211" stop-opacity="0"/><stop offset=".1677" stop-color="#ffac13" stop-opacity=".168627"/><stop offset=".3845" stop-color="#ff9c1b" stop-opacity=".384314"/><stop offset=".6285" stop-color="#ff8226" stop-opacity=".627451"/><stop offset=".8903" stop-color="#ff5d36" stop-opacity=".890196"/><stop offset="1" stop-color="#ff4b3e"/></linearGradient><linearGradient id="k" gradientUnits="userSpaceOnUse" x1="53.6373438316" x2="31.825833283" xlink:href="#j" y1="323.869547363" y2="302.0579364222"/><linearGradient id="l"><stop offset="0" stop-color="#ff4b3e"/><stop offset=".1888" stop-color="#fb4a3c"/><stop offset=".3876" stop-color="#ee4635"/><stop offset=".5911" stop-color="#d9402a"/><stop offset=".7963" stop-color="#bc381a"/><stop offset="1" stop-color="#972e07"/></linearGradient><linearGradient id="m" gradientUnits="userSpaceOnUse" x1="30.997095672" x2="41.2402122302" xlink:href="#l" y1="300.9772143892" y2="311.9267908588"/><linearGradient id="n" gradientUnits="userSpaceOnUse" x1="114.541978629" x2="92.7304680804" xlink:href="#j" y1="284.3818817682" y2="262.5703712196"/><linearGradient id="o" gradientUnits="userSpaceOnUse" x1="91.9016300772" x2="102.1448470276" xlink:href="#l" y1="261.4895487944" y2="272.4392256562"/><linearGradient id="p" gradientUnits="userSpaceOnUse" x1="156.0373878316" x2="134.225877283" xlink:href="#j" y1="327.2159205656" y2="305.404410017"/><linearGradient id="q" gradientUnits="userSpaceOnUse" x1="133.397139672" x2="143.6402562302" xlink:href="#l" y1="304.3235875918" y2="315.2731640614"/><linearGradient id="r" gradientUnits="userSpaceOnUse" x1="247.3223086242" x2="225.5107980756" xlink:href="#j" y1="328.6441000028" y2="306.8325894542"/><linearGradient id="s" gradientUnits="userSpaceOnUse" x1="224.6819600724" x2="234.9251770228" xlink:href="#l" y1="305.751767029" y2="316.7014438908"/><linearGradient id="t" gradientUnits="userSpaceOnUse" x1="214.5274898268" x2="192.7159792782" xlink:href="#b" y1="239.6297495976" y2="217.8181386568"/><linearGradient id="u"><stop offset="0" stop-color="#ffb211"/><stop offset=".1645" stop-color="#ffac14"/><stop offset=".3888" stop-color="#ff9a1b"/><stop offset=".6475" stop-color="#ff7e28"/><stop offset=".9301" stop-color="#ff5639"/><stop offset="1" stop-color="#ff4b3e"/></linearGradient><linearGradient id="v" gradientUnits="userSpaceOnUse" x1="191.887141275" x2="202.1303582254" xlink:href="#u" y1="216.7373162316" y2="227.6869930934"/><linearGradient id="w" gradientUnits="userSpaceOnUse" x1="306.6423529368" x2="284.8308423882" xlink:href="#b" y1="273.0597498444" y2="251.2482392958"/><linearGradient id="x" gradientUnits="userSpaceOnUse" x1="284.002004385" x2="294.2452213354" xlink:href="#h" y1="250.1674168706" y2="261.1169933402"/><linearGradient id="y" gradientUnits="userSpaceOnUse" x1="299.1690571766" x2="277.357546628" xlink:href="#b" y1="197.7693143558" y2="175.9578038072"/><linearGradient id="z" gradientUnits="userSpaceOnUse" x1="276.528809017" x2="286.7720259674" xlink:href="#h" y1="174.876981382" y2="185.8266582438"/><linearGradient id="A" gradientUnits="userSpaceOnUse" x1="384.88863597" x2="363.0771254214" xlink:href="#b" y1="224.818085194" y2="203.0065746454"/><linearGradient id="B" gradientUnits="userSpaceOnUse" x1="362.2482874182" x2="372.4915043686" xlink:href="#u" y1="201.9257522202" y2="212.875429082"/><linearGradient id="C" gradientUnits="userSpaceOnUse" x1="442.2208143304" x2="420.4093037818" xlink:href="#b" y1="303.1759039614" y2="281.3643934128"/><linearGradient id="D" gradientUnits="userSpaceOnUse" x1="419.5804657786" x2="429.823682729" xlink:href="#h" y1="280.2835709876" y2="291.2331474572"/><linearGradient id="E" gradientUnits="userSpaceOnUse" x1="395.48503268" x2="373.6735221314" xlink:href="#b" y1="155.606698592" y2="133.7951880434"/><linearGradient id="F" gradientUnits="userSpaceOnUse" x1="372.8446841282" x2="383.0879010786" xlink:href="#h" y1="132.7143656182" y2="143.66404248"/><linearGradient id="G"><stop offset="0" stop-color="#a4508b"/><stop offset=".328" stop-color="#a14d8c"/><stop offset=".5737" stop-color="#974490"/><stop offset=".7918" stop-color="#873497"/><stop offset=".994" stop-color="#711ea0"/><stop offset="1" stop-color="#701da0"/></linearGradient><linearGradient id="H" gradientTransform="matrix(.863774 -.511598 .511598 .863774 168.87296 611.947677)" gradientUnits="userSpaceOnUse" x1="213.802" x2="236.9875" xlink:href="#G" y1="-498.642" y2="-498.642"/><linearGradient id="I" gradientTransform="matrix(.863774 -.511598 .511598 .863774 168.87296 611.947677)" gradientUnits="userSpaceOnUse" x1="194.3208" x2="236.9875" xlink:href="#G" y1="-522.2984" y2="-522.2984"/><linearGradient id="J"><stop offset="0" stop-color="#ffe548"/><stop offset=".2472" stop-color="#ffe042"/><stop offset=".5621" stop-color="#ffd133"/><stop offset=".9123" stop-color="#ffb919"/><stop offset="1" stop-color="#ffb211"/></linearGradient><linearGradient id="K" gradientTransform="matrix(.709873 -.709873 .709873 .709873 347.020649 867.668286)" gradientUnits="userSpaceOnUse" x1="379.1443" x2="398.524" xlink:href="#J" y1="-762.7936" y2="-757.8317"/><linearGradient id="L" gradientTransform="matrix(.709873 -.709873 .709873 .709873 347.020649 867.668286)" gradientUnits="userSpaceOnUse" x1="387.3356" x2="403.0446" xlink:href="#J" y1="-727.7178" y2="-723.6957"/><linearGradient id="M" gradientTransform="matrix(-.511598 .863774 .863774 .511598 1858.924022 -1078.103385)" gradientUnits="userSpaceOnUse" x1="1823.9762" x2="1847.1616" xlink:href="#G" y1="-910.9088" y2="-910.9088"/><linearGradient id="N" gradientTransform="matrix(-.511598 .863774 .863774 .511598 1858.924022 -1078.103385)" gradientUnits="userSpaceOnUse" x1="1804.495" x2="1847.1616" xlink:href="#G" y1="-934.5653" y2="-934.5653"/><linearGradient id="O" gradientTransform="matrix(-.709873 .709873 .709873 .709873 2114.644631 -899.955595)" gradientUnits="userSpaceOnUse" x1="2041.2589" x2="2060.6387" xlink:href="#J" y1="-762.7936" y2="-757.8317"/><linearGradient id="P" gradientTransform="matrix(-.709873 .709873 .709873 .709873 2114.644631 -899.955595)" gradientUnits="userSpaceOnUse" x1="2049.4502" x2="2065.1592" xlink:href="#J" y1="-727.7178" y2="-723.6957"/><linearGradient id="Q"><stop offset="0" stop-color="#ffb211"/><stop offset=".4471" stop-color="#ffb012"/><stop offset=".6081" stop-color="#ffa915"/><stop offset=".7229" stop-color="#ff9e1a"/><stop offset=".8157" stop-color="#ff8d21"/><stop offset=".8952" stop-color="#ff772b"/><stop offset=".9643" stop-color="#ff5c37"/><stop offset="1" stop-color="#ff4b3e"/></linearGradient><linearGradient id="R" gradientTransform="matrix(.709873 -.709873 .709873 .709873 347.020649 867.668286)" gradientUnits="userSpaceOnUse" x1="399.1881" x2="412.9803" xlink:href="#Q" y1="-779.3228" y2="-779.3228"/><linearGradient id="S" gradientTransform="matrix(-.709873 .709873 .709873 .709873 2208.410002 -993.721066)" gradientUnits="userSpaceOnUse" x1="2193.3889" x2="2207.1812" xlink:href="#Q" y1="-779.3228" y2="-779.3228"/><linearGradient id="T" gradientTransform="matrix(.709873 -.709873 .709873 .709873 347.020649 867.668286)" gradientUnits="userSpaceOnUse" x1="405.536" x2="422.3823" xlink:href="#J" y1="-747.064" y2="-744.3113"/><radialGradient id="U" cx="199.2594" cy="156.3781" gradientTransform="matrix(1.003922 -.00401569 .00401569 1.003922 -.466723 -80.491563)" gradientUnits="userSpaceOnUse" r="56.0435"><stop offset="0" stop-color="#f2e9dc"/><stop offset=".423" stop-color="#f1e7da"/><stop offset=".6192" stop-color="#eee1d2"/><stop offset=".7687" stop-color="#e9d6c6"/><stop offset=".8937" stop-color="#e3c7b3"/><stop offset="1" stop-color="#dab49d"/></radialGradient><linearGradient id="V"><stop offset="0" stop-color="#dab49d" stop-opacity="0"/><stop offset=".4385" stop-color="#ce9e7a" stop-opacity=".439216"/><stop offset="1" stop-color="#c08552"/></linearGradient><linearGradient id="W" gradientTransform="matrix(1.003922 -.00401569 .00401569 1.003922 -.466723 -80.491563)" gradientUnits="userSpaceOnUse" x1="185.8765" x2="185.1506" xlink:href="#V" y1="178.1924" y2="164.5054"/><linearGradient id="X" gradientTransform="matrix(1.003922 -.00401569 .00401569 1.003922 -.466723 -80.491563)" gradientUnits="userSpaceOnUse" x1="172.7265" x2="172.7265" xlink:href="#V" y1="156.3175" y2="168.8001"/><path d="m512 282.960938v.019531c0 .964843-.019531 1.929687-.070312 2.890625-.019532.402344-.050782.804687-.082032 1.207031-.027344.550781-.078125 1.101563-.140625 1.644531-.039062.484375-.097656.945313-.148437 1.417969-.101563.820313-.222656 1.636719-.363282 2.4375-.058593.414063-.128906.824219-.210937 1.234375-4.464844 23.292969-23.058594 41.765625-46.378906 46.089844-1.214844.222656-2.441407.414062-3.675781.554687-.058594.007813-.128907.019531-.199219.019531-.421875.050782-.855469.097657-1.277344.128907-.421875.039062-.839844.082031-1.261719.109375-.132812.011718-.253906.023437-.375.023437-.1875.015625-.375.023438-.566406.035157-.671875.03125-1.765625.074218-2.433594.074218h-.703125v.007813h-262.886719c-14.101562 0-27.921874-3.910157-39.925781-11.300781l.019531-.121094c-.703124-.453125-1.40625-.925782-2.097656-1.394532-.683594-.472656-1.355468-.957031-2.019531-1.4375-.089844-.058593-.167969-.121093-.257813-.191406-.605468-.449218-1.195312-.902344-1.789062-1.355468-.660156-.519532-1.3125-1.042969-1.957031-1.585938-.652344-.53125-1.285157-1.082031-1.917969-1.636719-1.265625-1.113281-2.488281-2.257812-3.671875-3.441406-.605469-.59375-1.1875-1.195313-1.757813-1.796875-.582031-.613281-1.15625-1.234375-1.707031-1.859375-1.125-1.242187-2.210937-2.527344-3.242187-3.855469-.523438-.660156-1.035156-1.335937-1.535156-2.007812-.503907-.671875-.996094-1.355469-1.476563-2.046875-.484375-.691407-.953125-1.386719-1.417969-2.097657-.449218-.683593-.890625-1.386718-1.324218-2.089843-.03125-.050781-.070313-.109375-.101563-.167969-.359375-.59375-.710937-1.1875-1.050781-1.789062-1.367188-2.359376-2.613282-4.789063-3.726563-7.289063-.140625-.308594-.28125-.621094-.410156-.933594-.183594-.390625-.34375-.78125-.503906-1.171875-.167969-.394531-.332031-.792968-.480469-1.1875-.511719-1.273437-.996094-2.570312-1.445312-3.882812-.152344-.433594-.292969-.875-.433594-1.316406-.167969-.523438-.332032-1.042969-.492188-1.574219-.128906-.433594-.261718-.875-.378906-1.316407-.042969-.140624-.082031-.292968-.121094-.433593-.089844-.328125-.179687-.652344-.273437-.980469-.046875-.171875-.089844-.351562-.140625-.535156-.078125-.308594-.148438-.632813-.230469-.941406-.078125-.324219-.148437-.632813-.21875-.953126-.03125-.082031-.050781-.164062-.0625-.253906-.019531-.078125-.039063-.160156-.058594-.238281v-.011719c-.082031-.371094-.160156-.753906-.242187-1.132812-.089844-.421875-.179688-.84375-.261719-1.265625-.019531-.070313-.027344-.132813-.039063-.203125-.070312-.371094-.128906-.730469-.199218-1.09375-.042969-.210938-.082032-.429688-.113282-.652344-.019531-.097656-.039062-.199219-.046874-.308594-.070313-.445312-.140626-.886718-.203126-1.328125-.019531-.097656-.039062-.210937-.050781-.308593-.027343-.230469-.070312-.464844-.097656-.703126-.011719-.089843-.019531-.171874-.03125-.253906-.039063-.328125-.089844-.652344-.121094-.980468-.007812-.09375-.019531-.191407-.03125-.292969-.019531-.128907-.039062-.261719-.046875-.390625-.03125-.222656-.050781-.453125-.070312-.683594-.011719-.058594-.011719-.121094-.023438-.179688-.027344-.273437-.058594-.554687-.078125-.824218-.03125-.320313-.0625-.632813-.082031-.953125 0-.050781 0-.089844-.007812-.140625-.011719-.101563-.011719-.199219-.019532-.300782-.03125-.292968-.050781-.59375-.070312-.894531-.023438-.300781-.03125-.613281-.042969-.921875-.019531-.332031-.027344-.652344-.050781-.984375l-.027344-1.144531c-.019531-.320312-.03125-.652344-.03125-.972656v-1.175782c0-.882812.011719-1.765624.039062-2.652343.019532-.679688.050782-1.355469.089844-2.027344 0-.039063 0-.078125.011719-.121094.011719-.078125.011719-.167969.011719-.257812.019531-.382813.046875-.753907.078125-1.125.019531-.300781.039062-.605469.070312-.90625.011719-.109375.019531-.210938.03125-.308594.03125-.394531.070313-.785156.109375-1.164063.03125-.3125.0625-.613281.089844-.925781 0-.007812 0-.03125.011719-.039062.089843-.785157.191406-1.566407.300781-2.339844s.230469-1.546875.359375-2.320313c.261719-1.535156.574219-3.058593.914063-4.566406 0 0 .011718-.011718.011718-.019531.3125-1.347656.652344-2.671875 1.023438-3.984375.371094-1.316406.773437-2.613281 1.214844-3.898438.433593-1.285156.902343-2.558593 1.394531-3.824218.503906-1.253906 1.023437-2.488282 1.566406-3.714844l.011719-.007812c.5625-1.226563 1.144531-2.429688 1.746094-3.625.613281-1.195313 1.253906-2.378907 1.925781-3.542969.996093-1.738281 2.050781-3.433594 3.175781-5.089844.007812 0 .007812 0 .007812-.011719.832032-1.246094 1.707032-2.460937 2.609376-3.652344.300781-.402343.613281-.792968.914062-1.1875.625-.78125 1.253906-1.554687 1.898438-2.316406.640624-.765625 1.292968-1.507812 1.96875-2.25 0 0 .007812 0 .007812-.011718.894531-.980469 1.808594-1.9375 2.75-2.878907 1.878906-1.878906 3.847656-3.675781 5.90625-5.363281.75-.632812 1.519531-1.234375 2.300781-1.839844.832031-.640625 1.675781-1.265625 2.53125-1.871094.511719-.359374 1.03125-.726562 1.558594-1.074218 1.105469-.753906 2.21875-1.46875 3.363281-2.160156 12.5625-7.640626 27.316406-12.039063 43.101563-12.039063.792969 0 1.59375.011719 2.378906.042969.792969.019531 1.574219.050781 2.359375.097656h.007812c.140626-1.363281.320313-2.71875.554688-4.0625.140625-.835938.308594-1.65625.480469-2.480469.109375-.511719.230469-1.023437.359375-1.535156.101562-.421875.210937-.84375.324218-1.257813.121094-.429687.238282-.863281.371094-1.285156.121094-.429687.25-.851562.390625-1.273437.140625-.433594.28125-.84375.421875-1.265625.140625-.429688.292969-.851563.460938-1.265625.152344-.410157.3125-.8125.472656-1.222657.160156-.414062.332031-.8125.5-1.226562.171875-.410156.351562-.8125.535156-1.203125.359375-.804687.75-1.597656 1.144532-2.371094.800781-1.59375 1.683593-3.132812 2.640624-4.625.179688-.28125.359376-.574219.550782-.855469.152344-.242187.3125-.480468.480468-.710937.183594-.28125.382813-.5625.582032-.84375.171875-.261719.363281-.511719.554687-.765625.167969-.238281.351563-.480469.519531-.722656 1.4375-1.90625 2.984376-3.714844 4.640626-5.410156.273437-.285157.5625-.570313.828124-.839844.941407-.945313 1.925782-1.851563 2.9375-2.722656.339844-.289063.675782-.574219 1.011719-.855469.28125-.238281.574219-.472657.863281-.691407.351563-.28125.714844-.5625 1.074219-.832031.171875-.132812.332031-.261719.503907-.382812 2.148437-1.597657 4.414062-3.042969 6.796874-4.328125.398438-.21875.820313-.441406 1.234376-.652344.199218-.109375.398437-.210938.601562-.300781.269531-.140625.542969-.273438.816406-.402344.464844-.226563 1.234375-.570313 1.707032-.785156.167968-.074219.335937-.148438.507812-.21875.492188-.210938.984375-.410157 1.496094-.609375.5625-.222656 1.125-.433594 1.6875-.632813.128906-.050781.257812-.101562.398437-.140625.554688-.191406 1.105469-.382812 1.660157-.554687.238281-.078125.46875-.148438.710937-.21875.640625-.203125 1.285156-.382813 1.949219-.554688.28125-.078125.570312-.148437.863281-.21875 2.054687-.511719 4.175781-.914062 6.324219-1.195312.210937-.03125.421875-.050781.640625-.082031.996093-.117188 2.007812-.21875 3.023437-.277344.824219-.0625 1.644532-.101563 2.46875-.121094.503906-.011719.992188-.019531 1.496094-.019531.882812 0 1.765625.019531 2.640625.058593.300781.011719.601563.03125.902344.050782.59375.03125 1.183593.078125 1.777343.140625.410157.027343.824219.070312 1.226563.121093.851563.089844 1.707031.210938 2.546875.339844.855469.128906 1.699219.28125 2.542969.460938.421875.082031.832031.171875 1.242187.273437.421875.089844.835938.1875 1.246094.289063.3125.082031.632812.160156.953125.25 1.183594.3125 2.351563.675781 3.496094 1.054687.523437.179688 1.046875.375 1.574219.5625 13.671874-27.144531 41.792968-45.769531 74.261718-45.769531 39.53125 0 72.613282 27.597656 81.035156 64.582031 2.148438 9.46875 8.511719 17.550781 17.417969 21.433594 16.375 7.140625 27.828125 23.464844 27.828125 42.46875 0 6.484375-1.34375 12.648437-3.742187 18.261719l-.011719.007812c2.257812.894532 4.445312 1.929688 6.554688 3.082032.703124.382812 1.40625.785156 2.089843 1.207031.308594.1875.613281.371093.914063.5625.492187.308593.972656.621093 1.453125.941406.953125.652344 1.886719 1.324219 2.800781 2.019531 0 0 .011719-.011718.011719 0 .914062.710938 1.808593 1.433594 2.671875 2.175782.871094.746093 1.714844 1.515624 2.546875 2.332031.414062.398437.824219.8125 1.226562 1.222656.371094.382813.730469.765625 1.09375 1.15625.710938.78125 1.414063 1.585937 2.089844 2.410156.339844.410157.671875.820313.992187 1.242188.390626.492187.761719.996093 1.125 1.496093 1.09375 1.507813 2.109376 3.074219 3.0625 4.679688.550782.914062 1.0625 1.847656 1.554688 2.808594.160156.3125.320312.632812.480469.957031.152343.320313.3125.640625.464843.972656.632813 1.324219 1.203126 2.691407 1.726563 4.074219.109375.300781.230469.601562.328125.90625.3125.851562.605469 1.714844.875 2.589844.089844.320312.191406.640625.28125.960937.171875.605469.339844 1.207031.492188 1.820313.101562.378906.191406.75.269531 1.132812.09375.390625.183593.792969.261719 1.183594.203124.964844.382812 1.929688.53125 2.914062.0625.371094.113281.730469.164062 1.101563.039062.292969.078125.59375.109375.882813.050781.351562.089844.714843.121094 1.074218.046875.484375.089843.976563.128906 1.457032.03125.351562.050781.703124.070313 1.054687.019531.269531.03125.542969.039062.824219.019531.359375.03125.722656.042969 1.082031.007812.492187.019531.984375.019531 1.476563zm0 0" fill="url(#a)"/><path d="m512 282.960938v.019531c0 .964843-.019531 1.929687-.070312 2.890625-.019532.402344-.050782.804687-.082032 1.207031-.027344.550781-.078125 1.101563-.140625 1.644531-.039062.484375-.097656.945313-.148437 1.417969-3.253906 26.363281-24.214844 47.222656-50.628906 50.316406-.058594.007813-.128907.019531-.199219.019531-.421875.050782-.855469.097657-1.277344.128907-.421875.039062-.839844.082031-1.261719.109375-.132812.011718-.253906.023437-.375.023437-.359375.027344-.722656.039063-1.09375.058594-.632812.03125-1.261718.050781-1.90625.050781-.21875.007813-.441406.007813-.664062.007813h-.128906c-.5 0-.992188-.007813-1.496094-.019531-.28125-.007813-.550782-.019532-.832032-.027344-.492187-.023438-.976562-.050782-1.457031-.082032-.8125-.050781-1.625-.121093-2.429687-.210937-.570313-.058594-1.132813-.128906-1.695313-.210937-.59375-.078126-1.175781-.171876-1.757812-.269532-.160157-.03125-.320313-.050781-.472657-.082031-.550781-.101563-1.101562-.199219-1.644531-.320313-.414062-.082031-.824219-.171874-1.234375-.269531-.34375-.082031-.695312-.164062-1.035156-.253906-.410156-.097656-.824219-.210937-1.234375-.320313-1.175781-.320312-2.328125-.683593-3.464844-1.074218-.320312-.109375-.632812-.222656-.941406-.332032-1.136719-.410156-2.261719-.863281-3.355469-1.34375-.441406-.191406-.882812-.390624-1.324218-.59375-.109376-.050781-.222657-.101562-.320313-.148437-.523437-.253906-1.046875-.503906-1.558594-.773437-.429687-.222657-.851562-.441407-1.273437-.671876-.300782-.164062-.601563-.332031-.902344-.503906-.90625-.511718-1.796875-1.042968-2.660156-1.605468-.394532-.25-.785156-.511719-1.167969-.773438-.339844-.222656-.679687-.460938-1.011719-.703125-.351562-.242187-.703125-.492187-1.054687-.753906-.3125-.230469-.632813-.46875-.945313-.722657-.117187-.089843-.238281-.179687-.359375-.28125-.269531-.199218-.523437-.410156-.785156-.632812-.289063-.21875-.582031-.460938-.871094-.722656-.410156-.339844-.8125-.679688-1.207031-1.042969-.109375-.089844-.21875-.191406-.328125-.289063-.421875-.394531-.84375-.785156-1.257813-1.1875-.429687-.402343-.851562-.820312-1.261718-1.253906-.042969-.03125-.082032-.070312-.121094-.121094-.421875-.441406-.835938-.882812-1.246094-1.324218-.019531-.011719-.03125-.03125-.039062-.039063-.402344-.453125-.804688-.90625-1.195313-1.367187-.011719 0-.011719-.007813-.019531-.019532-.402344-.480468-.804688-.964843-1.183594-1.445312-.804687-.984375-1.558594-2-2.269531-3.03125-.351563-.523438-.714844-1.046875-1.054687-1.566406-.691407-1.054688-1.347657-2.140625-1.96875-3.242188 0 0 0 0 0-.011718-4.074219-7.269532-6.625-15.511719-7.207032-24.285157-.101562-1.304687-.140625-2.621093-.140625-3.945312 0-16.664063 7.046875-31.691407 18.332031-42.246094 6.382813-5.980469 14.113282-10.53125 22.699219-13.128906 5.328125-1.628907 10.992188-2.5 16.855469-2.5 7.519531 0 14.695312 1.433593 21.292969 4.046875 3.011719 1.183594 5.902343 2.628906 8.632812 4.296875.3125.1875.613281.371093.914063.5625 3.914062 2.457031 7.507812 5.378906 10.710937 8.691406 1.484375 1.527344 2.882813 3.132813 4.175781 4.808594 1.535157 1.957031 2.933594 4.015625 4.1875 6.175781.550782.914062 1.0625 1.847656 1.554688 2.808594.160156.3125.324219.632812.484375.957031.148437.320313.308594.640625.460937.972656.632813 1.324219 1.203126 2.691407 1.726563 4.074219.109375.300781.230469.601562.332031.90625.308594.851562.601563 1.714844.871094 2.589844.089844.320312.191406.640625.28125.960937.171875.605469.34375 1.207031.492188 1.820313.101562.378906.191406.75.273437 1.132812.089844.390625.179687.792969.257813 1.183594.203124.964844.382812 1.929688.535156 2.914062.058594.371094.109375.730469.160156 1.101563.039062.292969.078125.59375.109375.882813.050781.351562.089844.714843.121094 1.074218.050781.484375.089843.976563.128906 1.457032.03125.351562.050781.703124.070313 1.054687.019531.269531.03125.542969.042968.824219.019532.359375.027344.722656.039063 1.082031.007812.492187.019531.984375.019531 1.476563zm0 0" fill="url(#c)"/><path d="m279.25 259.570312c0 23.550782-9.796875 44.8125-25.539062 59.933594-1.175782 1.132813-2.390626 2.238282-3.632813 3.292969-2.230469 1.917969-4.570313 3.703125-7.007813 5.371094-.453124.3125-.90625.613281-1.367187.914062-.421875.28125-.84375.550781-1.273437.824219-.414063.269531-.832032.53125-1.253907.769531-.453125.28125-.894531.554688-1.355469.816407-2.300781 1.332031-4.679687 2.570312-7.117187 3.683593-.34375.148438-.683594.308594-1.027344.460938-.792969.351562-1.59375.691406-2.40625 1.015625-.394531.160156-.785156.320312-1.1875.46875-.550781.210937-1.101562.421875-1.664062.625-1.636719.589844-3.292969 1.132812-4.980469 1.625-.050781.019531-.089844.03125-.140625.039062-.5625.160156-1.125.3125-1.6875.464844-.472656.128906-.941406.25-1.425781.371094-.179688.050781-.359375.089844-.542969.128906-.511719.121094-1.023437.242188-1.535156.351562-.191407.050782-.378907.089844-.570313.128907h-34.785156c-9.921875-2.105469-19.1875-5.992188-27.449219-11.300781-15.710937-10.089844-27.789062-25.332032-33.871093-43.339844-.152344-.433594-.292969-.875-.433594-1.316406-.167969-.523438-.332032-1.042969-.492188-1.574219-.128906-.433594-.261718-.875-.378906-1.316407-.042969-.140624-.082031-.292968-.121094-.433593-.089844-.328125-.179687-.652344-.273437-.980469-.046875-.171875-.089844-.351562-.140625-.535156-.070313-.261719-.128906-.53125-.199219-.792969-.011719-.050781-.03125-.097656-.03125-.148437-.109375-.402344-.199219-.804688-.28125-1.207032-.019531-.078125-.039063-.160156-.058594-.238281v-.011719c-.03125-.128906-.058593-.261718-.089843-.390625-.03125-.121093-.0625-.242187-.082032-.371093-.121094-.542969-.230468-1.085938-.332031-1.636719-.019531-.070313-.027344-.132813-.039063-.203125-.070312-.371094-.128906-.730469-.199218-1.09375-.042969-.210938-.082032-.429688-.113282-.652344-.019531-.097656-.039062-.199219-.046874-.308594-.070313-.445312-.140626-.886718-.203126-1.328125-.019531-.097656-.039062-.210937-.050781-.308593-.046875-.3125-.089843-.632813-.128906-.957032-.011719-.078125-.019531-.167968-.03125-.257812-.027344-.242188-.058594-.484375-.089844-.722656-.007812-.09375-.019531-.191407-.03125-.292969-.039062-.3125-.070312-.621094-.097656-.933594-.011719-.039063-.019531-.089844-.019531-.140625-.011719-.058594-.011719-.121094-.023438-.179688-.058594-.59375-.109375-1.183593-.160156-1.777343 0-.050781 0-.089844-.007812-.140625-.011719-.101563-.011719-.199219-.019532-.300782-.042968-.601562-.082031-1.207031-.113281-1.816406-.019531-.332031-.027344-.652344-.050781-.984375l-.027344-1.144531c-.019531-.671875-.03125-1.347656-.03125-2.019531v-.128907c0-.882812.011719-1.765624.039062-2.652343.019532-.679688.050782-1.355469.089844-2.027344 0-.039063 0-.078125.011719-.121094.019531-.460937.050781-.921875.089844-1.382812.019531-.300781.039062-.605469.070312-.90625.011719-.109375.019531-.210938.03125-.308594.03125-.394531.070313-.785156.109375-1.164063.03125-.324218.0625-.644531.101563-.964843.089843-.785157.191406-1.566407.300781-2.339844s.230469-1.546875.359375-2.320313c.261719-1.535156.574219-3.058593.914063-4.566406 0 0 .011718-.011718.011718-.019531.3125-1.347656.652344-2.671875 1.023438-3.984375.371094-1.316406.773437-2.613281 1.214844-3.898438.433593-1.285156.902343-2.558593 1.394531-3.824218.503906-1.253906 1.023437-2.488282 1.566406-3.714844l.011719-.007812c.5625-1.226563 1.144531-2.429688 1.746094-3.625.613281-1.195313 1.253906-2.378907 1.925781-3.542969 1.003906-1.738281 2.058593-3.433594 3.175781-5.089844.007812 0 .007812 0 .007812-.011719.84375-1.246094 1.707032-2.460937 2.609376-3.652344.300781-.402343.613281-.792968.914062-1.1875.625-.78125 1.253906-1.554687 1.898438-2.316406.640624-.765625 1.292968-1.507812 1.96875-2.25 0 0 .007812 0 .007812-.011718.894531-.980469 1.808594-1.9375 2.75-2.878907 1.878906-1.878906 3.847656-3.675781 5.90625-5.363281.761719-.640625 1.542969-1.253906 2.335938-1.867188.785156-.601562 1.585937-1.191406 2.402343-1.773437.539063-.382813 1.09375-.773437 1.65625-1.144531 1.101563-.746094 2.21875-1.46875 3.363281-2.160156 12.558594-7.640626 27.316407-12.039063 43.097657-12.039063.792969 0 1.59375.011719 2.378906.042969.792969.019531 1.574219.050781 2.359375.097656h.007812c27.820313 1.558594 51.984376 16.808594 65.859376 39.113281 4.175781 6.6875 7.417968 14.027344 9.546874 21.816407 1.9375 7.015624 2.960938 14.417968 2.960938 22.046874zm0 0" fill="url(#d)"/><path d="m316.34375 182.449219c0 31.964843-25.914062 57.878906-57.878906 57.878906s-57.878906-25.914063-57.878906-57.878906c0-31.964844 25.914062-57.878907 57.878906-57.878907s57.878906 25.914063 57.878906 57.878907zm0 0" fill="url(#e)"/><path d="m437.316406 225.101562c0 37.074219-30.054687 67.128907-67.125 67.128907-37.074218 0-67.128906-30.054688-67.128906-67.128907 0-37.070312 30.054688-67.125 67.128906-67.125 37.070313 0 67.125 30.054688 67.125 67.125zm0 0" fill="url(#f)"/><path d="m329.609375 269.484375c0 30.058594-24.367187 54.425781-54.425781 54.425781-30.0625 0-54.429688-24.367187-54.429688-54.425781 0-30.0625 24.367188-54.429687 54.429688-54.429687 30.058594 0 54.425781 24.367187 54.425781 54.429687zm0 0" fill="url(#g)"/><path d="m319.960938 340.855469h-303.554688c-8.980469 0-16.3867188-7.21875-16.40625-16.203125 0-.054688 0-.113282 0-.167969 0-22.335937 8.722656-42.636719 22.949219-57.675781 5.390625-5.507813 11.4375-10.371094 18.023437-14.453125 14.605469-9.0625 31.835938-14.296875 50.292969-14.296875 27.234375 0 51.792969 11.382812 69.195313 29.652344 4.355468 4.570312 10.835937 6.484374 16.9375 4.847656 4.105468-1.105469 8.429687-1.695313 12.890624-1.695313 14.09375 0 26.8125 5.894531 35.828126 15.34375 4.730468 4.972657 11.949218 6.675781 18.398437 4.335938 6.996094-2.539063 14.539063-3.933594 22.40625-3.933594 28 0 51.902344 17.550781 61.3125 42.234375 2.207031 5.800781-2.066406 12.011719-8.273437 12.011719zm0 0" fill="url(#i)"/><path d="m42.324219 297.589844c-1.929688-2.03125-4.648438-3.300782-7.671875-3.300782-5.851563 0-10.597656 4.742188-10.597656 10.59375 0 3.023438 1.273437 5.742188 3.300781 7.675782l18.875 18.871094c1.929687 2.03125 4.648437 3.300781 7.671875 3.300781 5.851562 0 10.59375-4.746094 10.59375-10.597657 0-3.019531-1.269532-5.742187-3.300782-7.671874zm0 0" fill="url(#k)"/><path d="m45.25 304.882812c0 5.851563-4.746094 10.597657-10.597656 10.597657-5.851563 0-10.597656-4.746094-10.597656-10.597657 0-5.851562 4.746093-10.59375 10.597656-10.59375 5.851562 0 10.597656 4.742188 10.597656 10.59375zm0 0" fill="url(#m)"/><path d="m103.230469 258.101562c-1.933594-2.03125-4.652344-3.300781-7.675781-3.300781-5.851563 0-10.59375 4.742188-10.59375 10.59375 0 3.023438 1.269531 5.746094 3.300781 7.675781l18.871093 18.871094c1.929688 2.03125 4.652344 3.300782 7.671876 3.300782 5.855468 0 10.597656-4.742188 10.597656-10.59375 0-3.023438-1.269532-5.742188-3.300782-7.671876zm0 0" fill="url(#n)"/><path d="m106.152344 265.394531c0 5.855469-4.742188 10.597657-10.597656 10.597657-5.851563 0-10.59375-4.742188-10.59375-10.597657 0-5.851562 4.742187-10.59375 10.59375-10.59375 5.855468 0 10.597656 4.742188 10.597656 10.59375zm0 0" fill="url(#o)"/><path d="m144.722656 300.933594c-1.929687-2.027344-4.648437-3.300782-7.671875-3.300782-5.851562 0-10.597656 4.746094-10.597656 10.597657 0 3.023437 1.273437 5.742187 3.300781 7.671875l18.875 18.875c1.929688 2.027344 4.648438 3.300781 7.671875 3.300781 5.851563 0 10.597657-4.746094 10.597657-10.597656 0-3.023438-1.273438-5.742188-3.300782-7.671875zm0 0" fill="url(#p)"/><path d="m147.648438 308.230469c0 5.851562-4.742188 10.597656-10.597657 10.597656-5.851562 0-10.59375-4.746094-10.59375-10.597656 0-5.851563 4.742188-10.597657 10.59375-10.597657 5.855469 0 10.597657 4.746094 10.597657 10.597657zm0 0" fill="url(#q)"/><path d="m236.011719 302.363281c-1.933594-2.03125-4.652344-3.300781-7.675781-3.300781-5.851563 0-10.59375 4.742188-10.59375 10.597656 0 3.019532 1.269531 5.742188 3.300781 7.671875l18.871093 18.871094c1.929688 2.03125 4.648438 3.300781 7.671876 3.300781 5.851562 0 10.597656-4.742187 10.597656-10.59375 0-3.023437-1.273438-5.742187-3.300782-7.671875zm0 0" fill="url(#r)"/><path d="m238.933594 309.660156c0 5.851563-4.746094 10.59375-10.597656 10.59375-5.851563 0-10.59375-4.742187-10.59375-10.59375 0-5.855468 4.742187-10.597656 10.59375-10.597656 5.851562 0 10.597656 4.742188 10.597656 10.597656zm0 0" fill="url(#s)"/><path d="m203.214844 213.347656c-1.929688-2.027344-4.648438-3.300781-7.671875-3.300781-5.851563 0-10.597657 4.746094-10.597657 10.597656 0 3.023438 1.273438 5.742188 3.300782 7.671875l18.871094 18.871094c1.933593 2.03125 4.652343 3.300781 7.675781 3.300781 5.851562 0 10.59375-4.742187 10.59375-10.59375 0-3.023437-1.269531-5.742187-3.300781-7.671875zm0 0" fill="url(#t)"/><path d="m206.136719 220.644531c0 5.851563-4.742188 10.597657-10.59375 10.597657-5.851563 0-10.597657-4.746094-10.597657-10.597657 0-5.851562 4.746094-10.597656 10.597657-10.597656 5.851562 0 10.59375 4.746094 10.59375 10.597656zm0 0" fill="url(#v)"/><path d="m295.328125 246.78125c-1.929687-2.03125-4.648437-3.304688-7.671875-3.304688-5.851562 0-10.597656 4.746094-10.597656 10.597657 0 3.023437 1.273437 5.742187 3.300781 7.671875l18.875 18.875c1.929687 2.027344 4.648437 3.300781 7.671875 3.300781 5.851562 0 10.597656-4.746094 10.597656-10.597656 0-3.023438-1.273437-5.742188-3.300781-7.671875zm0 0" fill="url(#w)"/><path d="m298.253906 254.074219c0 5.851562-4.746094 10.597656-10.597656 10.597656s-10.597656-4.746094-10.597656-10.597656c0-5.851563 4.746094-10.597657 10.597656-10.597657s10.597656 4.746094 10.597656 10.597657zm0 0" fill="url(#x)"/><path d="m287.855469 171.488281c-1.929688-2.03125-4.648438-3.300781-7.671875-3.300781-5.851563 0-10.597656 4.742188-10.597656 10.59375 0 3.023438 1.273437 5.746094 3.300781 7.675781l18.875 18.871094c1.929687 2.03125 4.648437 3.300781 7.671875 3.300781 5.851562 0 10.597656-4.742187 10.597656-10.59375 0-3.023437-1.273438-5.742187-3.300781-7.671875zm0 0" fill="url(#y)"/><path d="m290.78125 178.785156c0 5.851563-4.746094 10.59375-10.597656 10.59375-5.851563 0-10.597656-4.742187-10.597656-10.59375 0-5.851562 4.746093-10.597656 10.597656-10.597656 5.851562 0 10.597656 4.746094 10.597656 10.597656zm0 0" fill="url(#z)"/><path d="m373.574219 198.539062c-1.929688-2.03125-4.648438-3.304687-7.671875-3.304687-5.851563 0-10.597656 4.746094-10.597656 10.597656 0 3.023438 1.273437 5.742188 3.300781 7.671875l18.875 18.875c1.929687 2.027344 4.648437 3.300782 7.671875 3.300782 5.851562 0 10.597656-4.746094 10.597656-10.597657 0-3.023437-1.273438-5.742187-3.300781-7.671875zm0 0" fill="url(#A)"/><path d="m376.5 205.832031c0 5.851563-4.746094 10.597657-10.597656 10.597657-5.851563 0-10.59375-4.746094-10.59375-10.597657 0-5.851562 4.742187-10.59375 10.59375-10.59375 5.851562 0 10.597656 4.742188 10.597656 10.59375zm0 0" fill="url(#B)"/><path d="m430.910156 276.894531c-1.933594-2.027343-4.652344-3.300781-7.675781-3.300781-5.851563 0-10.59375 4.746094-10.59375 10.597656 0 3.019532 1.269531 5.742188 3.300781 7.671875l18.871094 18.871094c1.929688 2.03125 4.648438 3.300781 7.671875 3.300781 5.851563 0 10.597656-4.742187 10.597656-10.59375 0-3.023437-1.273437-5.742187-3.300781-7.671875zm0 0" fill="url(#C)"/><path d="m433.832031 284.191406c0 5.851563-4.746093 10.597656-10.597656 10.597656s-10.59375-4.746093-10.59375-10.597656c0-5.851562 4.742187-10.597656 10.59375-10.597656s10.597656 4.746094 10.597656 10.597656zm0 0" fill="url(#D)"/><path d="m384.171875 129.324219c-1.929687-2.027344-4.648437-3.300781-7.671875-3.300781-5.851562 0-10.597656 4.746093-10.597656 10.597656 0 3.023437 1.273437 5.742187 3.300781 7.671875l18.871094 18.875c1.933593 2.027343 4.652343 3.300781 7.675781 3.300781 5.851562 0 10.59375-4.746094 10.59375-10.597656 0-3.023438-1.269531-5.742188-3.300781-7.671875zm0 0" fill="url(#E)"/><path d="m387.097656 136.621094c0 5.851562-4.746094 10.597656-10.597656 10.597656s-10.597656-4.746094-10.597656-10.597656c0-5.851563 4.746094-10.597656 10.597656-10.597656s10.597656 4.746093 10.597656 10.597656zm0 0" fill="url(#F)"/><path d="m112.636719 50.152344 10.285156 17.363281c4.429687 7.484375-.617187 17.011719-9.300781 17.546875-6.476563.398438-12.027344-4.578125-12.335938-11.058594l-1.285156-26.796875zm0 0" fill="url(#H)"/><path d="m112.636719 50.152344-16.460938 15.152344c-8.117187 7.46875-21.050781 5.566406-26.671875-3.921876-5.621094-9.492187-1.074218-21.75 9.378906-25.277343l21.195313-7.152344zm0 0" fill="url(#I)"/><path d="m93.355469 51.914062c0 5.542969-4.496094 10.039063-10.039063 10.039063-5.546875 0-10.039062-4.496094-10.039062-10.039063 0-5.546874 4.492187-10.039062 10.039062-10.039062 5.542969 0 10.039063 4.492188 10.039063 10.039062zm0 0" fill="url(#K)"/><path d="m120.53125 71.964844c0 4.496094-3.644531 8.140625-8.136719 8.140625-4.496093 0-8.136719-3.644531-8.136719-8.140625 0-4.492188 3.640626-8.136719 8.136719-8.136719 4.492188 0 8.136719 3.644531 8.136719 8.136719zm0 0" fill="url(#L)"/><path d="m117.226562 45.5625 17.363282 10.285156c7.484375 4.429688 17.011718-.617187 17.546875-9.300781.398437-6.476563-4.578125-12.027344-11.058594-12.335937l-26.796875-1.285157zm0 0" fill="url(#M)"/><path d="m117.226562 45.5625 15.152344-16.460938c7.46875-8.117187 5.566406-21.050781-3.921875-26.671874-9.492187-5.621094-21.75-1.074219-25.273437 9.378906l-7.15625 21.195312zm0 0" fill="url(#N)"/><path d="m129.027344 16.242188c0 5.542968-4.496094 10.039062-10.039063 10.039062-5.546875 0-10.039062-4.496094-10.039062-10.039062 0-5.546876 4.492187-10.039063 10.039062-10.039063 5.542969 0 10.039063 4.492187 10.039063 10.039063zm0 0" fill="url(#O)"/><path d="m147.179688 45.320312c0 4.492188-3.644532 8.136719-8.136719 8.136719-4.496094 0-8.140625-3.644531-8.140625-8.136719 0-4.496093 3.644531-8.140624 8.140625-8.140624 4.492187 0 8.136719 3.644531 8.136719 8.140624zm0 0" fill="url(#P)"/><path d="m92.621094 28.527344c-1.046875-.84375-2.023438-1.75-3.003906-2.652344l-1.441407-1.382812c-.476562-.449219-.921875-.851563-1.425781-1.21875-2.003906-1.4375-4.429688-2.21875-6.84375-2.128907-1.1875-.003906-2.460938.277344-3.492188.671875-.96875.390625-1.71875 1.261719-2.042968 2.308594-.3125 1.046875-.152344 2.261719.503906 3.253906.640625 1.003906 1.777344 1.730469 3.109375 1.917969-1.328125.265625-2.835937-.226563-3.875-1.289063-1.023437-1.0625-1.558594-2.679687-1.265625-4.226562.238281-1.554688 1.320312-2.960938 2.761719-3.6875 1.414062-.617188 2.78125-.902344 4.246093-.957031 1.445313-.011719 2.894532.207031 4.246094.707031 1.339844.523438 2.601563 1.253906 3.644532 2.222656.515624.480469 1.007812 1.015625 1.414062 1.558594l1.195312 1.597656c.777344 1.085938 1.554688 2.167969 2.269532 3.304688zm0 0" fill="url(#R)"/><path d="m95.601562 25.546875c-.84375-1.046875-1.75-2.023437-2.652343-3.003906l-1.378907-1.441407c-.453124-.476562-.855468-.921874-1.222656-1.425781-1.4375-2.003906-2.21875-4.429687-2.128906-6.84375-.003906-1.1875.277344-2.460937.671875-3.492187.390625-.96875 1.261719-1.71875 2.3125-2.042969 1.046875-.3125 2.257813-.152344 3.253906.503906 1 .640625 1.726563 1.777344 1.917969 3.109375.261719-1.328125-.230469-2.835937-1.292969-3.875-1.0625-1.023437-2.679687-1.558594-4.226562-1.265625-1.554688.238281-2.960938 1.320313-3.683594 2.761719-.621094 1.414062-.902344 2.78125-.957031 4.246094-.011719 1.445312.203125 2.894531.703125 4.246094.523437 1.339843 1.253906 2.601562 2.222656 3.644531.484375.515625 1.015625 1.007812 1.558594 1.414062l1.597656 1.195313c1.085937.773437 2.167969 1.554687 3.304687 2.269531zm0 0" fill="url(#S)"/><path d="m116.769531 39.222656c10.828125 10.832032 17.265625 21.953125 14.375 24.847656-2.890625 2.890626-14.015625-3.546874-24.847656-14.375-10.828125-10.832031-17.265625-21.957031-14.375-24.847656s14.015625 3.546875 24.847656 14.375zm0 0" fill="url(#T)"/><path d="m249.660156 105.4375c-5.328125 2.761719-11.125 4.441406-16.964844 4.992188l-1.089843.105468-1.097657.050782c-.734374.035156-1.445312.078124-2.234374.085937l-2.207032-.015625-.550781-.003906-.550781-.03125-1.097656-.0625c-2.925782-.195313-5.828126-.574219-8.667969-1.222656-5.664063-1.328126-11.101563-3.488282-16-6.515626-2.453125-1.503906-4.78125-3.203124-6.949219-5.074218l-.804688-.714844c-.261718-.238281-.542968-.460938-.796874-.714844l-1.542969-1.488281-1.472657-1.558594c-.488281-.519531-.933593-1.078125-1.40625-1.613281-.703124-.851562-1.382812-1.722656-2.035156-2.609375l3.070313-.082031 2.3125-.0625 1.285156-.070313c.429687-.023437.859375-.089843 1.289063-.132812 1.71875-.214844 3.425781-.582031 5.089843-1.101563 1.664063-.519531 3.285157-1.191406 4.835938-2.007812s3.019531-1.792969 4.394531-2.886719c2.75-2.1875 5.117188-4.878906 6.941406-7.921875 1.824219-3.039062 3.074219-6.441406 3.679688-9.964844.304687-1.757812.449218-3.546875.4375-5.335937-.011719-.445313-.011719-.890625-.039063-1.34375-.035156-.457031-.058593-.914063-.113281-1.367188-.105469-.910156-.25-1.816406-.449219-2.714843-.785156-3.59375-2.351562-7.027344-4.554687-9.996094-2.1875-2.980469-5.058594-5.445313-8.292969-7.25-3.238281-1.808594-6.875-2.929688-10.585937-3.234375-3.707032-.296875-7.464844.1875-10.988282 1.429687-3.515625 1.246094-6.773437 3.230469-9.457031 5.8125-2.679687 2.589844-4.8125 5.734375-6.214844 9.1875-1.398437 3.457032-2.054687 7.21875-1.890625 10.925782l.035156.695312c.011719.226562.035157.421875.054688.632812l.125 1.242188.121094 1.238281.367187 2.46875.097657.617188.121093.613281c.167969.816406.324219 1.632812.5 2.445312.753907 3.242188 1.78125 6.417969 3.078125 9.476563.496094 1.191406 1.03125 2.359375 1.609375 3.511719-.714843-.027344-1.429687-.070313-2.140625-.125-2.964844-.210938-5.921875-.632813-8.847656-1.265625-2.921875-.632813-5.808594-1.492188-8.640625-2.535157-2.824219-1.066406-5.578125-2.304687-8.117187-3.933593-1.273438-.808594-2.492188-1.710938-3.632813-2.722657-1.136719-1.015624-2.203125-2.121093-3.191406-3.308593 1.53125 2.683593 3.597656 5.097656 5.988281 7.15625 2.402344 2.046875 5.109375 3.726562 7.902344 5.167969 2.792968 1.453124 5.722656 2.667968 8.730468 3.679687 3.007813 1 6.113282 1.742187 9.257813 2.289063 1.839844.3125 3.695313.535156 5.5625.675781 5.371094 8.46875 12.910156 15.503906 21.667969 20.179687 2.875 1.578125 5.910156 2.847656 9.007812 3.882813 3.101563 1.027343 6.273438 1.804687 9.488282 2.292969 6.429687.949218 12.976562.796874 19.265624-.386719 3.167969-.621094 6.265626-1.53125 9.226563-2.75 2.957031-1.21875 5.773437-2.738281 8.394531-4.519531 2.625-1.773438 5.046875-3.8125 7.230469-6.050782 2.167969-2.257812 4.128906-4.6875 5.769531-7.308594-4.105468 4.617188-8.988281 8.394532-14.3125 11.148438zm-74.289062-51.953125c.925781-2.246094 2.335937-4.292969 4.09375-5.972656 1.746094-1.691407 3.855468-2.996094 6.132812-3.816407 2.277344-.824218 4.757813-1.15625 7.183594-.984374 2.429688.148437 4.820312.835937 6.980469 1.992187 2.160156 1.148437 4.082031 2.761719 5.609375 4.691406 1.527344 1.929688 2.644531 4.183594 3.25 6.585938.152344.601562.269531 1.210937.359375 1.828125.050781.308594.070312.621094.109375.929687.03125.3125.042968.640625.066406.960938.0625 1.289062.015625 2.582031-.152344 3.863281-.164062 1.28125-.445312 2.546875-.839844 3.785156-.394531 1.234375-.917968 2.433594-1.527343 3.585938-1.21875 2.308594-2.863281 4.414062-4.839844 6.167968-1.976563 1.75-4.265625 3.171876-6.757813 4.132813-1.246093.480469-2.539062.851563-3.863281 1.105469-.332031.054687-.660156.128906-.996093.167968l-1.015626.132813-2.296874.238281-4.597657.476563-1.148437.117187-.503906.050782c-1.171876-2.082032-2.195313-4.242188-3.046876-6.46875-1.011718-2.644532-1.84375-5.355469-2.4375-8.121094l-.386718-2.085938-.097656-.519531-.070313-.527344-.273437-2.101562-.085938-1.058594-.085938-1.054687c-.011718-.171876-.03125-.363282-.039062-.519532l-.011719-.460937c-.0625-2.441407.359375-4.878907 1.289063-7.121094zm0 0" fill="url(#U)"/><path d="m186.542969 103.109375 13.050781-.050781c-.128906-.082032-.265625-.160156-.398438-.238282-2.453124-1.503906-4.777343-3.203124-6.945312-5.074218l-.804688-.714844c-.265624-.238281-.546874-.460938-.796874-.714844l-1.542969-1.488281-1.472657-1.558594c-.488281-.519531-.933593-1.078125-1.40625-1.613281-.703124-.851562-1.382812-1.722656-2.039062-2.609375l-10.265625-.097656c3.414063 5.378906 7.703125 10.175781 12.621094 14.160156zm0 0" fill="url(#W)"/><path d="m177.570312 77.054688c-.695312-1.816407-1.304687-3.664063-1.808593-5.539063l-9.234375.035156c.738281 3.011719 1.707031 5.960938 2.914062 8.808594.496094 1.191406 1.03125 2.359375 1.609375 3.511719l9.566407-.347656c-1.171876-2.082032-2.195313-4.242188-3.046876-6.46875zm0 0" fill="url(#X)"/></svg>