<svg height="511pt" viewBox="-11 1 511 511.9989" width="511pt" xmlns="http://www.w3.org/2000/svg" xmlns:xlink="http://www.w3.org/1999/xlink"><radialGradient id="a" cx="157.1714" cy="-3615.8625" gradientTransform="matrix(-.569424 .82683 -.82683 -.569424 -2761.96175 -1781.114704)" gradientUnits="userSpaceOnUse" r="139.8157"><stop offset="0" stop-color="#f2e9dc"/><stop offset=".423" stop-color="#f1e7da"/><stop offset=".6192" stop-color="#eee1d2"/><stop offset=".7687" stop-color="#e9d6c6"/><stop offset=".8937" stop-color="#e3c7b3"/><stop offset="1" stop-color="#dab49d"/></radialGradient><linearGradient id="b"><stop offset="0" stop-color="#dab49d" stop-opacity="0"/><stop offset=".4385" stop-color="#ce9e7a" stop-opacity=".439216"/><stop offset="1" stop-color="#c08552"/></linearGradient><linearGradient id="c" gradientTransform="matrix(-.569424 .82683 -.82683 -.569424 -2761.96175 -1781.114704)" gradientUnits="userSpaceOnUse" x1="123.7817" x2="121.9708" xlink:href="#b" y1="-3561.4438" y2="-3595.5933"/><linearGradient id="d" gradientTransform="matrix(-.569424 .82683 -.82683 -.569424 -2761.96175 -1781.114704)" gradientUnits="userSpaceOnUse" x1="90.9786" x2="90.9786" xlink:href="#b" y1="-3616.02" y2="-3584.8782"/><linearGradient id="e" gradientTransform="matrix(.709873 .709873 -.709873 .709873 -1578.145167 23.42789)" gradientUnits="userSpaceOnUse" x1="1332.8582" x2="1459.3269" y1="-1353.7583" y2="-1227.2897"><stop offset="0" stop-color="#ff4b3e"/><stop offset=".1888" stop-color="#fb4a3c"/><stop offset=".3876" stop-color="#ee4635"/><stop offset=".5911" stop-color="#d9402a"/><stop offset=".7963" stop-color="#bc381a"/><stop offset="1" stop-color="#972e07"/></linearGradient><linearGradient id="f"><stop offset="0" stop-color="#ffb211"/><stop offset=".1645" stop-color="#ffac14"/><stop offset=".3888" stop-color="#ff9a1b"/><stop offset=".6475" stop-color="#ff7e28"/><stop offset=".9301" stop-color="#ff5639"/><stop offset="1" stop-color="#ff4b3e"/></linearGradient><linearGradient id="g" gradientTransform="matrix(.709873 .709873 -.709873 .709873 -1578.145167 23.42789)" gradientUnits="userSpaceOnUse" x1="1456.2892" x2="1579.1842" xlink:href="#f" y1="-1230.3274" y2="-1107.4324"/><linearGradient id="h"><stop offset="0" stop-color="#ff4b3e" stop-opacity="0"/><stop offset=".1177" stop-color="#f5493b" stop-opacity=".117647"/><stop offset=".3191" stop-color="#da4332" stop-opacity=".317647"/><stop offset=".5796" stop-color="#ad3923" stop-opacity=".580392"/><stop offset=".886" stop-color="#702c0f" stop-opacity=".886275"/><stop offset="1" stop-color="#582707"/></linearGradient><linearGradient id="i" gradientUnits="userSpaceOnUse" x1="327.3404814574" x2="238.9621156392" xlink:href="#h" y1="282.4275289046" y2="194.0491630864"/><linearGradient id="j" gradientTransform="matrix(.709873 .709873 -.709873 .709873 -1578.145167 23.42789)" gradientUnits="userSpaceOnUse" x1="1458.3718" x2="1540.6503" y1="-1364.7411" y2="-1268.7496"><stop offset="0" stop-color="#ffe548"/><stop offset=".2472" stop-color="#ffe042"/><stop offset=".5621" stop-color="#ffd133"/><stop offset=".9123" stop-color="#ffb919"/><stop offset="1" stop-color="#ffb211"/></linearGradient><linearGradient id="k" gradientUnits="userSpaceOnUse" x1="472.2330299904" x2="390.3276520516" y1="126.7834777126" y2="44.8780997738"><stop offset="0" stop-color="#ffb211" stop-opacity="0"/><stop offset=".1722" stop-color="#ffad13" stop-opacity=".172549"/><stop offset=".383" stop-color="#ff9e1a" stop-opacity=".384314"/><stop offset=".614" stop-color="#ff8525" stop-opacity=".615686"/><stop offset=".8577" stop-color="#ff6334" stop-opacity=".858824"/><stop offset="1" stop-color="#ff4b3e"/></linearGradient><linearGradient id="l" gradientTransform="matrix(.709873 .709873 -.709873 .709873 -1578.145167 23.42789)" gradientUnits="userSpaceOnUse" x1="1371.7191" x2="1473.6725" y1="-1239.7177" y2="-1120.772"><stop offset="0" stop-color="#acc130"/><stop offset=".3485" stop-color="#a9bd31"/><stop offset=".6956" stop-color="#a2b135"/><stop offset="1" stop-color="#97a03b"/></linearGradient><linearGradient id="m"><stop offset="0" stop-color="#f2e9dc"/><stop offset=".2282" stop-color="#f0e4d7"/><stop offset=".5158" stop-color="#ead7c7"/><stop offset=".8338" stop-color="#e0c2ad"/><stop offset="1" stop-color="#dab49d"/></linearGradient><linearGradient id="n" gradientTransform="matrix(.709873 .709873 -.709873 .709873 -1578.145167 23.42789)" gradientUnits="userSpaceOnUse" x1="1440.3016" x2="1440.3016" xlink:href="#m" y1="-1293.4132" y2="-1269.6696"/><linearGradient id="o" gradientTransform="matrix(.709873 .709873 -.709873 .709873 -1578.145167 23.42789)" gradientUnits="userSpaceOnUse" x1="1458.7421" x2="1435.2566" xlink:href="#b" y1="-1271.8977" y2="-1295.3832"/><linearGradient id="p" gradientTransform="matrix(.709873 .709873 -.709873 .709873 -1578.145167 23.42789)" gradientUnits="userSpaceOnUse" x1="1423.439" x2="1457.2736" xlink:href="#m" y1="-1246.3148" y2="-1246.3148"/><linearGradient id="q"><stop offset="0" stop-color="#ff4b3e"/><stop offset=".0699" stop-color="#ff5639"/><stop offset=".3525" stop-color="#ff7e28"/><stop offset=".6112" stop-color="#ff9a1b"/><stop offset=".8355" stop-color="#ffac14"/><stop offset="1" stop-color="#ffb211"/></linearGradient><linearGradient id="r" gradientTransform="matrix(-1.003922 0 0 -1.003922 -294.174958 -4281.668794)" gradientUnits="userSpaceOnUse" x1="-328.4515" x2="-324.7672" xlink:href="#q" y1="-4636.5322" y2="-4597.4785"/><linearGradient id="s" gradientTransform="matrix(.709873 .709873 -.709873 .709873 -1428.694876 22.917898)" gradientUnits="userSpaceOnUse" x1="1276.5986" x2="1275.8617" xlink:href="#h" y1="-776.2677" y2="-792.8474"/><linearGradient id="t" gradientTransform="matrix(.709873 .709873 -.709873 .709873 -1428.694876 22.917898)" gradientUnits="userSpaceOnUse" x1="1275.252" x2="1303.0895" xlink:href="#h" y1="-790.5714" y2="-812.8414"/><linearGradient id="u" gradientTransform="matrix(0 1.003922 1.003922 0 2357.996788 -1629.496847)" gradientUnits="userSpaceOnUse" x1="2018.3307" x2="2022.015" xlink:href="#q" y1="-2289.7502" y2="-2250.696"/><linearGradient id="v" gradientTransform="matrix(-.709873 -.709873 -.709873 .709873 -1946.589603 -494.976929)" gradientUnits="userSpaceOnUse" x1="-2042.2844" x2="-2043.0212" y1="-776.2676" y2="-792.8474"><stop offset="0" stop-color="#ff5d00" stop-opacity="0"/><stop offset="1" stop-color="#d54003"/></linearGradient><linearGradient id="w" gradientTransform="matrix(-.709873 -.709873 -.709873 .709873 -1946.589603 -494.976929)" gradientUnits="userSpaceOnUse" x1="-2043.631" x2="-2015.7936" xlink:href="#h" y1="-790.5713" y2="-812.8412"/><linearGradient id="x" gradientTransform="matrix(.709873 .709873 -.709873 .709873 -1428.694876 22.917898)" gradientUnits="userSpaceOnUse" x1="1318.4661" x2="1280.517" xlink:href="#h" y1="-788.0275" y2="-793.1856"/><linearGradient id="y" gradientTransform="matrix(.709873 .709873 -.709873 .709873 -1428.694876 22.917898)" gradientUnits="userSpaceOnUse" x1="1279.3429" x2="1303.6117" xlink:href="#f" y1="-808.0986" y2="-783.8297"/><path d="m6.910156 466.804688c1.925782-14.84375 6.738282-29.113282 13.917969-41.859376l1.339844-2.390624 1.453125-2.324219c.976562-1.546875 1.902344-3.070313 3.007812-4.691407l3.167969-4.503906.792969-1.121094 2.542968-3.246093c4.558594-5.71875 9.46875-11.125 14.839844-16.015625 10.785156-9.714844 22.953125-17.78125 36.132813-23.511719 6.574219-2.886719 13.363281-5.230469 20.285156-7.011719l2.601563-.632812c.867187-.203125 1.722656-.460938 2.605468-.609375l5.246094-1.050781 5.289062-.796876c1.761719-.261718 3.542969-.378906 5.308594-.582031 2.746094-.234375 5.496094-.390625 8.246094-.464843l-4.207031 6.417968-3.160157 4.816406-1.679687 2.734376c-.566406.917968-1.046875 1.886718-1.570313 2.832031-2.007812 3.824219-3.683593 7.84375-4.984374 11.996093-1.304688 4.148438-2.234376 8.429688-2.769532 12.765626-.535156 4.339843-.628906 8.738281-.347656 13.113281.566406 8.753906 2.71875 17.429687 6.351562 25.496093 3.640626 8.066407 8.824219 15.472657 15.179688 21.726563 3.171875 3.128906 6.632812 5.972656 10.308594 8.492187.9375.613282 1.84375 1.242188 2.808594 1.835938.988281.570312 1.960937 1.171875 2.96875 1.707031 2.015624 1.082031 4.082031 2.074219 6.203124 2.949219 8.480469 3.503906 17.75 5.183594 26.960938 4.894531 9.21875-.246093 18.351562-2.613281 26.660156-6.667969 8.3125-4.058593 15.789063-9.921874 21.695313-17.089843 5.886719-7.171875 10.242187-15.554688 12.707031-24.546875 2.453125-8.972656 3.023438-18.472656 1.546875-27.648438-1.480469-9.175781-4.890625-18.023437-9.976563-25.8125-5.089843-7.78125-11.867187-14.480468-19.695312-19.429687l-1.46875-.917969c-.484375-.296875-.914062-.519531-1.375-.78125l-2.71875-1.519531-2.71875-1.511719-2.789062-1.386719-2.792969-1.375-1.398438-.683593-1.425781-.617188c-1.910156-.820312-3.808594-1.660156-5.722656-2.457031-7.71875-3.066407-15.6875-5.488281-23.800782-7.1875-3.140624-.675781-6.304687-1.242188-9.480468-1.699219 1.074218-1.421875 2.171875-2.828125 3.296875-4.210938 4.648437-5.773437 9.726562-11.230468 15.183593-16.324218 5.457032-5.089844 11.324219-9.773438 17.496094-14.089844 6.199219-4.269531 12.664063-8.148438 19.617188-11.035156 3.464844-1.464844 7.054687-2.671875 10.746094-3.566406 3.691406-.886719 7.480468-1.496094 11.320312-1.828126-7.679688-.6875-15.5625.109376-23.183594 2.078126-7.617187 2.007812-14.910156 5.167968-21.839844 8.832031-6.953124 3.660156-13.609374 7.929687-19.964843 12.652343-6.335938 4.746094-12.273438 10.042969-17.867188 15.714844-3.261719 3.320313-6.355469 6.816406-9.304687 10.4375-24.992188-1.046875-50.144532 4.386719-72.1875 15.667969-7.328125 3.648437-14.25 8.058594-20.773438 12.933594-6.523437 4.882812-12.632812 10.285156-18.207031 16.175781-11.097656 11.824219-20.101563 25.457031-26.628906 40.027344-3.242188 7.371094-5.789063 15.015625-7.5 22.8125-1.71875 7.792968-2.613281 15.734375-2.691407 23.632812-.101562 7.902344.625 15.765625 2.105469 23.429688 1.542969 7.652344 3.734375 15.132812 6.765625 22.222656-3.613281-14.984375-4.40625-30.363281-2.46875-45.195312zm212.195313-78.257813c3.273437 5.09375 5.46875 10.894531 6.402343 16.886719.984376 5.988281.652344 12.164062-.90625 18.003906-1.550781 5.835938-4.402343 11.386719-8.210937 16.121094-3.769531 4.761718-8.578125 8.683594-14.011719 11.464844-5.429687 2.789062-11.472656 4.433593-17.597656 4.816406-6.132812.378906-12.339844-.539063-18.125-2.71875-1.445312-.542969-2.863281-1.175782-4.257812-1.863282-.695313-.339843-1.367188-.738281-2.054688-1.101562-.691406-.378906-1.375-.824219-2.070312-1.230469-2.730469-1.703125-5.308594-3.648437-7.699219-5.808593-2.386719-2.160157-4.585938-4.542969-6.558594-7.113282-1.964844-2.570312-3.679687-5.339844-5.175781-8.234375-2.996094-5.785156-4.957032-12.152343-5.742188-18.695312-.777344-6.539063-.4375-13.257813 1.152344-19.730469.789062-3.238281 1.871094-6.417969 3.234375-9.488281.359375-.757813.671875-1.542969 1.070313-2.285157l1.171874-2.265624 2.785157-5.046876 5.566406-10.09375 1.390625-2.523437.621094-1.109375c5.929687.566406 11.8125 1.542969 17.585937 2.972656 6.855469 1.691406 13.597657 3.835938 20.109375 6.5625l4.824219 2.175782 1.203125.542968 1.179688.605469 2.351562 1.214844 2.347656 1.210937 2.289063 1.335938 2.285156 1.328125c.371094.21875.789063.445312 1.121094.660156l.957031.628906c5.089844 3.347657 9.480469 7.675781 12.761719 12.777344zm0 0" fill="url(#a)"/><path d="m101.515625 340.796875-18.46875 26.820313c.351563-.160157.703125-.320313 1.058594-.476563 6.570312-2.886719 13.363281-5.230469 20.28125-7.011719l2.605469-.632812c.867187-.203125 1.722656-.460938 2.605468-.609375l5.246094-1.050781 5.289062-.796876c1.757813-.261718 3.539063-.378906 5.308594-.582031 2.742188-.234375 5.492188-.390625 8.246094-.464843l14.808594-20.894532c-15.875-.664062-31.8125 1.296875-46.980469 5.699219zm0 0" fill="url(#c)"/><path d="m167.675781 359.503906c4.710938 1.160156 9.363281 2.542969 13.925781 4.175782l13.066407-18.972657c-7.210938-2.769531-14.636719-4.988281-22.191407-6.570312-3.140624-.675781-6.304687-1.238281-9.480468-1.699219l-12.90625 20.09375c5.929687.566406 11.8125 1.542969 17.585937 2.972656zm0 0" fill="url(#d)"/><path d="m178.742188 311.402344 54.609374-300.535156h245.925782v245.929687zm0 0" fill="url(#e)"/><path d="m178.742188 311.402344 177.574218-177.574219 122.960938 122.96875zm0 0" fill="url(#g)"/><path d="m178.742188 311.402344 177.574218-177.574219 122.960938 122.96875zm0 0" fill="url(#i)"/><path d="m479.277344 256.796875-122.960938-122.96875 122.960938-122.960937zm0 0" fill="url(#j)"/><path d="m479.277344 256.796875-122.960938-122.96875 122.960938-122.960937zm0 0" fill="url(#k)"/><path d="m356.316406 133.828125-122.964844-122.960937-54.609374 300.535156zm0 0" fill="url(#l)"/><path d="m471.597656 264.476562-245.929687-245.929687c-4.242188-4.242187-4.242188-11.121094 0-15.363281 4.242187-4.242188 11.121093-4.246094 15.367187 0l245.925782 245.929687c4.246093 4.242188 4.242187 11.121094 0 15.363281-4.242188 4.242188-11.121094 4.242188-15.363282 0zm0 0" fill="url(#n)"/><path d="m348.632812 141.511719 23.261719 23.261719v-30.734376l-7.898437-7.890624zm0 0" fill="url(#o)"/><path d="m171.058594 319.085938c-4.242188-4.246094-4.242188-11.125 0-15.367188l300.539062-300.535156c4.242188-4.242188 11.121094-4.242188 15.363282 0 4.246093 4.242187 4.242187 11.125 0 15.367187l-300.535157 300.535157c-4.242187 4.242187-11.121093 4.242187-15.367187 0zm0 0" fill="url(#p)"/><path d="m35.429688 340.460938c5.46875-3.285157 12.605468-.828126 14.910156 5.121093 1.652344 4.261719 2.785156 8.8125 3.953125 12.84375 1.097656 3.777344 1.5 6.90625 1.769531 9.855469.660156 7.324219-5.476562 13.460938-12.800781 12.800781-2.949219-.269531-6.078125-.671875-9.855469-1.769531-4.03125-1.167969-8.582031-2.300781-12.84375-3.953125-5.949219-2.304687-8.40625-9.4375-5.121094-14.910156 5.011719-8.351563 11.636719-14.976563 19.988282-19.988281zm0 0" fill="url(#r)"/><path d="m43.261719 381.082031c2.332031.210938 4.542969-.273437 6.453125-1.257812-8.019532-6.703125-22.007813-15.703125-35.292969-11.097657.882813 2.910157 3.035156 5.429688 6.140625 6.632813 4.261719 1.652344 8.8125 2.785156 12.84375 3.953125 3.777344 1.097656 6.90625 1.5 9.855469 1.769531zm0 0" fill="url(#s)"/><path d="m31.707031 355.566406c-2.941406 2.945313-10.691406 11.394532-4.941406 21.859375 2.277344.671875 4.53125 1.277344 6.640625 1.886719 3.777344 1.097656 6.90625 1.5 9.855469 1.769531 4.101562.371094 7.835937-1.394531 10.207031-4.308593 0 0-1.957031-6.546876-2.929688-9.347657-5.257812-15.140625-14.6875-16-18.832031-11.859375zm0 0" fill="url(#t)"/><path d="m91.855469 396.882812c3.28125-5.46875.824219-12.605468-5.125-14.910156-4.261719-1.652344-8.8125-2.78125-12.84375-3.953125-3.777344-1.097656-6.90625-1.5-9.855469-1.765625-7.320312-.664062-13.460938 5.476563-12.796875 12.796875.265625 2.949219.667969 6.078125 1.765625 9.855469 1.171875 4.03125 2.300781 8.582031 3.953125 12.84375 2.304687 5.949219 9.441406 8.40625 14.910156 5.125 8.351563-5.011719 14.976563-11.640625 19.992188-19.992188zm0 0" fill="url(#u)"/><path d="m51.234375 389.050781c-.210937-2.332031.269531-4.542969 1.257813-6.453125 6.699218 8.019532 15.703124 22.007813 11.09375 35.292969-2.910157-.882813-5.429688-3.035156-6.632813-6.140625-1.652344-4.261719-2.78125-8.8125-3.953125-12.84375-1.097656-3.777344-1.5-6.90625-1.765625-9.855469zm0 0" fill="url(#v)"/><path d="m76.746094 400.605469c-2.945313 2.941406-11.390625 10.691406-21.859375 4.945312-.671875-2.28125-1.273438-4.535156-1.886719-6.644531-1.097656-3.777344-1.5-6.90625-1.765625-9.851562-.371094-4.105469 1.394531-7.835938 4.304687-10.207032 0 0 6.546876 1.953125 9.351563 2.925782 15.140625 5.257812 15.996094 14.691406 11.855469 18.832031zm0 0" fill="url(#w)"/><path d="m51.234375 389.050781c.265625 2.949219.667969 6.078125 1.765625 9.855469 1.171875 4.03125 2.300781 8.582031 3.953125 12.84375 1.945313 5.015625 7.320313 7.550781 12.238281 6.253906v-38.171875c.039063-.980469-.015625-1.964843-.15625-2.941406-1.769531-.308594-3.414062-.496094-5.003906-.636719-7.324219-.664062-13.460938 5.476563-12.796875 12.796875zm0 0" fill="url(#x)"/><path d="m69.203125 379.191406c0 8.878906-7.199219 16.078125-16.078125 16.078125-8.882812 0-16.082031-7.199219-16.082031-16.078125 0-8.882812 7.199219-16.082031 16.082031-16.082031 8.878906 0 16.078125 7.199219 16.078125 16.082031zm0 0" fill="url(#y)"/></svg>