<svg height="512pt" viewBox="0 -54 512.00136 512" width="512pt" xmlns="http://www.w3.org/2000/svg" xmlns:xlink="http://www.w3.org/1999/xlink"><linearGradient id="a"><stop offset="0" stop-color="#ffe548"/><stop offset=".9688" stop-color="#97a03b"/></linearGradient><linearGradient id="b" gradientTransform="matrix(.830042 .564706 -.564706 .830042 411.853468 -123.997816)" gradientUnits="userSpaceOnUse" x1="136.2276" x2="186.5401" xlink:href="#a" y1="193.926" y2="393.3125"/><linearGradient id="c"><stop offset="0" stop-color="#97a03b" stop-opacity="0"/><stop offset="1" stop-color="#575c55"/></linearGradient><linearGradient id="d" gradientTransform="matrix(.994284 .138742 -.138742 .994284 2419.417715 315.737801)" gradientUnits="userSpaceOnUse" x1="-1964.931" x2="-2056.5752" xlink:href="#c" y1="173.1255" y2="91.4927"/><linearGradient id="e"><stop offset="0" stop-color="#ffb211"/><stop offset="1" stop-color="#6c7d47"/></linearGradient><linearGradient id="f" gradientTransform="matrix(.830042 .564706 -.564706 .830042 411.853468 -123.997816)" gradientUnits="userSpaceOnUse" x1="120.217" x2="175.8333" xlink:href="#e" y1="249.6972" y2="280.9814"/><linearGradient id="g" gradientTransform="matrix(.658673 -.75766 .75766 .658673 -67.207665 -195.62501)" gradientUnits="userSpaceOnUse" x1="-155.6191" x2="-105.3066" xlink:href="#a" y1="264.7411" y2="464.1276"/><linearGradient id="h" gradientTransform="matrix(.254996 -.970993 .970993 .254996 606.101047 -2137.360514)" gradientUnits="userSpaceOnUse" x1="-2257.9504" x2="-2349.5945" xlink:href="#c" y1="107.3766" y2="25.7439"/><linearGradient id="i" gradientTransform="matrix(.658673 -.75766 .75766 .658673 -67.207665 -195.62501)" gradientUnits="userSpaceOnUse" x1="-171.6297" x2="-116.0133" xlink:href="#e" y1="320.5123" y2="351.7965"/><linearGradient id="j" gradientUnits="userSpaceOnUse" x1="373.3467101282" x2="248.5834000484" xlink:href="#c" y1="252.3905820548" y2="127.627271975"/><linearGradient id="k"><stop offset="0" stop-color="#ff4b3e"/><stop offset=".3692" stop-color="#fd4a3d"/><stop offset=".5424" stop-color="#f54839"/><stop offset=".6748" stop-color="#e84532"/><stop offset=".7864" stop-color="#d64028"/><stop offset=".885" stop-color="#be391c"/><stop offset=".9729" stop-color="#a2310d"/><stop offset="1" stop-color="#972e07"/></linearGradient><radialGradient id="l" cx="172.224389983" cy="88.9540882988" gradientUnits="userSpaceOnUse" r="188.1670079118" xlink:href="#k"/><linearGradient id="m"><stop offset=".0013" stop-color="#e7eeed" stop-opacity="0"/><stop offset=".7731" stop-color="#f9fbfa" stop-opacity=".772549"/><stop offset="1" stop-color="#fff"/></linearGradient><linearGradient id="n" gradientUnits="userSpaceOnUse" x1="205.5792968642" x2="56.4140562992" xlink:href="#m" y1="144.1687943768" y2="43.6264076456"/><radialGradient id="o" cx="227.2802756006" cy="223.6176755738" gradientUnits="userSpaceOnUse" r="188.1670079118" xlink:href="#k"/><linearGradient id="p"><stop offset="0" stop-color="#972e07" stop-opacity="0"/><stop offset="1" stop-color="#582707"/></linearGradient><linearGradient id="q" gradientUnits="userSpaceOnUse" x1="273.6814500484" x2="325.5752825426" xlink:href="#p" y1="321.5672329556" y2="380.1570244054"/><linearGradient id="r" gradientUnits="userSpaceOnUse" x1="311.1659900766" x2="264.848743508" xlink:href="#p" y1="342.8864201554" y2="342.8864201554"/><linearGradient id="s" gradientUnits="userSpaceOnUse" x1="292.5644197308" x2="292.5644197308" xlink:href="#p" y1="359.0251690508" y2="303.2225662496"/><linearGradient id="t" gradientUnits="userSpaceOnUse" x1="260.6351824818" x2="111.4699419168" xlink:href="#m" y1="278.8322812596" y2="178.2898945284"/><linearGradient id="u" gradientUnits="userSpaceOnUse" x1="281.2685905634" x2="120.9703569794" xlink:href="#p" y1="377.9485967898" y2="217.6503632058"/><radialGradient id="v" cx="75.5047374434" cy="208.7377444742" gradientUnits="userSpaceOnUse" r="188.1670079118" xlink:href="#k"/><linearGradient id="w" gradientUnits="userSpaceOnUse" x1="108.8596443246" x2="-40.3055962404" xlink:href="#m" y1="263.95235016" y2="163.4099634288"/><path d="m294.796875 238.824219s-47.648437-193.140625 201.019531-149.328125c10.378906 1.828125 17.410156 11.570312 16.007813 22.011718-6.746094 50.207032-41.234375 181.125-217.027344 127.316407zm0 0" fill="url(#b)"/><path d="m511.824219 111.507812c.777343-5.789062-1.046875-11.359374-4.585938-15.488281-108.492187 55.078125-212.441406 142.804688-212.441406 142.804688 175.792969 53.808593 210.28125-77.109375 217.027344-127.316407zm0 0" fill="url(#d)"/><path d="m452.09375 154.066406c-2.035156-.035156-4.074219-.21875-6.089844-.371094-2.015625-.148437-4.019531-.296874-6.011718-.550781-1.996094-.210937-3.972657-.714843-5.925782-1.175781-1.953125-.46875-3.894531-.613281-5.882812-.460938-1.976563.183594-3.953125.449219-6.007813.933594 2.1875-1.675781 4.371094-3.355468 6.558594-5.035156l10.789063-8.070312c3.589843-2.71875 7.308593-5.1875 10.9375-7.847657 7.339843-5.183593 14.828124-10.046875 22.675781-14.417969l-.789063-1.933593-6.433594 2.363281-3.238281 1.195312c-1.066406.425782-2.085937.914063-3.136719 1.367188-4.121093 1.914062-8.390624 3.679688-12.40625 5.792969-8.195312 4.027343-16.140624 8.445312-24.132812 12.828125-1.511719.882812-3.03125 1.769531-4.546875 2.652344.515625-1.367188.929687-2.761719 1.121094-4.242188.265625-1.984375.496093-4.011719 1.011719-5.953125.46875-1.949219 1.050781-3.875 1.628906-5.8125.574218-1.9375 1.128906-3.90625 1.820312-5.824219 1.21875-3.925781 2.804688-7.722656 4.320313-11.675781l-.953125-.65625c-3.058594 2.957031-5.917969 6.171875-8.492188 9.621094-1.308594 1.714843-2.492187 3.511719-3.707031 5.3125-1.109375 1.84375-2.230469 3.707031-3.246094 5.621093-1.035156 1.90625-2.195312 3.785157-3.273437 5.71875-1.03125 1.949219-1.71875 4.03125-1.957032 6.226563-.042968.433594-.078124.867187-.105468 1.304687-.292969 4.746094-2.96875 9.027344-7.027344 11.507813l-.074219.046875c-7.0625 4.316406-14.011719 8.78125-20.992187 13.210938.679687-1.933594 1.15625-3.824219 1.546875-5.71875.371093-1.957032.441406-3.90625.195312-5.898438-.242187-1.992188-.523437-4.011719-.511719-6.015625-.03125-2.007813.046876-4.019531.121094-6.039063.070313-2.019531.117188-4.0625.308594-6.09375.199219-4.105468.78125-8.175781 1.261719-12.382812l-1.089844-.398438c-2.222656 3.628907-4.183594 7.457032-5.8125 11.441407-.839844 1.988281-1.535156 4.023437-2.257813 6.070312-.613281 2.066407-1.234374 4.148438-1.738281 6.253907-.523437 2.109374-1.175781 4.214843-1.734375 6.355468-.511718 2.144532-.65625 4.335938-.339844 6.523438.152344.964844.339844 1.933594.582032 2.894531 1.179687 4.695313-.992188 9.597656-5.109375 12.140625-3.535157 2.183594-7.078125 4.355469-10.597657 6.5625-4.46875 2.789062-8.773437 5.796875-12.957031 8.964844.550781-1.679688.960938-3.332032 1.304688-4.984375.367187-1.960938.441406-3.910157.195312-5.902344-.242187-1.988281-.523437-4.011719-.511719-6.015625-.035156-2.007812.046876-4.015625.121094-6.035156.070313-2.019532.117188-4.066406.308594-6.09375.195312-4.105469.777344-8.179688 1.257812-12.386719l-1.089843-.394531c-2.21875 3.625-4.183594 7.457031-5.8125 11.4375-.835938 1.988281-1.53125 4.023437-2.253907 6.074218-.617187 2.0625-1.234374 4.144532-1.738281 6.253907-.523437 2.105469-1.179687 4.210937-1.738281 6.355469-.507812 2.144531-.65625 4.335937-.335938 6.519531.339844 2.167969.871094 4.351562 1.773438 6.46875 1.035156 2.429687.488281 5.226562-1.46875 6.996093-5.070312 4.578126-14.164062 12.9375-18.691406 17.710938-6.261719 6.699219-12.300782 13.667969-17.566406 21.597656l1.289062 1.640625c8.9375-3.203125 17.199219-7.226562 25.246094-11.523437 8.03125-4.3125 15.800781-8.949219 23.347656-13.867188.136719-.085937.269531-.171875.402344-.261718 2.433594-1.582032 5.5625-1.199219 7.695312.773437 1.570313 1.457031 3.304688 2.632813 5.082032 3.652344 1.929687 1.078125 4.03125 1.722656 6.214843 2.007812 2.203125.242188 4.402344.382813 6.558594.644531 2.148437.277344 4.316406.441407 6.460937.605469 2.171876.050781 4.320313.128907 6.476563.050781 4.304687-.101562 8.582031-.570312 12.761719-1.351562l.019531-1.160156c-4.105469-1.050782-8.117187-1.957032-12.023437-3.234375-1.964844-.542969-3.890626-1.230469-5.804688-1.886719-1.914062-.648438-3.816406-1.289062-5.683594-2.035156-1.878906-.703125-3.664062-1.6875-5.441406-2.621094-1.769531-.941406-3.617188-1.570312-5.582031-1.917969-2.132813-.347656-4.304688-.578125-6.628907-.589843 3.78125-2.820313 7.46875-5.773438 11.066407-8.847657 2.851562-2.480469 6.730469-5.78125 10.148437-8.671875 3.636719-3.074218 8.875-3.589844 12.902344-1.050781 1.96875 1.242187 4.105469 2.1875 5.957031 3.25 1.929688 1.074219 4.027344 1.71875 6.210938 2.007813 2.203125.238281 4.402343.378906 6.558593.640624 2.148438.277344 4.316407.441407 6.460938.605469 2.171875.054688 4.320312.128907 6.476562.054688 4.304688-.105469 8.582032-.574219 12.761719-1.355469l.019531-1.160156c-4.101562-1.050782-8.117187-1.957032-12.023437-3.234375-1.964844-.542969-3.890625-1.230469-5.804687-1.886719-1.914063-.648438-3.816407-1.289062-5.683594-2.035156-1.878906-.703125-3.664063-1.6875-5.4375-2.621094-1.773438-.941406-3.621094-1.566406-5.582032-1.917969-3.761718-.613281-7.621093-.886719-12.320312-.117187 7.042969-5.5625 14.050781-11.199219 21.175781-16.644532l.269531-.21875c4.257813-3.414062 10.097657-4.398437 15.082032-2.179687 1.410156.625 2.855468 1.109375 4.300781 1.507813 2.136719.558593 4.332031.65625 6.519531.386718 2.191406-.316406 4.355469-.734375 6.507813-1.019531 2.152343-.265625 4.289062-.652344 6.410156-1.03125 2.113281-.492187 4.214844-.957031 6.28125-1.570313 4.140625-1.175781 8.164063-2.699218 12.015625-4.503906l-.273438-1.128906c-4.230468.011719-8.339843.136719-12.445312-.121094zm0 0" fill="url(#f)"/><path d="m140.71875 231.148438s-197.410156 24.546874-124.59375-217.222657c3.039062-10.085937 13.542969-15.921875 23.746094-13.296875 49.0625 12.613282 175.003906 62.292969 100.847656 230.519532zm0 0" fill="url(#g)"/><path d="m39.871094.628906c-5.65625-1.457031-11.402344-.300781-15.917969 2.726563 41.90625 114.226562 116.765625 227.792969 116.765625 227.792969 74.15625-168.226563-51.785156-217.90625-100.847656-230.519532zm0 0" fill="url(#h)"/><path d="m75.09375 64.953125c-.277344 2.019531-.695312 4.019531-1.085938 6.003906-.386718 1.984375-.769531 3.960938-1.257812 5.90625-.441406 1.957031-1.175781 3.859375-1.863281 5.746094-.695313 1.882813-1.066407 3.796875-1.152344 5.789063-.050781 1.984374-.019531 3.976562.222656 6.074218-1.410156-2.367187-2.816406-4.738281-4.230469-7.109375l-6.742187-11.664062c-2.277344-3.882813-4.289063-7.867188-6.503906-11.785157-4.277344-7.898437-8.226563-15.90625-11.644531-24.214843l-2.011719.554687 1.589843 6.667969.804688 3.355469c.296875 1.109375.660156 2.183594.988281 3.273437 1.414063 4.324219 2.664063 8.769531 4.289063 13.007813 3.035156 8.609375 6.484375 17.023437 9.894531 25.472656.699219 1.609375 1.398437 3.21875 2.097656 4.832031-1.296875-.675781-2.632812-1.25-4.078125-1.613281-1.941406-.5-3.929687-.96875-5.792968-1.707031-1.882813-.699219-3.726563-1.5-5.582032-2.304688-1.855468-.796875-3.746094-1.582031-5.566406-2.496093-3.757812-1.675782-7.339844-3.695313-11.085938-5.667969l-.765624.871093c2.578124 3.386719 5.433593 6.605469 8.554687 9.566407 1.550781 1.503906 3.195313 2.890625 4.839844 4.304687 1.703125 1.320313 3.417969 2.652344 5.199219 3.890625 1.773437 1.25 3.5 2.625 5.292968 3.921875 1.8125 1.253906 3.800782 2.183594 5.953125 2.679688.425781.09375.851563.179687 1.28125.257812 4.683594.847656 8.613281 4.011719 10.601563 8.335938l.035156.078125c3.457031 7.523437 7.070312 14.949219 10.648438 22.40625-1.84375-.90625-3.664063-1.601563-5.5-2.210938-1.898438-.601562-3.828126-.902343-5.835938-.890625-2.003906.003906-4.042969.046875-6.035156-.203125-1.996094-.203125-3.980469-.519531-5.980469-.832031-1.996094-.308594-4.023437-.59375-6.015625-1.023438-4.054688-.683593-8.027344-1.738281-12.148438-2.714843l-.523437 1.035156c3.339844 2.632813 6.914063 5.035156 10.675781 7.121094 1.875 1.066406 3.816406 2 5.765625 2.957031 1.976563.855469 3.96875 1.714844 6.003907 2.464844 2.03125.765625 4.046874 1.664062 6.105468 2.472656 2.070313.757812 4.230469 1.160156 6.4375 1.101562.976563-.035156 1.960938-.109374 2.945313-.234374 4.800781-.621094 9.414062 2.113281 11.453125 6.503906 1.75 3.769531 3.492187 7.542968 5.269531 11.300781 2.242187 4.761719 4.71875 9.390625 7.375 13.917969-1.605469-.742188-3.195313-1.34375-4.796875-1.878906-1.902344-.597657-3.828125-.902344-5.835938-.890626-2.007812.003907-4.046874.046876-6.035156-.203124-2-.203126-3.984375-.515626-5.980468-.832032-2-.308594-4.023438-.59375-6.015626-1.023437-4.054687-.679688-8.03125-1.738281-12.152343-2.710938l-.523438 1.035157c3.339844 2.632812 6.914063 5.035156 10.675781 7.121093 1.875 1.066407 3.816407 1.996094 5.765626 2.957031 1.976562.851563 3.972656 1.710938 6.003906 2.460938 2.03125.769531 4.046875 1.667969 6.109375 2.472656 2.066406.761719 4.226562 1.164063 6.433593 1.105469 2.195313-.082031 4.425782-.351563 6.632813-1 2.535156-.742187 5.246094.132813 6.773437 2.285156 3.949219 5.574219 11.179688 15.585938 15.386719 20.648438 5.910157 7.007812 12.121094 13.824219 19.375 19.988281l1.78125-1.089844c-2.128906-9.25-5.152343-17.929687-8.464843-26.425781-3.339844-8.484375-7.027344-16.742187-11.019532-24.820313-.070312-.144531-.140625-.285156-.210937-.429687-1.289063-2.605469-.539063-5.664063 1.671875-7.550781 1.628906-1.390625 3.003906-2.96875 4.226562-4.617188 1.296875-1.789062 2.183594-3.796875 2.726563-5.933594.496093-2.15625.898437-4.328124 1.410156-6.4375.53125-2.101562.949219-4.230468 1.363281-6.347656.308594-2.148437.636719-4.273437.816406-6.421875.40625-4.285156.441407-8.589843.15625-12.832031l-1.148437-.15625c-1.527344 3.949219-2.898437 7.828125-4.628906 11.558594-.769531 1.886718-1.679688 3.71875-2.554688 5.539062-.871093 1.824219-1.734375 3.640625-2.695312 5.40625-.917969 1.78125-2.105469 3.441406-3.242188 5.09375-1.144531 1.648438-1.984375 3.40625-2.5625 5.316406-.597656 2.078126-1.078125 4.207032-1.367187 6.515626-2.359375-4.089844-4.851563-8.097657-7.480469-12.03125-2.128906-3.121094-4.949219-7.367188-7.417969-11.101563-2.621094-3.972656-2.515625-9.238281.480469-12.933594 1.464844-1.808593 2.65625-3.820312 3.925781-5.53125 1.296875-1.789062 2.1875-3.796875 2.730469-5.933593.496094-2.15625.894531-4.328126 1.410156-6.4375.527344-2.101563.945313-4.234376 1.359375-6.347657.3125-2.148437.640625-4.273437.820313-6.421875.402343-4.285156.441406-8.589844.15625-12.832031l-1.148438-.15625c-1.527343 3.953125-2.898437 7.828125-4.628906 11.558594-.773437 1.886719-1.679687 3.71875-2.554687 5.539062-.871094 1.824219-1.734376 3.640625-2.695313 5.40625-.917969 1.78125-2.105469 3.441407-3.242187 5.09375-1.144532 1.648438-1.984376 3.40625-2.566407 5.316407-1.046875 3.660156-1.773437 7.460937-1.566406 12.21875-4.691406-7.652344-9.460937-15.273438-14.03125-22.992188l-.1875-.296875c-2.886719-4.628906-3.175781-10.542969-.386719-15.230469.789063-1.328125 1.441406-2.703125 2.003906-4.09375.808594-2.054687 1.164063-4.222656 1.15625-6.425781-.058593-2.214844-.214843-4.414063-.246093-6.585937-.011719-2.167969-.140625-4.335938-.269531-6.484376-.238282-2.160156-.453126-4.296874-.816407-6.425781-.679687-4.25-1.722656-8.425781-3.058593-12.460937l-1.152344.136718c-.492188 4.210938-.847656 8.308594-1.589844 12.351563zm0 0" fill="url(#i)"/><path d="m427.082031 241.140625-113.28125-113.28125c-35.023437 46.027344-19.007812 110.964844-19.007812 110.964844 58.222656 17.820312 100.941406 15.375 132.289062 2.316406zm0 0" fill="url(#j)"/><path d="m322.371094 169.75c0 55.476562-44.972656 100.449219-100.449219 100.449219s-100.449219-44.972657-100.449219-100.449219 44.972656-100.449219 100.449219-100.449219 100.449219 44.972657 100.449219 100.449219zm0 0" fill="url(#l)"/><path d="m298.628906 151.765625c0-40.257813-36.613281-72.890625-81.78125-72.890625-45.167968 0-81.78125 32.632812-81.78125 72.890625 0 40.253906 36.613282 72.890625 81.78125 72.890625 45.167969 0 81.78125-32.636719 81.78125-72.890625zm0 0" fill="url(#n)"/><path d="m377.425781 304.414062c0 55.476563-44.972656 100.449219-100.449219 100.449219-55.476562 0-100.449218-44.972656-100.449218-100.449219 0-55.476562 44.972656-100.449218 100.449218-100.449218 55.476563 0 100.449219 44.972656 100.449219 100.449218zm0 0" fill="url(#o)"/><path d="m259.3125 345.066406c14.308594 4.992188 25.757812 18.171875 30.660156 35.089844.285156.988281 1.171875 1.679688 2.199219 1.679688h.78125c1.027344 0 1.914063-.691407 2.199219-1.679688 4.90625-16.917969 16.351562-30.097656 30.664062-35.089844.9375-.328125 1.582032-1.1875 1.582032-2.179687 0-.992188-.644532-1.851563-1.582032-2.179688-14.3125-4.992187-25.757812-18.171875-30.664062-35.089843-.285156-.988282-1.171875-1.679688-2.199219-1.679688h-.78125c-1.027344 0-1.914063.691406-2.199219 1.679688-4.902344 16.917968-16.351562 30.097656-30.660156 35.089843-.9375.328125-1.582031 1.1875-1.582031 2.179688 0 .992187.644531 1.851562 1.582031 2.179687zm0 0" fill="url(#q)"/><path d="m325.816406 340.707031c-14.308594-4.992187-25.757812-18.171875-30.660156-35.089843-.253906-.871094-.976562-1.511719-1.847656-1.648438v77.835938c.871094-.136719 1.59375-.773438 1.847656-1.648438 4.902344-16.917969 16.347656-30.097656 30.660156-35.089844.9375-.328125 1.582032-1.1875 1.582032-2.179687 0-.992188-.644532-1.851563-1.582032-2.179688zm0 0" fill="url(#r)"/><path d="m257.730469 342.886719c0 .992187.644531 1.851562 1.582031 2.179687 14.308594 4.992188 25.757812 18.171875 30.660156 35.089844.285156.988281 1.171875 1.679688 2.199219 1.679688h.785156c1.027344 0 1.914063-.691407 2.199219-1.679688 4.902344-16.917969 16.351562-30.097656 30.660156-35.089844.9375-.328125 1.582032-1.1875 1.582032-2.179687 0-.207031-.042969-.40625-.097657-.601563h-69.472656c-.054687.195313-.097656.390625-.097656.601563zm0 0" fill="url(#s)"/><path d="m353.6875 286.429688c0-40.257813-36.617188-72.890626-81.785156-72.890626-45.164063 0-81.78125 32.632813-81.78125 72.890626 0 40.253906 36.617187 72.890624 81.78125 72.890624 45.167968 0 81.785156-32.636718 81.785156-72.890624zm0 0" fill="url(#t)"/><path d="m207.757812 231.621094c-19.238281 18.300781-31.230468 44.144531-31.230468 72.792968 0 55.476563 44.972656 100.449219 100.449218 100.449219 28.644532 0 54.492188-11.992187 72.789063-31.230469zm0 0" fill="url(#u)"/><path d="m225.652344 289.53125c0 55.480469-44.972656 100.453125-100.453125 100.453125-55.476563 0-100.449219-44.972656-100.449219-100.453125 0-55.476562 44.972656-100.449219 100.449219-100.449219 55.480469 0 100.453125 44.972657 100.453125 100.449219zm0 0" fill="url(#v)"/><path d="m201.910156 271.546875c0-40.253906-36.613281-72.890625-81.78125-72.890625-45.167968 0-81.78125 32.636719-81.78125 72.890625 0 40.257813 36.613282 72.890625 81.78125 72.890625 45.167969 0 81.78125-32.632812 81.78125-72.890625zm0 0" fill="url(#w)"/></svg>