<svg height="512pt" viewBox="0 -12 512.00317 512" width="512pt" xmlns="http://www.w3.org/2000/svg" xmlns:xlink="http://www.w3.org/1999/xlink"><linearGradient id="a" gradientTransform="matrix(.87562 .491018 -.491018 .87562 158.442146 -88.932871)" gradientUnits="userSpaceOnUse" x1="151.62" x2="447.3108" y1="351.8889" y2="351.8889"><stop offset="0" stop-color="#acc130"/><stop offset="1" stop-color="#97a03b"/></linearGradient><linearGradient id="b"><stop offset="0" stop-color="#97a03b" stop-opacity="0"/><stop offset="1" stop-color="#575c55"/></linearGradient><linearGradient id="c" gradientTransform="matrix(.996894 .118664 -.118664 .996894 33.346893 -36.935959)" gradientUnits="userSpaceOnUse" x1="250.2612" x2="230.5151" xlink:href="#b" y1="434.8272" y2="370.2035"/><linearGradient id="d" gradientTransform="matrix(.996894 .118664 -.118664 .996894 33.346893 -36.935959)" gradientUnits="userSpaceOnUse" x1="282.4891" x2="93.7238" xlink:href="#b" y1="358.1277" y2="350.462"/><linearGradient id="e" gradientTransform="matrix(.996894 .118664 -.118664 .996894 33.346893 -36.935959)" gradientUnits="userSpaceOnUse" x1="123.539" x2="235.3719" y1="370.3888" y2="396.1964"><stop offset="0" stop-color="#97a03b"/><stop offset="1" stop-color="#6c7d47"/></linearGradient><linearGradient id="f" gradientUnits="userSpaceOnUse" x1="307.146755173" x2="226.512242094" xlink:href="#b" y1="422.9901137242" y2="274.3828530068"/><linearGradient id="g" gradientTransform="matrix(.980028 -.217851 .217851 .980028 -27.469672 109.417334)" gradientUnits="userSpaceOnUse" x1="262.6395" x2="527.0186" y1="223.2046" y2="223.2046"><stop offset="0" stop-color="#ff4b3e"/><stop offset="1" stop-color="#972e07"/></linearGradient><linearGradient id="h"><stop offset="0" stop-color="#972e07" stop-opacity="0"/><stop offset="1" stop-color="#582707"/></linearGradient><linearGradient id="i" gradientTransform="matrix(.822111 -.576151 .576151 .822111 -87.188348 231.942046)" gradientUnits="userSpaceOnUse" x1="389.7841" x2="372.1276" xlink:href="#h" y1="346.3038" y2="288.519"/><linearGradient id="j" gradientTransform="matrix(.822111 -.576151 .576151 .822111 -87.188348 231.942046)" gradientUnits="userSpaceOnUse" x1="418.6021" x2="249.8096" xlink:href="#h" y1="277.7206" y2="270.866"/><linearGradient id="k" gradientTransform="matrix(.822111 -.576151 .576151 .822111 -87.188348 231.942046)" gradientUnits="userSpaceOnUse" x1="276.4732" x2="376.472" y1="288.6828" y2="311.7594"><stop offset="0" stop-color="#972e07"/><stop offset="1" stop-color="#582707"/></linearGradient><linearGradient id="l" gradientUnits="userSpaceOnUse" x1="397.021868301" x2="296.570436903" xlink:href="#h" y1="256.1802412638" y2="155.7288098658"/><linearGradient id="m" gradientTransform="matrix(-.91146 .420944 -.420944 -.91146 481.558218 122.610871)" gradientUnits="userSpaceOnUse" x1="159.7678" x2="417.9507" y1="83.6963" y2="83.6963"><stop offset="0" stop-color="#ffe548"/><stop offset="1" stop-color="#ffb211"/></linearGradient><linearGradient id="n"><stop offset="0" stop-color="#ffb211" stop-opacity="0"/><stop offset=".214" stop-color="#ff951d" stop-opacity=".215686"/><stop offset=".5597" stop-color="#ff6d2f" stop-opacity=".560784"/><stop offset=".8338" stop-color="#ff543a" stop-opacity=".835294"/><stop offset="1" stop-color="#ff4b3e"/></linearGradient><linearGradient id="o" gradientTransform="matrix(-.68106 .737581 -.737581 -.68106 513.718745 -9.424793)" gradientUnits="userSpaceOnUse" x1="345.0297" x2="327.7871" xlink:href="#n" y1="175.6985" y2="119.2679"/><linearGradient id="p" gradientTransform="matrix(-.68106 .737581 -.737581 -.68106 513.718745 -9.424793)" gradientUnits="userSpaceOnUse" x1="373.1719" x2="208.3381" xlink:href="#n" y1="108.7231" y2="102.0292"/><linearGradient id="q" gradientTransform="matrix(-.68106 .737581 -.737581 -.68106 513.718745 -9.424793)" gradientUnits="userSpaceOnUse" x1="234.3738" x2="332.0284" y1="119.4294" y2="141.9651"><stop offset="0" stop-color="#ffb211"/><stop offset="1" stop-color="#ff4b3e"/></linearGradient><path d="m341.792969 368.308594c-10.621094-4.605469-22.507813-13.191406-23.640625-28.71875-.484375-6.691406-7.105469-11.21875-13.523438-9.265625-24.574218 7.484375-65.800781 13.589843-23.078125-48.597657 3.171875-4.621093 2.207031-10.976562-2.277343-14.335937-9.273438-6.949219-22.355469-22.253906-21.578126-53.039063.214844-8.46875-9.160156-13.726562-16.273437-9.125-25.859375 16.722657-45.742187 13.542969-56.503906 9.257813-5.207031-2.074219-11.136719.417969-13.421875 5.535156-30.773438 68.886719-47.066406 30.527344-53.5 5.65625-1.679688-6.492187-8.996094-9.78125-14.960938-6.707031-13.839844 7.136719-27.363281 1.472656-36.832031-5.1875-5.996094-4.21875-14.328125-1.070312-16.21875 6.011719-8.011719 30.023437-27.21875 43.90625-43.429687 50.324219-7.792969 3.085937-8.882813 13.75-1.949219 18.457031 14.097656 9.570312 30.128906 24.609375 35.527343 45.652343 4.863282 18.960938-.832031 32.003907-8.234374 40.496094-5.007813 5.75-2.207032 14.910156 5.148437 16.921875 40.617187 11.128907 63.703125 45.046875 71.5 58.578125 1.945313 3.367188 5.542969 5.386719 9.433594 5.285156 15.609375-.402343 56.589843 1.601563 87.269531 30.453126 5.554688 5.222656 14.828125 2.835937 17.121094-4.433594 3.390625-10.746094 11.542968-22.410156 30.257812-28.148438 20.769532-6.371094 41.964844-.539062 57.480469 6.496094 7.632813 3.460938 16.164063-3.03125 14.730469-11.292969-2.976563-17.175781-1.152344-40.800781 20.285156-63.296875 5.058594-5.308594 3.398438-14.058594-3.332031-16.976562zm0 0" fill="url(#a)"/><path d="m324.839844 448.582031c-2.976563-17.175781-1.152344-40.800781 20.285156-63.296875 1.746094-1.832031 2.671875-4.074218 2.886719-6.347656-177.792969-11.34375-225.578125 50.277344-237.277344 73.925781 1.964844 1.734375 4.527344 2.714844 7.246094 2.644531 15.609375-.402343 56.589843 1.601563 87.269531 30.453126 5.554688 5.222656 14.828125 2.835937 17.121094-4.433594 3.390625-10.746094 11.542968-22.410156 30.257812-28.148438 20.769532-6.371094 41.964844-.539062 57.480469 6.496094 7.632813 3.460938 16.164063-3.035156 14.730469-11.292969zm0 0" fill="url(#c)"/><path d="m222.371094 481.527344c3.390625-10.746094 11.542968-22.410156 30.257812-28.148438 20.769532-6.371094 41.964844-.539062 57.480469 6.496094 7.632813 3.460938 16.164063-3.03125 14.730469-11.292969-2.976563-17.175781-1.152344-40.800781 20.285156-63.296875 5.058594-5.308594 3.398438-14.058594-3.332031-16.976562-10.621094-4.601563-22.503907-13.1875-23.636719-28.71875-.488281-6.691406-7.109375-11.21875-13.527344-9.265625-24.574218 7.484375-65.800781 13.589843-23.078125-48.597657 3.171875-4.617187 2.207031-10.976562-2.277343-14.335937-9.269532-6.949219-22.355469-22.253906-21.574219-53.039063.09375-3.734374-1.679688-6.839843-4.300781-8.757812-35.746094 30.53125-100.089844 102.015625-143.992188 245.886719 2.042969 2.601562 5.199219 4.117187 8.574219 4.03125 15.609375-.40625 56.589843 1.597656 87.269531 30.449219 5.554688 5.222656 14.828125 2.835937 17.121094-4.433594zm0 0" fill="url(#d)"/><path d="m250.988281 385.070312c-.761719-.390624-1.511719-.824218-2.261719-1.273437 12.855469-2.476563 25.953126-3.953125 39.21875-4.738281l.085938-1.875c-14.796875-2.09375-29.90625-2.601563-45-1.785156-6.441406.382812-12.871094 1.046874-19.296875 1.871093 1.015625-2.25 1.84375-4.558593 2.914063-6.679687 2.496093-5.417969 4.40625-10.996094 5.757812-16.65625 1.304688-5.683594 2.324219-11.339844 2.511719-17.15625l-1.804688-.5c-2.96875 4.761718-6.003906 9.402344-9.242187 13.777344-3.222656 4.378906-6.53125 8.550781-9.882813 12.492187-1.75 1.910156-3.78125 3.597656-5.796875 5.140625-.972656.808594-1.84375 1.679688-2.671875 2.542969-.820312.875-1.472656 1.90625-2.09375 2.972656-.085937.125-.171875.265625-.261719.417969-3.128906 5.28125-8.128906 9.171875-14.089843 10.628906-4.625 1.128906-9.804688 2.433594-13.207031 3.414062-7.363282 2.105469-14.453126 5.046876-21.152344 8.742188-6.699219 3.695312-13.121094 7.914062-19.121094 12.738281-1.09375.890625-2.171875 1.800781-3.238281 2.726563l2.679687-8.40625c1.085938-3.433594 2.355469-6.804688 3.542969-10.207032 2.632813-7.328124 7.195313-18.644531 10.851563-27.542968 2.9375-7.148438 9.988281-11.5625 17.714843-11.503906.183594 0 .355469-.003907.519531-.011719 3.109376-.347657 6.175782-1.222657 8.773438-2.945313 2.6875-1.589844 5.054688-3.613281 7.597656-5.164062 4.984375-3.285156 9.546875-7.019532 13.679688-11.117188 4.105468-4.136718 7.957031-8.40625 11.179687-13.25l-1.269531-1.378906c-5.03125 2.484375-10.058594 4.824219-15.113281 6.832031-5.050781 2.023438-10.0625 3.824219-14.988281 5.402344-2.492188.703125-5.109376 1.0625-7.636719 1.308594-1.25.175781-2.449219.457031-3.609375.75-1.402344.378906-2.714844 1.078125-4.035156 1.789062-.007813-.007812 0 0-.007813-.007812 3.558594-7.550781 7.257813-15.042969 11.136719-22.449219 1.84375-3.5625 3.742187-7.105469 5.671875-10.625 1.476562-2.691406 4.636719-3.910156 7.59375-3.078125.015625.003906.03125.007813.050781.015625 2.699219.691406 5.488281.898438 8.183594.644531 2.691406-.261719 5.253906-1.117187 7.535156-2.472656 2.277344-1.367187 4.363281-2.964844 6.492188-4.355469 2.105468-1.433594 4.117187-2.949218 6.054687-4.523437 1.902344-1.636719 3.714844-3.335938 5.449219-5.089844 3.417968-3.585937 6.578125-7.308594 9.183594-11.488281l-.996094-.945313c-4.027344 2.523438-8.117188 4.871094-12.269532 6.902344-2.050781 1.046875-4.128906 2.011719-6.226562 2.875-2.058594.921875-4.132812 1.757813-6.214844 2.484375-2.074218.746094-4.285156 1.089844-6.394531 1.449219-2.117187.339843-4.050781.914062-5.925781 1.820312-1.6875.785157-3.371094 1.664063-5.132813 2.671875 2.746094-4.726562 5.535157-9.433594 8.40625-14.089844 3.832031-6.160156 7.761719-12.269531 11.859375-18.269531 4.082032-6 8.304688-11.949219 12.796875-17.617187l-1.390625-1.257813c-10.175781 10.625-19.328125 22.082031-28.125 33.835938-2.390625 3.226562-4.730468 6.484375-7.042968 9.769531.308593-2.179688.507812-4.199219.613281-6.191406.136719-2.078125-.058594-4.085938-.535157-6.175782-.457031-2.089843-.964843-4.269531-1.050781-6.472656-.105469-2.203125-.113281-4.4375-.027343-6.691406.011718-2.269531.128906-4.554688.332031-6.851562.328125-4.609376.972656-9.28125 1.800781-13.960938l-1.25-.566406c-2.898438 3.980468-5.167969 8.304687-7.207031 12.816406-.976563 2.265625-1.875 4.582031-2.675781 6.957031-.738282 2.386719-1.386719 4.824219-1.929688 7.3125-.488281 2.496094-1.1875 5.027344-1.601562 7.652344-.402344 2.621094-.234376 5.320313.53125 7.910156.777343 2.59375 2.011718 5.105469 3.664062 7.347657.015625.015624.027344.03125.039062.046874 2.207032 2.855469 2.476563 6.757813.480469 9.765626-3.023437 4.558593-5.984375 9.160156-8.882812 13.800781-3.378907 5.472656-6.65625 11.011719-9.859375 16.597656.191406-1.113281.347656-2.207031.402344-3.265625.125-1.226562.207031-2.445312.0625-3.636719-.160157-1.183593-.351563-2.402343-.65625-3.628906-.71875-2.433594-1.363282-4.996094-1.648438-7.570313-.382812-5.160156-.589844-10.480468-.609375-15.921874-.035156-5.4375.253906-10.976563.667969-16.574219l-1.753906-.660157c-3.28125 4.808594-5.792969 9.972657-8.09375 15.332032-2.25 5.371094-4 11-5.179688 16.851562-.484375 2.941406-1.472656 5.890625-1.941406 8.976563-.621094 3.054687-.285156 6.226562.558594 9.242187 1.0625 3.035156 2.375 5.96875 4.527343 8.609375.222657.304688.457031.601563.707031.894531 2.914063 3.472657 3.679688 8.25 1.660157 12.304688-5.507813 11.074219-15.21875 30.957031-19.449219 40.890625-.101562.226563-.195312.453125-.292969.675781-.054687-1.121094-.09375-2.242187-.179687-3.359375-.164063-1.824219-.335938-3.648437-.5625-5.460937-.207032-1.820313-.472656-3.628906-.867188-5.414063-.75-3.578125-1.589844-7.144531-2.671875-10.640625l-3.542969-10.386718c-.378906-1.222657-2.675781-7.480469-4.242187-11.664063-.886719-2.371094-.6875-5.011719.542969-7.226563 1.125-2.460937 2.296875-4.808593 2.957031-7.117187.402344-1.167969.757813-2.335937.890625-3.527344.109375-1.191406.203125-2.421875.183594-3.683593-.144532-2.535157-.191406-5.175782.117187-7.746094.800781-5.113282 1.808594-10.339844 3.023438-15.644532 1.203125-5.304687 2.742187-10.632812 4.417969-15.988281l-1.558594-1.042969c-4.289063 3.9375-7.910156 8.394532-11.367188 13.09375-3.410156 4.71875-6.394531 9.800782-8.871094 15.230469-.773437 1.863281-1.765624 3.683594-2.6875 5.558594l-.191406-.386719-1.199218-2.425781-1.328126-2.367187-2.65625-4.71875-2.695312-4.6875-1.34375-2.335938-1.472656-2.265625c-1.980469-3.011719-3.929688-6.027344-5.929688-9.003906-1.910156-3.027344-4.171875-5.835938-6.328125-8.6875l-6.570312-8.457031-1.554688 1.050781 4.75 9.5c1.585938 3.148437 3.273438 6.222656 4.59375 9.5l4.25 9.625 1.058594 2.394531.570313 1.519531c-2.710938-1.078125-5.53125-1.773437-8.117188-2.820312-5.605469-2.050781-11.320312-3.496094-17.074219-4.382813-5.769531-.835937-11.488281-1.390625-17.300781-1.101562l-.351562 1.839844c4.988281 2.570312 9.859374 5.214843 14.484374 8.085937 4.628907 2.855469 9.058594 5.8125 13.257813 8.832031 2.046875 1.585938 3.894531 3.476563 5.59375 5.359375.886719.898438 1.828125 1.699219 2.753906 2.453125.941407.746094 2.023438 1.3125 3.132813 1.847656 2.109375 1.152344 4.605468 1.964844 7.148437 2.894532 3.179688.886718 5.675781 3.355468 6.597657 6.53125l3.191406 11.003906c.460937 1.660156.789062 3.367188 1.1875 5.046875.761718 3.367187 1.527344 6.734375 2.078125 10.140625l1.175781 8.0625c-2.308594-.757812-4.722656-1.167969-7.136719-.984375-3.121093.074219-6.171875.683594-9.152343.792969-5.953126.4375-11.753907 1.464844-17.367188 3.019531-5.605469 1.605469-11.046875 3.449219-16.226562 6.101563l.433593 1.824218c5.605469.292969 11.136719.703125 16.527344 1.421875 5.394531.703125 10.644531 1.578125 15.71875 2.605469 2.515625.605469 4.976563 1.570312 7.296875 2.589844 1.179688.457031 2.363281.796875 3.519531 1.109375 1.164063.292969 2.382813.363281 3.617188.394531l.054687.003906c3.582032.269532 6.578125 2.816406 7.410156 6.3125 1.316407 5.519532 3.179688 13.167969 4.320313 17.359375l.070313.273438c1.398437 5.375 1.101562 11.050781-.851563 16.25l-1.664063 4.4375c-2.003906 5.480469-3.804687 11.03125-5.441406 16.632812l.195313-.132812s-11.144531 36.339843-4.464844 42.136719c6.679687 5.792968 21.816406-32.292969 21.816406-32.292969.964844-3.453125 1.84375-6.933594 2.773438-10.398438l1.605469-5.894531c2.332031-8.570312 8.785156-15.414062 17.207031-18.25l.132812-.042969c6.953125-2.375 21.246094-7.574219 21.597657-7.703125.929687 1.53125 1.839843 2.859375 2.699218 4.242188 1.609375 2.171875 3.097656 4.335937 4.800782 6.03125.828124.917968 1.675781 1.792968 2.660156 2.484375.988281.675781 2.015625 1.351562 3.132812 1.945312 2.289063 1.09375 4.625 2.332031 6.722656 3.84375 4.085938 3.175781 8.175782 6.585938 12.226563 10.21875 4.0625 3.617188 7.980469 7.542969 11.855469 11.601563l1.667968-.863282c-1.371093-5.65625-3.523437-10.984374-5.960937-16.28125-2.480469-5.265624-5.484375-10.335937-9.035156-15.132812-1.859375-2.332031-3.386719-5.042969-5.367188-7.457031-1.847656-2.507813-4.429687-4.382813-7.230469-5.777344-1.007812-.421875-2.027343-.808594-3.0625-1.152344 1.230469-.5625 2.460938-1.121093 3.6875-1.699219 6.511719-3.085937 13.097657-6.144531 19.914063-8.570312 1.109375-.394531 2.21875-.785156 3.332031-1.167969 8.015625-2.753906 16.761719-2.351562 24.5 1.105469.191406.085938.363282.15625.515625.214844 1.128907.496094 2.261719.945312 3.441407 1.171875 1.179687.210937 2.394531.402343 3.65625.484375 2.539062.0625 5.175781.230468 7.710937.746094 5.03125 1.21875 10.160156 2.648437 15.34375 4.292968 5.1875 1.632813 10.371094 3.601563 15.574219 5.710938l1.164062-1.46875c-3.570312-4.597656-7.71875-8.570313-12.117187-12.398438-4.429688-3.785156-9.253907-7.175781-14.460938-10.089844zm0 0" fill="url(#e)"/><path d="m341.792969 368.308594c-10.621094-4.601563-22.507813-13.191406-23.640625-28.71875-.484375-6.691406-7.105469-11.21875-13.523438-9.265625-24.574218 7.484375-65.800781 13.589843-23.078125-48.597657 3.171875-4.621093 2.207031-10.976562-2.28125-14.335937-6.667969-5-15.304687-14.320313-19.34375-30.609375-7.242187-1.71875-15.574219-6.484375-22.167969-10.878906-4.992187-3.328125-11.828124-1.15625-13.96875 4.445312-4.972656 13.007813-17.359374 17.296875-27.640624 18.5-6.511719.761719-10.1875 7.824219-7.226563 13.675782 12.558594 24.785156 8.03125 45.484374 1.054687 59.425781-2.304687 4.605469-.363281 9.710937 3.484376 12.128906l125.644531 125.644531c3.914062-1.941406 6.589843-6.226562 5.734375-11.140625-2.976563-17.175781-1.152344-40.804687 20.285156-63.300781 5.058594-5.304688 3.398438-14.054688-3.332031-16.972656zm0 0" fill="url(#f)"/><path d="m471.933594 187.554688c-9.824219 3.265624-22.863282 4.625-32.875-5.046876-4.3125-4.171874-11.421875-3.242187-14.535156 1.886719-11.917969 19.636719-35.753907 48.28125-44.351563-18.632812-.640625-4.96875-5.074219-8.628907-10.0625-8.195313-10.320313.894532-28.164063-1.503906-45.996094-22.488281-4.90625-5.773437-14.289062-3.6875-16.285156 3.621094-7.265625 26.558593-22.414063 36.289062-32.140625 39.851562-4.707031 1.722657-7.171875 6.914063-5.644531 11.6875 20.554687 64.257813-13.171875 48.40625-32.285157 35.664063-4.988281-3.328125-11.824218-1.15625-13.96875 4.445312-4.96875 13.007813-17.359374 17.296875-27.636718 18.5-6.511719.761719-10.191406 7.828125-7.226563 13.675782 12.554688 24.785156 8.03125 45.484374 1.054688 59.425781-3.355469 6.699219 2.277343 14.460937 9.703125 13.464843 15.097656-2.023437 34.746094-1.558593 50.890625 9.246094 14.542969 9.738282 18.519531 21.824219 18.652343 31.898438.089844 6.816406 7.417969 11.25 13.519532 8.210937 33.703125-16.796875 69.304687-7.953125 82.570312-3.585937 3.300782 1.085937 6.90625.285156 9.4375-2.097656 10.164063-9.574219 38.667969-32.664063 76.3125-31.726563 6.816406.167969 11.574219-6.949219 8.769532-13.164063-4.148438-9.179687-5.664063-21.8125 3.386718-36.792968 10.042969-16.628906 27.644532-25.375 42.179688-29.933594 7.152344-2.246094 8.964844-11.65625 3.089844-16.308594-12.226563-9.671875-25.09375-26.503906-24.21875-54.277344.207031-6.554687-6.117188-11.394531-12.339844-9.328124zm0 0" fill="url(#g)"/><path d="m508.488281 251.160156c-12.222656-9.671875-25.09375-26.507812-24.214843-54.277344.070312-2.261718-.648438-4.308593-1.859376-5.949218-125.253906 98.421875-120.371093 167.972656-114.070312 190.707031 2.34375-.011719 4.636719-.886719 6.40625-2.554687 10.164062-9.574219 38.667969-32.664063 76.316406-31.726563 6.816406.171875 11.574219-6.949219 8.765625-13.164063-4.148437-9.179687-5.664062-21.8125 3.386719-36.792968 10.046875-16.628906 27.648438-25.375 42.183594-29.933594 7.148437-2.246094 8.960937-11.65625 3.085937-16.308594zm0 0" fill="url(#i)"/><path d="m459.832031 334.195312c-4.148437-9.179687-5.664062-21.8125 3.386719-36.792968 10.046875-16.628906 27.648438-25.375 42.183594-29.933594 7.148437-2.246094 8.960937-11.65625 3.085937-16.308594-12.222656-9.671875-25.09375-26.503906-24.214843-54.277344.207031-6.554687-6.117188-11.394531-12.339844-9.328124-9.824219 3.265624-22.863282 4.628906-32.875-5.046876-4.3125-4.167968-11.421875-3.242187-14.535156 1.886719-11.917969 19.636719-35.753907 48.28125-44.351563-18.628906-.640625-4.972656-5.074219-8.632813-10.0625-8.199219-10.320313.898438-28.164063-1.503906-45.996094-22.488281-2.164062-2.542969-5.195312-3.558594-8.085937-3.273437-5.625 41.65625-5.894532 127.65625 50.605468 249.710937 2.917969.515625 5.921876-.359375 8.117188-2.425781 10.164062-9.574219 38.671875-32.667969 76.316406-31.726563 6.816406.167969 11.574219-6.953125 8.765625-13.167969zm0 0" fill="url(#j)"/><path d="m421.40625 252.855469c-.742188.195312-1.5.351562-2.265625.5 7.089844-9.3125 14.9375-18.109375 23.3125-26.535157l-1.058594-1.300781c-11.109375 7.421875-21.484375 16.089844-31.054687 25.632813-4.070313 4.09375-7.957032 8.371094-11.746094 12.753906-.664062-2.109375-1.492188-4.140625-2.042969-6.191406-1.5625-5.101563-3.617187-9.957032-6.089843-14.535156-2.519532-4.566407-5.210938-8.941407-8.554688-12.929688l-1.503906.742188c.863281 4.941406 1.609375 9.84375 2.058594 14.6875.460937 4.84375.742187 9.59375.859374 14.222656-.027343 2.3125-.378906 4.652344-.800781 6.878906-.164062 1.117188-.226562 2.21875-.265625 3.285156-.023437 1.074219.15625 2.152344.378906 3.234375.019532.128907.042969.277344.074219.433594 1.0625 5.382813.050781 10.957031-3.054687 15.480469-2.410156 3.511718-5.082032 7.46875-6.765625 10.148437-3.652344 5.792969-6.625 11.980469-8.886719 18.4375s-4.03125 13.09375-5.152344 19.886719c-.195312 1.242188-.371094 2.496094-.535156 3.75l-3.222656-7.199219c-1.324219-2.9375-2.484375-5.941406-3.722656-8.914062-2.613282-6.457031-6.320313-16.71875-9.1875-24.828125-2.300782-6.515625-.238282-13.660156 4.949218-18.226563.125-.109375.238282-.214843.339844-.316406 1.863281-2.085937 3.386719-4.496094 4.09375-7.191406.839844-2.664063 1.210938-5.421875 1.984375-7.972657 1.359375-5.160156 2.175781-10.367187 2.488281-15.5625.269532-5.207031.292969-10.347656-.445312-15.496093l-1.667969-.164063c-1.875 4.65625-3.828125 9.210938-6 13.5625-2.164063 4.359375-4.429687 8.546875-6.769531 12.535156-1.246094 1.953126-2.773438 3.753907-4.308594 5.421876-.730469.867187-1.363281 1.769531-1.960938 2.65625-.710937 1.085937-1.167968 2.335937-1.621093 3.597656-.007813 0 0 0-.011719 0-2.128906-7.15625-4.132812-14.355469-5.960938-21.601563-.894531-3.476562-1.738281-6.964843-2.550781-10.460937-.621093-2.675782.757813-5.371094 3.222657-6.578125.015624-.007813.027343-.015625.042968-.019531 2.210938-1.148438 4.191406-2.675782 5.839844-4.449219 1.636719-1.78125 2.835938-3.878907 3.546875-6.140625.703125-2.269532 1.140625-4.578125 1.730469-6.769532.550781-2.210937.988281-4.421874 1.339844-6.628906.292968-2.222656.484374-4.4375.597656-6.640625.140625-4.421875.027344-8.789062-.726563-13.125l-1.230469-.039062c-1.179687 4.082031-2.503906 8.082031-4.058593 11.910156-.746094 1.921875-1.554688 3.804687-2.4375 5.628906-.820313 1.84375-1.707031 3.636719-2.664063 5.359375-.9375 1.734375-2.203125 3.285156-3.394531 4.78125-1.207031 1.488282-2.15625 3.023438-2.863281 4.746094-.65625 1.527344-1.253906 3.117188-1.828125 4.839844-.992188-4.789063-1.9375-9.585938-2.800781-14.402344-1.117188-6.390625-2.140626-12.804688-2.984376-19.246094-.855468-6.429687-1.589843-12.914062-1.972656-19.367187l-1.675781-.007813c-.449219 13.144532.277344 26.234375 1.425781 39.3125.328125 3.574219.710938 7.144532 1.125 10.710938-1.089844-1.636719-2.164062-3.101563-3.28125-4.492188-1.144531-1.46875-2.472656-2.691406-4.039062-3.796875-1.546875-1.121093-3.1875-2.273437-4.554688-3.6875-1.386718-1.40625-2.722656-2.894531-4.007812-4.445312-1.34375-1.519531-2.628906-3.113281-3.863282-4.765625-2.53125-3.265625-4.886718-6.761719-7.121093-10.375l-1.171875.367187c.441406 4.378907 1.507812 8.613281 2.832031 12.835938.703125 2.09375 1.484375 4.171875 2.367187 6.234375.933594 2.027344 1.953126 4.039062 3.074219 6.023437 1.160157 1.953125 2.203125 4.058594 3.492188 6.054688 1.292969 1.984375 3.015625 3.683593 5.070312 4.957031 2.0625 1.265625 4.382813 2.203125 6.820313 2.707031.019531.003907.035156.007813.054687.011719 3.171875.585938 5.679688 3.027344 6.144531 6.222656.699219 4.835938 1.46875 9.667969 2.304688 14.488282 1.007812 5.664062 2.128906 11.308593 3.320312 16.941406-.535156-.859375-1.082031-1.679688-1.679687-2.417969-.644531-.890625-1.316406-1.753906-2.125-2.460937-.8125-.691407-1.664063-1.390626-2.601563-2.027344-1.925781-1.191406-3.886718-2.515625-5.609374-4.058594-3.328126-3.214844-6.640626-6.636719-9.894532-10.25-3.265625-3.605469-6.375-7.46875-9.433594-11.445312l-1.5625.605468c.675782 5.160156 2.082032 10.101563 3.742188 15.042969 1.703125 4.921875 3.890625 9.714844 6.59375 14.320313 1.429688 2.246093 2.53125 4.804687 4.058594 7.140624 1.402344 2.402344 3.519531 4.316407 5.878906 5.824219 2.519531 1.390625 5.140625 2.566407 8.148438 3.039063.332031.070312.667968.128906 1.003906.175781 4.011718.578125 7.371094 3.304687 8.445312 7.210937 2.925782 10.667969 8.308594 29.703126 11.410156 38.847657.070313.207031.140626.414062.210938.625-.707031-.714844-1.402344-1.441407-2.125-2.132813-1.199219-1.117187-2.398438-2.230468-3.632812-3.304687-1.222657-1.089844-2.480469-2.136719-3.804688-3.089844-2.632812-1.941406-5.316406-3.8125-8.121094-5.5l-8.554687-4.808594c-.980469-.589843-6.242188-3.390625-9.777344-5.246093-2.007813-1.050782-3.449219-2.929688-3.949219-5.140626-.714844-2.308593-1.335937-4.574218-2.273437-6.507812-.425781-1.015625-.886719-2.007812-1.511719-2.882812-.632812-.859376-1.304688-1.734376-2.070312-2.5625-1.605469-1.601563-3.214844-3.335938-4.539063-5.230469-2.515625-3.886719-4.960937-7.96875-7.308594-12.230469-2.359375-4.253906-4.511719-8.71875-6.585937-13.289062l-1.660156.234374c-.511719 5.179688-.269532 10.3125.226562 15.5.539062 5.179688 1.582031 10.347657 3.164062 15.441407.597657 1.703125 1.023438 3.507812 1.527344 5.308593l-.359375-.144531-2.246093-.902343-2.296876-.785157-4.582031-1.558593-4.589843-1.519532-2.289063-.757812-2.332031-.632813c-3.117188-.824219-6.210938-1.675781-9.320313-2.460937-3.078125-.882813-6.257812-1.40625-9.394531-2.023438l-9.421875-1.71875-.40625 1.625 8.828125 3.503906c2.933594 1.152344 5.890625 2.195313 8.722656 3.59375l8.570313 3.878907 2.132812.96875 1.285157.671875c-2.449219.894531-4.742188 2.113281-7.09375 2.957031-4.957032 1.976563-9.628907 4.417969-13.988282 7.257813-4.347656 2.878906-8.488281 5.921874-12.191406 9.578124l.863281 1.4375c4.855469-1.261718 9.683594-2.40625 14.472657-3.246093 4.789062-.855469 9.503906-1.527344 14.101562-2.019531 2.308594-.160157 4.667969-.003907 6.921875.238281 1.128906.070312 2.230469.042969 3.296875-.007813 1.074219-.0625 2.132812-.328125 3.191406-.636718 2.09375-.488282 4.238282-1.433594 6.488282-2.332032 2.648437-1.304687 5.785156-1.144531 8.289062.421875l8.6875 5.429688c1.296875.835937 2.53125 1.777343 3.800781 2.65625 2.515625 1.792969 5.03125 3.578125 7.429688 5.519531l5.589843 4.671875c-1.988281.871094-3.84375 2.039063-5.34375 3.597656-2.035156 1.910157-3.703124 4.136719-5.625 5.988281-3.707031 3.835938-6.960937 7.980469-9.773437 12.363282-2.777344 4.410156-5.308594 8.882812-7.179687 13.738281l1.375.957031c3.910156-3.144531 7.839843-6.167968 11.863281-8.902344 4.015625-2.746093 8.035156-5.292968 12.027343-7.632812 2.039063-1.097656 4.253907-1.921875 6.410157-2.628906 1.058593-.394532 2.050781-.875 3.003906-1.355469.949219-.5 1.804687-1.175781 2.648437-1.894531l.039063-.03125c2.550781-1.953125 6.0625-2.042969 8.703125-.207032 4.167969 2.894532 9.964844 6.882813 13.226562 8.992188l.210938.140625c4.132812 2.75 7.320312 6.710937 9.117188 11.335937l1.535156 3.953126c1.933594 4.847656 4.042968 9.621093 6.289062 14.328124l.050782-.207031s14.234374 30.863281 22.140624 30.746094c7.910157-.117187-4.710937-34.523437-4.710937-34.523437-1.414063-2.878907-2.902344-5.722657-4.347656-8.585938l-2.445313-4.886719c-3.550781-7.101562-3.332031-15.511719.589844-22.417969l.0625-.109374c3.21875-5.726563 9.644531-17.710938 9.800781-18.007813 1.535157.46875 2.933594.808594 4.328125 1.214844 2.371094.488281 4.652344 1.042969 6.796875 1.160156 1.097657.117187 2.1875.195313 3.253907.070313 1.058593-.140626 2.148437-.304688 3.246093-.574219 2.179688-.632813 4.472657-1.199219 6.773438-1.441407 4.617187-.320312 9.375-.488281 14.238281-.480468 4.863281-.011719 9.816406.269531 14.816406.664062l.597656-1.566406c-4.285156-2.953125-8.894531-5.222656-13.675781-7.296875-4.792969-2.035156-9.820312-3.621094-15.046875-4.703125-2.628906-.445312-5.261718-1.339844-8.019531-1.769531-2.726563-.570313-5.566406-.28125-8.265625.460937-.921875.320313-1.828125.664063-2.726562 1.054688.488281-1.105469.972656-2.210938 1.445312-3.328125 2.503906-5.9375 5.066406-11.902344 8.164062-17.582031.503907-.925782 1.011719-1.847657 1.523438-2.765626 3.699219-6.613281 9.769531-11.558593 16.984375-13.867187.179687-.054687.339844-.109375.472656-.164063 1.050781-.34375 2.074219-.71875 2.996094-1.269531.910156-.5625 1.835937-1.160156 2.726563-1.855469 1.726562-1.472656 3.582031-2.933593 5.582031-4.101562 4.078125-2.1875 8.347656-4.289062 12.785156-6.285156 4.433594-2.003906 9.0625-3.78125 13.785156-5.476563l-.101562-1.675781c-5.117188-.933594-10.253907-1.109375-15.464844-1.039062-5.199219.117187-10.433594.734374-15.640625 1.894531zm0 0" fill="url(#k)"/><path d="m508.488281 251.160156c-12.222656-9.671875-25.09375-26.507812-24.214843-54.277344.207031-6.554687-6.117188-11.394531-12.339844-9.328124-9.824219 3.265624-22.863282 4.625-32.875-5.046876-4.3125-4.171874-11.421875-3.242187-14.535156 1.886719-11.917969 19.636719-35.753907 48.28125-44.351563-18.632812-.636719-4.96875-5.070313-8.628907-10.0625-8.195313-10.320313.894532-28.164063-1.503906-45.996094-22.488281-4.90625-5.773437-14.289062-3.6875-16.285156 3.621094-7.265625 26.558593-22.414063 36.289062-32.140625 39.851562-4.707031 1.722657-7.171875 6.914063-5.644531 11.6875 20.554687 64.257813-13.171875 48.40625-32.285157 35.664063-4.984374-3.324219-11.804687-1.164063-13.957031 4.421875.574219 1.507812 1.152344 3.066406 1.738281 4.703125l145.667969 146.148437c1.296875-.421875 2.511719-1.117187 3.542969-2.089843 10.164062-9.574219 38.667969-32.664063 76.316406-31.726563 6.816406.171875 11.574219-6.949219 8.765625-13.160156-4.148437-9.179688-5.664062-21.8125 3.386719-36.796875 10.046875-16.628906 27.648438-25.371094 42.183594-29.933594 7.148437-2.246094 8.960937-11.65625 3.085937-16.308594zm0 0" fill="url(#l)"/><path d="m133.449219 233.257812c8.699219-5.148437 20.859375-9.15625 32.417969-1.996093 4.980468 3.082031 11.574218.722656 13.484374-4.816407 7.296876-21.210937 24.105469-53.492187 46.1875 8.582032 1.640626 4.609375 6.628907 7.183594 11.304688 5.738281 9.660156-2.996094 27.1875-4.40625 48.554688 11.921875 5.878906 4.492188 14.398437.554688 14.792968-6.832031 1.425782-26.855469 13.863282-39.28125 22.40625-44.695313 4.136719-2.621094 5.410156-8.089844 2.964844-12.328125-32.941406-57.058593 2.53125-48.921875 23.410156-40.726562 5.457032 2.140625 11.527344-1.351563 12.410156-7.140625 2.046876-13.441406 12.980469-20.105469 22.542969-23.386719 6.054688-2.078125 8.101563-9.582031 4.058594-14.546875-17.121094-21.050781-17.097656-41.746094-13.328125-56.492188 1.8125-7.089843-5.171875-13.328124-12.050781-10.839843-13.992188 5.066406-32.839844 8.695312-50.484375 1.726562-15.898438-6.273437-22.203125-16.984375-24.414063-26.570312-1.5-6.488281-9.410156-9.199219-14.605469-5.03125-28.679687 23.019531-64.488281 21.960937-78.054687 20.542969-3.375-.351563-6.648437 1.160156-8.570313 3.957031-7.714843 11.246093-30.128906 39.195312-66.25 46.105469-6.539062 1.25-9.605468 9.03125-5.636718 14.378906 5.859375 7.902344 9.929687 19.640625 4.398437 35.816406-6.140625 17.949219-21.125 29.945312-34.046875 37.3125-6.359375 3.625-6.136718 12.984375.433594 16.203125 13.671875 6.695313 29.441406 20.09375 34.363281 46.777344 1.164063 6.292969 8.199219 9.601562 13.710938 6.339843zm0 0" fill="url(#m)"/><path d="m85.375 180.140625c13.671875 6.695313 29.441406 20.089844 34.363281 46.773437.402344 2.175782 1.511719 3.980469 3.007813 5.292969 99.121094-119.898437 80.039062-185.257812 69.3125-205.648437-2.234375.5-4.242188 1.8125-5.582032 3.765625-7.714843 11.246093-30.128906 39.191406-66.25 46.105469-6.539062 1.25-9.605468 9.03125-5.636718 14.378906 5.859375 7.902344 9.929687 19.640625 4.398437 35.816406-6.140625 17.949219-21.125 29.945312-34.046875 37.3125-6.359375 3.621094-6.136718 12.984375.433594 16.203125zm0 0" fill="url(#o)"/><path d="m114.589844 90.808594c5.859375 7.898437 9.925781 19.640625 4.394531 35.816406-6.136719 17.949219-21.121094 29.945312-34.046875 37.3125-6.355469 3.621094-6.136719 12.984375.4375 16.203125 13.671875 6.695313 29.441406 20.089844 34.363281 46.773437 1.164063 6.296876 8.199219 9.609376 13.710938 6.34375 8.695312-5.152343 20.855469-9.15625 32.417969-1.996093 4.980468 3.082031 11.574218.722656 13.480468-4.820313 7.300782-21.210937 24.109375-53.488281 46.1875 8.585938 1.640625 4.609375 6.628906 7.183594 11.304688 5.734375 9.664062-2.996094 27.191406-4.402344 48.558594 11.925781 2.59375 1.980469 5.695312 2.316406 8.394531 1.445312-3.273438-40.917968-20.847657-123.042968-100.074219-227.804687-2.890625.113281-5.578125 1.566406-7.242188 3.996094-7.71875 11.246093-30.128906 39.191406-66.25 46.105469-6.539062 1.25-9.605468 9.03125-5.636718 14.378906zm0 0" fill="url(#p)"/><path d="m168.125 160.460938c.667969-.335938 1.359375-.644532 2.0625-.941407-4.839844 10.355469-10.503906 20.375-16.746094 30.15625l1.28125 1.023438c9.058594-9.390625 17.164063-19.8125 24.320313-30.90625 3.03125-4.75 5.855469-9.636719 8.5625-14.601563 1.070312 1.871094 2.28125 3.636719 3.230469 5.480469 2.554687 4.546875 5.515624 8.753906 8.828124 12.609375 3.351563 3.835938 6.828126 7.453125 10.84375 10.566406l1.28125-1.019531c-1.847656-4.539063-3.574218-9.0625-5.007812-13.59375-1.445312-4.523437-2.699219-9-3.769531-13.390625-.453125-2.214844-.605469-4.519531-.660157-6.730469-.074218-1.101562-.246093-2.164062-.429687-3.191406-.199219-1.03125-.59375-2.019531-1.03125-3.007813-.042969-.121093-.101563-.257812-.164063-.398437-2.128906-4.917969-2.316406-10.449219-.292968-15.40625 1.570312-3.851563 3.300781-8.183594 4.351562-11.089844 2.285156-6.285156 3.835938-12.804687 4.660156-19.433593.820313-6.632813 1.125-13.335938.789063-20.046876-.070313-1.230468-.160156-2.460937-.265625-3.6875l4.566406 6.199219c1.875 2.53125 3.605469 5.152344 5.40625 7.738281 3.832032 5.617188 9.496094 14.640626 13.914063 21.785157 3.546875 5.738281 3.058593 12.988281-.941407 18.421875-.097656.128906-.183593.253906-.261718.371094-1.347656 2.375-2.300782 4.996093-2.414063 7.714843-.25 2.710938-.035156 5.421875-.242187 8.015625-.226563 5.207032.074218 10.34375.851562 15.371094.824219 5.023438 1.867188 9.929688 3.636719 14.691406l1.628906-.1875c.824219-4.832031 1.742188-9.585937 2.914063-14.191406 1.160156-4.605469 2.453125-9.070312 3.859375-13.363281.785156-2.121094 1.867187-4.160157 2.988281-6.070313.519531-.976562.933594-1.96875 1.320312-2.9375.453126-1.183594.628907-2.472656.800782-3.769531h.011718c3.515626 6.386719 6.917969 12.839844 10.164063 19.375 1.574219 3.132813 3.109375 6.285156 4.609375 9.457031 1.144531 2.425782.386719 5.277344-1.714844 6.945313-.011718.007812-.023437.019531-.035156.027343-1.875 1.554688-3.449219 3.421876-4.652344 5.457032-1.191406 2.035156-1.902344 4.289062-2.113281 6.59375-.199219 2.308594-.136719 4.605468-.246094 6.820312-.0625 2.226563-.023437 4.425782.097657 6.605469.179687 2.179687.457031 4.332031.804687 6.460937.785156 4.25 1.796875 8.390626 3.417969 12.375l1.179687-.21875c.277344-4.140624.714844-8.234374 1.40625-12.210937.308594-1.988281.691407-3.953125 1.15625-5.878906.402344-1.925781.875-3.820313 1.429688-5.664063.535156-1.851562 1.421875-3.589844 2.25-5.265625.84375-1.671875 1.429687-3.332031 1.75-5.121093.308593-1.597657.550781-3.234376.742187-5 1.9375 4.363281 3.832032 8.746093 5.65625 13.164062 2.390625 5.867188 4.695313 11.773438 6.835938 17.746094 2.152344 5.960937 4.195312 11.992187 5.902344 18.074218l1.601562-.339843c-2.300781-12.636719-5.710938-24.980469-9.515625-37.222657-1.054687-3.34375-2.160156-6.671874-3.296875-9.988281 1.382812 1.335938 2.707031 2.511719 4.066406 3.605469 1.394532 1.164062 2.914063 2.054688 4.640625 2.789062 1.710938.746094 3.511719 1.503907 5.113281 2.570313 1.613282 1.054687 3.195313 2.199219 4.746094 3.410156 1.59375 1.171875 3.152344 2.429688 4.671875 3.746094 3.09375 2.59375 6.066407 5.445313 8.949219 8.429687l1.042969-.597656c-1.332031-4.085937-3.226563-7.90625-5.367188-11.660156-1.105469-1.851562-2.28125-3.675781-3.550781-5.457031-1.3125-1.746094-2.703125-3.453125-4.183594-5.109375-1.511718-1.625-2.945312-3.417969-4.585937-5.054688-1.648438-1.628906-3.644531-2.890625-5.871094-3.679687-2.230469-.78125-4.636719-1.191407-7.070313-1.171875-.019531 0-.035156 0-.050781.003906-3.152343.097656-6.050781-1.710938-7.15625-4.664062-1.671875-4.472657-3.40625-8.925782-5.203125-13.351563-2.136718-5.195313-4.378906-10.351563-6.683594-15.476563.6875.707032 1.382813 1.375 2.105469 1.957032.800781.71875 1.621094 1.398437 2.539063 1.90625.917968.496094 1.878906.984375 2.902344 1.398437 2.085937.738281 4.230468 1.59375 6.195312 2.710938 3.84375 2.375 7.714844 4.953125 11.570312 7.726562 3.863282 2.765625 7.628907 5.804688 11.375 8.96875l1.367188-.902343c-1.71875-4.785157-4.082031-9.210938-6.695312-13.582032-2.644532-4.339844-5.726563-8.460937-9.257813-12.292968-1.832031-1.851563-3.410156-4.0625-5.355469-5.976563-1.839844-2.003906-4.253906-3.390625-6.816406-4.339844-2.691406-.800781-5.441406-1.378906-8.410156-1.210937-.328125.003906-.660156.015625-.996094.039062-3.945312.285156-7.71875-1.621094-9.550781-5.128906-5.007813-9.570312-14.089844-26.621094-18.945313-34.707031-.109375-.183594-.222656-.367188-.328125-.550781.820313.535156 1.632813 1.082031 2.46875 1.59375 1.371094.816406 2.75 1.632812 4.148438 2.402343 1.394531.785157 2.808593 1.523438 4.273437 2.160157 2.914063 1.304687 5.863282 2.535156 8.890625 3.5625l9.160157 2.816406c1.058593.355468 6.660156 1.941406 10.417968 2.976562 2.132813.589844 3.898438 2.082032 4.835938 4.085938 1.160156 2.058594 2.222656 4.089844 3.515625 5.742187.617187.882813 1.261719 1.730469 2.039062 2.433594.785157.691406 1.605469 1.386719 2.511719 2.019531 1.863281 1.195313 3.757812 2.515625 5.417969 4.050782 3.203125 3.1875 6.382812 6.578124 9.507812 10.152343 3.136719 3.570313 6.113281 7.390625 9.042969 11.320313l1.535156-.570313c-.585937-5.046875-1.882812-9.894531-3.433594-14.742187-1.585937-4.832032-3.652343-9.546875-6.222656-14.078125-.921875-1.503907-1.699218-3.136719-2.554687-4.75l.371093.0625 2.332032.398437 2.351562.269532 4.699219.539062 4.691406.5 2.34375.246094 2.355469.117187c3.144531.144531 6.277344.3125 9.40625.421875 3.117188.199219 6.261719.042969 9.386719-.023437l9.34375-.3125.054687-1.632813-9.152344-1.511718c-3.039062-.492188-6.078124-.875-9.070312-1.621094l-8.984375-1.925782-2.234375-.480468-1.363281-.375c2.148437-1.363282 4.085937-3.003906 6.152343-4.292969 4.320313-2.914063 8.269532-6.210937 11.847657-9.828125 3.546875-3.652344 6.871093-7.410156 9.644531-11.667969l-1.121094-1.195312c-4.375 2.214843-8.742187 4.304687-13.140625 6.101562-4.390625 1.808594-8.75 3.425781-13.039062 4.847657-2.167969.636718-4.453125.976562-6.652344 1.210937-1.09375.164063-2.140625.421875-3.148437.6875-1.007813.285156-1.964844.757813-2.910157 1.273437-1.894531.898438-3.75 2.246094-5.707031 3.566407-2.257812 1.796875-5.285156 2.296875-8 1.320312l-9.414062-3.382812c-1.414063-.527344-2.785157-1.167969-4.179688-1.746094-2.773438-1.1875-5.542969-2.371094-8.234375-3.726563l-6.304687-3.296874c1.71875-1.246094 3.246093-2.742188 4.355468-4.542969 1.542969-2.246094 2.675782-4.714844 4.125-6.878907 2.742188-4.429687 4.988282-9.0625 6.765625-13.824218 1.734375-4.789063 3.222657-9.582032 4-14.601563l-1.511719-.628906c-3.078124 3.8125-6.203124 7.511719-9.472656 10.957031-3.261718 3.453125-6.574218 6.71875-9.898437 9.777344-1.71875 1.46875-3.660157 2.714844-5.570313 3.835938-.929687.597656-1.777344 1.261718-2.585937 1.921874-.804688.671876-1.480469 1.496094-2.132813 2.351563l-.03125.039063c-2.027344 2.394531-5.363281 3.207031-8.261718 2.003906-4.578126-1.898438-10.941407-4.503906-14.488282-5.839844l-.230468-.089844c-4.515626-1.765625-8.375-4.886718-11.054688-8.929687l-2.285156-3.453125c-2.84375-4.226563-5.847656-8.34375-8.96875-12.367188l-.007813.203125s-19.980469-26.5-27.503906-24.7460935c-7.519531 1.7500005 11.652344 31.9687505 11.652344 31.9687505 1.949219 2.453124 3.957031 4.859374 5.933593 7.292968l3.34375 4.15625c4.867188 6.042969 6.398438 14.109375 4.085938 21.515625l-.035156.117188c-1.886719 6.132812-5.53125 18.902343-5.617188 19.21875-1.5625-.128907-2.964844-.164063-4.382812-.261719-2.363282.023438-4.65625-.035156-6.726563.300781-1.070312.113281-2.125.269531-3.117187.605469-.984375.355469-1.988282.738281-2.980469 1.222656-1.949219 1.054688-4.019531 2.070313-6.167969 2.78125-4.335937 1.261719-8.84375 2.40625-13.484375 3.410156-4.640625 1.015626-9.421875 1.773438-14.28125 2.4375l-.242187 1.617188c4.699218 1.933594 9.570312 3.140625 14.5625 4.128906 4.996094.949219 10.121094 1.421875 15.332031 1.367188 2.601563-.121094 5.300781.1875 8.023437.027344 2.71875-.023438 5.367188-.890626 7.789063-2.15625.816406-.492188 1.613281-1.015626 2.382813-1.570313-.234376 1.15625-.464844 2.3125-.683594 3.476563-1.160156 6.1875-2.371094 12.410156-4.148438 18.472656-.285156.984375-.582031 1.972656-.878906 2.953125-2.160156 7.078125-6.925781 13.058593-13.335938 16.757812-.160156.089844-.296874.175781-.414062.253907-.929688.542968-1.832031 1.113281-2.59375 1.832031-.753906.726562-1.511719 1.488281-2.21875 2.335937-1.339844 1.761719-2.8125 3.539063-4.476562 5.070313-3.4375 2.933593-7.078126 5.824219-10.898438 8.648437-3.8125 2.832032-7.863281 5.488282-12.015625 8.085938l.4375 1.578125c5.082031-.171875 10.015625-1.070313 14.976563-2.214844 4.945312-1.1875 9.8125-2.863281 14.539062-5.054687zm0 0" fill="url(#q)"/></svg>