<svg height="511pt" viewBox="-82 0 511 511.99983" width="511pt" xmlns="http://www.w3.org/2000/svg" xmlns:xlink="http://www.w3.org/1999/xlink"><linearGradient id="a"><stop offset="0" stop-color="#f2e9dc"/><stop offset=".2282" stop-color="#f0e4d7"/><stop offset=".5158" stop-color="#ead7c7"/><stop offset=".8338" stop-color="#e0c2ad"/><stop offset="1" stop-color="#dab49d"/></linearGradient><linearGradient id="b" gradientTransform="matrix(1.002717 .0500957 -.0500957 1.002717 -59.52277 -61.78003)" gradientUnits="userSpaceOnUse" x1="160.4654" x2="277.9601" xlink:href="#a" y1="367.9862" y2="367.9862"/><linearGradient id="c"><stop offset="0" stop-color="#dab49d" stop-opacity="0"/><stop offset=".2054" stop-color="#d8b198" stop-opacity=".203922"/><stop offset=".4642" stop-color="#d3a788" stop-opacity=".462745"/><stop offset=".7504" stop-color="#ca976e" stop-opacity=".74902"/><stop offset="1" stop-color="#c08552"/></linearGradient><linearGradient id="d" gradientUnits="userSpaceOnUse" x1="92.1357202894" x2="220.5337299702" xlink:href="#c" y1="343.2232605572" y2="289.7752564148"/><linearGradient id="e" gradientUnits="userSpaceOnUse" x1="67.1071416918" x2="194.6583431656" xlink:href="#c" y1="362.478886086" y2="295.068535552"/><linearGradient id="f" gradientUnits="userSpaceOnUse" x1="214.989470333" x2="135.8411633828" xlink:href="#c" y1="283.7414844104" y2="201.8793755098"/><linearGradient id="g"><stop offset="0" stop-color="#dab49d"/><stop offset=".3389" stop-color="#d9b29a"/><stop offset=".5402" stop-color="#d6ad92"/><stop offset=".7054" stop-color="#d1a484"/><stop offset=".8511" stop-color="#ca9870"/><stop offset=".9827" stop-color="#c18856"/><stop offset="1" stop-color="#c08552"/></linearGradient><radialGradient id="h" cx="228.9467" cy="35.1126" gradientTransform="matrix(1.003922 0 0 .932844 -81.896869 3.700854)" gradientUnits="userSpaceOnUse" r="276.7159" xlink:href="#g"/><linearGradient id="i" gradientUnits="userSpaceOnUse" x1="147.1950192418" x2="64.3161381396" xlink:href="#c" y1="429.636248276" y2="374.8402780642"/><linearGradient id="j" gradientUnits="userSpaceOnUse" x1="23.8009583778" x2="110.3553987064" xlink:href="#a" y1="361.3869201266" y2="361.3869201266"/><linearGradient id="k" gradientUnits="userSpaceOnUse" x1="89.4353708938" x2="17.3575861974" xlink:href="#c" y1="369.0407210624" y2="326.2180265836"/><radialGradient id="l" cx="1085.041" cy="-151.841" gradientTransform="matrix(-.704753 .504471 .61691 .735875 862.624166 -163.440241)" gradientUnits="userSpaceOnUse" r="82.3852" xlink:href="#g"/><radialGradient id="m" cx="411.1035" cy="111.2961" gradientTransform="matrix(1.003922 0 0 1.022193 -81.896869 -6.23807)" gradientUnits="userSpaceOnUse" r="140.4383"><stop offset="0" stop-color="#c08552"/><stop offset=".3165" stop-color="#c18755" stop-opacity=".682353"/><stop offset=".5223" stop-color="#c48c5d" stop-opacity=".478431"/><stop offset=".6966" stop-color="#c9956c" stop-opacity=".301961"/><stop offset=".8524" stop-color="#d0a381" stop-opacity=".14902"/><stop offset=".996" stop-color="#dab39c" stop-opacity=".003922"/><stop offset="1" stop-color="#dab49d" stop-opacity="0"/></radialGradient><linearGradient id="n" gradientTransform="matrix(.954729 .310513 -.310513 .954729 114.439269 -417.408002)" gradientUnits="userSpaceOnUse" x1="402.6819" x2="424.9797" xlink:href="#a" y1="761.5004" y2="753.1723"/><linearGradient id="o" gradientTransform="matrix(.954729 .310513 -.310513 .954729 114.439269 -417.408002)" gradientUnits="userSpaceOnUse" x1="440.3275" x2="386.2918" xlink:href="#c" y1="758.317" y2="723.1066"/><radialGradient id="p" cx="1010.4681" cy="481.4278" gradientTransform="matrix(-.997998 .109227 .109227 .997998 1236.817358 -286.151783)" gradientUnits="userSpaceOnUse" r="103.5005" xlink:href="#g"/><linearGradient id="q" gradientUnits="userSpaceOnUse" x1="163.6371533656" x2="180.4624845168" y1="446.9038070682" y2="560.194296532"><stop offset="0" stop-color="#c08552"/><stop offset="1" stop-color="#895738"/></linearGradient><path d="m145.550781 140.714844s-54.113281 93.292968-65.433593 235.339844c-11.320313 142.046874 49.101562 136.867187 89.261718 120.484374 40.15625-16.386718 21.667969-60.585937 9.175782-125.039062-12.488282-64.449219-4.105469-174.699219-.617188-193.925781 3.488281-19.226563-18.613281-64.734375-32.386719-36.859375zm0 0" fill="url(#b)"/><path d="m134.640625 382.277344c-5.675781-129.484375 28.808594-222.632813 35.070313-238.375-6.945313-11.945313-16.757813-18.171875-24.160157-3.1875 0 0-54.113281 93.296875-65.433593 235.339844-11.320313 142.046874 49.101562 136.867187 89.261718 120.484374.484375-.199218.949219-.402343 1.417969-.609374-18.613281-13.992188-33.234375-46.890626-36.15625-113.652344zm0 0" fill="url(#d)"/><path d="m114.601562 376.054688c8.960938-112.421876 44.71875-194.292969 59.246094-223.558594-6.625-16.753906-19.253906-30.082032-28.296875-11.78125 0 0-54.113281 93.292968-65.433593 235.339844-9.789063 122.828124 34.0625 135.574218 72.074218 126.179687-25.164062-8.421875-44.414062-40.546875-37.589844-126.179687zm0 0" fill="url(#e)"/><path d="m145.550781 140.714844s-25.828125 44.539062-45.53125 118.917968l73.296875 68.109376c-4.050781-61.695313 1.839844-134.84375 4.621094-150.167969 3.488281-19.226563-18.613281-64.734375-32.386719-36.859375zm0 0" fill="url(#f)"/><path d="m208.542969 5.921875c-2.089844 1.304687-4.214844 2.550781-6.359375 3.773437-11.480469 6.554688-49.582032 31.855469-88.824219 97.328126-32.242187 53.792968-82.917969 56.0625-107.03125 81.671874-24.113281 25.609376 98.179687 100.832032 229.082031 80.027344 130.902344-20.808594 24.660156-74.894531 3.105469-148.335937-10.941406-37.285157-4.898437-63.105469 5.507813-82.140625 12.558593-22.984375-6.304688-50.546875-35.480469-32.324219zm0 0" fill="url(#h)"/><path d="m178.144531 491.90625c14.832031-10.039062 17.410157-26.328125 14.839844-48.050781l-92.839844-86.273438c-2.589843-2.761719-5.59375-4.960937-8.769531-5.75-2.425781-.601562-4.988281-.171875-7.484375.0625-.472656.046875-.9375.066407-1.398437.078125-.921876 7.863282-1.722657 15.886719-2.375 24.082032-.667969 8.363281-1.082032 16.210937-1.269532 23.582031zm0 0" fill="url(#i)"/><path d="m50.335938 323.722656c6.28125 11.25 17.144531 29.726563 33.554687 28.171875 2.496094-.234375 5.058594-.664062 7.484375-.0625 7.585938 1.882813 14.242188 11.777344 16.40625 18.371094 4.65625 14.195313-5.523438 27.4375-21.082031 29.003906-19.980469 2.007813-36.136719-17.433593-43.085938-32.707031-5.71875-12.574219-5.144531-27.089844-.046875-39.761719.546875-1.355469 1.289063-2.730469 2.839844-3.238281.40625-.136719 3.75-.105469 3.929688.222656zm0 0" fill="url(#j)"/><path d="m91.375 351.832031c-2.425781-.601562-4.988281-.171875-7.484375.0625-16.410156 1.554688-27.269531-16.921875-33.554687-28.171875-.179688-.324218-3.523438-.359375-3.929688-.222656-1.550781.507812-2.292969 1.882812-2.839844 3.238281-2.003906 4.984375-3.296875 10.257813-3.796875 15.585938l57.648438 53.566406c9.070312-5.089844 13.828125-15.125 10.359375-25.6875-2.160156-6.597656-8.816406-16.488281-16.402344-18.371094zm0 0" fill="url(#k)"/><path d="m37.480469 290.441406s16.214843-.132812 36.773437 8.550782c20.558594 8.683593 9.039063 27.953124-36.148437 43.886718-45.183594 15.933594-40.898438-16.019531-31.550781-30.628906 9.347656-14.605469 18.953124-22.859375 30.925781-21.808594zm0 0" fill="url(#l)"/><path d="m244.023438 38.242188c7.003906-12.8125 4.234374-27.050782-4.644532-33.980469-64.496094 20.460937-111.863281 88.308593-111.863281 168.863281 0 35.914062 9.421875 69.296875 25.566406 97.085938 26.113281 3.011718 54.015625 3.011718 82.328125-1.492188 130.902344-20.804688 24.660156-74.890625 3.105469-148.332031-10.945313-37.289063-4.898437-63.105469 5.507813-82.144531zm0 0" fill="url(#m)"/><path d="m291.238281 396.320312s-10.511719 18.664063-3.335937 41.523438c7.171875 22.859375 12.894531 29.820312-7.84375 35.011719-20.742188 5.1875-31.503906 2.863281-31.691406-20.175781-.1875-23.039063 11.398437-53.207032 16.882812-56.433594 5.484375-3.226563 28.941406-4.921875 25.988281.074218zm0 0" fill="url(#n)"/><path d="m291.238281 396.320312c2.953125-4.992187-20.503906-3.300781-25.988281-.074218-1.898438 1.117187-4.53125 5.46875-7.148438 11.628906l31.351563 61.570312c9.003906-5.167968 4.199219-13.273437-1.550781-31.601562-7.175782-22.859375 3.335937-41.523438 3.335937-41.523438zm0 0" fill="url(#o)"/><path d="m305.769531 347.246094s19.5 10.226562 36.988281 33.527344c17.492188 23.300781-11.996093 38.40625-79 28.0625-67.003906-10.34375-35.820312-44.886719-12.738281-55.945313 23.085938-11.058594 41.300781-14.539063 54.75-5.644531zm0 0" fill="url(#p)"/><path d="m328.003906 512h-305.46875c-9.039062 0-16.492187-7.269531-16.511718-16.308594 0-.054687 0-.109375 0-.167968 0-22.476563 8.777343-42.90625 23.09375-58.039063 5.425781-5.542969 11.511718-10.4375 18.136718-14.542969 14.699219-9.121094 32.039063-14.390625 50.613282-14.390625 27.402343 0 52.117187 11.457031 69.628906 29.84375 4.378906 4.597657 10.902344 6.523438 17.046875 4.878907 4.128906-1.113282 8.480469-1.707032 12.96875-1.707032 14.183593 0 26.980469 5.933594 36.050781 15.441406 4.761719 5.003907 12.027344 6.71875 18.519531 4.363282 7.039063-2.554688 14.628907-3.960938 22.546875-3.960938 28.175782 0 52.226563 17.664063 61.695313 42.5 2.222656 5.839844-2.078125 12.089844-8.320313 12.089844zm0 0" fill="url(#q)"/></svg>